<?xml version="1.0" encoding="UTF-8"?><svg id="_レイヤー_2" xmlns="http://www.w3.org/2000/svg" viewBox="0 0 37.46 41.09"><defs><style>.cls-1{fill:#fff;stroke-width:0px;}</style></defs><g id="_レイヤー_1-2"><path class="cls-1" d="M6.68,37.3c-2.32,0-4.2-1.88-4.2-4.2V12.48h6.5c1.94,0,3.5-1.56,3.5-3.5V2.47h13.22c2.32,0,4.2,1.88,4.2,4.2v9.99c.81.49,1.57,1.09,2.25,1.77.07.07.15.15.22.23V6.68c0-3.69-2.99-6.68-6.67-6.68h-14.24l-.73.72L.72,10.73l-.72.73v21.64c0,3.68,3,6.68,6.68,6.68h14.24s-2.43-2.1-3.1-2.47H6.68Z"/><path class="cls-1" d="M36.75,37.29s-2.94-2.57-3.64-3.27c-1.03-1.03-1.44-1.52-1.08-2.36,1.59-3.25,1.04-7.28-1.66-9.99-3.4-3.4-8.91-3.4-12.31,0-3.4,3.4-3.4,8.91,0,12.31,2.7,2.7,6.74,3.25,9.99,1.66.84-.36,1.33.05,2.36,1.08.7.7,3.27,3.64,3.27,3.64,1.33,1.33,2.36.51,2.98-.1.61-.62,1.43-1.64.1-2.97ZM27.77,31.39c-1.97,1.97-5.16,1.97-7.13,0-1.97-1.97-1.97-5.16,0-7.13,1.97-1.97,5.16-1.97,7.13,0,1.97,1.97,1.97,5.16,0,7.13Z"/></g></svg>