<?xml version="1.0" encoding="UTF-8"?><svg id="_レイヤー_2" xmlns="http://www.w3.org/2000/svg" viewBox="0 0 180 47.84"><defs><style>.cls-1{fill:#0c86e1;stroke-width:0px;}</style></defs><g id="_レイヤー_1-2"><path class="cls-1" d="M2.81,8.69v3.34h4.88v2.16H2.81v6.12H0V6.5h8.84v2.19H2.81Z"/><path class="cls-1" d="M11.32,20.31V6.5h2.81v13.81h-2.81Z"/><path class="cls-1" d="M21.93,20.59c-2.3,0-3.96-.9-4.9-1.73l.64-2.21c.92.87,2.37,1.86,4.26,1.86,1.38,0,2.44-.69,2.44-1.91,0-1.15-.64-1.75-2.9-2.3-2.9-.71-4.05-2.26-4.05-4.24,0-2.26,1.8-3.89,4.76-3.89,1.7,0,3.22.64,4.14,1.36l-.6,1.96c-.97-.64-2.35-1.2-3.57-1.2-1.36,0-2.16.6-2.16,1.59,0,.81.48,1.43,2.37,1.89,3.22.81,4.6,2.16,4.6,4.56,0,2.97-2.44,4.26-5.04,4.26Z"/><path class="cls-1" d="M39.31,20.31v-6.1h-6.51v6.1h-2.81V6.5h2.81v5.34h6.51v-5.34h2.81v13.81h-2.81Z"/><path class="cls-1" d="M82.97,20.29V6.48h2.81v13.81h-2.81Z"/><path class="cls-1" d="M99.24,20.29l-7.23-9.12v9.12h-2.51V6.48h1.96l7.23,9.12V6.48h2.51v13.81h-1.96Z"/><path class="cls-1" d="M111.14,8.67v11.62h-2.81v-11.62h-4.67v-2.19h12.15v2.19h-4.67Z"/><path class="cls-1" d="M118.27,20.29V6.48h9v2.19h-6.19v3.25h5.04v2.19h-5.04v4.01h6.19v2.19h-9Z"/><path class="cls-1" d="M142.02,20.29h-3.08l-3.82-5.5h-1.73v5.5h-2.81V6.48h5.43c3.27,0,4.67,1.93,4.67,4.17,0,1.86-.99,3.34-2.76,3.84l4.1,5.8ZM133.39,12.81h2.16c1.75,0,2.37-.92,2.37-2.14s-.62-2.19-2.37-2.19h-2.16v4.33Z"/><path class="cls-1" d="M144.62,20.29V6.48h2.81v13.81h-2.81Z"/><path class="cls-1" d="M158.02,20.68c-4.24,0-7.53-3.06-7.53-7.3s3.29-7.3,7.53-7.3,7.46,3.06,7.46,7.3-3.25,7.3-7.46,7.3ZM158.02,8.32c-2.76,0-4.58,2.07-4.58,5.06s1.82,5.06,4.58,5.06,4.51-2.07,4.51-5.06-1.8-5.06-4.51-5.06Z"/><path class="cls-1" d="M180,20.29h-3.08l-3.82-5.5h-1.73v5.5h-2.81V6.48h5.43c3.27,0,4.67,1.93,4.67,4.17,0,1.86-.99,3.34-2.76,3.84l4.1,5.8ZM171.37,12.81h2.16c1.75,0,2.37-.92,2.37-2.14s-.62-2.19-2.37-2.19h-2.16v4.33Z"/><path class="cls-1" d="M56.01,14.16c-.06,0-.11.05-.11.11s.05.11.11.11.11-.05.11-.11-.05-.11-.11-.11Z"/><path class="cls-1" d="M54.93,14.16c-.06,0-.11.05-.11.11s.05.11.11.11.11-.05.11-.11-.05-.11-.11-.11Z"/><path class="cls-1" d="M54.39,14.7c-.06,0-.11.05-.11.11s.05.11.11.11.11-.05.11-.11-.05-.11-.11-.11Z"/><path class="cls-1" d="M55.47,14.7c-.06,0-.11.05-.11.11s.05.11.11.11.11-.05.11-.11-.05-.11-.11-.11Z"/><path class="cls-1" d="M55.47,13.62c-.06,0-.11.05-.11.11s.05.11.11.11.11-.05.11-.11-.05-.11-.11-.11Z"/><path class="cls-1" d="M56.01,17.41c-.06,0-.11.05-.11.11s.05.11.11.11.11-.05.11-.11-.05-.11-.11-.11Z"/><path class="cls-1" d="M54.93,17.41c-.06,0-.11.05-.11.11s.05.11.11.11.11-.05.11-.11-.05-.11-.11-.11Z"/><path class="cls-1" d="M56.01,16.33c-.06,0-.11.05-.11.11s.05.11.11.11.11-.05.11-.11-.05-.11-.11-.11Z"/><path class="cls-1" d="M54.93,16.33c-.06,0-.11.05-.11.11s.05.11.11.11.11-.05.11-.11-.05-.11-.11-.11Z"/><path class="cls-1" d="M54.39,16.87c-.06,0-.11.05-.11.11s.05.11.11.11.11-.05.11-.11-.05-.11-.11-.11Z"/><path class="cls-1" d="M55.47,16.87c-.06,0-.11.05-.11.11s.05.11.11.11.11-.05.11-.11-.05-.11-.11-.11Z"/><path class="cls-1" d="M54.39,15.79c-.06,0-.11.05-.11.11s.05.11.11.11.11-.05.11-.11-.05-.11-.11-.11Z"/><path class="cls-1" d="M55.47,15.79c-.06,0-.11.05-.11.11s.05.11.11.11.11-.05.11-.11-.05-.11-.11-.11Z"/><path class="cls-1" d="M56.01,15.24c-.06,0-.11.05-.11.11s.05.11.11.11.11-.05.11-.11-.05-.11-.11-.11Z"/><path class="cls-1" d="M54.93,15.24c-.06,0-.11.05-.11.11s.05.11.11.11.11-.05.11-.11-.05-.11-.11-.11Z"/><path class="cls-1" d="M54.39,17.95c-.06,0-.11.05-.11.11s.05.11.11.11.11-.05.11-.11-.05-.11-.11-.11Z"/><path class="cls-1" d="M55.47,17.95c-.06,0-.11.05-.11.11s.05.11.11.11.11-.05.11-.11-.05-.11-.11-.11Z"/><path class="cls-1" d="M53.85,17.41c-.06,0-.11.05-.11.11s.05.11.11.11.11-.05.11-.11-.05-.11-.11-.11Z"/><path class="cls-1" d="M53.85,16.33c-.06,0-.11.05-.11.11s.05.11.11.11.11-.05.11-.11-.05-.11-.11-.11Z"/><path class="cls-1" d="M52.77,16.33c-.06,0-.11.05-.11.11s.05.11.11.11.11-.05.11-.11-.05-.11-.11-.11Z"/><path class="cls-1" d="M52.23,16.87c-.06,0-.11.05-.11.11s.05.11.11.11.11-.05.11-.11-.05-.11-.11-.11Z"/><path class="cls-1" d="M53.31,16.87c-.06,0-.11.05-.11.11s.05.11.11.11.11-.05.11-.11-.05-.11-.11-.11Z"/><path class="cls-1" d="M53.31,15.79c-.06,0-.11.05-.11.11s.05.11.11.11.11-.05.11-.11-.05-.11-.11-.11Z"/><path class="cls-1" d="M53.85,15.24c-.06,0-.11.05-.11.11s.05.11.11.11.11-.05.11-.11-.05-.11-.11-.11Z"/><path class="cls-1" d="M53.31,17.95c-.06,0-.11.05-.11.11s.05.11.11.11.11-.05.11-.11-.05-.11-.11-.11Z"/><path class="cls-1" d="M52.77,17.41c-.06,0-.11.05-.11.11s.05.11.11.11.11-.05.11-.11-.05-.11-.11-.11Z"/><path class="cls-1" d="M54.55,4.31c.47.39.64.54,1.05.76-.05.01-.08.05-.08.1,0,.06.05.11.11.11s.11-.05.11-.11c0-.01,0-.02-.01-.04.16.08.34.17.59.29.96.46.9-1.42.77-1.93-.05-.17-.14-.32-.28-.45,0-.01.02-.02.02-.04,0-.06-.05-.11-.11-.11-.03,0-.05.01-.07.03-.28-.17-.69-.25-1.25-.19-.3.03-.55.14-.74.27,0,0,0,0,0,0,0-.06-.05-.11-.11-.11s-.11.05-.11.11c0,.05.04.09.09.1-.36.34-.41.84.03,1.2ZM55.42,3.08c.3,0,.54.24.54.54s-.24.54-.54.54-.54-.24-.54-.54.24-.54.54-.54Z"/><path class="cls-1" d="M60.49,1.5c.06,0,.11-.05.11-.11s-.05-.11-.11-.11-.11.05-.11.11.05.11.11.11Z"/><path class="cls-1" d="M61.03,3.12c.06,0,.11-.05.11-.11s-.05-.11-.11-.11-.11.05-.11.11.05.11.11.11Z"/><path class="cls-1" d="M60.49,3.66c.06,0,.11-.05.11-.11s-.05-.11-.11-.11-.11.05-.11.11.05.11.11.11Z"/><path class="cls-1" d="M60.49,2.58c.06,0,.11-.05.11-.11s-.05-.11-.11-.11-.11.05-.11.11.05.11.11.11Z"/><path class="cls-1" d="M61.03,2.04c.06,0,.11-.05.11-.11s-.05-.11-.11-.11-.11.05-.11.11.05.11.11.11Z"/><path class="cls-1" d="M60.49,4.74c.06,0,.11-.05.11-.11s-.05-.11-.11-.11-.11.05-.11.11.05.11.11.11Z"/><path class="cls-1" d="M58.32,1.5c.06,0,.11-.05.11-.11s-.05-.11-.11-.11-.11.05-.11.11.05.11.11.11Z"/><path class="cls-1" d="M59.41,1.5c.06,0,.11-.05.11-.11s-.05-.11-.11-.11-.11.05-.11.11.05.11.11.11Z"/><path class="cls-1" d="M59.95,3.12c.06,0,.11-.05.11-.11s-.05-.11-.11-.11-.11.05-.11.11.05.11.11.11Z"/><path class="cls-1" d="M58.86,3.12c.06,0,.11-.05.11-.11s-.05-.11-.11-.11-.11.05-.11.11.05.11.11.11Z"/><path class="cls-1" d="M58.32,3.66c.06,0,.11-.05.11-.11s-.05-.11-.11-.11-.11.05-.11.11.05.11.11.11Z"/><path class="cls-1" d="M59.41,3.66c.06,0,.11-.05.11-.11s-.05-.11-.11-.11-.11.05-.11.11.05.11.11.11Z"/><path class="cls-1" d="M58.32,2.58c.06,0,.11-.05.11-.11s-.05-.11-.11-.11-.11.05-.11.11.05.11.11.11Z"/><path class="cls-1" d="M59.41,2.58c.06,0,.11-.05.11-.11s-.05-.11-.11-.11-.11.05-.11.11.05.11.11.11Z"/><path class="cls-1" d="M59.95,2.04c.06,0,.11-.05.11-.11s-.05-.11-.11-.11-.11.05-.11.11.05.11.11.11Z"/><path class="cls-1" d="M58.86,2.04c.06,0,.11-.05.11-.11s-.05-.11-.11-.11-.11.05-.11.11.05.11.11.11Z"/><path class="cls-1" d="M59.95,5.28c.06,0,.11-.05.11-.11s-.05-.11-.11-.11-.11.05-.11.11.05.11.11.11Z"/><path class="cls-1" d="M58.86,5.28c.06,0,.11-.05.11-.11s-.05-.11-.11-.11-.11.05-.11.11.05.11.11.11Z"/><path class="cls-1" d="M58.32,5.82c.06,0,.11-.05.11-.11s-.05-.11-.11-.11-.11.05-.11.11.05.11.11.11Z"/><path class="cls-1" d="M59.41,5.82c.06,0,.11-.05.11-.11s-.05-.11-.11-.11-.11.05-.11.11.05.11.11.11Z"/><path class="cls-1" d="M58.32,4.74c.06,0,.11-.05.11-.11s-.05-.11-.11-.11-.11.05-.11.11.05.11.11.11Z"/><path class="cls-1" d="M59.41,4.74c.06,0,.11-.05.11-.11s-.05-.11-.11-.11-.11.05-.11.11.05.11.11.11Z"/><path class="cls-1" d="M59.95,4.2c.06,0,.11-.05.11-.11s-.05-.11-.11-.11-.11.05-.11.11.05.11.11.11Z"/><path class="cls-1" d="M58.86,4.2c.06,0,.11-.05.11-.11s-.05-.11-.11-.11-.11.05-.11.11.05.11.11.11Z"/><path class="cls-1" d="M57.78.96c.06,0,.11-.05.11-.11s-.05-.11-.11-.11-.11.05-.11.11.05.11.11.11Z"/><path class="cls-1" d="M56.7.96c.06,0,.11-.05.11-.11s-.05-.11-.11-.11-.11.05-.11.11.05.11.11.11Z"/><path class="cls-1" d="M56.16,1.5c.06,0,.11-.05.11-.11s-.05-.11-.11-.11-.11.05-.11.11.05.11.11.11Z"/><path class="cls-1" d="M57.24,1.5c.06,0,.11-.05.11-.11s-.05-.11-.11-.11-.11.05-.11.11.05.11.11.11Z"/><path class="cls-1" d="M56.7,7.23c-.06,0-.11.05-.11.11s.05.11.11.11.11-.05.11-.11-.05-.11-.11-.11Z"/><path class="cls-1" d="M56.16,7.77c-.06,0-.11.05-.11.11s.05.11.11.11.11-.05.11-.11-.05-.11-.11-.11Z"/><path class="cls-1" d="M57.24,7.77c-.06,0-.11.05-.11.11s.05.11.11.11.11-.05.11-.11-.05-.11-.11-.11Z"/><path class="cls-1" d="M56.16,6.69c-.06,0-.11.05-.11.11s.05.11.11.11.11-.05.11-.11-.05-.11-.11-.11Z"/><path class="cls-1" d="M57.24,6.69c-.06,0-.11.05-.11.11s.05.11.11.11.11-.05.11-.11-.05-.11-.11-.11Z"/><path class="cls-1" d="M56.16,8.85c-.06,0-.11.05-.11.11s.05.11.11.11.11-.05.11-.11-.05-.11-.11-.11Z"/><path class="cls-1" d="M56.7,8.31c-.06,0-.11.05-.11.11s.05.11.11.11.11-.05.11-.11-.05-.11-.11-.11Z"/><path class="cls-1" d="M55.62.96c.06,0,.11-.05.11-.11s-.05-.11-.11-.11-.11.05-.11.11.05.11.11.11Z"/><path class="cls-1" d="M54.54.96c.06,0,.11-.05.11-.11s-.05-.11-.11-.11-.11.05-.11.11.05.11.11.11Z"/><path class="cls-1" d="M54,1.5c.06,0,.11-.05.11-.11s-.05-.11-.11-.11-.11.05-.11.11.05.11.11.11Z"/><path class="cls-1" d="M55.08,1.5c.06,0,.11-.05.11-.11s-.05-.11-.11-.11-.11.05-.11.11.05.11.11.11Z"/><path class="cls-1" d="M55.62,7.23c-.06,0-.11.05-.11.11s.05.11.11.11.11-.05.11-.11-.05-.11-.11-.11Z"/><path class="cls-1" d="M54.54,7.23c-.06,0-.11.05-.11.11s.05.11.11.11.11-.05.11-.11-.05-.11-.11-.11Z"/><path class="cls-1" d="M54,7.98c.06,0,.11-.05.11-.11s-.05-.11-.11-.11-.11.05-.11.11.05.11.11.11Z"/><path class="cls-1" d="M55.08,7.77c-.06,0-.11.05-.11.11s.05.11.11.11.11-.05.11-.11-.05-.11-.11-.11Z"/><path class="cls-1" d="M54,6.9c.06,0,.11-.05.11-.11s-.05-.11-.11-.11-.11.05-.11.11.05.11.11.11Z"/><path class="cls-1" d="M55.08,6.69c-.06,0-.11.05-.11.11s.05.11.11.11.11-.05.11-.11-.05-.11-.11-.11Z"/><path class="cls-1" d="M55.62,9.39c-.06,0-.11.05-.11.11s.05.11.11.11.11-.05.11-.11-.05-.11-.11-.11Z"/><path class="cls-1" d="M54.54,9.39c-.06,0-.11.05-.11.11s.05.11.11.11.11-.05.11-.11-.05-.11-.11-.11Z"/><path class="cls-1" d="M54,10.15c.06,0,.11-.05.11-.11s-.05-.11-.11-.11-.11.05-.11.11.05.11.11.11Z"/><path class="cls-1" d="M54,9.07c.06,0,.11-.05.11-.11s-.05-.11-.11-.11-.11.05-.11.11.05.11.11.11Z"/><path class="cls-1" d="M55.08,8.85c-.06,0-.11.05-.11.11s.05.11.11.11.11-.05.11-.11-.05-.11-.11-.11Z"/><path class="cls-1" d="M55.62,8.31c-.06,0-.11.05-.11.11s.05.11.11.11.11-.05.11-.11-.05-.11-.11-.11Z"/><path class="cls-1" d="M54.54,8.31c-.06,0-.11.05-.11.11s.05.11.11.11.11-.05.11-.11-.05-.11-.11-.11Z"/><path class="cls-1" d="M53.46.96c.06,0,.11-.05.11-.11s-.05-.11-.11-.11-.11.05-.11.11.05.11.11.11Z"/><path class="cls-1" d="M52.38.74c-.06,0-.11.05-.11.11s.05.11.11.11.11-.05.11-.11-.05-.11-.11-.11Z"/><path class="cls-1" d="M51.84,1.28c-.06,0-.11.05-.11.11s.05.11.11.11.11-.05.11-.11-.05-.11-.11-.11Z"/><path class="cls-1" d="M52.92,1.5c.06,0,.11-.05.11-.11s-.05-.11-.11-.11-.11.05-.11.11.05.11.11.11Z"/><path class="cls-1" d="M52.38,2.91c-.06,0-.11.05-.11.11s.05.11.11.11.11-.05.11-.11-.05-.11-.11-.11Z"/><path class="cls-1" d="M51.84,3.45c-.06,0-.11.05-.11.11s.05.11.11.11.11-.05.11-.11-.05-.11-.11-.11Z"/><path class="cls-1" d="M52.92,3.66c.06,0,.11-.05.11-.11s-.05-.11-.11-.11-.11.05-.11.11.05.11.11.11Z"/><path class="cls-1" d="M51.84,2.36c-.06,0-.11.05-.11.11s.05.11.11.11.11-.05.11-.11-.05-.11-.11-.11Z"/><path class="cls-1" d="M52.92,2.58c.06,0,.11-.05.11-.11s-.05-.11-.11-.11-.11.05-.11.11.05.11.11.11Z"/><path class="cls-1" d="M52.38,1.82c-.06,0-.11.05-.11.11s.05.11.11.11.11-.05.11-.11-.05-.11-.11-.11Z"/><path class="cls-1" d="M52.38,5.07c-.06,0-.11.05-.11.11s.05.11.11.11.11-.05.11-.11-.05-.11-.11-.11Z"/><path class="cls-1" d="M51.84,5.61c-.06,0-.11.05-.11.11s.05.11.11.11.11-.05.11-.11-.05-.11-.11-.11Z"/><path class="cls-1" d="M52.92,5.82c.06,0,.11-.05.11-.11s-.05-.11-.11-.11-.11.05-.11.11.05.11.11.11Z"/><path class="cls-1" d="M52.92,4.74c.06,0,.11-.05.11-.11s-.05-.11-.11-.11-.11.05-.11.11.05.11.11.11Z"/><path class="cls-1" d="M52.38,3.99c-.06,0-.11.05-.11.11s.05.11.11.11.11-.05.11-.11-.05-.11-.11-.11Z"/><path class="cls-1" d="M53.46,7.44c.06,0,.11-.05.11-.11s-.05-.11-.11-.11-.11.05-.11.11.05.11.11.11Z"/><path class="cls-1" d="M52.38,7.23c-.06,0-.11.05-.11.11s.05.11.11.11.11-.05.11-.11-.05-.11-.11-.11Z"/><path class="cls-1" d="M51.84,7.77c-.06,0-.11.05-.11.11s.05.11.11.11.11-.05.11-.11-.05-.11-.11-.11Z"/><path class="cls-1" d="M52.92,7.98c.06,0,.11-.05.11-.11s-.05-.11-.11-.11-.11.05-.11.11.05.11.11.11Z"/><path class="cls-1" d="M51.84,6.69c-.06,0-.11.05-.11.11s.05.11.11.11.11-.05.11-.11-.05-.11-.11-.11Z"/><path class="cls-1" d="M52.92,6.9c.06,0,.11-.05.11-.11s-.05-.11-.11-.11-.11.05-.11.11.05.11.11.11Z"/><path class="cls-1" d="M52.38,6.15c-.06,0-.11.05-.11.11s.05.11.11.11.11-.05.11-.11-.05-.11-.11-.11Z"/><path class="cls-1" d="M53.46,9.61c.06,0,.11-.05.11-.11s-.05-.11-.11-.11-.11.05-.11.11.05.11.11.11Z"/><path class="cls-1" d="M52.38,9.39c-.06,0-.11.05-.11.11s.05.11.11.11.11-.05.11-.11-.05-.11-.11-.11Z"/><path class="cls-1" d="M51.84,9.93c-.06,0-.11.05-.11.11s.05.11.11.11.11-.05.11-.11-.05-.11-.11-.11Z"/><path class="cls-1" d="M52.92,10.15c.06,0,.11-.05.11-.11s-.05-.11-.11-.11-.11.05-.11.11.05.11.11.11Z"/><path class="cls-1" d="M51.84,8.85c-.06,0-.11.05-.11.11s.05.11.11.11.11-.05.11-.11-.05-.11-.11-.11Z"/><path class="cls-1" d="M52.92,9.07c.06,0,.11-.05.11-.11s-.05-.11-.11-.11-.11.05-.11.11.05.11.11.11Z"/><path class="cls-1" d="M53.46,8.53c.06,0,.11-.05.11-.11s-.05-.11-.11-.11-.11.05-.11.11.05.11.11.11Z"/><path class="cls-1" d="M52.38,8.31c-.06,0-.11.05-.11.11s.05.11.11.11.11-.05.11-.11-.05-.11-.11-.11Z"/><path class="cls-1" d="M53.46,10.69c.06,0,.11-.05.11-.11s-.05-.11-.11-.11-.11.05-.11.11.05.11.11.11Z"/><path class="cls-1" d="M52.38,10.47c-.06,0-.11.05-.11.11s.05.11.11.11.11-.05.11-.11-.05-.11-.11-.11Z"/><path class="cls-1" d="M51.3,1.82c-.06,0-.11.05-.11.11s.05.11.11.11.11-.05.11-.11-.05-.11-.11-.11Z"/><path class="cls-1" d="M49.68,5.61c-.06,0-.11.05-.11.11s.05.11.11.11.11-.05.11-.11-.05-.11-.11-.11Z"/><path class="cls-1" d="M50.76,5.61c-.06,0-.11.05-.11.11s.05.11.11.11.11-.05.11-.11-.05-.11-.11-.11Z"/><path class="cls-1" d="M51.3,7.23c-.06,0-.11.05-.11.11s.05.11.11.11.11-.05.11-.11-.05-.11-.11-.11Z"/><path class="cls-1" d="M50.22,7.23c-.06,0-.11.05-.11.11s.05.11.11.11.11-.05.11-.11-.05-.11-.11-.11Z"/><path class="cls-1" d="M49.68,7.77c-.06,0-.11.05-.11.11s.05.11.11.11.11-.05.11-.11-.05-.11-.11-.11Z"/><path class="cls-1" d="M50.76,7.77c-.06,0-.11.05-.11.11s.05.11.11.11.11-.05.11-.11-.05-.11-.11-.11Z"/><path class="cls-1" d="M49.68,6.69c-.06,0-.11.05-.11.11s.05.11.11.11.11-.05.11-.11-.05-.11-.11-.11Z"/><path class="cls-1" d="M50.76,6.69c-.06,0-.11.05-.11.11s.05.11.11.11.11-.05.11-.11-.05-.11-.11-.11Z"/><path class="cls-1" d="M51.3,6.15c-.06,0-.11.05-.11.11s.05.11.11.11.11-.05.11-.11-.05-.11-.11-.11Z"/><path class="cls-1" d="M50.22,6.15c-.06,0-.11.05-.11.11s.05.11.11.11.11-.05.11-.11-.05-.11-.11-.11Z"/><path class="cls-1" d="M51.3,9.39c-.06,0-.11.05-.11.11s.05.11.11.11.11-.05.11-.11-.05-.11-.11-.11Z"/><path class="cls-1" d="M50.76,8.85c-.06,0-.11.05-.11.11s.05.11.11.11.11-.05.11-.11-.05-.11-.11-.11Z"/><path class="cls-1" d="M51.3,8.31c-.06,0-.11.05-.11.11s.05.11.11.11.11-.05.11-.11-.05-.11-.11-.11Z"/><path class="cls-1" d="M50.22,8.31c-.06,0-.11.05-.11.11s.05.11.11.11.11-.05.11-.11-.05-.11-.11-.11Z"/><path class="cls-1" d="M49.14,5.07c-.06,0-.11.05-.11.11s.05.11.11.11.11-.05.11-.11-.05-.11-.11-.11Z"/><path class="cls-1" d="M49.14,7.23c-.06,0-.11.05-.11.11s.05.11.11.11.11-.05.11-.11-.05-.11-.11-.11Z"/><path class="cls-1" d="M49.14,6.15c-.06,0-.11.05-.11.11s.05.11.11.11.11-.05.11-.11-.05-.11-.11-.11Z"/><path class="cls-1" d="M57.78,3.12c.06,0,.11-.05.11-.11s-.05-.11-.11-.11-.11.05-.11.11.05.11.11.11Z"/><path class="cls-1" d="M57.24,3.66c.06,0,.11-.05.11-.11s-.05-.11-.11-.11-.11.05-.11.11.05.11.11.11Z"/><path class="cls-1" d="M56.16,2.58c.06,0,.11-.05.11-.11s-.05-.11-.11-.11-.11.05-.11.11.05.11.11.11Z"/><path class="cls-1" d="M57.24,2.58c.06,0,.11-.05.11-.11s-.05-.11-.11-.11-.11.05-.11.11.05.11.11.11Z"/><path class="cls-1" d="M57.78,2.04c.06,0,.11-.05.11-.11s-.05-.11-.11-.11-.11.05-.11.11.05.11.11.11Z"/><path class="cls-1" d="M56.7,2.04c.06,0,.11-.05.11-.11s-.05-.11-.11-.11-.11.05-.11.11.05.11.11.11Z"/><path class="cls-1" d="M56.7,6.15c-.06,0-.11.05-.11.11s.05.11.11.11.11-.05.11-.11-.05-.11-.11-.11Z"/><path class="cls-1" d="M57.78,5.28c.06,0,.11-.05.11-.11s-.05-.11-.11-.11-.11.05-.11.11.05.11.11.11Z"/><path class="cls-1" d="M56.16,5.61c-.06,0-.11.05-.11.11s.05.11.11.11.11-.05.11-.11-.05-.11-.11-.11Z"/><path class="cls-1" d="M57.24,5.61c-.06,0-.11.05-.11.11s.05.11.11.11.11-.05.11-.11-.05-.11-.11-.11Z"/><path class="cls-1" d="M57.24,4.53c-.06,0-.11.05-.11.11s.05.11.11.11.11-.05.11-.11-.05-.11-.11-.11Z"/><path class="cls-1" d="M57.78,4.2c.06,0,.11-.05.11-.11s-.05-.11-.11-.11-.11.05-.11.11.05.11.11.11Z"/><path class="cls-1" d="M54,3.66c.06,0,.11-.05.11-.11s-.05-.11-.11-.11-.11.05-.11.11.05.11.11.11Z"/><path class="cls-1" d="M54,2.58c.06,0,.11-.05.11-.11s-.05-.11-.11-.11-.11.05-.11.11.05.11.11.11Z"/><path class="cls-1" d="M55.08,2.58c.06,0,.11-.05.11-.11s-.05-.11-.11-.11-.11.05-.11.11.05.11.11.11Z"/><path class="cls-1" d="M53.46,3.12c.06,0,.11-.05.11-.11s-.05-.11-.11-.11-.11.05-.11.11.05.11.11.11Z"/><path class="cls-1" d="M55.62,2.04c.06,0,.11-.05.11-.11s-.05-.11-.11-.11-.11.05-.11.11.05.11.11.11Z"/><path class="cls-1" d="M54.54,2.04c.06,0,.11-.05.11-.11s-.05-.11-.11-.11-.11.05-.11.11.05.11.11.11Z"/><path class="cls-1" d="M53.46,2.04c.06,0,.11-.05.11-.11s-.05-.11-.11-.11-.11.05-.11.11.05.11.11.11Z"/><path class="cls-1" d="M55.62,6.15c-.06,0-.11.05-.11.11s.05.11.11.11.11-.05.11-.11-.05-.11-.11-.11Z"/><path class="cls-1" d="M54.54,6.15c-.06,0-.11.05-.11.11s.05.11.11.11.11-.05.11-.11-.05-.11-.11-.11Z"/><path class="cls-1" d="M54.54,5.07c-.06,0-.11.05-.11.11s.05.11.11.11.11-.05.11-.11-.05-.11-.11-.11Z"/><path class="cls-1" d="M54,5.82c.06,0,.11-.05.11-.11s-.05-.11-.11-.11-.11.05-.11.11.05.11.11.11Z"/><path class="cls-1" d="M55.08,5.61c-.06,0-.11.05-.11.11s.05.11.11.11.11-.05.11-.11-.05-.11-.11-.11Z"/><path class="cls-1" d="M54,4.74c.06,0,.11-.05.11-.11s-.05-.11-.11-.11-.11.05-.11.11.05.11.11.11Z"/><path class="cls-1" d="M53.46,6.36c.06,0,.11-.05.11-.11s-.05-.11-.11-.11-.11.05-.11.11.05.11.11.11Z"/><path class="cls-1" d="M53.46,5.28c.06,0,.11-.05.11-.11s-.05-.11-.11-.11-.11.05-.11.11.05.11.11.11Z"/><path class="cls-1" d="M53.46,4.2c.06,0,.11-.05.11-.11s-.05-.11-.11-.11-.11.05-.11.11.05.11.11.11Z"/><path class="cls-1" d="M71.83,7.44c.06,0,.11-.05.11-.11s-.05-.11-.11-.11-.11.05-.11.11.05.11.11.11Z"/><path class="cls-1" d="M71.29,7.98c.06,0,.11-.05.11-.11s-.05-.11-.11-.11-.11.05-.11.11.05.11.11.11Z"/><path class="cls-1" d="M72.37,7.98c.06,0,.11-.05.11-.11s-.05-.11-.11-.11-.11.05-.11.11.05.11.11.11Z"/><path class="cls-1" d="M71.29,6.9c.06,0,.11-.05.11-.11s-.05-.11-.11-.11-.11.05-.11.11.05.11.11.11Z"/><path class="cls-1" d="M71.29,9.07c.06,0,.11-.05.11-.11s-.05-.11-.11-.11-.11.05-.11.11.05.11.11.11Z"/><path class="cls-1" d="M71.83,8.53c.06,0,.11-.05.11-.11s-.05-.11-.11-.11-.11.05-.11.11.05.11.11.11Z"/><path class="cls-1" d="M69.13,3.66c.06,0,.11-.05.11-.11s-.05-.11-.11-.11-.11.05-.11.11.05.11.11.11Z"/><path class="cls-1" d="M69.67,5.28c.06,0,.11-.05.11-.11s-.05-.11-.11-.11-.11.05-.11.11.05.11.11.11Z"/><path class="cls-1" d="M69.13,5.82c.06,0,.11-.05.11-.11s-.05-.11-.11-.11-.11.05-.11.11.05.11.11.11Z"/><path class="cls-1" d="M70.21,5.82c.06,0,.11-.05.11-.11s-.05-.11-.11-.11-.11.05-.11.11.05.11.11.11Z"/><path class="cls-1" d="M69.13,4.74c.06,0,.11-.05.11-.11s-.05-.11-.11-.11-.11.05-.11.11.05.11.11.11Z"/><path class="cls-1" d="M70.75,7.44c.06,0,.11-.05.11-.11s-.05-.11-.11-.11-.11.05-.11.11.05.11.11.11Z"/><path class="cls-1" d="M69.67,7.44c.06,0,.11-.05.11-.11s-.05-.11-.11-.11-.11.05-.11.11.05.11.11.11Z"/><path class="cls-1" d="M70.21,7.98c.06,0,.11-.05.11-.11s-.05-.11-.11-.11-.11.05-.11.11.05.11.11.11Z"/><path class="cls-1" d="M69.13,6.9c.06,0,.11-.05.11-.11s-.05-.11-.11-.11-.11.05-.11.11.05.11.11.11Z"/><path class="cls-1" d="M70.21,6.9c.06,0,.11-.05.11-.11s-.05-.11-.11-.11-.11.05-.11.11.05.11.11.11Z"/><path class="cls-1" d="M70.75,6.36c.06,0,.11-.05.11-.11s-.05-.11-.11-.11-.11.05-.11.11.05.11.11.11Z"/><path class="cls-1" d="M69.67,6.36c.06,0,.11-.05.11-.11s-.05-.11-.11-.11-.11.05-.11.11.05.11.11.11Z"/><path class="cls-1" d="M70.75,8.53c.06,0,.11-.05.11-.11s-.05-.11-.11-.11-.11.05-.11.11.05.11.11.11Z"/><path class="cls-1" d="M68.59,3.12c.06,0,.11-.05.11-.11s-.05-.11-.11-.11-.11.05-.11.11.05.11.11.11Z"/><path class="cls-1" d="M67.51,3.12c.06,0,.11-.05.11-.11s-.05-.11-.11-.11-.11.05-.11.11.05.11.11.11Z"/><path class="cls-1" d="M66.97,3.66c.06,0,.11-.05.11-.11s-.05-.11-.11-.11-.11.05-.11.11.05.11.11.11Z"/><path class="cls-1" d="M68.05,3.66c.06,0,.11-.05.11-.11s-.05-.11-.11-.11-.11.05-.11.11.05.11.11.11Z"/><path class="cls-1" d="M68.05,2.58c.06,0,.11-.05.11-.11s-.05-.11-.11-.11-.11.05-.11.11.05.11.11.11Z"/><path class="cls-1" d="M68.59,5.28c.06,0,.11-.05.11-.11s-.05-.11-.11-.11-.11.05-.11.11.05.11.11.11Z"/><path class="cls-1" d="M68.05,4.74c.06,0,.11-.05.11-.11s-.05-.11-.11-.11-.11.05-.11.11.05.11.11.11Z"/><path class="cls-1" d="M68.59,4.2c.06,0,.11-.05.11-.11s-.05-.11-.11-.11-.11.05-.11.11.05.11.11.11Z"/><path class="cls-1" d="M67.51,4.2c.06,0,.11-.05.11-.11s-.05-.11-.11-.11-.11.05-.11.11.05.11.11.11Z"/><path class="cls-1" d="M68.59,6.36c.06,0,.11-.05.11-.11s-.05-.11-.11-.11-.11.05-.11.11.05.11.11.11Z"/><path class="cls-1" d="M66.43,3.12c.06,0,.11-.05.11-.11s-.05-.11-.11-.11c-.03,0-.06.01-.08.03-.02.02-.03.05-.03.08s.01.06.03.08c.02.02.05.03.08.03Z"/><path class="cls-1" d="M65.35,2.91c-.06,0-.11.05-.11.11s.05.11.11.11.11-.05.11-.11-.05-.11-.11-.11Z"/><path class="cls-1" d="M60.49,7.77c-.06,0-.11.05-.11.11s.05.11.11.11.11-.05.11-.11-.05-.11-.11-.11Z"/><path class="cls-1" d="M61.57,7.98c.06,0,.11-.05.11-.11s-.05-.11-.11-.11-.11.05-.11.11.05.11.11.11Z"/><path class="cls-1" d="M62.11,9.61c.06,0,.11-.05.11-.11s-.05-.11-.11-.11-.11.05-.11.11.05.11.11.11Z"/><path class="cls-1" d="M61.03,9.39c-.06,0-.11.05-.11.11s.05.11.11.11.11-.05.11-.11-.05-.11-.11-.11Z"/><path class="cls-1" d="M60.49,9.93c-.06,0-.11.05-.11.11s.05.11.11.11.11-.05.11-.11-.05-.11-.11-.11Z"/><path class="cls-1" d="M61.57,10.15c.06,0,.11-.05.11-.11s-.05-.11-.11-.11-.11.05-.11.11.05.11.11.11Z"/><path class="cls-1" d="M60.49,8.85c-.06,0-.11.05-.11.11s.05.11.11.11.11-.05.11-.11-.05-.11-.11-.11Z"/><path class="cls-1" d="M61.57,9.07c.06,0,.11-.05.11-.11s-.05-.11-.11-.11-.11.05-.11.11.05.11.11.11Z"/><path class="cls-1" d="M62.11,8.53c.06,0,.11-.05.11-.11s-.05-.11-.11-.11-.11.05-.11.11.05.11.11.11Z"/><path class="cls-1" d="M61.03,8.53c.06,0,.11-.05.11-.11s-.05-.11-.11-.11-.11.05-.11.11.05.11.11.11Z"/><path class="cls-1" d="M60.49,11.01c-.06,0-.11.05-.11.11s.05.11.11.11.11-.05.11-.11-.05-.11-.11-.11Z"/><path class="cls-1" d="M61.03,10.47c-.06,0-.11.05-.11.11s.05.11.11.11.11-.05.11-.11-.05-.11-.11-.11Z"/><path class="cls-1" d="M59.95,7.23c-.06,0-.11.05-.11.11s.05.11.11.11.11-.05.11-.11-.05-.11-.11-.11Z"/><path class="cls-1" d="M59.41,7.77c-.06,0-.11.05-.11.11s.05.11.11.11.11-.05.11-.11-.05-.11-.11-.11Z"/><path class="cls-1" d="M58.32,6.9c.06,0,.11-.05.11-.11s-.05-.11-.11-.11-.11.05-.11.11.05.11.11.11Z"/><path class="cls-1" d="M57.78,7.44c.06,0,.11-.05.11-.11s-.05-.11-.11-.11-.11.05-.11.11.05.11.11.11Z"/><path class="cls-1" d="M58.86,6.36c.06,0,.11-.05.11-.11s-.05-.11-.11-.11-.11.05-.11.11.05.11.11.11Z"/><path class="cls-1" d="M57.78,6.36c.06,0,.11-.05.11-.11s-.05-.11-.11-.11-.11.05-.11.11.05.11.11.11Z"/><path class="cls-1" d="M59.95,9.39c-.06,0-.11.05-.11.11s.05.11.11.11.11-.05.11-.11-.05-.11-.11-.11Z"/><path class="cls-1" d="M59.41,9.93c-.06,0-.11.05-.11.11s.05.11.11.11.11-.05.11-.11-.05-.11-.11-.11Z"/><path class="cls-1" d="M59.41,8.85c-.06,0-.11.05-.11.11s.05.11.11.11.11-.05.11-.11-.05-.11-.11-.11Z"/><path class="cls-1" d="M59.95,8.31c-.06,0-.11.05-.11.11s.05.11.11.11.11-.05.11-.11-.05-.11-.11-.11Z"/><path class="cls-1" d="M59.41,11.01c-.06,0-.11.05-.11.11s.05.11.11.11.11-.05.11-.11-.05-.11-.11-.11Z"/><path class="cls-1" d="M59.95,10.47c-.06,0-.11.05-.11.11s.05.11.11.11.11-.05.11-.11-.05-.11-.11-.11Z"/><path class="cls-1" d="M74,13.93c.06,0,.11-.05.11-.11s-.05-.11-.11-.11-.11.05-.11.11.05.11.11.11Z"/><path class="cls-1" d="M73.45,14.47c.06,0,.11-.05.11-.11s-.05-.11-.11-.11-.11.05-.11.11.05.11.11.11Z"/><path class="cls-1" d="M72.91,13.93c.06,0,.11-.05.11-.11s-.05-.11-.11-.11-.11.05-.11.11.05.11.11.11Z"/><path class="cls-1" d="M72.37,14.47c.06,0,.11-.05.11-.11s-.05-.11-.11-.11-.11.05-.11.11.05.11.11.11Z"/><path class="cls-1" d="M72.37,13.39c.06,0,.11-.05.11-.11s-.05-.11-.11-.11-.11.05-.11.11.05.11.11.11Z"/><path class="cls-1" d="M72.37,15.55c.06,0,.11-.05.11-.11s-.05-.11-.11-.11-.11.05-.11.11.05.11.11.11Z"/><path class="cls-1" d="M72.91,15.01c.06,0,.11-.05.11-.11s-.05-.11-.11-.11-.11.05-.11.11.05.11.11.11Z"/><path class="cls-1" d="M62.11,20.2c-.06,0-.11.05-.11.11s.05.11.11.11.11-.05.11-.11-.05-.11-.11-.11Z"/><path class="cls-1" d="M73.35,26.25c0,.06.05.11.11.11s.11-.05.11-.11-.05-.11-.11-.11-.11.05-.11.11Z"/><path class="cls-1" d="M71.83,20.2c-.06,0-.11.05-.11.11s.05.11.11.11.11-.05.11-.11-.05-.11-.11-.11Z"/><path class="cls-1" d="M71.29,20.74c-.06,0-.11.05-.11.11s.05.11.11.11.11-.05.11-.11-.05-.11-.11-.11Z"/><path class="cls-1" d="M71.29,19.66c-.06,0-.11.05-.11.11s.05.11.11.11.11-.05.11-.11-.05-.11-.11-.11Z"/><path class="cls-1" d="M71.83,22.36c-.06,0-.11.05-.11.11s.05.11.11.11.11-.05.11-.11-.05-.11-.11-.11Z"/><path class="cls-1" d="M71.29,22.9c-.06,0-.11.05-.11.11s.05.11.11.11.11-.05.11-.11-.05-.11-.11-.11Z"/><path class="cls-1" d="M72.37,22.9c-.06,0-.11.05-.11.11s.05.11.11.11.11-.05.11-.11-.05-.11-.11-.11Z"/><path class="cls-1" d="M71.29,21.82c-.06,0-.11.05-.11.11s.05.11.11.11.11-.05.11-.11-.05-.11-.11-.11Z"/><path class="cls-1" d="M71.83,21.28c-.06,0-.11.05-.11.11s.05.11.11.11.11-.05.11-.11-.05-.11-.11-.11Z"/><path class="cls-1" d="M72.91,24.52c-.06,0-.11.05-.11.11s.05.11.11.11.11-.05.11-.11-.05-.11-.11-.11Z"/><path class="cls-1" d="M71.83,24.52c-.06,0-.11.05-.11.11s.05.11.11.11.11-.05.11-.11-.05-.11-.11-.11Z"/><path class="cls-1" d="M71.29,25.06c-.06,0-.11.05-.11.11s.05.11.11.11.11-.05.11-.11-.05-.11-.11-.11Z"/><path class="cls-1" d="M72.37,25.06c-.06,0-.11.05-.11.11s.05.11.11.11.11-.05.11-.11-.05-.11-.11-.11Z"/><path class="cls-1" d="M71.29,23.98c-.06,0-.11.05-.11.11s.05.11.11.11.11-.05.11-.11-.05-.11-.11-.11Z"/><path class="cls-1" d="M72.37,23.98c-.06,0-.11.05-.11.11s.05.11.11.11.11-.05.11-.11-.05-.11-.11-.11Z"/><path class="cls-1" d="M71.83,23.44c-.06,0-.11.05-.11.11s.05.11.11.11.11-.05.11-.11-.05-.11-.11-.11Z"/><path class="cls-1" d="M72.91,26.68c-.06,0-.11.05-.11.11s.05.11.11.11.11-.05.11-.11-.05-.11-.11-.11Z"/><path class="cls-1" d="M71.83,26.68c-.06,0-.11.05-.11.11s.05.11.11.11.11-.05.11-.11-.05-.11-.11-.11Z"/><path class="cls-1" d="M71.29,26.14c-.06,0-.11.05-.11.11s.05.11.11.11.11-.05.11-.11-.05-.11-.11-.11Z"/><path class="cls-1" d="M72.37,26.14c-.06,0-.11.05-.11.11s.05.11.11.11.11-.05.11-.11-.05-.11-.11-.11Z"/><path class="cls-1" d="M72.91,25.6c-.06,0-.11.05-.11.11s.05.11.11.11.11-.05.11-.11-.05-.11-.11-.11Z"/><path class="cls-1" d="M71.83,25.6c-.06,0-.11.05-.11.11s.05.11.11.11.11-.05.11-.11-.05-.11-.11-.11Z"/><path class="cls-1" d="M70.75,20.2c-.06,0-.11.05-.11.11s.05.11.11.11.11-.05.11-.11-.05-.11-.11-.11Z"/><path class="cls-1" d="M69.67,20.2c-.06,0-.11.05-.11.11s.05.11.11.11.11-.05.11-.11-.05-.11-.11-.11Z"/><path class="cls-1" d="M69.13,20.74c-.06,0-.11.05-.11.11s.05.11.11.11.11-.05.11-.11-.05-.11-.11-.11Z"/><path class="cls-1" d="M70.21,20.74c-.06,0-.11.05-.11.11s.05.11.11.11.11-.05.11-.11-.05-.11-.11-.11Z"/><path class="cls-1" d="M70.75,22.36c-.06,0-.11.05-.11.11s.05.11.11.11.11-.05.11-.11-.05-.11-.11-.11Z"/><path class="cls-1" d="M69.67,22.36c-.06,0-.11.05-.11.11s.05.11.11.11.11-.05.11-.11-.05-.11-.11-.11Z"/><path class="cls-1" d="M69.13,22.9c-.06,0-.11.05-.11.11s.05.11.11.11.11-.05.11-.11-.05-.11-.11-.11Z"/><path class="cls-1" d="M70.21,22.9c-.06,0-.11.05-.11.11s.05.11.11.11.11-.05.11-.11-.05-.11-.11-.11Z"/><path class="cls-1" d="M69.13,21.82c-.06,0-.11.05-.11.11s.05.11.11.11.11-.05.11-.11-.05-.11-.11-.11Z"/><path class="cls-1" d="M70.21,21.82c-.06,0-.11.05-.11.11s.05.11.11.11.11-.05.11-.11-.05-.11-.11-.11Z"/><path class="cls-1" d="M70.75,21.28c-.06,0-.11.05-.11.11s.05.11.11.11.11-.05.11-.11-.05-.11-.11-.11Z"/><path class="cls-1" d="M69.67,21.28c-.06,0-.11.05-.11.11s.05.11.11.11.11-.05.11-.11-.05-.11-.11-.11Z"/><path class="cls-1" d="M70.75,24.52c-.06,0-.11.05-.11.11s.05.11.11.11.11-.05.11-.11-.05-.11-.11-.11Z"/><path class="cls-1" d="M69.67,24.52c-.06,0-.11.05-.11.11s.05.11.11.11.11-.05.11-.11-.05-.11-.11-.11Z"/><path class="cls-1" d="M69.13,25.06c-.06,0-.11.05-.11.11s.05.11.11.11.11-.05.11-.11-.05-.11-.11-.11Z"/><path class="cls-1" d="M70.21,25.06c-.06,0-.11.05-.11.11s.05.11.11.11.11-.05.11-.11-.05-.11-.11-.11Z"/><path class="cls-1" d="M69.13,23.98c-.06,0-.11.05-.11.11s.05.11.11.11.11-.05.11-.11-.05-.11-.11-.11Z"/><path class="cls-1" d="M70.21,23.98c-.06,0-.11.05-.11.11s.05.11.11.11.11-.05.11-.11-.05-.11-.11-.11Z"/><path class="cls-1" d="M70.75,23.44c-.06,0-.11.05-.11.11s.05.11.11.11.11-.05.11-.11-.05-.11-.11-.11Z"/><path class="cls-1" d="M69.67,23.44c-.06,0-.11.05-.11.11s.05.11.11.11.11-.05.11-.11-.05-.11-.11-.11Z"/><path class="cls-1" d="M69.13,26.14c-.06,0-.11.05-.11.11s.05.11.11.11.11-.05.11-.11-.05-.11-.11-.11Z"/><path class="cls-1" d="M70.21,26.14c-.06,0-.11.05-.11.11s.05.11.11.11.11-.05.11-.11-.05-.11-.11-.11Z"/><path class="cls-1" d="M70.75,25.6c-.06,0-.11.05-.11.11s.05.11.11.11.11-.05.11-.11-.05-.11-.11-.11Z"/><path class="cls-1" d="M69.67,25.6c-.06,0-.11.05-.11.11s.05.11.11.11.11-.05.11-.11-.05-.11-.11-.11Z"/><path class="cls-1" d="M66.97,20.74c-.06,0-.11.05-.11.11s.05.11.11.11.11-.05.11-.11-.05-.11-.11-.11Z"/><path class="cls-1" d="M68.05,20.74c-.06,0-.11.05-.11.11s.05.11.11.11.11-.05.11-.11-.05-.11-.11-.11Z"/><path class="cls-1" d="M68.59,22.36c-.06,0-.11.05-.11.11s.05.11.11.11.11-.05.11-.11-.05-.11-.11-.11Z"/><path class="cls-1" d="M67.51,22.36c-.06,0-.11.05-.11.11s.05.11.11.11.11-.05.11-.11-.05-.11-.11-.11Z"/><path class="cls-1" d="M66.97,22.9c-.06,0-.11.05-.11.11s.05.11.11.11.11-.05.11-.11-.05-.11-.11-.11Z"/><path class="cls-1" d="M68.05,22.9c-.06,0-.11.05-.11.11s.05.11.11.11.11-.05.11-.11-.05-.11-.11-.11Z"/><path class="cls-1" d="M66.97,21.82c-.06,0-.11.05-.11.11s.05.11.11.11.11-.05.11-.11-.05-.11-.11-.11Z"/><path class="cls-1" d="M68.05,21.82c-.06,0-.11.05-.11.11s.05.11.11.11.11-.05.11-.11-.05-.11-.11-.11Z"/><path class="cls-1" d="M68.59,21.28c-.06,0-.11.05-.11.11s.05.11.11.11.11-.05.11-.11-.05-.11-.11-.11Z"/><path class="cls-1" d="M67.51,21.28c-.06,0-.11.05-.11.11s.05.11.11.11.11-.05.11-.11-.05-.11-.11-.11Z"/><path class="cls-1" d="M68.59,24.52c-.06,0-.11.05-.11.11s.05.11.11.11.11-.05.11-.11-.05-.11-.11-.11Z"/><path class="cls-1" d="M67.51,24.52c-.06,0-.11.05-.11.11s.05.11.11.11.11-.05.11-.11-.05-.11-.11-.11Z"/><path class="cls-1" d="M66.97,25.06c-.06,0-.11.05-.11.11s.05.11.11.11.11-.05.11-.11-.05-.11-.11-.11Z"/><path class="cls-1" d="M68.05,25.06c-.06,0-.11.05-.11.11s.05.11.11.11.11-.05.11-.11-.05-.11-.11-.11Z"/><path class="cls-1" d="M66.97,23.98c-.06,0-.11.05-.11.11s.05.11.11.11.11-.05.11-.11-.05-.11-.11-.11Z"/><path class="cls-1" d="M68.05,23.98c-.06,0-.11.05-.11.11s.05.11.11.11.11-.05.11-.11-.05-.11-.11-.11Z"/><path class="cls-1" d="M68.59,23.44c-.06,0-.11.05-.11.11s.05.11.11.11.11-.05.11-.11-.05-.11-.11-.11Z"/><path class="cls-1" d="M67.51,23.44c-.06,0-.11.05-.11.11s.05.11.11.11.11-.05.11-.11-.05-.11-.11-.11Z"/><path class="cls-1" d="M68.59,26.68c-.06,0-.11.05-.11.11s.05.11.11.11.11-.05.11-.11-.05-.11-.11-.11Z"/><path class="cls-1" d="M67.51,26.68c-.06,0-.11.05-.11.11s.05.11.11.11.11-.05.11-.11-.05-.11-.11-.11Z"/><path class="cls-1" d="M66.97,27.22c-.06,0-.11.05-.11.11s.05.11.11.11.11-.05.11-.11-.05-.11-.11-.11Z"/><path class="cls-1" d="M66.97,26.14c-.06,0-.11.05-.11.11s.05.11.11.11.11-.05.11-.11-.05-.11-.11-.11Z"/><path class="cls-1" d="M68.05,26.14c-.06,0-.11.05-.11.11s.05.11.11.11.11-.05.11-.11-.05-.11-.11-.11Z"/><path class="cls-1" d="M68.59,25.6c-.06,0-.11.05-.11.11s.05.11.11.11.11-.05.11-.11-.05-.11-.11-.11Z"/><path class="cls-1" d="M67.51,25.6c-.06,0-.11.05-.11.11s.05.11.11.11.11-.05.11-.11-.05-.11-.11-.11Z"/><path class="cls-1" d="M65.89,20.74c-.06,0-.11.05-.11.11s.05.11.11.11.11-.05.11-.11-.05-.11-.11-.11Z"/><path class="cls-1" d="M66.43,22.36s-.06.01-.08.03c-.02.02-.03.05-.03.08s.01.06.03.08c.02.02.05.03.08.03.06,0,.11-.05.11-.11s-.05-.11-.11-.11Z"/><path class="cls-1" d="M65.89,22.9c-.06,0-.11.05-.11.11s.05.11.11.11.11-.05.11-.11-.05-.11-.11-.11Z"/><path class="cls-1" d="M65.89,21.82c-.06,0-.11.05-.11.11s.05.11.11.11.11-.05.11-.11-.05-.11-.11-.11Z"/><path class="cls-1" d="M66.43,21.28s-.06.01-.08.03c-.02.02-.03.05-.03.08s.01.06.03.08c.02.02.05.03.08.03.06,0,.11-.05.11-.11s-.05-.11-.11-.11Z"/><path class="cls-1" d="M66.43,24.52s-.06.01-.08.03c-.02.02-.03.05-.03.08s.01.06.03.08c.02.02.05.03.08.03.06,0,.11-.05.11-.11s-.05-.11-.11-.11Z"/><path class="cls-1" d="M65.89,25.06c-.06,0-.11.05-.11.11s.05.11.11.11.11-.05.11-.11-.05-.11-.11-.11Z"/><path class="cls-1" d="M65.89,23.98c-.06,0-.11.05-.11.11s.05.11.11.11.11-.05.11-.11-.05-.11-.11-.11Z"/><path class="cls-1" d="M66.43,23.44s-.06.01-.08.03c-.02.02-.03.05-.03.08s.01.06.03.08c.02.02.05.03.08.03.06,0,.11-.05.11-.11s-.05-.11-.11-.11Z"/><path class="cls-1" d="M66.43,26.68s-.06.01-.08.03c-.02.02-.03.05-.03.08s.01.06.03.08c.02.02.05.03.08.03.06,0,.11-.05.11-.11s-.05-.11-.11-.11Z"/><path class="cls-1" d="M65.35,26.68c-.06,0-.11.05-.11.11s.05.11.11.11.11-.05.11-.11-.05-.11-.11-.11Z"/><path class="cls-1" d="M65.89,27.22c-.06,0-.11.05-.11.11s.05.11.11.11.11-.05.11-.11-.05-.11-.11-.11Z"/><path class="cls-1" d="M65.89,26.14c-.06,0-.11.05-.11.11s.05.11.11.11.11-.05.11-.11-.05-.11-.11-.11Z"/><path class="cls-1" d="M66.43,25.6s-.06.01-.08.03c-.02.02-.03.05-.03.08s.01.06.03.08c.02.02.05.03.08.03.06,0,.11-.05.11-.11s-.05-.11-.11-.11Z"/><path class="cls-1" d="M64.81,28.3c-.06,0-.11.05-.11.11s.05.11.11.11.11-.05.11-.11-.05-.11-.11-.11Z"/><path class="cls-1" d="M65.89,28.3c-.06,0-.11.05-.11.11s.05.11.11.11.11-.05.11-.11-.05-.11-.11-.11Z"/><path class="cls-1" d="M66.43,27.76s-.06.01-.08.03c-.02.02-.03.05-.03.08s.01.06.03.08c.02.02.05.03.08.03.06,0,.11-.05.11-.11s-.05-.11-.11-.11Z"/><path class="cls-1" d="M65.35,27.76c-.06,0-.11.05-.11.11s.05.11.11.11.11-.05.11-.11-.05-.11-.11-.11Z"/><path class="cls-1" d="M63.19,20.2c-.06,0-.11.05-.11.11s.05.11.11.11.11-.05.11-.11-.05-.11-.11-.11Z"/><path class="cls-1" d="M62.65,20.74c-.06,0-.11.05-.11.11s.05.11.11.11.11-.05.11-.11-.05-.11-.11-.11Z"/><path class="cls-1" d="M62.65,19.66c-.06,0-.11.05-.11.11s.05.11.11.11.11-.05.11-.11-.05-.11-.11-.11Z"/><path class="cls-1" d="M64.27,28.84c-.06,0-.11.05-.11.11s.05.11.11.11.11-.05.11-.11-.05-.11-.11-.11Z"/><path class="cls-1" d="M72.85,21.91c-.55-2.15-.85-3.52-.79-4.22.73-.71,2.72-2.73,2.83-3.65.1-.78-.77-.97-1.53-1.14-.53-.12-1.12-.25-1.45-.55-.12-.72-.3-1.39-.57-1.93-.08-.16-.18-.35-.29-.54.43-.16,1.24-.46,1.5-.61.35-.2.94-.53.84-1.53-.07-.7-.84-1.32-1.65-1.98-.3-.25-.62-.5-.88-.75-.36-.34-.65-1-.93-1.64-.4-.92-.78-1.78-1.44-1.78-.3,0-.62.07-.98.16-.79.18-1.87.44-3.83.21v.02c-.42-.27-.84-.52-1.27-.74-3.11-1.58-10.78-1.52-11.98-.53-.27.22-.25.46-.21.58.12.4.3.92.5,1.47.28.78.65,1.82.69,2.23-.27-.04-.88-.31-1.27-.48-1.01-.44-1.44-.6-1.71-.45-.16.09-.35.3-.4.82-.13,1.34.79,4.44,3.84,7.04l.39.33c.52.44,1.09.93,1.72,1.45-.1.13-.21.26-.33.4-.41.5-.84,1.03-1.27,1.51-.74.82-1.01,1.69-.73,2.38.28.69,1.05,1.11,2.18,1.2.16.01.32.02.46.02,1.25,0,1.92-.42,2.27-.79.37-.39.54-.9.47-1.4-.04-.3-.09-.66-.14-1.03,1.32.96,2.73,1.9,4.21,2.66.05.6.25,2.46.86,3.04.16.15.3.21.45.21.28,0,.53-.23.74-.43.33-.3.76-.7,1.52-.86.41,1.34.51,3.06.26,4.8-.1.72-.54,1.65-.92,2.48-.51,1.1-.8,1.74-.62,2.12.06.13.16.21.3.25.04.01.09.02.14.02.5,0,1.41-.57,2.88-1.53,1.14-.74,2.43-1.59,3.1-1.74.57-.13,1.23.15,1.88.42.84.35,1.79.75,2.29-.12.5-.89.16-1.77-.31-2.99-.26-.67-.55-1.43-.8-2.39ZM73.25,13.39c.84.18,1.18.31,1.15.59-.02.19-.19.49-.44.83-.04.02-.07.05-.07.09,0,0,0,0,0,0-.11.15-.23.3-.36.46-.02-.02-.05-.03-.07-.03-.06,0-.11.05-.11.11,0,.04.02.06.05.08-.12.14-.25.29-.38.44-.01-.05-.05-.09-.1-.09-.06,0-.11.05-.11.11,0,.06.04.1.1.1-.14.16-.29.32-.43.47,0-.01.01-.02.01-.03,0-.06-.05-.11-.11-.11s-.11.05-.11.11.05.11.11.11c.02,0,.03-.01.04-.02-.14.15-.28.29-.41.42.13-1.09.16-2.61,0-4.04.38.19.83.29,1.25.39ZM64.73,2.53s.05.05.08.05c.03,0,.06-.02.08-.04.33,0,.64,0,.91-.02.02.03.05.06.09.06.05,0,.08-.03.09-.07.36-.03.68-.08.96-.13-.04.01-.08.05-.08.1,0,.06.05.11.11.11s.11-.05.11-.11c0-.06-.04-.1-.1-.1.23-.04.44-.09.63-.14.35-.08.62-.14.87-.14.33,0,.68.79.98,1.48.06.14.12.28.19.42-.05,0-.09.05-.09.1,0,.06.05.11.11.11.03,0,.05-.01.07-.03.22.47.46.91.77,1.2.27.26.6.52.91.77.7.56,1.42,1.15,1.47,1.63.06.68-.27.87-.59,1.05-.22.13-1.05.44-1.51.61-.63-1.03-1.58-2.32-2.75-3.62,0,0,0,0,.01,0,.06,0,.11-.05.11-.11s-.05-.11-.11-.11-.11.05-.11.11c-.13-.15-.27-.3-.41-.44.05-.01.08-.05.08-.1,0-.06-.05-.11-.11-.11-.05,0-.08.03-.09.07-.13-.14-.27-.27-.41-.41.04-.02.07-.05.07-.09,0-.06-.05-.11-.11-.11-.05,0-.08.03-.09.08-.14-.14-.27-.28-.42-.41.04-.01.08-.05.08-.1,0-.06-.05-.11-.11-.11-.03,0-.06.01-.08.03-.01.01-.02.04-.02.06-.16-.15-.32-.29-.48-.43.01,0,.03.02.04.02.06,0,.11-.05.11-.11s-.05-.11-.11-.11-.11.05-.11.11c0,.02.01.03.02.05-.43-.38-.87-.74-1.33-1.08.09,0,.17,0,.25,0ZM52.11,11.48c-.1-.08-.19-.17-.28-.25,0,0,0,0,0,0,.06,0,.11-.05.11-.11s-.05-.11-.11-.11-.11.05-.11.11c0,0,0,.01,0,.02-.17-.16-.33-.31-.48-.47.01,0,.02.01.04.01.06,0,.11-.05.11-.11s-.05-.11-.11-.11-.11.05-.11.11c0,.01,0,.02.01.03-.15-.16-.29-.32-.43-.47.05,0,.09-.05.09-.1,0-.06-.05-.11-.11-.11-.05,0-.08.03-.09.08-.13-.15-.25-.3-.36-.45.01-.02.02-.03.02-.05,0-.06-.05-.11-.11-.11,0,0-.02,0-.02.01-.98-1.34-1.47-2.64-1.63-3.59.01,0,.02.01.03.01.06,0,.11-.05.11-.11s-.05-.11-.11-.11c-.02,0-.04.01-.06.02-.03-.26-.04-.5-.02-.69,0-.09.02-.16.04-.22.01,0,.02.02.04.02.06,0,.11-.05.11-.11,0-.05-.03-.08-.07-.09,0,0,.01-.02.01-.02,0,0,.02,0,.02,0,.2,0,.84.28,1.27.46.08.04.16.07.23.1-.04.02-.06.05-.06.09,0,.06.05.11.11.11s.11-.05.11-.11c0-.01,0-.02-.01-.03.72.3,1.16.45,1.42.3.1-.06.17-.15.18-.27.01-.11,0-.26-.04-.45.04-.01.08-.05.08-.1,0-.06-.05-.11-.11-.11,0,0,0,0-.01,0-.09-.36-.25-.84-.46-1.44.02-.02.04-.05.04-.08,0-.06-.05-.11-.11-.11,0,0,0,0,0,0-.04-.1-.07-.2-.11-.3-.14-.4-.28-.79-.39-1.12.04-.02.07-.05.07-.09,0-.06-.05-.11-.11-.11,0,0-.01,0-.02,0-.01-.04-.03-.09-.04-.14,0-.02.07-.1.27-.19.07-.03.15-.06.24-.09.01.04.05.08.09.08.06,0,.11-.05.11-.11,0,0,0-.02-.01-.02,1.45-.39,4.68-.48,7.44-.07-.05.01-.08.05-.08.1,0,.06.05.11.11.11s.11-.05.11-.11c0-.04-.02-.07-.06-.09.93.14,1.81.34,2.55.61,0,0,0,0,0,.01,0,.06.05.11.11.11.04,0,.07-.02.08-.05.12.05.23.09.34.14-.06.18-.17.48-.32.87,0-.05-.05-.1-.1-.1-.06,0-.11.05-.11.11s.05.11.11.11c.03,0,.05-.01.07-.03-.17.41-.39.91-.66,1.46-.03.02-.05.05-.05.08,0,0,0,0,0,0-.49.95-1.14,2.04-1.98,3.08-.02.02-.04.04-.05.06,0,0-.02-.01-.03-.01-.06,0-.11.05-.11.11,0,.01.01.03.02.04-.12.14-.25.28-.39.42-.02-.01-.04-.02-.06-.02-.06,0-.11.05-.11.11,0,.02.01.04.02.06-.91.86-2.03,1.59-3.07,2.16,0-.02.02-.03.02-.05,0-.06-.05-.11-.11-.11s-.11.05-.11.11c0,.06.04.1.1.1-.78.42-1.5.75-2.05.97,0-.06-.05-.11-.11-.11s-.11.05-.11.11c0,.03.01.06.03.07-.36.15-.62.24-.73.28ZM61.03,7.44c.05,0,.09-.04.1-.08.83.62,1.55,1.3,1.55,1.69,0,.76-.42,1.42-1.25,1.98-.74.5-2.07.73-2.31.56-.23-.27-.14-2.27-.11-3.12.01-.25.02-.46.02-.63.1-.11.2-.22.3-.34.24-.3.46-.6.67-.9.13.08.26.16.39.25.02.02.04.04.07.05.17.11.34.23.5.35-.03.02-.06.05-.06.09,0,.06.05.11.11.11ZM56.19,18.07c-.27.28-.67.47-1.17.57,0-.01.02-.03.02-.04,0-.06-.05-.11-.11-.11s-.11.05-.11.11c0,.03.01.05.03.07-.29.04-.62.05-.97.03.04-.02.07-.05.07-.09,0-.06-.05-.11-.11-.11s-.11.05-.11.11c0,.04.02.07.06.09-.68-.06-1.2-.25-1.49-.56.02-.02.03-.04.03-.07,0-.06-.05-.11-.11-.11-.02,0-.03.01-.04.02-.03-.05-.06-.11-.09-.16-.2-.51.03-1.19.64-1.86.44-.49.87-1.02,1.29-1.52.61-.74,1.44-1.76,1.69-1.78.14,0,.21.17.27.46-.05.01-.08.05-.08.1,0,.06.05.11.11.11,0,0,0,0,0,0,.01.09.03.19.04.3.01.12.03.24.05.36.07.46.16,1.17.25,1.86.05.38.1.74.14,1.07-.03.02-.06.05-.06.09,0,.05.04.08.08.1,0,0,0,0,0,0,.05.35-.07.71-.34.99ZM52.55,11.85c.99-.37,3.94-1.59,5.97-3.49,0,.03,0,.05,0,.08-.09,2.19-.07,3.28.31,3.55.15.1.36.14.62.14.72,0,1.73-.34,2.26-.69.96-.65,1.47-1.47,1.47-2.39,0-.98-2.15-2.4-2.89-2.86,1.25-1.89,1.92-3.67,2.15-4.36,3.87,2.08,7.28,6.54,8.36,8.67-.02-.01-.03-.02-.05-.02-.06,0-.11.05-.11.11s.05.11.11.11c.06,0,.1-.04.1-.1,0,.02.02.03.03.05,1.05,2.16.75,6.88.38,7.55-.28.5-2,2.25-5.31,1.67-3.17-.55-6.41-2.52-9.15-4.56-.07-.54-.14-1.05-.19-1.41-.02-.12-.03-.23-.05-.35-.08-.66-.18-1.4-.84-1.4-.35,0-.77.41-1.43,1.19-.62-.51-1.2-1-1.71-1.44l-.03-.03M62.8,21.1c-.37.35-.39.33-.5.23-.35-.34-.58-1.52-.68-2.42.16.08.31.15.47.22-.05,0-.1.05-.1.1,0,.06.05.11.11.11s.11-.05.11-.11c0-.02-.01-.04-.03-.06.48.22.96.41,1.44.58,0,0,0,.01,0,.02,0,.06.05.11.11.11.04,0,.07-.03.09-.06.3.1.6.2.9.28-.98.16-1.54.66-1.91,1.01ZM73.52,27.04c-.25.44-.7.31-1.66-.09-.68-.29-1.46-.61-2.18-.45-.41.09-.96.38-1.58.74-.02-.01-.03-.02-.05-.02-.06,0-.11.05-.11.11,0,0,0,0,0,0-.49.3-1.01.63-1.52.97-.3.2-.64.42-.97.63,0-.05-.05-.09-.1-.09-.06,0-.11.05-.11.11,0,.04.02.07.05.09-.67.42-1.29.78-1.46.75-.08-.19.34-1.1.62-1.7.1-.22.21-.44.31-.67.01,0,.03.02.05.02.06,0,.11-.05.11-.11,0-.05-.03-.08-.07-.09.21-.48.4-.97.51-1.42.06,0,.11-.05.11-.11,0-.04-.03-.07-.07-.09,0-.05.02-.1.03-.15.2-1.39.18-2.78-.04-3.99.04-.01.08-.05.08-.09,0-.06-.05-.11-.11-.11,0,0,0,0,0,0-.08-.39-.18-.76-.3-1.1.08.02.15.03.23.05-.02.02-.04.05-.04.08,0,.06.05.11.11.11s.11-.05.11-.11c0-.02-.01-.03-.02-.04.14.03.28.07.43.09.49.09.96.12,1.39.12.45,0,.87-.04,1.26-.12.02.03.05.05.09.05.05,0,.09-.04.1-.09.55-.12,1.03-.31,1.43-.52.02.04.05.07.09.07.06,0,.11-.05.11-.11,0-.02-.01-.04-.03-.06.66-.38,1.1-.82,1.31-1.13.1.71.32,1.73.71,3.27-.03.02-.05.05-.05.09,0,.06.05.1.1.11.25.99.56,1.8.82,2.45.08.22.16.41.23.6-.04.02-.06.05-.06.09,0,.06.05.11.11.11,0,0,.02,0,.02,0,.25.73.34,1.26.04,1.77Z"/><path class="cls-1" d="M5.02,44.62H.14v-10.77h5.23c1.32.02,2.26.4,2.81,1.15.33.46.5,1.01.5,1.64s-.17,1.19-.5,1.59c-.19.22-.46.43-.82.61.55.2.97.52,1.25.95s.42.96.42,1.58-.16,1.21-.48,1.72c-.2.34-.46.62-.77.85-.35.26-.75.44-1.22.54-.47.1-.98.15-1.53.15ZM6.09,37.82c.29-.18.44-.49.44-.94,0-.5-.19-.83-.58-.99-.34-.11-.77-.17-1.29-.17h-2.37v2.38h2.65c.47,0,.86-.09,1.15-.27ZM4.97,39.87h-2.68v2.87h2.65c.47,0,.84-.06,1.1-.19.48-.23.72-.68.72-1.34,0-.56-.23-.95-.69-1.15-.26-.12-.62-.18-1.09-.18Z"/><path class="cls-1" d="M11.64,37.51c.55-.7,1.5-1.05,2.84-1.05.87,0,1.65.17,2.32.52.68.35,1.02,1,1.02,1.96v3.65c0,.25,0,.56.01.92.01.27.06.46.12.56.07.1.17.18.31.24v.31h-2.27c-.06-.16-.11-.31-.13-.45-.02-.14-.04-.3-.06-.48-.29.31-.62.58-.99.8-.45.26-.96.39-1.52.39-.72,0-1.32-.21-1.79-.62s-.71-1-.71-1.75c0-.98.38-1.69,1.13-2.13.41-.24,1.02-.41,1.83-.51l.71-.09c.39-.05.66-.11.83-.18.3-.13.45-.32.45-.59,0-.33-.11-.55-.34-.68s-.56-.19-1-.19c-.49,0-.84.12-1.05.37-.15.18-.24.42-.29.73h-2.01c.04-.7.24-1.27.58-1.72ZM13.19,43.11c.19.16.43.24.72.24.45,0,.86-.13,1.24-.39.38-.26.57-.74.59-1.44v-.77c-.13.08-.26.15-.4.2-.13.05-.32.1-.55.14l-.47.09c-.44.08-.75.17-.94.29-.32.19-.48.48-.48.88,0,.36.1.61.3.77Z"/><path class="cls-1" d="M27.16,39.51h-2.13c-.04-.3-.14-.57-.3-.8-.23-.32-.6-.48-1.09-.48-.7,0-1.18.35-1.44,1.05-.14.37-.2.86-.2,1.48s.07,1.06.2,1.41c.25.66.72.99,1.4.99.49,0,.83-.13,1.04-.39s.33-.6.37-1.02h2.13c-.05.63-.28,1.23-.69,1.8-.65.91-1.62,1.37-2.9,1.37s-2.22-.38-2.83-1.14c-.6-.76-.91-1.75-.91-2.96,0-1.37.33-2.43,1-3.19.67-.76,1.59-1.14,2.76-1.14,1,0,1.82.22,2.45.67.64.45,1.01,1.24,1.13,2.38Z"/><path class="cls-1" d="M32.84,43.13v1.56l-.99.04c-.98.03-1.66-.14-2.02-.51-.23-.24-.35-.61-.35-1.1v-4.9h-1.11v-1.48h1.11v-2.22h2.06v2.22h1.29v1.48h-1.29v4.21c0,.33.04.53.12.61.08.08.34.12.76.12.06,0,.13,0,.2,0,.07,0,.14,0,.21-.01Z"/><path class="cls-1" d="M41.6,42.28c-.05.47-.3.95-.74,1.44-.68.77-1.64,1.16-2.87,1.16-1.01,0-1.91-.33-2.68-.98-.77-.65-1.16-1.72-1.16-3.19,0-1.38.35-2.44,1.05-3.17s1.61-1.1,2.72-1.1c.66,0,1.26.12,1.79.37.53.25.97.64,1.32,1.18.31.47.51,1.02.61,1.64.05.37.08.89.07,1.58h-5.45c.03.8.28,1.36.75,1.68.29.2.63.3,1.04.3.43,0,.78-.12,1.04-.37.15-.13.28-.31.39-.55h2.13ZM39.53,39.84c-.03-.55-.2-.97-.5-1.25s-.67-.43-1.11-.43c-.48,0-.86.15-1.12.45s-.43.71-.5,1.23h3.24Z"/><path class="cls-1" d="M47.71,38.57c-.84,0-1.4.27-1.69.82-.16.31-.24.78-.24,1.42v3.81h-2.1v-7.97h1.99v1.39c.32-.53.6-.89.84-1.09.39-.33.9-.49,1.52-.49.04,0,.07,0,.1,0,.03,0,.09,0,.18.01v2.13c-.13-.01-.25-.02-.35-.03-.1,0-.19,0-.25,0Z"/><path class="cls-1" d="M52.27,33.78v1.92h-2.11v-1.92h2.11ZM52.27,36.65v7.97h-2.11v-7.97h2.11Z"/><path class="cls-1" d="M55.18,37.51c.55-.7,1.5-1.05,2.84-1.05.87,0,1.65.17,2.32.52.68.35,1.02,1,1.02,1.96v3.65c0,.25,0,.56.01.92.01.27.06.46.12.56.07.1.17.18.31.24v.31h-2.27c-.06-.16-.11-.31-.13-.45-.02-.14-.04-.3-.06-.48-.29.31-.62.58-.99.8-.45.26-.96.39-1.52.39-.72,0-1.32-.21-1.79-.62s-.71-1-.71-1.75c0-.98.38-1.69,1.13-2.13.41-.24,1.02-.41,1.83-.51l.71-.09c.39-.05.66-.11.83-.18.3-.13.45-.32.45-.59,0-.33-.11-.55-.34-.68s-.56-.19-1-.19c-.49,0-.84.12-1.05.37-.15.18-.24.42-.29.73h-2.01c.04-.7.24-1.27.58-1.72ZM56.73,43.11c.19.16.43.24.72.24.45,0,.86-.13,1.24-.39.38-.26.57-.74.59-1.44v-.77c-.13.08-.26.15-.4.2-.13.05-.32.1-.55.14l-.47.09c-.44.08-.75.17-.94.29-.32.19-.48.48-.48.88,0,.36.1.61.3.77Z"/><path class="cls-1" d="M72.21,43.13v1.56l-.99.04c-.98.03-1.66-.14-2.02-.51-.23-.24-.35-.61-.35-1.1v-4.9h-1.11v-1.48h1.11v-2.22h2.06v2.22h1.29v1.48h-1.29v4.21c0,.33.04.53.12.61.08.08.34.12.76.12.06,0,.13,0,.2,0,.07,0,.14,0,.21-.01Z"/><path class="cls-1" d="M80.97,42.28c-.05.47-.3.95-.74,1.44-.68.77-1.64,1.16-2.87,1.16-1.01,0-1.91-.33-2.68-.98-.77-.65-1.16-1.72-1.16-3.19,0-1.38.35-2.44,1.05-3.17s1.61-1.1,2.72-1.1c.66,0,1.26.12,1.79.37.53.25.97.64,1.32,1.18.31.47.51,1.02.61,1.64.05.37.08.89.07,1.58h-5.45c.03.8.28,1.36.75,1.68.29.2.63.3,1.04.3.43,0,.78-.12,1.04-.37.15-.13.28-.31.39-.55h2.13ZM78.91,39.84c-.03-.55-.2-.97-.5-1.25s-.67-.43-1.11-.43c-.48,0-.86.15-1.12.45s-.43.71-.5,1.23h3.24Z"/><path class="cls-1" d="M88.56,37.02c.62.4.98,1.09,1.07,2.06h-2.08c-.03-.27-.1-.48-.23-.64-.23-.28-.62-.42-1.17-.42-.45,0-.78.07-.97.21-.19.14-.29.31-.29.5,0,.24.1.41.31.52.21.11.93.3,2.17.58.83.19,1.45.49,1.86.88.41.4.61.9.61,1.5,0,.79-.29,1.43-.88,1.93-.59.5-1.49.75-2.72.75s-2.18-.26-2.77-.79c-.6-.53-.9-1.2-.9-2.02h2.11c.04.37.14.63.29.79.26.28.74.42,1.43.42.41,0,.73-.06.98-.18s.36-.3.36-.55-.1-.41-.29-.53c-.19-.12-.92-.33-2.17-.63-.9-.22-1.54-.5-1.91-.84-.37-.33-.56-.81-.56-1.43,0-.74.29-1.37.87-1.9.58-.53,1.39-.79,2.44-.79s1.81.2,2.43.59Z"/><path class="cls-1" d="M95.65,43.13v1.56l-.99.04c-.98.03-1.66-.14-2.02-.51-.23-.24-.35-.61-.35-1.1v-4.9h-1.11v-1.48h1.11v-2.22h2.06v2.22h1.29v1.48h-1.29v4.21c0,.33.04.53.12.61.08.08.34.12.76.12.06,0,.13,0,.2,0,.07,0,.14,0,.21-.01Z"/><path class="cls-1" d="M102.38,33.84h2.08v10.77h-2.08v-10.77Z"/><path class="cls-1" d="M107.4,37.51c.55-.7,1.5-1.05,2.84-1.05.87,0,1.65.17,2.32.52.68.35,1.02,1,1.02,1.96v3.65c0,.25,0,.56.01.92.01.27.06.46.12.56.07.1.17.18.31.24v.31h-2.27c-.06-.16-.11-.31-.13-.45-.02-.14-.04-.3-.06-.48-.29.31-.62.58-.99.8-.45.26-.96.39-1.52.39-.72,0-1.32-.21-1.79-.62s-.71-1-.71-1.75c0-.98.38-1.69,1.13-2.13.41-.24,1.02-.41,1.83-.51l.71-.09c.39-.05.66-.11.83-.18.3-.13.45-.32.45-.59,0-.33-.11-.55-.34-.68s-.56-.19-1-.19c-.49,0-.84.12-1.05.37-.15.18-.24.42-.29.73h-2.01c.04-.7.24-1.27.58-1.72ZM108.95,43.11c.19.16.43.24.72.24.45,0,.86-.13,1.24-.39.38-.26.57-.74.59-1.44v-.77c-.13.08-.26.15-.4.2-.13.05-.32.1-.55.14l-.47.09c-.44.08-.75.17-.94.29-.32.19-.48.48-.48.88,0,.36.1.61.3.77Z"/><path class="cls-1" d="M120.35,44.83c-.66,0-1.19-.13-1.59-.39-.24-.16-.5-.43-.77-.82v1h-2.04v-10.76h2.08v3.83c.26-.37.55-.65.87-.85.38-.24.85-.37,1.43-.37,1.05,0,1.87.38,2.46,1.13s.89,1.73.89,2.92-.29,2.26-.88,3.08c-.58.81-1.4,1.22-2.45,1.22ZM121.49,40.75c0-.57-.07-1.03-.22-1.4-.28-.7-.79-1.05-1.54-1.05s-1.27.34-1.56,1.03c-.15.37-.22.84-.22,1.42,0,.68.15,1.25.45,1.7.3.45.76.67,1.38.67.54,0,.95-.22,1.25-.65.3-.43.45-1,.45-1.71Z"/><path class="cls-1" d="M132.41,37.66c.67.84,1.01,1.84,1.01,2.99s-.34,2.17-1.01,3-1.69,1.25-3.06,1.25-2.39-.42-3.06-1.25-1.01-1.83-1.01-3,.34-2.15,1.01-2.99c.67-.84,1.69-1.26,3.06-1.26s2.39.42,3.06,1.26ZM129.34,38.16c-.61,0-1.08.22-1.41.65-.33.43-.49,1.05-.49,1.85s.16,1.42.49,1.85c.33.43.8.65,1.41.65s1.08-.22,1.4-.65c.33-.43.49-1.05.49-1.85s-.16-1.41-.49-1.85c-.33-.43-.79-.65-1.4-.65Z"/><path class="cls-1" d="M139.52,38.57c-.84,0-1.4.27-1.69.82-.16.31-.24.78-.24,1.42v3.81h-2.1v-7.97h1.99v1.39c.32-.53.6-.89.84-1.09.39-.33.9-.49,1.52-.49.04,0,.07,0,.1,0,.03,0,.09,0,.18.01v2.13c-.13-.01-.25-.02-.35-.03-.1,0-.19,0-.25,0Z"/><path class="cls-1" d="M142.23,37.51c.55-.7,1.5-1.05,2.84-1.05.87,0,1.65.17,2.32.52.68.35,1.02,1,1.02,1.96v3.65c0,.25,0,.56.01.92.01.27.06.46.12.56.07.1.17.18.31.24v.31h-2.27c-.06-.16-.11-.31-.13-.45-.02-.14-.04-.3-.06-.48-.29.31-.62.58-.99.8-.45.26-.96.39-1.52.39-.72,0-1.32-.21-1.79-.62s-.71-1-.71-1.75c0-.98.38-1.69,1.13-2.13.41-.24,1.02-.41,1.83-.51l.71-.09c.39-.05.66-.11.83-.18.3-.13.45-.32.45-.59,0-.33-.11-.55-.34-.68s-.56-.19-1-.19c-.49,0-.84.12-1.05.37-.15.18-.24.42-.29.73h-2.01c.04-.7.24-1.27.58-1.72ZM143.78,43.11c.19.16.43.24.72.24.45,0,.86-.13,1.24-.39.38-.26.57-.74.59-1.44v-.77c-.13.08-.26.15-.4.2-.13.05-.32.1-.55.14l-.47.09c-.44.08-.75.17-.94.29-.32.19-.48.48-.48.88,0,.36.1.61.3.77Z"/><path class="cls-1" d="M154.51,43.13v1.56l-.99.04c-.98.03-1.66-.14-2.02-.51-.23-.24-.35-.61-.35-1.1v-4.9h-1.11v-1.48h1.11v-2.22h2.06v2.22h1.29v1.48h-1.29v4.21c0,.33.04.53.12.61.08.08.34.12.76.12.06,0,.13,0,.2,0,.07,0,.14,0,.21-.01Z"/><path class="cls-1" d="M163.09,37.66c.67.84,1.01,1.84,1.01,2.99s-.34,2.17-1.01,3-1.69,1.25-3.06,1.25-2.39-.42-3.06-1.25-1.01-1.83-1.01-3,.34-2.15,1.01-2.99c.67-.84,1.69-1.26,3.06-1.26s2.39.42,3.06,1.26ZM160.02,38.16c-.61,0-1.08.22-1.41.65-.33.43-.49,1.05-.49,1.85s.16,1.42.49,1.85c.33.43.8.65,1.41.65s1.08-.22,1.4-.65c.33-.43.49-1.05.49-1.85s-.16-1.41-.49-1.85c-.33-.43-.79-.65-1.4-.65Z"/><path class="cls-1" d="M170.19,38.57c-.84,0-1.4.27-1.69.82-.16.31-.24.78-.24,1.42v3.81h-2.1v-7.97h1.99v1.39c.32-.53.6-.89.84-1.09.39-.33.9-.49,1.52-.49.04,0,.07,0,.1,0,.03,0,.09,0,.18.01v2.13c-.13-.01-.25-.02-.35-.03-.1,0-.19,0-.25,0Z"/><path class="cls-1" d="M175.85,42.53l1.64-5.88h2.21l-2.73,7.84c-.53,1.51-.94,2.45-1.25,2.81-.31.36-.92.54-1.84.54-.19,0-.33,0-.45,0-.11,0-.28-.01-.5-.03v-1.67h.26c.2.02.4.02.58,0,.19-.02.34-.08.47-.17.12-.08.24-.26.34-.52.1-.26.15-.42.13-.48l-2.92-8.32h2.32l1.74,5.88Z"/></g></svg>