<svg id="_レイヤー_2" xmlns="http://www.w3.org/2000/svg" viewBox="0 0 217.37 36.55"><defs><style>.cls-1{fill:#0c86e1;stroke-width:0}</style></defs><g id="_レイヤー_1-2"><path class="cls-1" d="M3.39 10.49v4.03h5.89v2.61H3.39v7.39H0V7.85h10.67v2.64H3.39Zm10.28 14.04V7.85h3.39v16.68h-3.39Zm12.82.33c-2.78 0-4.78-1.08-5.92-2.08l.78-2.67c1.11 1.06 2.86 2.25 5.14 2.25 1.67 0 2.95-.83 2.95-2.31 0-1.39-.78-2.11-3.5-2.78-3.5-.86-4.89-2.72-4.89-5.11 0-2.72 2.17-4.7 5.75-4.7 2.06 0 3.89.78 5 1.64l-.72 2.36c-1.17-.78-2.84-1.45-4.31-1.45-1.64 0-2.61.72-2.61 1.92 0 .97.58 1.72 2.86 2.28 3.89.97 5.56 2.61 5.56 5.5 0 3.59-2.95 5.14-6.09 5.14Zm20.98-.33v-7.37H39.6v7.37h-3.39V7.85h3.39v6.45h7.87V7.85h3.39v16.68h-3.39Zm52.72-.03V7.82h3.39V24.5h-3.39Zm19.65 0-8.73-11.01V24.5h-3.03V7.82h2.36l8.73 11.01V7.82h3.03V24.5h-2.36Zm14.37-14.03v14.04h-3.39V10.47h-5.64V7.83h14.68v2.64h-5.64Zm8.62 14.03V7.82h10.87v2.64h-7.48v3.92h6.09v2.64h-6.09v4.84h7.48v2.64h-10.87Zm28.68 0h-3.72l-4.61-6.64h-2.08v6.64h-3.39V7.82h6.56c3.95 0 5.64 2.34 5.64 5.03 0 2.25-1.2 4.03-3.34 4.64l4.95 7.01Zm-10.42-9.03h2.61c2.11 0 2.86-1.11 2.86-2.59s-.75-2.64-2.86-2.64h-2.61v5.23Zm13.56 9.03V7.82h3.39V24.5h-3.39Zm16.18.48c-5.11 0-9.09-3.7-9.09-8.81s3.97-8.81 9.09-8.81 9.01 3.7 9.01 8.81-3.92 8.81-9.01 8.81Zm0-14.93c-3.34 0-5.53 2.5-5.53 6.12s2.2 6.12 5.53 6.12 5.45-2.5 5.45-6.12-2.17-6.12-5.45-6.12Zm26.54 14.45h-3.72l-4.61-6.64h-2.08v6.64h-3.39V7.82h6.56c3.95 0 5.64 2.34 5.64 5.03 0 2.25-1.2 4.03-3.34 4.64l4.95 7.01Zm-10.42-9.03h2.61c2.11 0 2.86-1.11 2.86-2.59s-.75-2.64-2.86-2.64h-2.61v5.23ZM67.64 17.1c-.07 0-.13.06-.13.13s.06.13.13.13.13-.06.13-.13-.06-.13-.13-.13Zm-1.3 0c-.07 0-.13.06-.13.13s.06.13.13.13.13-.06.13-.13-.06-.13-.13-.13Zm-.65.66c-.07 0-.13.06-.13.13s.06.13.13.13.13-.06.13-.13-.06-.13-.13-.13Zm1.3 0c-.07 0-.13.06-.13.13s.06.13.13.13.13-.06.13-.13-.06-.13-.13-.13Zm0-1.31c-.07 0-.13.06-.13.13s.06.13.13.13.13-.06.13-.13-.06-.13-.13-.13Zm.65 4.57c-.07 0-.13.06-.13.13s.06.13.13.13.13-.06.13-.13-.06-.13-.13-.13Zm-1.3 0c-.07 0-.13.06-.13.13s.06.13.13.13.13-.06.13-.13-.06-.13-.13-.13Zm1.3-1.3c-.07 0-.13.06-.13.13s.06.13.13.13.13-.06.13-.13-.06-.13-.13-.13Zm-1.3 0c-.07 0-.13.06-.13.13s.06.13.13.13.13-.06.13-.13-.06-.13-.13-.13Zm-.65.65c-.07 0-.13.06-.13.13s.06.13.13.13.13-.06.13-.13-.06-.13-.13-.13Zm1.3 0c-.07 0-.13.06-.13.13s.06.13.13.13.13-.06.13-.13-.06-.13-.13-.13Zm-1.3-1.31c-.07 0-.13.06-.13.13s.06.13.13.13.13-.06.13-.13-.06-.13-.13-.13Zm1.3 0c-.07 0-.13.06-.13.13s.06.13.13.13.13-.06.13-.13-.06-.13-.13-.13Zm.65-.65c-.07 0-.13.06-.13.13s.06.13.13.13.13-.06.13-.13-.06-.13-.13-.13Zm-1.3 0c-.07 0-.13.06-.13.13s.06.13.13.13.13-.06.13-.13-.06-.13-.13-.13Zm-.65 3.26c-.07 0-.13.06-.13.13s.06.13.13.13.13-.06.13-.13-.06-.13-.13-.13Zm1.3 0c-.07 0-.13.06-.13.13s.06.13.13.13.13-.06.13-.13-.06-.13-.13-.13Zm-1.96-.65c-.07 0-.13.06-.13.13s.06.13.13.13.13-.06.13-.13-.06-.13-.13-.13Zm0-1.3c-.07 0-.13.06-.13.13s.06.13.13.13.13-.06.13-.13-.06-.13-.13-.13Zm-1.3 0c-.07 0-.13.06-.13.13s.06.13.13.13.13-.06.13-.13-.06-.13-.13-.13Zm-.65.65c-.07 0-.13.06-.13.13s.06.13.13.13.13-.06.13-.13-.06-.13-.13-.13Zm1.3 0c-.07 0-.13.06-.13.13s.06.13.13.13.13-.06.13-.13-.06-.13-.13-.13Zm0-1.31c-.07 0-.13.06-.13.13s.06.13.13.13.13-.06.13-.13-.06-.13-.13-.13Zm.65-.65c-.07 0-.13.06-.13.13s.06.13.13.13.13-.06.13-.13-.06-.13-.13-.13Zm-.65 3.26c-.07 0-.13.06-.13.13s.06.13.13.13.13-.06.13-.13-.06-.13-.13-.13Zm-.65-.65c-.07 0-.13.06-.13.13s.06.13.13.13.13-.06.13-.13-.06-.13-.13-.13Zm2.15-15.81c.57.48.77.65 1.27.92-.06.01-.1.06-.1.12 0 .07.06.13.13.13s.13-.06.13-.13c0-.02-.01-.03-.02-.04.19.1.41.21.71.35 1.16.55 1.09-1.72.93-2.33-.06-.21-.17-.39-.34-.54 0-.02.02-.03.02-.04 0-.07-.06-.13-.13-.13-.03 0-.06.01-.08.03-.34-.2-.83-.31-1.51-.23-.36.04-.66.16-.89.33 0-.07-.06-.13-.13-.13s-.13.06-.13.13c0 .06.05.11.11.12-.44.41-.49 1.01.03 1.45Zm1.04-1.49c.36 0 .65.29.65.65s-.29.65-.65.65-.65-.29-.65-.65.29-.65.65-.65Zm6.12-1.91c.07 0 .13-.06.13-.13s-.06-.13-.13-.13-.13.06-.13.13.06.13.13.13Zm.66 1.96c.07 0 .13-.06.13-.13s-.06-.13-.13-.13-.13.06-.13.13.06.13.13.13Zm-.66.65c.07 0 .13-.06.13-.13s-.06-.13-.13-.13-.13.06-.13.13.06.13.13.13Zm0-1.3c.07 0 .13-.06.13-.13s-.06-.13-.13-.13-.13.06-.13.13.06.13.13.13Zm.66-.66c.07 0 .13-.06.13-.13s-.06-.13-.13-.13-.13.06-.13.13.06.13.13.13Zm-.66 3.27c.07 0 .13-.06.13-.13s-.06-.13-.13-.13-.13.06-.13.13.06.13.13.13Zm-2.61-3.92c.07 0 .13-.06.13-.13s-.06-.13-.13-.13-.13.06-.13.13.06.13.13.13Zm1.31 0c.07 0 .13-.06.13-.13s-.06-.13-.13-.13-.13.06-.13.13.06.13.13.13Zm.65 1.96c.07 0 .13-.06.13-.13s-.06-.13-.13-.13-.13.06-.13.13.06.13.13.13Zm-1.3 0c.07 0 .13-.06.13-.13s-.06-.13-.13-.13-.13.06-.13.13.06.13.13.13Zm-.66.65c.07 0 .13-.06.13-.13s-.06-.13-.13-.13-.13.06-.13.13.06.13.13.13Zm1.31 0c.07 0 .13-.06.13-.13s-.06-.13-.13-.13-.13.06-.13.13.06.13.13.13Zm-1.31-1.3c.07 0 .13-.06.13-.13s-.06-.13-.13-.13-.13.06-.13.13.06.13.13.13Zm1.31 0c.07 0 .13-.06.13-.13s-.06-.13-.13-.13-.13.06-.13.13.06.13.13.13Zm.65-.66c.07 0 .13-.06.13-.13s-.06-.13-.13-.13-.13.06-.13.13.06.13.13.13Zm-1.3 0c.07 0 .13-.06.13-.13s-.06-.13-.13-.13-.13.06-.13.13.06.13.13.13Zm1.3 3.92c.07 0 .13-.06.13-.13s-.06-.13-.13-.13-.13.06-.13.13.06.13.13.13Zm-1.3 0c.07 0 .13-.06.13-.13s-.06-.13-.13-.13-.13.06-.13.13.06.13.13.13Zm-.66.65c.07 0 .13-.06.13-.13s-.06-.13-.13-.13-.13.06-.13.13.06.13.13.13Zm1.31 0c.07 0 .13-.06.13-.13s-.06-.13-.13-.13-.13.06-.13.13.06.13.13.13Zm-1.31-1.3c.07 0 .13-.06.13-.13s-.06-.13-.13-.13-.13.06-.13.13.06.13.13.13Zm1.31 0c.07 0 .13-.06.13-.13s-.06-.13-.13-.13-.13.06-.13.13.06.13.13.13Zm.65-.66c.07 0 .13-.06.13-.13s-.06-.13-.13-.13-.13.06-.13.13.06.13.13.13Zm-1.3 0c.07 0 .13-.06.13-.13s-.06-.13-.13-.13-.13.06-.13.13.06.13.13.13Zm-1.31-3.91c.07 0 .13-.06.13-.13S69.85.9 69.78.9s-.13.06-.13.13.06.13.13.13Zm-1.3 0c.07 0 .13-.06.13-.13S68.55.9 68.48.9s-.13.06-.13.13.06.13.13.13Zm-.66.65c.07 0 .13-.06.13-.13s-.06-.13-.13-.13-.13.06-.13.13.06.13.13.13Zm1.31 0c.07 0 .13-.06.13-.13s-.06-.13-.13-.13-.13.06-.13.13.06.13.13.13Zm-.65 6.92c-.07 0-.13.06-.13.13s.06.13.13.13.13-.06.13-.13-.06-.13-.13-.13Zm-.66.65c-.07 0-.13.06-.13.13s.06.13.13.13.13-.06.13-.13-.06-.13-.13-.13Zm1.31 0c-.07 0-.13.06-.13.13s.06.13.13.13.13-.06.13-.13-.06-.13-.13-.13Zm-1.31-1.3c-.07 0-.13.06-.13.13s.06.13.13.13.13-.06.13-.13-.06-.13-.13-.13Zm1.31 0c-.07 0-.13.06-.13.13s.06.13.13.13.13-.06.13-.13-.06-.13-.13-.13Zm-1.31 2.61c-.07 0-.13.06-.13.13s.06.13.13.13.13-.06.13-.13-.06-.13-.13-.13Zm.66-.66c-.07 0-.13.06-.13.13s.06.13.13.13.13-.06.13-.13-.06-.13-.13-.13Zm-1.31-8.87c.07 0 .13-.06.13-.13S67.24.9 67.17.9s-.13.06-.13.13.06.13.13.13Zm-1.3 0c.07 0 .13-.06.13-.13S65.94.9 65.87.9s-.13.06-.13.13.06.13.13.13Zm-.66.65c.07 0 .13-.06.13-.13s-.06-.13-.13-.13-.13.06-.13.13.06.13.13.13Zm1.31 0c.07 0 .13-.06.13-.13s-.06-.13-.13-.13-.13.06-.13.13.06.13.13.13Zm.65 6.92c-.07 0-.13.06-.13.13s.06.13.13.13.13-.06.13-.13-.06-.13-.13-.13Zm-1.3 0c-.07 0-.13.06-.13.13s.06.13.13.13.13-.06.13-.13-.06-.13-.13-.13Zm-.66.91c.07 0 .13-.06.13-.13s-.06-.13-.13-.13-.13.06-.13.13.06.13.13.13Zm1.31-.26c-.07 0-.13.06-.13.13s.06.13.13.13.13-.06.13-.13-.06-.13-.13-.13Zm-1.31-1.04c.07 0 .13-.06.13-.13s-.06-.13-.13-.13-.13.06-.13.13.06.13.13.13Zm1.31-.26c-.07 0-.13.06-.13.13s.06.13.13.13.13-.06.13-.13-.06-.13-.13-.13Zm.65 3.26c-.07 0-.13.06-.13.13s.06.13.13.13.13-.06.13-.13-.06-.13-.13-.13Zm-1.3 0c-.07 0-.13.06-.13.13s.06.13.13.13.13-.06.13-.13-.06-.13-.13-.13Zm-.66.91c.07 0 .13-.06.13-.13s-.06-.13-.13-.13-.13.06-.13.13.06.13.13.13Zm0-1.3c.07 0 .13-.06.13-.13s-.06-.13-.13-.13-.13.06-.13.13.06.13.13.13Zm1.31-.26c-.07 0-.13.06-.13.13s.06.13.13.13.13-.06.13-.13-.06-.13-.13-.13Zm.65-.66c-.07 0-.13.06-.13.13s.06.13.13.13.13-.06.13-.13-.06-.13-.13-.13Zm-1.3 0c-.07 0-.13.06-.13.13s.06.13.13.13.13-.06.13-.13-.06-.13-.13-.13Zm-1.31-8.87c.07 0 .13-.06.13-.13S64.63.9 64.56.9s-.13.06-.13.13.06.13.13.13ZM63.26.9c-.07 0-.13.06-.13.13s.06.13.13.13.13-.06.13-.13-.06-.13-.13-.13Zm-.66.65c-.07 0-.13.06-.13.13s.06.13.13.13.13-.06.13-.13-.06-.13-.13-.13Zm1.31.26c.07 0 .13-.06.13-.13s-.06-.13-.13-.13-.13.06-.13.13.06.13.13.13Zm-.65 1.7c-.07 0-.13.06-.13.13s.06.13.13.13.13-.06.13-.13-.06-.13-.13-.13Zm-.66.65c-.07 0-.13.06-.13.13s.06.13.13.13.13-.06.13-.13-.06-.13-.13-.13Zm1.31.26c.07 0 .13-.06.13-.13s-.06-.13-.13-.13-.13.06-.13.13.06.13.13.13ZM62.6 2.86c-.07 0-.13.06-.13.13s.06.13.13.13.13-.06.13-.13-.06-.13-.13-.13Zm1.31.26c.07 0 .13-.06.13-.13s-.06-.13-.13-.13-.13.06-.13.13.06.13.13.13Zm-.65-.92c-.07 0-.13.06-.13.13s.06.13.13.13.13-.06.13-.13-.06-.13-.13-.13Zm0 3.92c-.07 0-.13.06-.13.13s.06.13.13.13.13-.06.13-.13-.06-.13-.13-.13Zm-.66.65c-.07 0-.13.06-.13.13s.06.13.13.13.13-.06.13-.13-.06-.13-.13-.13Zm1.31.26c.07 0 .13-.06.13-.13s-.06-.13-.13-.13-.13.06-.13.13.06.13.13.13Zm0-1.3c.07 0 .13-.06.13-.13s-.06-.13-.13-.13-.13.06-.13.13.06.13.13.13Zm-.65-.92c-.07 0-.13.06-.13.13s.06.13.13.13.13-.06.13-.13-.06-.13-.13-.13Zm1.3 4.18c.07 0 .13-.06.13-.13s-.06-.13-.13-.13-.13.06-.13.13.06.13.13.13Zm-1.3-.26c-.07 0-.13.06-.13.13s.06.13.13.13.13-.06.13-.13-.06-.13-.13-.13Zm-.66.65c-.07 0-.13.06-.13.13s.06.13.13.13.13-.06.13-.13-.06-.13-.13-.13Zm1.31.26c.07 0 .13-.06.13-.13s-.06-.13-.13-.13-.13.06-.13.13.06.13.13.13ZM62.6 8.08c-.07 0-.13.06-.13.13s.06.13.13.13.13-.06.13-.13-.06-.13-.13-.13Zm1.31.26c.07 0 .13-.06.13-.13s-.06-.13-.13-.13-.13.06-.13.13.06.13.13.13Zm-.65-.92c-.07 0-.13.06-.13.13s.06.13.13.13.13-.06.13-.13-.06-.13-.13-.13Zm1.3 4.18c.07 0 .13-.06.13-.13s-.06-.13-.13-.13-.13.06-.13.13.06.13.13.13Zm-1.3-.26c-.07 0-.13.06-.13.13s.06.13.13.13.13-.06.13-.13-.06-.13-.13-.13Zm-.66.65c-.07 0-.13.06-.13.13s.06.13.13.13.13-.06.13-.13-.06-.13-.13-.13Zm1.31.26c.07 0 .13-.06.13-.13s-.06-.13-.13-.13-.13.06-.13.13.06.13.13.13Zm-1.31-1.56c-.07 0-.13.06-.13.13s.06.13.13.13.13-.06.13-.13-.06-.13-.13-.13Zm1.31.26c.07 0 .13-.06.13-.13s-.06-.13-.13-.13-.13.06-.13.13.06.13.13.13Zm.65-.65c.07 0 .13-.06.13-.13s-.06-.13-.13-.13-.13.06-.13.13.06.13.13.13Zm-1.3-.27c-.07 0-.13.06-.13.13s.06.13.13.13.13-.06.13-.13-.06-.13-.13-.13Zm1.3 2.88c.07 0 .13-.06.13-.13s-.06-.13-.13-.13-.13.06-.13.13.06.13.13.13Zm-1.3-.27c-.07 0-.13.06-.13.13s.06.13.13.13.13-.06.13-.13-.06-.13-.13-.13ZM61.95 2.2c-.07 0-.13.06-.13.13s.06.13.13.13.13-.06.13-.13-.06-.13-.13-.13Zm-1.96 4.57c-.07 0-.13.06-.13.13s.06.13.13.13.13-.06.13-.13-.06-.13-.13-.13Zm1.31 0c-.07 0-.13.06-.13.13s.06.13.13.13.13-.06.13-.13-.06-.13-.13-.13Zm.65 1.96c-.07 0-.13.06-.13.13s.06.13.13.13.13-.06.13-.13-.06-.13-.13-.13Zm-1.3 0c-.07 0-.13.06-.13.13s.06.13.13.13.13-.06.13-.13-.06-.13-.13-.13Zm-.66.65c-.07 0-.13.06-.13.13s.06.13.13.13.13-.06.13-.13-.06-.13-.13-.13Zm1.31 0c-.07 0-.13.06-.13.13s.06.13.13.13.13-.06.13-.13-.06-.13-.13-.13Zm-1.31-1.3c-.07 0-.13.06-.13.13s.06.13.13.13.13-.06.13-.13-.06-.13-.13-.13Zm1.31 0c-.07 0-.13.06-.13.13s.06.13.13.13.13-.06.13-.13-.06-.13-.13-.13Zm.65-.66c-.07 0-.13.06-.13.13s.06.13.13.13.13-.06.13-.13-.06-.13-.13-.13Zm-1.3 0c-.07 0-.13.06-.13.13s.06.13.13.13.13-.06.13-.13-.06-.13-.13-.13Zm1.3 3.92c-.07 0-.13.06-.13.13s.06.13.13.13.13-.06.13-.13-.06-.13-.13-.13Zm-.65-.65c-.07 0-.13.06-.13.13s.06.13.13.13.13-.06.13-.13-.06-.13-.13-.13Zm.65-.66c-.07 0-.13.06-.13.13s.06.13.13.13.13-.06.13-.13-.06-.13-.13-.13Zm-1.3 0c-.07 0-.13.06-.13.13s.06.13.13.13.13-.06.13-.13-.06-.13-.13-.13Zm-1.31-3.91c-.07 0-.13.06-.13.13s.06.13.13.13.13-.06.13-.13-.06-.13-.13-.13Zm0 2.61c-.07 0-.13.06-.13.13s.06.13.13.13.13-.06.13-.13-.06-.13-.13-.13Zm0-1.31c-.07 0-.13.06-.13.13s.06.13.13.13.13-.06.13-.13-.06-.13-.13-.13Zm10.44-3.65c.07 0 .13-.06.13-.13s-.06-.13-.13-.13-.13.06-.13.13.06.13.13.13Zm-.65.65c.07 0 .13-.06.13-.13s-.06-.13-.13-.13-.13.06-.13.13.06.13.13.13Zm-1.31-1.3c.07 0 .13-.06.13-.13s-.06-.13-.13-.13-.13.06-.13.13.06.13.13.13Zm1.31 0c.07 0 .13-.06.13-.13s-.06-.13-.13-.13-.13.06-.13.13.06.13.13.13Zm.65-.66c.07 0 .13-.06.13-.13s-.06-.13-.13-.13-.13.06-.13.13.06.13.13.13Zm-1.3 0c.07 0 .13-.06.13-.13s-.06-.13-.13-.13-.13.06-.13.13.06.13.13.13Zm0 4.96c-.07 0-.13.06-.13.13s.06.13.13.13.13-.06.13-.13-.06-.13-.13-.13Zm1.3-1.04c.07 0 .13-.06.13-.13s-.06-.13-.13-.13-.13.06-.13.13.06.13.13.13Zm-1.96.39c-.07 0-.13.06-.13.13s.06.13.13.13.13-.06.13-.13-.06-.13-.13-.13Zm1.31 0c-.07 0-.13.06-.13.13s.06.13.13.13.13-.06.13-.13-.06-.13-.13-.13Z"/><path class="cls-1" d="M69.13 5.47c-.07 0-.13.06-.13.13s.06.13.13.13.13-.06.13-.13-.06-.13-.13-.13Zm.65-.4c.07 0 .13-.06.13-.13s-.06-.13-.13-.13-.13.06-.13.13.06.13.13.13Zm-4.57-.65c.07 0 .13-.06.13-.13s-.06-.13-.13-.13-.13.06-.13.13.06.13.13.13Zm0-1.3c.07 0 .13-.06.13-.13s-.06-.13-.13-.13-.13.06-.13.13.06.13.13.13Zm1.31 0c.07 0 .13-.06.13-.13s-.06-.13-.13-.13-.13.06-.13.13.06.13.13.13Zm-1.96.65c.07 0 .13-.06.13-.13s-.06-.13-.13-.13-.13.06-.13.13.06.13.13.13Zm2.61-1.31c.07 0 .13-.06.13-.13s-.06-.13-.13-.13-.13.06-.13.13.06.13.13.13Zm-1.3 0c.07 0 .13-.06.13-.13s-.06-.13-.13-.13-.13.06-.13.13.06.13.13.13Zm-1.31 0c.07 0 .13-.06.13-.13s-.06-.13-.13-.13-.13.06-.13.13.06.13.13.13Zm2.61 4.96c-.07 0-.13.06-.13.13s.06.13.13.13.13-.06.13-.13-.06-.13-.13-.13Zm-1.3 0c-.07 0-.13.06-.13.13s.06.13.13.13.13-.06.13-.13-.06-.13-.13-.13Zm0-1.3c-.07 0-.13.06-.13.13s.06.13.13.13.13-.06.13-.13-.06-.13-.13-.13Zm-.66.91c.07 0 .13-.06.13-.13s-.06-.13-.13-.13-.13.06-.13.13.06.13.13.13Zm1.31-.26c-.07 0-.13.06-.13.13s.06.13.13.13.13-.06.13-.13-.06-.13-.13-.13Zm-1.31-1.04c.07 0 .13-.06.13-.13s-.06-.13-.13-.13-.13.06-.13.13.06.13.13.13Zm-.65 1.95c.07 0 .13-.06.13-.13s-.06-.13-.13-.13-.13.06-.13.13.06.13.13.13Zm0-1.3c.07 0 .13-.06.13-.13s-.06-.13-.13-.13-.13.06-.13.13.06.13.13.13Zm0-1.31c.07 0 .13-.06.13-.13s-.06-.13-.13-.13-.13.06-.13.13.06.13.13.13Zm22.19 3.92c.07 0 .13-.06.13-.13s-.06-.13-.13-.13-.13.06-.13.13.06.13.13.13Zm-.66.65c.07 0 .13-.06.13-.13s-.06-.13-.13-.13-.13.06-.13.13.06.13.13.13Zm1.31 0c.07 0 .13-.06.13-.13s-.06-.13-.13-.13-.13.06-.13.13.06.13.13.13Zm-1.31-1.3c.07 0 .13-.06.13-.13s-.06-.13-.13-.13-.13.06-.13.13.06.13.13.13Zm0 2.61c.07 0 .13-.06.13-.13s-.06-.13-.13-.13-.13.06-.13.13.06.13.13.13Zm.66-.65c.07 0 .13-.06.13-.13s-.06-.13-.13-.13-.13.06-.13.13.06.13.13.13Zm-3.27-5.88c.07 0 .13-.06.13-.13s-.06-.13-.13-.13-.13.06-.13.13.06.13.13.13Zm.66 1.96c.07 0 .13-.06.13-.13s-.06-.13-.13-.13-.13.06-.13.13.06.13.13.13Zm-.66.65c.07 0 .13-.06.13-.13s-.06-.13-.13-.13-.13.06-.13.13.06.13.13.13Zm1.31 0c.07 0 .13-.06.13-.13s-.06-.13-.13-.13-.13.06-.13.13.06.13.13.13Zm-1.31-1.3c.07 0 .13-.06.13-.13s-.06-.13-.13-.13-.13.06-.13.13.06.13.13.13Zm1.96 3.26c.07 0 .13-.06.13-.13s-.06-.13-.13-.13-.13.06-.13.13.06.13.13.13Zm-1.3 0c.07 0 .13-.06.13-.13s-.06-.13-.13-.13-.13.06-.13.13.06.13.13.13Zm.65.65c.07 0 .13-.06.13-.13s-.06-.13-.13-.13-.13.06-.13.13.06.13.13.13Zm-1.31-1.3c.07 0 .13-.06.13-.13s-.06-.13-.13-.13-.13.06-.13.13.06.13.13.13Zm1.31 0c.07 0 .13-.06.13-.13s-.06-.13-.13-.13-.13.06-.13.13.06.13.13.13Zm.65-.66c.07 0 .13-.06.13-.13s-.06-.13-.13-.13-.13.06-.13.13.06.13.13.13Zm-1.3 0c.07 0 .13-.06.13-.13s-.06-.13-.13-.13-.13.06-.13.13.06.13.13.13Zm1.3 2.62c.07 0 .13-.06.13-.13s-.06-.13-.13-.13-.13.06-.13.13.06.13.13.13Zm-2.61-6.53c.07 0 .13-.06.13-.13s-.06-.13-.13-.13-.13.06-.13.13.06.13.13.13Zm-1.3 0c.07 0 .13-.06.13-.13s-.06-.13-.13-.13-.13.06-.13.13.06.13.13.13Zm-.66.65c.07 0 .13-.06.13-.13s-.06-.13-.13-.13-.13.06-.13.13.06.13.13.13Zm1.31 0c.07 0 .13-.06.13-.13s-.06-.13-.13-.13-.13.06-.13.13.06.13.13.13Zm0-1.3c.07 0 .13-.06.13-.13s-.06-.13-.13-.13-.13.06-.13.13.06.13.13.13Zm.65 3.26c.07 0 .13-.06.13-.13s-.06-.13-.13-.13-.13.06-.13.13.06.13.13.13Zm-.65-.65c.07 0 .13-.06.13-.13s-.06-.13-.13-.13-.13.06-.13.13.06.13.13.13Zm.65-.66c.07 0 .13-.06.13-.13s-.06-.13-.13-.13-.13.06-.13.13.06.13.13.13Zm-1.3 0c.07 0 .13-.06.13-.13s-.06-.13-.13-.13-.13.06-.13.13.06.13.13.13Zm1.3 2.61c.07 0 .13-.06.13-.13s-.06-.13-.13-.13-.13.06-.13.13.06.13.13.13Zm-2.61-3.91c.07 0 .13-.06.13-.13s-.06-.13-.13-.13c-.04 0-.07.01-.09.04-.02.02-.04.06-.04.09s.01.07.04.09c.02.02.06.04.09.04Zm-1.3-.26c-.07 0-.13.06-.13.13s.06.13.13.13.13-.06.13-.13-.06-.13-.13-.13Zm-5.88 5.87c-.07 0-.13.06-.13.13s.06.13.13.13.13-.06.13-.13-.06-.13-.13-.13Zm1.31.26c.07 0 .13-.06.13-.13s-.06-.13-.13-.13-.13.06-.13.13.06.13.13.13ZM75 11.6c.07 0 .13-.06.13-.13s-.06-.13-.13-.13-.13.06-.13.13.06.13.13.13Zm-1.3-.26c-.07 0-.13.06-.13.13s.06.13.13.13.13-.06.13-.13-.06-.13-.13-.13Zm-.66.65c-.07 0-.13.06-.13.13s.06.13.13.13.13-.06.13-.13-.06-.13-.13-.13Zm1.31.26c.07 0 .13-.06.13-.13s-.06-.13-.13-.13-.13.06-.13.13.06.13.13.13Zm-1.31-1.56c-.07 0-.13.06-.13.13s.06.13.13.13.13-.06.13-.13-.06-.13-.13-.13Zm1.31.26c.07 0 .13-.06.13-.13s-.06-.13-.13-.13-.13.06-.13.13.06.13.13.13Zm.65-.65c.07 0 .13-.06.13-.13s-.06-.13-.13-.13-.13.06-.13.13.06.13.13.13Zm-1.3 0c.07 0 .13-.06.13-.13s-.06-.13-.13-.13-.13.06-.13.13.06.13.13.13Zm-.66 3c-.07 0-.13.06-.13.13s.06.13.13.13.13-.06.13-.13-.06-.13-.13-.13Zm.66-.66c-.07 0-.13.06-.13.13s.06.13.13.13.13-.06.13-.13-.06-.13-.13-.13Zm-1.31-3.91c-.07 0-.13.06-.13.13s.06.13.13.13.13-.06.13-.13-.06-.13-.13-.13Zm-.65.65c-.07 0-.13.06-.13.13s.06.13.13.13.13-.06.13-.13-.06-.13-.13-.13Zm-1.31-1.04c.07 0 .13-.06.13-.13s-.06-.13-.13-.13-.13.06-.13.13.06.13.13.13Zm-.65.65c.07 0 .13-.06.13-.13s-.06-.13-.13-.13-.13.06-.13.13.06.13.13.13Zm1.31-1.31c.07 0 .13-.06.13-.13s-.06-.13-.13-.13-.13.06-.13.13.06.13.13.13Zm-1.31 0c.07 0 .13-.06.13-.13s-.06-.13-.13-.13-.13.06-.13.13.06.13.13.13Zm2.61 3.66c-.07 0-.13.06-.13.13s.06.13.13.13.13-.06.13-.13-.06-.13-.13-.13Zm-.65.65c-.07 0-.13.06-.13.13s.06.13.13.13.13-.06.13-.13-.06-.13-.13-.13Zm0-1.3c-.07 0-.13.06-.13.13s.06.13.13.13.13-.06.13-.13-.06-.13-.13-.13Zm.65-.66c-.07 0-.13.06-.13.13s.06.13.13.13.13-.06.13-.13-.06-.13-.13-.13Zm-.65 3.27c-.07 0-.13.06-.13.13s.06.13.13.13.13-.06.13-.13-.06-.13-.13-.13Zm.65-.66c-.07 0-.13.06-.13.13s.06.13.13.13.13-.06.13-.13-.06-.13-.13-.13Zm16.97 4.18c.07 0 .13-.06.13-.13s-.06-.13-.13-.13-.13.06-.13.13.06.13.13.13Zm-.65.65c.07 0 .13-.06.13-.13s-.06-.13-.13-.13-.13.06-.13.13.06.13.13.13Zm-.66-.65c.07 0 .13-.06.13-.13s-.06-.13-.13-.13-.13.06-.13.13.06.13.13.13Zm-.65.65c.07 0 .13-.06.13-.13s-.06-.13-.13-.13-.13.06-.13.13.06.13.13.13Zm0-1.3c.07 0 .13-.06.13-.13s-.06-.13-.13-.13-.13.06-.13.13.06.13.13.13Zm0 2.61c.07 0 .13-.06.13-.13s-.06-.13-.13-.13-.13.06-.13.13.06.13.13.13Zm.65-.65c.07 0 .13-.06.13-.13s-.06-.13-.13-.13-.13.06-.13.13.06.13.13.13ZM75 24.39c-.07 0-.13.06-.13.13s.06.13.13.13.13-.06.13-.13-.06-.13-.13-.13Zm13.57 7.31c0 .07.06.13.13.13s.13-.06.13-.13-.06-.13-.13-.13-.13.06-.13.13Zm-1.82-7.31c-.07 0-.13.06-.13.13s.06.13.13.13.13-.06.13-.13-.06-.13-.13-.13Zm-.66.65c-.07 0-.13.06-.13.13s.06.13.13.13.13-.06.13-.13-.06-.13-.13-.13Zm0-1.3c-.07 0-.13.06-.13.13s.06.13.13.13.13-.06.13-.13-.06-.13-.13-.13Zm.66 3.26c-.07 0-.13.06-.13.13s.06.13.13.13.13-.06.13-.13-.06-.13-.13-.13Zm-.66.65c-.07 0-.13.06-.13.13s.06.13.13.13.13-.06.13-.13-.06-.13-.13-.13Zm1.31 0c-.07 0-.13.06-.13.13s.06.13.13.13.13-.06.13-.13-.06-.13-.13-.13Zm-1.31-1.3c-.07 0-.13.06-.13.13s.06.13.13.13.13-.06.13-.13-.06-.13-.13-.13Zm.66-.65c-.07 0-.13.06-.13.13s.06.13.13.13.13-.06.13-.13-.06-.13-.13-.13Zm1.3 3.91c-.07 0-.13.06-.13.13s.06.13.13.13.13-.06.13-.13-.06-.13-.13-.13Zm-1.3 0c-.07 0-.13.06-.13.13s.06.13.13.13.13-.06.13-.13-.06-.13-.13-.13Zm-.66.65c-.07 0-.13.06-.13.13s.06.13.13.13.13-.06.13-.13-.06-.13-.13-.13Zm1.31 0c-.07 0-.13.06-.13.13s.06.13.13.13.13-.06.13-.13-.06-.13-.13-.13Zm-1.31-1.3c-.07 0-.13.06-.13.13s.06.13.13.13.13-.06.13-.13-.06-.13-.13-.13Zm1.31 0c-.07 0-.13.06-.13.13s.06.13.13.13.13-.06.13-.13-.06-.13-.13-.13Zm-.65-.65c-.07 0-.13.06-.13.13s.06.13.13.13.13-.06.13-.13-.06-.13-.13-.13Zm1.3 3.91c-.07 0-.13.06-.13.13s.06.13.13.13.13-.06.13-.13-.06-.13-.13-.13Zm-1.3 0c-.07 0-.13.06-.13.13s.06.13.13.13.13-.06.13-.13-.06-.13-.13-.13Zm-.66-.65c-.07 0-.13.06-.13.13s.06.13.13.13.13-.06.13-.13-.06-.13-.13-.13Zm1.31 0c-.07 0-.13.06-.13.13s.06.13.13.13.13-.06.13-.13-.06-.13-.13-.13Zm.65-.65c-.07 0-.13.06-.13.13s.06.13.13.13.13-.06.13-.13-.06-.13-.13-.13Zm-1.3 0c-.07 0-.13.06-.13.13s.06.13.13.13.13-.06.13-.13-.06-.13-.13-.13Zm-1.31-6.53c-.07 0-.13.06-.13.13s.06.13.13.13.13-.06.13-.13-.06-.13-.13-.13Zm-1.3 0c-.07 0-.13.06-.13.13s.06.13.13.13.13-.06.13-.13-.06-.13-.13-.13Zm-.66.65c-.07 0-.13.06-.13.13s.06.13.13.13.13-.06.13-.13-.06-.13-.13-.13Zm1.31 0c-.07 0-.13.06-.13.13s.06.13.13.13.13-.06.13-.13-.06-.13-.13-.13Zm.65 1.96c-.07 0-.13.06-.13.13s.06.13.13.13.13-.06.13-.13-.06-.13-.13-.13Zm-1.3 0c-.07 0-.13.06-.13.13s.06.13.13.13.13-.06.13-.13-.06-.13-.13-.13Zm-.66.65c-.07 0-.13.06-.13.13s.06.13.13.13.13-.06.13-.13-.06-.13-.13-.13Zm1.31 0c-.07 0-.13.06-.13.13s.06.13.13.13.13-.06.13-.13-.06-.13-.13-.13Zm-1.31-1.3c-.07 0-.13.06-.13.13s.06.13.13.13.13-.06.13-.13-.06-.13-.13-.13Zm1.31 0c-.07 0-.13.06-.13.13s.06.13.13.13.13-.06.13-.13-.06-.13-.13-.13Zm.65-.65c-.07 0-.13.06-.13.13s.06.13.13.13.13-.06.13-.13-.06-.13-.13-.13Zm-1.3 0c-.07 0-.13.06-.13.13s.06.13.13.13.13-.06.13-.13-.06-.13-.13-.13Zm1.3 3.91c-.07 0-.13.06-.13.13s.06.13.13.13.13-.06.13-.13-.06-.13-.13-.13Zm-1.3 0c-.07 0-.13.06-.13.13s.06.13.13.13.13-.06.13-.13-.06-.13-.13-.13Zm-.66.65c-.07 0-.13.06-.13.13s.06.13.13.13.13-.06.13-.13-.06-.13-.13-.13Zm1.31 0c-.07 0-.13.06-.13.13s.06.13.13.13.13-.06.13-.13-.06-.13-.13-.13Zm-1.31-1.3c-.07 0-.13.06-.13.13s.06.13.13.13.13-.06.13-.13-.06-.13-.13-.13Zm1.31 0c-.07 0-.13.06-.13.13s.06.13.13.13.13-.06.13-.13-.06-.13-.13-.13Zm.65-.65c-.07 0-.13.06-.13.13s.06.13.13.13.13-.06.13-.13-.06-.13-.13-.13Zm-1.3 0c-.07 0-.13.06-.13.13s.06.13.13.13.13-.06.13-.13-.06-.13-.13-.13Zm-.66 3.26c-.07 0-.13.06-.13.13s.06.13.13.13.13-.06.13-.13-.06-.13-.13-.13Zm1.31 0c-.07 0-.13.06-.13.13s.06.13.13.13.13-.06.13-.13-.06-.13-.13-.13Zm.65-.65c-.07 0-.13.06-.13.13s.06.13.13.13.13-.06.13-.13-.06-.13-.13-.13Zm-1.3 0c-.07 0-.13.06-.13.13s.06.13.13.13.13-.06.13-.13-.06-.13-.13-.13Zm-3.27-5.88c-.07 0-.13.06-.13.13s.06.13.13.13.13-.06.13-.13-.06-.13-.13-.13Zm1.31 0c-.07 0-.13.06-.13.13s.06.13.13.13.13-.06.13-.13-.06-.13-.13-.13Zm.65 1.96c-.07 0-.13.06-.13.13s.06.13.13.13.13-.06.13-.13-.06-.13-.13-.13Zm-1.3 0c-.07 0-.13.06-.13.13s.06.13.13.13.13-.06.13-.13-.06-.13-.13-.13Zm-.66.65c-.07 0-.13.06-.13.13s.06.13.13.13.13-.06.13-.13-.06-.13-.13-.13Zm1.31 0c-.07 0-.13.06-.13.13s.06.13.13.13.13-.06.13-.13-.06-.13-.13-.13Zm-1.31-1.3c-.07 0-.13.06-.13.13s.06.13.13.13.13-.06.13-.13-.06-.13-.13-.13Zm1.31 0c-.07 0-.13.06-.13.13s.06.13.13.13.13-.06.13-.13-.06-.13-.13-.13Zm.65-.65c-.07 0-.13.06-.13.13s.06.13.13.13.13-.06.13-.13-.06-.13-.13-.13Zm-1.3 0c-.07 0-.13.06-.13.13s.06.13.13.13.13-.06.13-.13-.06-.13-.13-.13Zm1.3 3.91c-.07 0-.13.06-.13.13s.06.13.13.13.13-.06.13-.13-.06-.13-.13-.13Zm-1.3 0c-.07 0-.13.06-.13.13s.06.13.13.13.13-.06.13-.13-.06-.13-.13-.13Zm-.66.65c-.07 0-.13.06-.13.13s.06.13.13.13.13-.06.13-.13-.06-.13-.13-.13Zm1.31 0c-.07 0-.13.06-.13.13s.06.13.13.13.13-.06.13-.13-.06-.13-.13-.13Zm-1.31-1.3c-.07 0-.13.06-.13.13s.06.13.13.13.13-.06.13-.13-.06-.13-.13-.13Zm1.31 0c-.07 0-.13.06-.13.13s.06.13.13.13.13-.06.13-.13-.06-.13-.13-.13Zm.65-.65c-.07 0-.13.06-.13.13s.06.13.13.13.13-.06.13-.13-.06-.13-.13-.13Zm-1.3 0c-.07 0-.13.06-.13.13s.06.13.13.13.13-.06.13-.13-.06-.13-.13-.13Zm1.3 3.91c-.07 0-.13.06-.13.13s.06.13.13.13.13-.06.13-.13-.06-.13-.13-.13Zm-1.3 0c-.07 0-.13.06-.13.13s.06.13.13.13.13-.06.13-.13-.06-.13-.13-.13Zm-.66.65c-.07 0-.13.06-.13.13s.06.13.13.13.13-.06.13-.13-.06-.13-.13-.13Zm0-1.3c-.07 0-.13.06-.13.13s.06.13.13.13.13-.06.13-.13-.06-.13-.13-.13Zm1.31 0c-.07 0-.13.06-.13.13s.06.13.13.13.13-.06.13-.13-.06-.13-.13-.13Zm.65-.65c-.07 0-.13.06-.13.13s.06.13.13.13.13-.06.13-.13-.06-.13-.13-.13Zm-1.3 0c-.07 0-.13.06-.13.13s.06.13.13.13.13-.06.13-.13-.06-.13-.13-.13Zm-1.96-5.88c-.07 0-.13.06-.13.13s.06.13.13.13.13-.06.13-.13-.06-.13-.13-.13Zm.65 1.96s-.07.01-.09.04c-.02.02-.04.06-.04.09s.01.07.04.09c.02.02.06.04.09.04.07 0 .13-.06.13-.13s-.06-.13-.13-.13Zm-.65.65c-.07 0-.13.06-.13.13s.06.13.13.13.13-.06.13-.13-.06-.13-.13-.13Zm0-1.3c-.07 0-.13.06-.13.13s.06.13.13.13.13-.06.13-.13-.06-.13-.13-.13Zm.65-.65s-.07.01-.09.04c-.02.02-.04.06-.04.09s.01.07.04.09c.02.02.06.04.09.04.07 0 .13-.06.13-.13s-.06-.13-.13-.13Zm0 3.91s-.07.01-.09.04c-.02.02-.04.06-.04.09s.01.07.04.09c.02.02.06.04.09.04.07 0 .13-.06.13-.13s-.06-.13-.13-.13Zm-.65.65c-.07 0-.13.06-.13.13s.06.13.13.13.13-.06.13-.13-.06-.13-.13-.13Zm0-1.3c-.07 0-.13.06-.13.13s.06.13.13.13.13-.06.13-.13-.06-.13-.13-.13Zm.65-.65s-.07.01-.09.04c-.02.02-.04.06-.04.09s.01.07.04.09c.02.02.06.04.09.04.07 0 .13-.06.13-.13s-.06-.13-.13-.13Zm0 3.91s-.07.01-.09.04c-.02.02-.04.06-.04.09s.01.07.04.09c.02.02.06.04.09.04.07 0 .13-.06.13-.13s-.06-.13-.13-.13Zm-1.3 0c-.07 0-.13.06-.13.13s.06.13.13.13.13-.06.13-.13-.06-.13-.13-.13Zm.65.65c-.07 0-.13.06-.13.13s.06.13.13.13.13-.06.13-.13-.06-.13-.13-.13Zm0-1.3c-.07 0-.13.06-.13.13s.06.13.13.13.13-.06.13-.13-.06-.13-.13-.13Zm.65-.65s-.07.01-.09.04c-.02.02-.04.06-.04.09s.01.07.04.09c.02.02.06.04.09.04.07 0 .13-.06.13-.13s-.06-.13-.13-.13Zm-1.96 3.26c-.07 0-.13.06-.13.13s.06.13.13.13.13-.06.13-.13-.06-.13-.13-.13Zm1.31 0c-.07 0-.13.06-.13.13s.06.13.13.13.13-.06.13-.13-.06-.13-.13-.13Zm.65-.65s-.07.01-.09.04c-.02.02-.04.06-.04.09s.01.07.04.09c.02.02.06.04.09.04.07 0 .13-.06.13-.13s-.06-.13-.13-.13Zm-1.3 0c-.07 0-.13.06-.13.13s.06.13.13.13.13-.06.13-.13-.06-.13-.13-.13Zm-2.61-9.14c-.07 0-.13.06-.13.13s.06.13.13.13.13-.06.13-.13-.06-.13-.13-.13Zm-.66.65c-.07 0-.13.06-.13.13s.06.13.13.13.13-.06.13-.13-.06-.13-.13-.13Zm0-1.3c-.07 0-.13.06-.13.13s.06.13.13.13.13-.06.13-.13-.06-.13-.13-.13Zm1.96 11.09c-.07 0-.13.06-.13.13s.06.13.13.13.13-.06.13-.13-.06-.13-.13-.13Z"/><path class="cls-1" d="M87.98 26.46c-.66-2.59-1.02-4.25-.96-5.1.88-.86 3.28-3.3 3.42-4.4.12-.94-.93-1.17-1.85-1.37-.64-.14-1.35-.3-1.76-.66-.15-.87-.37-1.68-.69-2.33-.1-.2-.22-.42-.35-.66.52-.19 1.5-.56 1.81-.74.42-.24 1.13-.64 1.02-1.85-.08-.84-1.01-1.59-2-2.39-.37-.3-.75-.6-1.06-.9-.44-.42-.79-1.21-1.12-1.98-.48-1.11-.94-2.15-1.74-2.15-.37 0-.75.09-1.19.19-.95.22-2.26.53-4.62.26v.02c-.5-.33-1.01-.63-1.53-.89C71.6-.39 62.35-.33 60.89.87c-.32.27-.3.56-.26.71.14.48.37 1.11.6 1.78.34.94.78 2.2.84 2.7-.32-.05-1.07-.37-1.54-.58-1.22-.53-1.74-.72-2.07-.54-.19.1-.43.36-.49.99-.16 1.62.95 5.36 4.64 8.5l.47.4c.62.53 1.32 1.13 2.07 1.75-.13.15-.26.31-.39.48-.5.61-1.01 1.24-1.53 1.82-.9.99-1.22 2.04-.88 2.88.33.83 1.27 1.34 2.63 1.45.2.01.38.02.56.02 1.51 0 2.32-.51 2.75-.96.44-.47.65-1.09.56-1.69-.05-.36-.11-.8-.17-1.25 1.59 1.16 3.3 2.29 5.08 3.21.06.73.3 2.97 1.04 3.67.19.18.37.25.54.25.34 0 .64-.28.9-.52.4-.37.92-.85 1.83-1.04.49 1.61.61 3.7.32 5.79-.12.86-.65 1.99-1.11 2.99-.62 1.33-.96 2.1-.75 2.56.07.15.2.26.36.3.05.01.1.02.16.02.61 0 1.7-.69 3.48-1.85 1.38-.9 2.93-1.92 3.74-2.1.69-.16 1.49.18 2.27.51 1.01.43 2.16.91 2.76-.15.61-1.08.2-2.14-.37-3.61-.31-.81-.67-1.73-.96-2.89Zm.48-10.29c1.01.22 1.42.37 1.38.71-.03.23-.23.59-.53 1.01-.05.02-.08.06-.08.11-.13.18-.28.36-.43.55a.127.127 0 0 0-.09-.04c-.07 0-.13.06-.13.13 0 .04.02.08.06.1-.15.17-.3.35-.46.53-.01-.06-.06-.11-.12-.11-.07 0-.13.06-.13.13s.05.12.12.13c-.17.19-.35.38-.53.57 0-.01.02-.02.02-.04 0-.07-.06-.13-.13-.13s-.13.06-.13.13.06.13.13.13c.02 0 .03-.01.05-.02-.17.18-.34.35-.5.51.15-1.31.2-3.15 0-4.87.46.23 1.01.36 1.51.47ZM78.16 3.06s.06.06.1.06c.04 0 .07-.02.1-.05.4 0 .77 0 1.1-.02.02.04.06.07.11.07.06 0 .09-.04.11-.09.44-.04.82-.09 1.16-.16-.05.02-.09.06-.09.12 0 .07.06.13.13.13s.13-.06.13-.13-.05-.12-.12-.12c.28-.05.54-.11.77-.17.42-.1.75-.17 1.05-.17.4 0 .82.95 1.18 1.79.07.17.15.34.23.51-.06.01-.11.06-.11.12 0 .07.06.13.13.13.03 0 .06-.01.08-.03.27.57.56 1.1.93 1.45.33.32.72.63 1.1.93.84.68 1.72 1.38 1.77 1.97.08.82-.33 1.05-.71 1.27-.27.15-1.27.53-1.83.73-.76-1.24-1.91-2.81-3.32-4.37h.01c.07 0 .13-.06.13-.13s-.06-.13-.13-.13-.13.06-.13.13c-.16-.18-.32-.36-.49-.53.05-.02.1-.06.1-.12 0-.07-.06-.13-.13-.13-.06 0-.1.04-.11.09-.16-.17-.33-.33-.5-.5.05-.02.09-.06.09-.11 0-.07-.06-.13-.13-.13-.06 0-.1.04-.11.09l-.5-.5c.05-.02.09-.06.09-.12 0-.07-.06-.13-.13-.13-.04 0-.07.01-.09.04-.02.02-.02.04-.03.07-.19-.18-.39-.35-.58-.52.02 0 .03.02.05.02.07 0 .13-.06.13-.13s-.06-.13-.13-.13-.13.06-.13.13c0 .02.01.04.03.06-.52-.45-1.05-.9-1.6-1.3h.3Zm-15.23 10.8c-.12-.1-.22-.2-.34-.31.07 0 .13-.06.13-.13s-.06-.13-.13-.13-.13.06-.13.13c0 0 0 .02.01.03-.2-.19-.39-.38-.58-.57.01 0 .03.02.04.02.07 0 .13-.06.13-.13s-.06-.13-.13-.13-.13.06-.13.13c0 .02.01.03.02.04-.18-.19-.35-.38-.52-.57.06-.01.11-.06.11-.12 0-.07-.06-.13-.13-.13-.06 0-.1.04-.11.09-.15-.18-.3-.37-.43-.55.01-.02.03-.04.03-.07 0-.07-.06-.13-.13-.13-.01 0-.02 0-.03.01-1.18-1.62-1.78-3.19-1.97-4.33.01 0 .02.02.04.02.07 0 .13-.06.13-.13s-.06-.13-.13-.13a.09.09 0 0 0-.07.03c-.04-.32-.05-.6-.03-.83.01-.11.03-.19.05-.26.02 0 .03.02.05.02.07 0 .13-.06.13-.13 0-.06-.04-.1-.09-.11l.01-.02h.03c.24 0 1.02.34 1.54.56.1.04.19.08.28.12-.04.02-.08.06-.08.11 0 .07.06.13.13.13s.13-.06.13-.13c0-.01-.01-.02-.02-.04.87.37 1.4.54 1.71.37.12-.07.2-.19.22-.33.02-.13 0-.31-.05-.54.05-.02.09-.06.09-.12 0-.07-.06-.13-.13-.13h-.02c-.11-.44-.3-1.02-.56-1.74.03-.02.05-.06.05-.1 0-.07-.06-.13-.13-.13-.04-.12-.08-.24-.13-.37-.17-.49-.34-.95-.47-1.35.04-.02.08-.06.08-.11 0-.07-.06-.13-.13-.13h-.02a.983.983 0 0 1-.05-.16c0-.02.08-.12.33-.22.08-.04.18-.07.28-.1.02.05.06.09.11.09.07 0 .13-.06.13-.13 0-.01 0-.02-.01-.03C63.79.52 67.69.4 71.03.9c-.06.01-.1.06-.1.12 0 .07.06.13.13.13s.13-.06.13-.13c0-.05-.03-.08-.07-.1 1.13.17 2.19.42 3.08.74v.02c0 .07.06.13.13.13.05 0 .08-.03.1-.06.14.06.28.11.41.17-.07.22-.2.59-.39 1.05 0-.07-.06-.12-.13-.12s-.13.06-.13.13.06.13.13.13c.03 0 .06-.01.08-.03-.2.5-.47 1.1-.8 1.76a.11.11 0 0 0-.06.1v.01c-.59 1.15-1.37 2.46-2.39 3.72-.02.02-.04.05-.06.07-.01 0-.02-.01-.03-.01-.07 0-.13.06-.13.13 0 .02.01.03.02.05-.15.17-.31.34-.47.5-.02-.01-.04-.03-.07-.03-.07 0-.13.06-.13.13 0 .03.01.05.03.07-1.1 1.04-2.45 1.92-3.71 2.61.01-.02.03-.04.03-.06 0-.07-.06-.13-.13-.13s-.13.06-.13.13.05.12.12.13c-.94.51-1.81.9-2.47 1.18 0-.07-.06-.13-.13-.13s-.13.06-.13.13c0 .04.01.07.04.09-.43.18-.75.29-.88.34ZM73.7 8.99c.06 0 .1-.05.12-.1 1 .75 1.88 1.57 1.88 2.04 0 .91-.51 1.72-1.51 2.39-.9.6-2.49.88-2.79.68-.28-.32-.17-2.74-.13-3.77.01-.3.02-.55.03-.76.12-.13.25-.27.36-.41.29-.36.56-.72.81-1.08.15.1.31.2.48.31.02.03.05.05.08.06.2.14.41.28.61.43-.04.02-.07.06-.07.1 0 .07.06.13.13.13Zm-5.84 12.83c-.32.34-.81.57-1.41.68 0-.02.02-.03.02-.05 0-.07-.06-.13-.13-.13s-.13.06-.13.13c0 .03.01.06.03.08-.35.05-.75.06-1.17.03.05-.02.09-.06.09-.11 0-.07-.06-.13-.13-.13s-.13.06-.13.13c0 .05.03.08.07.1-.83-.07-1.44-.31-1.8-.68.02-.02.03-.05.03-.08 0-.07-.06-.13-.13-.13-.02 0-.04.01-.05.02a.75.75 0 0 1-.1-.2c-.25-.61.04-1.43.77-2.25.53-.59 1.05-1.23 1.55-1.84.73-.9 1.73-2.13 2.04-2.16.17 0 .26.21.33.56-.06.02-.1.06-.1.12 0 .07.06.13.13.13h.01c.02.11.03.23.05.37l.06.43c.08.56.19 1.42.3 2.25.06.45.12.9.17 1.29-.04.02-.07.06-.07.11 0 .06.04.1.1.12.06.42-.09.86-.41 1.2Zm-4.4-7.51c1.2-.45 4.76-1.91 7.21-4.21v.1c-.11 2.65-.08 3.97.38 4.28.18.12.44.17.75.17.87 0 2.09-.41 2.73-.84 1.16-.78 1.77-1.78 1.77-2.89 0-1.19-2.59-2.9-3.49-3.46 1.51-2.29 2.32-4.44 2.6-5.26 4.68 2.51 8.79 7.9 10.1 10.47-.02-.01-.04-.03-.07-.03-.07 0-.13.06-.13.13s.06.13.13.13.12-.05.13-.12c0 .02.02.04.03.06 1.27 2.61.91 8.31.46 9.12-.34.6-2.42 2.71-6.41 2.02-3.83-.67-7.74-3.04-11.05-5.51-.08-.65-.17-1.27-.23-1.71l-.06-.42c-.1-.79-.21-1.7-1.02-1.7-.42 0-.93.49-1.73 1.43-.75-.62-1.45-1.21-2.07-1.74l-.04-.03m12.39 11.18c-.45.42-.48.4-.61.27-.42-.41-.7-1.83-.82-2.92.19.09.38.18.57.26-.07 0-.12.06-.12.13s.06.13.13.13.13-.06.13-.13a.09.09 0 0 0-.03-.07c.58.26 1.16.49 1.74.7 0 0-.01.02-.01.03 0 .07.06.13.13.13.05 0 .09-.03.11-.07.36.12.72.24 1.08.33-1.19.2-1.85.8-2.3 1.22Zm12.95 7.18c-.3.54-.84.38-2-.11-.82-.35-1.76-.74-2.63-.54-.49.11-1.16.45-1.91.9-.02-.01-.04-.03-.07-.03-.07 0-.13.06-.13.13v.01c-.59.36-1.22.77-1.84 1.17l-1.17.76c0-.06-.06-.11-.12-.11-.07 0-.13.06-.13.13 0 .05.03.08.06.1-.81.51-1.55.94-1.76.9-.1-.23.41-1.32.75-2.05.12-.26.25-.54.37-.81.02 0 .03.02.06.02.07 0 .13-.06.13-.13 0-.06-.04-.1-.09-.11.25-.58.48-1.17.61-1.71.07 0 .13-.06.13-.13 0-.05-.04-.09-.08-.11.01-.06.03-.12.03-.18.24-1.68.21-3.36-.04-4.82.05-.02.09-.06.09-.11 0-.07-.06-.13-.13-.13-.09-.47-.21-.92-.36-1.33.09.02.18.04.28.06-.03.02-.05.06-.05.1 0 .07.06.13.13.13s.13-.06.13-.13c0-.02-.01-.04-.02-.05.17.04.34.08.51.11.6.1 1.15.15 1.67.15.55 0 1.05-.05 1.52-.14.02.04.06.06.1.06.07 0 .11-.05.12-.11.66-.15 1.24-.37 1.72-.63.02.05.06.09.11.09.07 0 .13-.06.13-.13a.09.09 0 0 0-.03-.07c.8-.46 1.32-.99 1.59-1.37.12.86.39 2.09.86 3.95a.11.11 0 0 0-.06.1c0 .07.05.12.12.13.3 1.19.68 2.17.99 2.96.1.26.19.5.27.72-.04.02-.08.06-.08.11 0 .07.06.13.13.13.01 0 .02 0 .03-.01.3.88.41 1.52.05 2.14Z"/></g></svg>