<?xml version="1.0" encoding="UTF-8"?><svg id="_レイヤー_2" xmlns="http://www.w3.org/2000/svg" viewBox="0 0 19.8 13.67"><defs><style>.cls-1{fill:#fff;stroke-width:0px;}</style></defs><g id="_レイヤー_1-2"><path class="cls-1" d="M18.31,7.24l1.48-3.81c.03-.09,0-.18-.07-.24-.07-.06-.17-.06-.25,0l-3.83,2.83c-.82-.1-1.72-2.07-5.64-3.05l1.15-.16c.18-.03.34-.13.44-.29.09-.16.11-.35.05-.52l-.58-1.59c-.07-.19-.23-.34-.43-.39s-.41,0-.56.15l-2.63,2.47C3.19,2.73,0,6.15,0,7.24c.14.91,1.89,3.01,4.53,4.03.28-.39.5-.76.68-1.11.52-1.04.67-1.93.67-2.54,0-.25-.02-.45-.05-.59-.05-.23.1-.46.33-.51.23-.05.46.1.51.33.04.21.07.47.07.77,0,.75-.18,1.77-.76,2.93-.16.33-.36.66-.59,1.01.91.25,1.9.36,2.96.26l.78,1.53c.08.15.22.27.39.31.17.04.35.02.49-.08l.6-.39c.16-.11.27-.29.28-.48,0-.2-.07-.38-.23-.51l-.8-.64c4.04-.96,4.95-2.98,5.78-3.08l3.83,2.83c.07.05.17.05.25,0,.07-.05.1-.15.07-.24l-1.48-3.81ZM2.96,7.53c-.36,0-.65-.29-.65-.65s.29-.65.65-.65.65.29.65.65-.29.65-.65.65Z"/></g></svg>