<svg xmlns="http://www.w3.org/2000/svg" viewBox="0 0 61.24 46.13"><path d="M7.41 33.73h46.42c1.77 0 3.21-1.44 3.21-3.21V3.21C57.04 1.44 55.6 0 53.83 0H7.41C5.64 0 4.2 1.44 4.2 3.21v27.32c0 1.77 1.44 3.21 3.21 3.21ZM9.1 4.31h43.03v24.36H9.1V4.31Zm51.66 38.32-5.72-5.08c-.37-.33-.9-.51-1.46-.51H7.65c-.56 0-1.09.19-1.46.51L.47 42.63c-.31.27-.47.62-.47.98v1.77c0 .41.43.75.96.75h59.31c.53 0 .96-.33.96-.75v-1.77c0-.36-.17-.71-.47-.98Zm-36.7.6 1.66-2.24h10.49l1.65 2.24h-13.8Z" style="fill:#1476cb;stroke-width:0"/><path style="fill:none;stroke:#1476cb;stroke-linecap:round;stroke-linejoin:round;stroke-width:4.37px" d="m20.12 14.32 8.01 8.01 12.2-12.2"/></svg>