<svg id="_レイヤー_2" xmlns="http://www.w3.org/2000/svg" viewBox="0 0 52.94 50.52"><defs><style>.cls-1{fill:#1476cb;stroke-width:0}</style></defs><g id="_レイヤー_1-2"><path class="cls-1" d="m52.01 16.81-2.06-2.06a3.18 3.18 0 0 0-4.51 0l-1.92 1.92 6.57 6.57 1.92-1.92a3.193 3.193 0 0 0 0-4.52Zm-26.52 18.9v4.09c0 .81.66 1.47 1.47 1.47h4.28c.52 0 1.02-.21 1.39-.58l15.65-15.65-6.57-6.57L26.2 33.98a2.43 2.43 0 0 0-.71 1.72Z"/><path class="cls-1" d="M22.4 41.96v-7.53c0-.65.26-1.27.71-1.72l15.72-15.72V4.07c0-2.25-1.82-4.07-4.07-4.07H4.07C1.82 0 0 1.82 0 4.07v42.37c0 2.25 1.82 4.07 4.07 4.07h30.69c2.25 0 4.07-1.82 4.07-4.07v-7.57l-4.91 4.91c-.37.37-.87.58-1.39.58H24.8c-1.33 0-2.4-1.07-2.4-2.4ZM9.62 12.37h15.46c.85 0 1.55.69 1.55 1.55 0 .85-.69 1.55-1.55 1.55H9.62c-.85 0-1.55-.69-1.55-1.55 0-.85.69-1.55 1.55-1.55Zm0 11.34h15.46c.85 0 1.55.69 1.55 1.55 0 .85-.69 1.55-1.55 1.55H9.62c-.85 0-1.55-.69-1.55-1.55 0-.85.69-1.55 1.55-1.55Zm8.25 14.44H9.62c-.85 0-1.55-.69-1.55-1.55 0-.85.69-1.55 1.55-1.55h8.25c.85 0 1.55.69 1.55 1.55 0 .85-.69 1.55-1.55 1.55Z"/></g></svg>