<svg id="_レイヤー_2" xmlns="http://www.w3.org/2000/svg" viewBox="0 0 39.07 56.43"><defs><style>.cls-1{fill:#1476cb;stroke-width:0}</style></defs><g id="_レイヤー_1-2"><path class="cls-1" d="M7.17 30.41v.07h3.59c.84 2.18 2.96 3.65 5.29 3.65s4.45-1.47 5.27-3.65l3.62-.02v-3.91l-.07-.02h-.02c-3.96 0-7.19-3.22-7.19-7.18s3.23-7.19 7.19-7.19h.09l-.02-4.27-1.82.02V2.74C23.1 1.23 21.87 0 20.36 0h-4.8c-1.51 0-2.75 1.23-2.75 2.74l.02 5.16-5.68.02.02 22.5Z"/><path class="cls-1" d="M4.24 46.43v.02H26.4l-.02-.19a14.74 14.74 0 0 0 5.95-2.34c.06-.04.12-.07.17-.11.1-.07.2-.15.3-.22 2.38-1.71 4.24-4.09 5.29-6.87.63-1.65.98-3.42.98-5.26 0-4.55-2.02-8.76-5.51-11.58-.49-.4-1-.77-1.53-1.1v.01s-.01 0-.02-.01c.02.19.03.38.03.57 0 1.96-.82 3.85-2.25 5.24-.03.03-.06.07-.1.1l-.01.01a8.783 8.783 0 0 1 3.18 6.76c0 3.41-2.01 6.48-5.01 7.93-.03.01-.06.03-.09.04-.09.04-.18.07-.27.11-.35.15-.71.28-1.09.39l-.02-1.55-22.16.02.02 8.02Zm31.8 5.75v-.02l-36.05.02a4.26 4.26 0 0 0 4.25 4.25h27.57c2.25 0 4.08-1.76 4.2-3.99 0-.09.03-.17.03-.25Z"/><path class="cls-1" d="M20.27 19.35c0 2.52 2.05 4.57 4.58 4.57h.07c.82-.02 1.61-.25 2.3-.66a4.579 4.579 0 0 0 2.21-3.9c0-.73-.17-1.44-.5-2.08-.77-1.52-2.31-2.47-4.08-2.5-2.52 0-4.58 2.05-4.58 4.58Z"/></g></svg>