<?xml version="1.0" encoding="UTF-8"?><svg id="_レイヤー_2" xmlns="http://www.w3.org/2000/svg" viewBox="0 0 85 85"><defs><style>.cls-1{fill:#1476cb;stroke-width:0px;}</style></defs><g id="_レイヤー_1-2"><path class="cls-1" d="M82.67,2.48l-.15-.15c-3.11-3.11-8.15-3.11-11.26,0l-21.32,21.32c-.68.68-.89,1.65-.64,2.51l-.93-.93-.02.02.97.97c.12.37.32.72.61,1.02l-1.07,1.07c-1.41.82-2.96,1.6-4.67,2.29-2.8,1.14-6,2.04-9.63,2.5-1.92.24-4.12.51-6.43.86-3.47.54-7.21,1.28-10.75,2.51-1.77.62-3.49,1.36-5.1,2.27-1.61.91-3.11,2-4.41,3.3C2.82,47.09.17,53.63,0,60.13c-.08,3.25.45,6.49,1.62,9.53,1.17,3.04,2.97,5.88,5.4,8.31,2.43,2.43,5.27,4.23,8.31,5.4,4.56,1.75,9.58,2.08,14.39,1.03,4.81-1.05,9.44-3.49,13.23-7.28,1.74-1.74,3.09-3.82,4.16-6.05,1.6-3.35,2.6-7.06,3.31-10.66.7-3.6,1.11-7.09,1.48-9.97.46-3.63,1.36-6.83,2.5-9.63.69-1.71,1.47-3.26,2.29-4.67l1.07-1.07c.3.29.64.5,1.01.61l.97.97.02-.02-.93-.93c.86.25,1.83.04,2.51-.64l21.32-21.32c3.11-3.11,3.11-8.15,0-11.26ZM49.95,27.25l.24.24c-.4.25-.8.51-1.23.76l.99-.99ZM6.3,62.37c-.58,1.6-.96,3.18-1.14,4.71-1.11-3.48-1.27-7.25-.47-10.92.88-4.05,2.93-7.95,6.15-11.16,1.32-1.32,2.99-2.43,4.9-3.34,2.86-1.38,6.26-2.31,9.65-2.97,3.4-.67,6.79-1.07,9.7-1.44,3.37-.43,6.42-1.21,9.16-2.2-2.54,1.26-5.64,2.46-9.48,3.46-2.68.7-5.96,1.76-9.4,3.46-3.43,1.7-7.02,4.04-10.28,7.29-2.44,2.44-4.45,4.97-6.02,7.49-1.18,1.89-2.11,3.78-2.78,5.63ZM9.23,68.73c.04-2.19.76-4.86,2.23-7.71,1.46-2.85,3.67-5.87,6.6-8.8,2.88-2.88,6.07-4.96,9.17-6.5,3.1-1.53,6.12-2.51,8.6-3.16,1.92-.5,3.68-1.06,5.3-1.64l-31.28,31.27c-.42-.96-.64-2.11-.62-3.46ZM14.84,75.54c-.75-.06-1.41-.21-1.98-.43l30.93-30.93c-.55,1.46-1.07,3.04-1.55,4.74-.69,2.44-1.72,5.4-3.29,8.48-1.58,3.07-3.7,6.25-6.58,9.13-2.23,2.24-4.51,4.06-6.72,5.47-1.66,1.06-3.27,1.88-4.79,2.46-2.28.88-4.35,1.21-6,1.08ZM47.75,49.91c-.25,1.94-.51,4.09-.85,6.32-.51,3.34-1.22,6.85-2.32,10.01-.55,1.58-1.2,3.07-1.96,4.41-.76,1.34-1.63,2.53-2.62,3.52-4.29,4.29-9.8,6.5-15.24,6.64-2.54.06-5.06-.33-7.43-1.17,2.62-.31,5.39-1.25,8.22-2.75,3.25-1.73,6.57-4.21,9.76-7.4,3.25-3.25,5.61-6.79,7.35-10.18,1.74-3.39,2.85-6.62,3.59-9.25,1.16-4.1,2.54-7.35,3.94-9.98-1.11,2.91-1.98,6.19-2.45,9.84ZM56.75,36.04c.25-.42.5-.83.76-1.23l.24.24-.99.99Z"/></g></svg>