<?xml version="1.0" encoding="UTF-8"?><svg id="_レイヤー_2" xmlns="http://www.w3.org/2000/svg" viewBox="0 0 118.1 88.74"><defs><style>.cls-1{fill:#1476cb;stroke-width:0px;}</style></defs><g id="_レイヤー_1-2"><path class="cls-1" d="M39.26,67.45l2.86-2.05c-.25-2.86,1.32-5.69,4.09-6.91l11.7-5.13-.42-.8c-.07-.14-.14-.28-.2-.42-.74-1.68-.78-3.56-.11-5.27.67-1.72,1.97-3.07,3.65-3.81l17.2-7.55c1.94-.85,3.93-1.17,5.91-.95,2.62.29,4.71,1.46,6.23,2.32.24.14.55.31.81.45l.36.19,11.83-5.05-14.7-20.51s-10.69,7.59-14.1,10.03c-2.27,1.63-7.26-3.64-12.93.43-3.7,2.65-15.27,10.95-15.27,10.95-1.58,1.13-1.94,3.34-.81,4.92.84,1.17,2.61,2.14,4.68.65,0,0,6.01-4.3,6.25-4.47.47-.33.79.02.94.22.05.07.05.1.08.19.1.33-.03.69-.31.89l-21.93,15.72c-1.58,1.13-1.94,3.34-.81,4.92.84,1.17,2.61,2.14,4.68.65,0,0,15.55-11.15,15.55-11.15.35-.25.84-.16,1.09.19.25.35.17.84-.18,1.09l-20.25,14.53c-1.58,1.13-1.94,3.34-.81,4.92,1.13,1.58,3.04,2.16,4.92.81Z"/><path class="cls-1" d="M106.37,34.81s-10.39,4.36-14.23,6.04c-2.55,1.12-6.35-5.06-12.74-2.25-4.16,1.83-17.2,7.55-17.2,7.55-1.78.78-2.59,2.86-1.81,4.64.58,1.31,2.12,2.63,4.45,1.61,0,0,6.77-2.97,7.04-3.08.52-.23.77.19.87.41.04.08.03.1.04.2.03.35-.17.67-.49.81l-24.71,10.84c-1.78.78-2.59,2.86-1.81,4.64.58,1.31,2.12,2.63,4.45,1.61,0,0,17.52-7.69,17.52-7.69.39-.17.86.02,1.03.41.17.39,0,.85-.4,1.03l-22.82,10.02c-1.78.78-2.59,2.86-1.81,4.64.78,1.78,2.52,2.74,4.64,1.81l22.83-10.01c.39-.17.85,0,1.02.39.17.39,0,.85-.4,1.03,0,0-16.9,7.42-17.19,7.55-2.4,1.05-2.75,3.15-2.09,4.64.72,1.63,2.67,2.52,4.76,1.61l17.25-7.57c.39-.17.85,0,1.03.4.17.39,0,.85-.4,1.03,0,0-12.08,5.31-12.16,5.34-2.36,1.04-2.7,3.06-2.07,4.5.75,1.72,3.13,2.22,4.97,1.41l27.79-12.19c4.59-2.02,7.58-4.37,9.14-7.21.21-.37.38-.76.54-1.15l14.72-6.26-11.73-26.75Z"/><path class="cls-1" d="M43.22,23.02c-2.5-.46-4.28-.97-5.42-2.12-1.15-1.15-1.66-2.93-2.12-5.42-.02-.12-.12-.2-.24-.2s-.22.08-.24.2c-.46,2.5-.97,4.28-2.12,5.42-1.15,1.15-2.93,1.66-5.42,2.12-.12.02-.2.12-.2.24s.08.22.2.24c2.5.46,4.28.97,5.42,2.12,1.15,1.15,1.66,2.93,2.12,5.42.02.12.12.2.24.2s.22-.08.24-.2c.46-2.5.97-4.28,2.12-5.42,1.15-1.15,2.93-1.66,5.42-2.12.12-.02.2-.12.2-.24s-.08-.22-.2-.24Z"/><path class="cls-1" d="M28.44,35.99c-1.82-.34-3.12-.71-3.95-1.55-.84-.84-1.21-2.13-1.55-3.95-.02-.08-.09-.15-.17-.15s-.16.06-.17.15c-.34,1.82-.71,3.12-1.55,3.95-.84.84-2.13,1.21-3.95,1.55-.08.02-.15.09-.15.17s.06.16.15.17c1.82.34,3.12.71,3.95,1.55.84.84,1.21,2.13,1.55,3.95.02.08.09.15.17.15s.16-.06.17-.15c.34-1.82.71-3.12,1.55-3.95.84-.84,2.13-1.21,3.95-1.55.08-.02.15-.09.15-.17s-.06-.16-.15-.17Z"/><path class="cls-1" d="M26.49,13.01c-4.2-.77-7.19-1.64-9.11-3.56-1.93-1.93-2.79-4.91-3.56-9.11-.04-.19-.21-.34-.4-.34s-.37.14-.4.34c-.77,4.2-1.64,7.19-3.56,9.11-1.93,1.93-4.91,2.79-9.11,3.56-.19.04-.33.2-.33.4s.14.37.33.4c4.2.77,7.19,1.64,9.11,3.56,1.93,1.93,2.79,4.91,3.56,9.11.04.19.2.33.4.33s.37-.14.4-.33c.77-4.2,1.64-7.19,3.56-9.11,1.93-1.93,4.91-2.79,9.11-3.56.19-.04.34-.2.34-.4s-.14-.37-.34-.4Z"/></g></svg>