<svg xmlns="http://www.w3.org/2000/svg" viewBox="0 0 19.8 13.67"><path d="m18.31 7.24 1.48-3.81a.22.22 0 0 0-.07-.24c-.07-.06-.17-.06-.25 0l-3.83 2.83c-.82-.1-1.72-2.07-5.64-3.05l1.15-.16c.18-.03.34-.13.44-.29.09-.16.11-.35.05-.52L11.06.41c-.07-.19-.23-.34-.43-.39s-.41 0-.56.15L7.44 2.64C3.19 2.73 0 6.15 0 7.24c.14.91 1.89 3.01 4.53 4.03.28-.39.5-.76.68-1.11.52-1.04.67-1.93.67-2.54 0-.25-.02-.45-.05-.59-.05-.23.1-.46.33-.51.23-.05.46.1.51.33.04.21.07.47.07.77 0 .75-.18 1.77-.76 2.93-.16.33-.36.66-.59 1.01.91.25 1.9.36 2.96.26l.78 1.53c.08.15.22.27.39.31.17.04.35.02.49-.08l.6-.39c.16-.11.27-.29.28-.48 0-.2-.07-.38-.23-.51l-.8-.64c4.04-.96 4.95-2.98 5.78-3.08l3.83 2.83c.07.05.17.05.25 0 .07-.05.1-.15.07-.24l-1.48-3.81Zm-15.35.29c-.36 0-.65-.29-.65-.65s.29-.65.65-.65.65.29.65.65-.29.65-.65.65Z" style="fill:#fff;stroke-width:0"/></svg>