<svg xmlns="http://www.w3.org/2000/svg" viewBox="0 0 70.61 42.52"><path d="M59.68 3.95H42.43v31.87h6.72c.37 3.77 3.54 6.71 7.4 6.71 3.86 0 7.03-2.94 7.4-6.71h3.63a3.04 3.04 0 0 0 3.03-3.03v-6.14c0-1.01-.36-3.14-.91-4.45L64.16 6.63c-.8-1.47-2.81-2.67-4.48-2.67Zm-6.76 31.98a3.72 3.72 0 0 1 4.47-4.46c1.37.3 2.47 1.4 2.78 2.77a3.727 3.727 0 0 1-4.48 4.48 3.706 3.706 0 0 1-2.77-2.78ZM45.91 7.9h12.25c.64 0 1.67.61 1.98 1.18l3.48 10.66H45.91V7.9ZM0 3.3v29.21c0 1.82 1.48 3.3 3.3 3.3h3.81c.37 3.77 3.54 6.71 7.4 6.71 3.86 0 7.03-2.94 7.4-6.71h12.96c1.82 0 3.3-1.48 3.3-3.3V3.3c0-1.82-1.48-3.3-3.3-3.3H3.3C1.48 0 0 1.48 0 3.3Zm10.89 32.63a3.72 3.72 0 0 1 4.47-4.46c1.37.3 2.47 1.4 2.78 2.77a3.727 3.727 0 0 1-4.48 4.48 3.706 3.706 0 0 1-2.77-2.78Z" style="fill:#1476cb;stroke-width:0"/></svg>