<?xml version="1.0" encoding="UTF-8"?><svg id="_レイヤー_2" xmlns="http://www.w3.org/2000/svg" viewBox="0 0 70.61 42.52"><defs><style>.cls-1{fill:#1476cb;stroke-width:0px;}</style></defs><g id="_レイヤー_1-2"><path class="cls-1" d="M59.68,3.95h-17.25s0,31.87,0,31.87h6.72c.37,3.77,3.54,6.71,7.4,6.71,3.86,0,7.03-2.94,7.4-6.71h3.63c1.67,0,3.03-1.37,3.03-3.03v-6.14c0-1.01-.36-3.14-.91-4.45l-5.54-15.57c-.8-1.47-2.81-2.67-4.48-2.67ZM52.92,35.93c-.59-2.71,1.76-5.06,4.47-4.46,1.37.3,2.47,1.4,2.78,2.77.61,2.72-1.77,5.09-4.48,4.48-1.37-.31-2.46-1.41-2.77-2.78ZM45.91,7.9h12.25c.64,0,1.67.61,1.98,1.18l3.48,10.66h-17.71V7.9s0,0,0,0Z"/><path class="cls-1" d="M0,3.3v29.21c0,1.82,1.48,3.3,3.3,3.3h3.81c.37,3.77,3.54,6.71,7.4,6.71,3.86,0,7.03-2.94,7.4-6.71h12.96c1.82,0,3.3-1.48,3.3-3.3V3.3C38.17,1.48,36.69,0,34.87,0H3.3C1.48,0,0,1.48,0,3.3ZM10.89,35.93c-.59-2.71,1.76-5.06,4.47-4.46,1.37.3,2.47,1.4,2.78,2.77.61,2.72-1.77,5.09-4.48,4.48-1.37-.31-2.46-1.41-2.77-2.78Z"/></g></svg>