<svg xmlns="http://www.w3.org/2000/svg" xmlns:xlink="http://www.w3.org/1999/xlink" viewBox="0 0 1300.34 440.42"><defs><clipPath id="a"><path style="stroke-width:0;fill:none" d="M568.33 0h732v440.42h-732z"/></clipPath></defs><path style="fill:#1476cb;stroke-width:0" d="M0 0h568.33v440.42H0z"/><path d="M104.93 195.38c.58 1.5 1.12 2.59 1.78 3.54-.13.14-.29.38-.4.61-.06.13-.1.19-.14.19-.03 0-.08-.08-.14-.21-.45-.91-.88-2.02-1.25-3.25.02 4.96.14 8.96.14 9.19 0 .11-.02.13-.13.13h-.75c-.11 0-.13-.02-.13-.13 0-.22.13-4.24.16-8.95-.5 2-1.28 3.78-2.16 5.31-.06.11-.11.18-.16.18-.03 0-.08-.06-.14-.19-.13-.22-.26-.45-.4-.58 1.12-1.68 1.98-3.59 2.61-5.84h-.54c-1.1 0-1.42.03-1.5.03-.11 0-.13-.02-.13-.13v-.62c0-.13.02-.14.13-.14.08 0 .4.03 1.5.03h.69v-1.47c0-.93-.02-1.41-.11-1.89.4.02.67.03 1.01.08.11.02.18.08.18.14 0 .11-.03.19-.08.3-.06.18-.08.45-.08 1.34v1.49h.1c1.12 0 1.42-.03 1.52-.03.11 0 .13.02.13.14v.62c0 .11-.02.13-.13.13-.1 0-.4-.03-1.52-.03h-.03Zm6.72 3.18c1.14 2.08 2.56 3.49 4.32 4.67-.18.16-.3.35-.45.64-.06.14-.11.21-.18.21-.05 0-.11-.05-.22-.14-1.54-1.26-2.9-2.72-3.86-4.75.02 3.03.1 5.94.1 6.19 0 .11-.02.13-.13.13h-.77c-.11 0-.13-.02-.13-.13 0-.26.06-3.12.1-6.1-1.07 2.14-2.27 3.44-3.97 4.72-.11.08-.18.11-.22.11-.06 0-.1-.06-.19-.19-.14-.22-.29-.4-.45-.53 1.65-1.07 3.19-2.48 4.42-4.83h-1.09c-1.58 0-2.11.03-2.19.03-.11 0-.13-.02-.13-.14v-.64c0-.1.02-.11.13-.11.08 0 .61.03 2.19.03h1.46v-2.54h-2.1c-.21.51-.48 1.02-.77 1.52-.08.14-.13.22-.19.22s-.13-.05-.24-.13a1.53 1.53 0 0 0-.56-.27c.82-1.15 1.25-2.29 1.57-3.54.03-.18.11-.51.1-.9.34.06.66.13.91.22.1.03.18.1.18.18s-.03.13-.11.22c-.08.1-.11.21-.19.48-.1.35-.21.74-.35 1.14h1.76v-1.06c0-1.09 0-1.39-.11-2.05.4.02.72.05 1.02.1.13.02.21.06.21.13 0 .13-.06.21-.1.32-.06.19-.1.48-.1 1.49v1.07h1.49c1.41 0 1.86-.03 1.95-.03.11 0 .13.02.13.13v.66c0 .11-.02.13-.13.13-.1 0-.54-.03-1.95-.03h-1.49v2.54h2.02c1.58 0 2.11-.03 2.19-.03.11 0 .13.02.13.11v.64c0 .13-.02.14-.13.14-.08 0-.61-.03-2.19-.03h-1.68Zm17.6-3.17c.14 2.19.42 4.29 1.07 6.18.51 1.5 1.18 2.67 1.89 2.67.58 0 .82-1.09.93-2.62.16.16.42.34.61.45.3.18.34.19.3.5-.26 1.9-.82 2.82-1.71 2.82-1.1 0-2.06-.96-2.88-3.23-.7-1.95-1.04-4.34-1.2-6.75h-5.76c-1.55 0-2.06.03-2.14.03-.11 0-.13-.02-.13-.13v-.75c0-.11.02-.13.13-.13.08 0 .59.03 2.14.03h5.71c-.03-.4-.03-.78-.05-1.18-.03-1.02-.06-1.39-.16-1.97.48.02.8.05 1.12.1.11.02.21.1.21.18 0 .11-.05.19-.08.3-.06.18-.11.46-.08 1.34 0 .42.03.83.05 1.23h2.08c1.54 0 2.06-.03 2.14-.03.11 0 .13.02.13.13v.75c0 .11-.02.13-.13.13-.08 0-.61-.03-2.14-.03h-2.05Zm-4.62 7.32c1.15-.3 2.34-.67 3.3-1.06-.03.19-.05.42-.05.61 0 .32-.02.34-.32.45-1.58.58-4.23 1.33-5.89 1.71-.38.1-.51.16-.62.24-.08.05-.16.11-.24.11-.06 0-.13-.06-.18-.18-.1-.24-.21-.62-.3-.96.43-.03.88-.11 1.47-.24l1.84-.42v-4.07h-.85c-1.41 0-1.86.03-1.94.03-.11 0-.13-.02-.13-.13v-.67c0-.13.02-.14.13-.14.08 0 .53.03 1.94.03h2.79c1.39 0 1.84-.03 1.92-.03.11 0 .13.02.13.14v.67c0 .11-.02.13-.13.13-.08 0-.53-.03-1.92-.03h-.94v3.79Zm6.06-10.93c.14-.13.19-.13.3-.05.61.42 1.07.82 1.62 1.39.06.08.08.13-.1.27l-.34.26c-.19.14-.22.14-.32.03-.43-.56-.94-1.04-1.52-1.44-.1-.06-.1-.11.06-.24l.29-.22Zm21.49 5.79c-.1.18-.13.26-.21.26-.05 0-.11-.03-.22-.1-2.79-1.23-5.06-2.93-6.72-5.31-1.67 2.43-3.81 4.03-6.43 5.35-.11.06-.19.1-.24.1-.08 0-.11-.06-.21-.24a1.7 1.7 0 0 0-.5-.54c2.9-1.2 5.2-3.12 6.51-5.19.22-.38.32-.58.42-.9.37.05.7.11 1.01.21.16.05.22.1.22.19 0 .06-.02.13-.11.18-.08.03-.13.08-.18.11 1.92 2.58 4.16 4.13 7.12 5.25-.21.21-.34.38-.46.64Zm-.75 2.56c0 .11-.02.13-.13.13-.1 0-.61-.03-2.21-.03h-4.9c-.48 1.2-1.02 2.45-1.67 3.7 1.92-.13 4.08-.34 5.92-.54-.46-.59-.96-1.17-1.5-1.76-.1-.1-.06-.14.1-.22l.46-.26c.13-.06.18-.06.24 0 1.17 1.18 2.15 2.47 3.07 3.79.06.08.06.14-.08.24l-.5.34c-.08.05-.14.08-.18.08-.05 0-.08-.03-.13-.1-.3-.46-.59-.91-.91-1.34-2.82.37-6.02.67-8.82.88-.32.03-.53.06-.61.14-.06.06-.13.1-.21.1-.1 0-.14-.08-.18-.18-.1-.32-.18-.7-.24-1.07.5.03 1.04.03 1.75 0 .22 0 .45-.02.69-.03.69-1.3 1.25-2.56 1.68-3.76h-1.92c-1.58 0-2.11.03-2.19.03-.13 0-.14-.02-.14-.13v-.7c0-.11.02-.13.14-.13.08 0 .61.03 2.19.03h7.92c1.6 0 2.11-.03 2.21-.03.11 0 .13.02.13.13v.7Zm-3.03-2.93c0 .11-.02.13-.13.13-.08 0-.53-.03-1.87-.03h-2.59c-1.34 0-1.79.03-1.87.03-.11 0-.13-.02-.13-.13v-.69c0-.11.02-.13.13-.13.08 0 .53.03 1.87.03h2.59c1.34 0 1.79-.03 1.87-.03.11 0 .13.02.13.13v.69Zm12.37-3.29c.16 0 .22-.02.29-.06.05-.02.1-.03.14-.03.08 0 .19.06.4.27.19.21.27.32.27.38 0 .08-.03.13-.13.21-.11.08-.19.14-.32.38-.45.93-.96 1.79-1.54 2.58.7.78 1.39 1.33 2.43 1.97-.16.14-.34.38-.45.59-.06.13-.11.18-.18.18-.05 0-.11-.03-.21-.11-.67-.54-1.31-1.14-1.81-1.78v4.99c0 1.28.03 1.92.03 2 0 .11-.02.13-.13.13h-.75c-.11 0-.13-.02-.13-.13 0-.08.03-.72.03-2v-4.47c-.64.67-1.33 1.3-2.1 1.87-.11.08-.18.13-.24.13s-.1-.06-.16-.21c-.11-.26-.24-.46-.38-.59 2.18-1.41 3.79-3.44 4.67-5.46h-2.32c-1.18 0-1.55.03-1.63.03-.11 0-.13-.02-.13-.13v-.66c0-.11.02-.13.13-.13.08 0 .45.03 1.63.03h.53v-.93c0-.88-.02-1.34-.11-1.81.4.02.7.05 1.04.1.13.02.21.08.21.13 0 .13-.05.19-.1.3-.08.18-.1.45-.1 1.25v.96h1.09Zm9.7 10.91c0 .11-.02.13-.13.13-.08 0-.61-.03-2.19-.03h-4.53c-1.57 0-2.11.03-2.19.03-.13 0-.14-.02-.14-.13v-.7c0-.11.02-.13.14-.13.08 0 .62.03 2.19.03h1.62v-6.61h-1.01c-1.47 0-1.97.03-2.05.03-.11 0-.13-.02-.13-.13v-.7c0-.11.02-.13.13-.13.08 0 .58.03 2.05.03h1.01v-3.12c0-1.14 0-1.57-.11-2.19.42.02.77.05 1.07.1.11.02.19.06.19.13 0 .08-.03.16-.06.27-.08.24-.11.59-.11 1.67v3.15h1.36c1.47 0 1.97-.03 2.05-.03.11 0 .13.02.13.13v.7c0 .11-.02.13-.13.13-.08 0-.58-.03-2.05-.03h-1.36v6.61h1.94c1.58 0 2.11-.03 2.19-.03.11 0 .13.02.13.13v.7Zm8-2.99c.05.06.06.13.06.16 0 .06 0 .13-.08.22-.3.4-.54.67-.85.91-.3.24-.75.45-1.14.45-.67 0-1.47-.45-1.95-2.06-.03-.11-.02-.14.03-.19.16-.18.4-.37.58-.5.08-.05.14-.03.18.06.4 1.22.86 1.55 1.15 1.55.22 0 .46-.08.69-.26.29-.26.53-.51.98-1.15.1.32.24.66.35.8Zm2.91 1.66c.93 0 1.47-.37 1.47-1.2 0-.69-.38-1.1-1.55-2.11-1.14-.98-1.44-1.57-1.44-2.19 0-.78.38-1.49.99-2.1.26.14.51.34.7.54.06.06.05.13-.02.19-.48.45-.67.96-.67 1.31 0 .43.3.85 1.38 1.71 1.26 1.01 1.76 1.78 1.76 2.77 0 1.23-.98 2.13-2.48 2.13-.91 0-1.49-.13-2.03-.32-.14-.05-.18-.11-.18-.21-.02-.34-.08-.7-.27-1.04.91.38 1.52.51 2.34.51Zm-1.09-11.36c.06-.08.13-.1.22-.06 1.23.45 2.38.96 3.26 1.67.1.06.11.16.06.26-.06.16-.3.51-.42.69-.1.13-.14.13-.27.03-.96-.77-2.08-1.34-3.36-1.79.16-.27.34-.58.5-.78Zm5.43 6.45c.1-.05.14-.06.21-.02 1.18.86 1.97 1.94 2.5 3.04.05.1.05.18-.06.29-.18.16-.46.37-.69.5-.1.05-.18 0-.22-.1-.54-1.3-1.3-2.35-2.38-3.19.21-.18.46-.38.66-.53Zm9.45-2.02c.08.03.16.08.16.18 0 .11-.05.22-.08.3-.06.18-.14.72-.14 1.46 0 .59.02 1.2.13 2.27.18 1.63.69 2.69 1.3 2.69.48 0 .91-.7 1.26-1.95.18.3.35.51.56.7.1.1.11.19.06.32-.37 1.04-1.02 2-1.91 2-1.12 0-1.89-1.46-2.14-3.25-.22-1.42-.24-2.56-.24-3.22 0-.72-.03-1.33-.14-1.81.45.06.91.18 1.18.3Zm5.86.98c.1-.05.14-.05.22.02 1.26.96 2.13 2.51 2.42 4.34.02.08 0 .13-.08.18-.22.11-.5.22-.67.3-.1.05-.19 0-.21-.11-.4-1.9-1.04-3.22-2.32-4.34.19-.11.42-.27.64-.38Zm9.74.26c1.73-.53 3.09-.91 4.32-.91 1.98 0 3.33 1.23 3.33 3.12 0 1.54-.67 2.53-2.11 3.31-.88.48-1.97.85-3.31 1.07-.18.03-.24-.02-.32-.16-.08-.16-.3-.45-.61-.67 1.52-.21 2.69-.54 3.67-1.06 1.04-.54 1.6-1.31 1.6-2.56 0-1.42-.94-2.13-2.37-2.13-1.18 0-2.91.54-4.72 1.28-.4.16-.61.3-.75.4-.11.06-.22.14-.3.14-.1 0-.19-.06-.29-.18-.21-.27-.42-.7-.58-1.06.62-.08 1.18-.22 2.45-.61Zm16.08-5.54c.18.05.26.13.26.24 0 .13-.06.26-.13.42-.06.19-.13.69-.19 1.65-.14 2.42-.24 4.61-.24 6.82 0 1.79.5 2.34 1.89 2.34 2.03 0 4.11-1.23 5.76-3.06.05.37.18.69.27.93.03.1.06.16.06.22 0 .1-.05.18-.19.3-1.68 1.62-3.81 2.69-6.1 2.69-1.81 0-2.79-.86-2.79-3.22s.14-4.88.22-7.14c.03-.99.05-1.68-.13-2.42.48.05.98.11 1.3.22Zm19.7 4.54c1.98 0 3.06 1.39 3.06 2.96 0 1.14-.42 2.05-1.28 2.66-.61.4-1.34.67-2.18.67-.1 0-.19 0-.26-.02-.45.88-1.07 1.57-1.91 2.06-.14.1-.26.13-.4.02-.13-.11-.38-.22-.69-.32 1.14-.61 1.65-1.15 2.05-1.9-.64-.16-.99-.38-1.26-.62-.26-.24-.48-.5-.61-.75-.06-.13-.08-.22 0-.35.06-.11.22-.43.29-.7.18.48.51.9.77 1.1.26.18.54.42 1.17.51.16-.54.32-1.52.32-2.61 0-.59-.02-1.18-.08-1.81-1.02.14-1.73.51-2.66 1.39-.78.74-1.22 1.49-1.55 2.23-.24.54-.26 1.02-.22 1.39 0 .1-.02.16-.11.19-.16.06-.42.11-.61.13-.1 0-.14-.05-.18-.16-.14-.59-.24-1.5-.24-2.26 0-.96.1-2.34.18-3.25.05-.51.06-.78.06-.99 0-.13 0-.3-.05-.54.42.06.86.21 1.07.32.08.05.14.1.14.16 0 .1-.05.16-.1.24-.08.14-.11.29-.14.45-.16.88-.27 1.87-.3 2.87-.02.42-.03.74-.03 1.04.35-.99.86-1.76 1.7-2.53.82-.78 1.79-1.31 2.98-1.5-.05-.37-.08-.62-.14-.94-.08-.38-.16-.67-.37-1.01.37-.05.74-.05 1.06 0 .19.03.26.1.26.19 0 .06-.02.16-.02.24 0 .11.02.26.03.43.03.29.08.67.11 1.02h.14Zm1.2 4.92c.64-.45.91-1.09.91-1.95 0-1.49-.91-2.08-2.19-2.13.06.7.08 1.23.08 1.87 0 1.15-.18 2.08-.35 2.67.58 0 1.07-.11 1.55-.46Zm9.43-7.88c.1.05.14.11.14.18 0 .08-.03.18-.06.29-.06.19-.13.64-.13 1.47 0 1.02.02 2 .22 3.63.24 1.89.93 3.27 1.7 3.27.64 0 1.25-1.02 1.71-2.51.18.42.32.61.53.8.13.11.18.24.13.4-.45 1.3-1.31 2.51-2.38 2.51-1.34 0-2.35-1.86-2.71-4.37-.22-1.6-.29-3.41-.29-4.47 0-.61-.02-.99-.13-1.54.45.05.96.19 1.26.34Zm7.64 1.23c.1-.05.18-.06.24 0 1.63 1.42 2.72 3.39 3.12 5.54.02.11-.03.16-.11.21-.24.16-.46.27-.74.37-.11.03-.19-.02-.21-.13-.45-2.45-1.46-4.15-3.01-5.55.3-.21.54-.35.7-.43Zm11.5 4.6c.7-.72 1.46-1.17 2.26-1.17 1.58 0 2.1 1.15 2.26 2.77.13 1.36.38 2.14 1.28 2.14.94 0 1.52-.48 2.05-1.1.46-.58.98-1.42 1.34-2.64.18.43.37.67.58.85.13.1.14.22.08.42-.32.85-.74 1.55-1.26 2.18-.67.85-1.58 1.41-2.8 1.41-1.54 0-2.08-.94-2.29-2.9-.18-1.62-.54-2.24-1.39-2.24-.7 0-1.41.43-2.21 1.38-.54.67-1.2 1.86-1.97 3.54-.06.16-.14.18-.29.11-.22-.1-.51-.26-.7-.42-.1-.08-.1-.16-.03-.27 2.07-4.03 3.76-7.41 4.87-9.76.38-.86.54-1.33.62-1.84.43.18.9.42 1.15.61.18.13.19.3.03.46-.14.13-.29.29-.48.66-1.1 2.06-2.18 4.11-3.12 5.79l.03.03Zm21.38-5.24c-2.4.38-4.48.72-6.5 1.14-.58.11-.77.18-.96.27-.11.05-.21.11-.3.11s-.18-.06-.22-.14c-.16-.32-.3-.7-.45-1.14.58 0 .99-.05 1.99-.19 2.38-.38 5.63-.86 9.92-1.39.16-.02.24.03.27.13.05.21.1.59.1.8 0 .14-.05.18-.21.19-.87.05-1.5.14-2.34.48-2.34.93-4.13 2.9-4.13 5.04 0 2.66 2.32 3.44 4.66 3.63.21.02.26.05.26.18 0 .18-.05.54-.1.77-.03.18-.08.24-.26.22-2.71-.24-5.62-1.39-5.62-4.63 0-2.26 1.39-4.11 3.91-5.44l-.02-.03Zm11.79-2.08c.14.08.21.14.21.24 0 .08-.03.16-.06.21-.13.18-.22.34-.29.62-.3 1.49-.45 2.82-.48 3.68-.02.61-.02 1.26.06 1.81.34-.67.82-1.58 1.18-2.31.1.3.21.5.32.66.11.18.08.27-.02.43-.42.74-.78 1.52-1.01 2.11-.1.26-.11.37-.11.51.02.14-.02.19-.11.22-.14.03-.5.08-.77.11-.08 0-.13-.06-.16-.16-.24-.66-.4-1.76-.4-2.99 0-.98.18-2.46.37-3.76.1-.67.18-1.18.14-1.78.45.1.85.24 1.12.38Zm5.06-.16c.24.05.27.16.24.32-.05.18-.05.45-.03.75.13 1.78.19 3.1.19 4.24 0 2.29-.4 4.02-1.31 5.25-.64.88-1.49 1.66-2.64 2.32-.16.1-.27.1-.42-.03-.21-.18-.53-.37-.82-.45 1.3-.69 2.1-1.26 2.79-2.19.9-1.2 1.31-2.56 1.31-4.85 0-1.1-.06-2.62-.16-3.81-.06-.77-.16-1.18-.32-1.68.45.02.88.05 1.17.13Zm12.65-.14c.1.05.16.11.16.19s-.03.14-.1.22c-.1.14-.16.32-.21.64-.06.35-.11.66-.16 1.02 1.44-.11 2.82-.34 4.45-.69.11-.03.16.02.19.11.05.18.08.42.08.61 0 .11-.06.18-.18.19-1.95.42-3.25.59-4.69.7-.08.85-.14 1.52-.16 2.29.82-.24 1.97-.43 2.91-.45.16-.42.29-.83.29-1.34.38.14.7.29.9.43.13.1.19.18.19.26 0 .11-.11.21-.18.32-.08.16-.16.27-.24.43 2.29.34 3.57 1.84 3.57 3.68 0 2.51-2.24 3.79-4.64 4.35-.18.05-.29.02-.38-.18-.08-.16-.27-.42-.56-.59 1.14-.21 2.37-.69 3.12-1.18.67-.48 1.38-1.2 1.38-2.54 0-1.71-1.34-2.61-2.75-2.79-.9 1.76-1.98 3.27-3.1 4.39.1.34.21.58.34.9.05.11.03.16-.08.24-.19.14-.43.26-.59.32-.1.03-.16.03-.21-.08-.1-.22-.19-.48-.27-.77-1.25.94-2.26 1.36-3.01 1.36-1.06 0-1.44-.75-1.44-1.63 0-1.63 1.33-3.59 3.79-4.77.03-.91.08-1.76.13-2.56-.91.05-1.54.06-1.97.06-.35 0-.59-.02-.75-.05-.14-.02-.19-.05-.21-.21a6.5 6.5 0 0 1-.06-.74c1.01.08 1.98.06 3.11.02.06-.56.11-.98.14-1.39.03-.48.02-.78-.05-1.07.54.06.99.16 1.25.29Zm-4.38 10.27c0 .42.19.75.71.75.56 0 1.41-.4 2.46-1.25-.19-1.02-.32-2.05-.35-3.2-1.9 1.06-2.82 2.56-2.82 3.7Zm6.42-4.62c-.83 0-1.86.19-2.71.5.02 1.1.11 2.03.29 2.96.75-.75 1.87-2.35 2.42-3.46Zm13.02-4.98c.19.13.21.26.1.43-.1.16-.18.4-.26.8-.48 2.3-.77 4.42-.77 5.91 0 .91-.02 1.74.11 2.77.34-.86.7-1.66 1.12-2.61.11.3.24.48.37.66.1.14.08.22.02.35-.54 1.22-.9 2.11-.96 2.53-.03.29-.05.53-.02.72.03.11 0 .16-.08.21-.19.08-.48.16-.72.21-.11.03-.16 0-.21-.13-.53-1.34-.61-3.2-.61-4.67 0-1.76.27-3.55.69-6 .08-.53.13-1.14.08-1.58.4.08.91.27 1.14.42Zm6.13 3.75c-1.14.06-2.3.1-3.57.02-.1 0-.16-.02-.18-.14-.03-.22-.06-.56-.06-.85 1.33.1 2.61.08 3.78 0 0-.59.02-1.2.02-1.84 0-.45-.03-.88-.16-1.42.53.05.9.11 1.23.22.11.05.18.11.18.19s-.02.13-.06.22c-.08.14-.11.46-.13.77-.03.56-.03 1.12-.03 1.78.83-.08 1.7-.21 2.53-.37.13-.03.14 0 .16.11.03.18.06.45.06.64 0 .11-.05.18-.11.19-.82.19-1.78.3-2.64.38.02 1.87.06 3.39.14 4.83 1.04.43 1.99.98 2.82 1.65.08.06.08.1.03.21-.1.22-.26.5-.43.7-.06.1-.13.08-.19.02-.7-.59-1.41-1.07-2.24-1.47-.06 1.41-.86 2.16-2.67 2.16-1.5 0-2.5-.66-2.5-1.82s1.1-1.9 2.46-1.9c.51 0 1.17.06 1.68.18-.06-1.33-.11-2.8-.11-4.45Zm.11 5.42a6.11 6.11 0 0 0-1.75-.27c-.9 0-1.49.37-1.49 1.02 0 .58.58.91 1.54.91 1.14 0 1.7-.51 1.7-1.36v-.3Zm8.8.11c.06-.06.13-.1.18-.1s.1.03.18.1c1.17.74 2.14 1.63 3.07 2.88.06.1.08.14.08.19 0 .06-.02.11-.11.19l-.58.48c-.08.06-.13.1-.16.1-.06 0-.11-.02-.18-.13-.83-1.2-1.86-2.26-2.95-2.99-.08-.05-.11-.08-.11-.11 0-.05.02-.08.08-.16l.5-.45Zm16.43-7.17c-.08.16-.13.24-.19.24-.05 0-.11-.05-.22-.13-.85-.64-1.82-1.55-2.51-2.5a13.82 13.82 0 0 1-3.19 3.22c-.11.08-.18.13-.22.13-.06 0-.1-.06-.14-.21a1.44 1.44 0 0 0-.34-.58c1.26-.82 2.62-2.16 3.25-3.25.11-.19.19-.38.27-.64.29.06.7.19.91.27.11.05.16.1.16.14 0 .08-.05.13-.13.16-.05.02-.08.03-.11.06.83 1.09 1.84 1.94 2.87 2.58-.14.11-.3.3-.4.5Zm-1.73 6.31c.14-.06.18-.06.24.03.58.78.9 1.41 1.3 2.37.05.11.03.14-.11.22l-.4.19c-.21.11-.24.1-.27-.02-.1-.24-.19-.48-.29-.69-1.39.54-2.71.96-4.05 1.34-.34.1-.59.19-.66.26-.06.06-.14.11-.21.11s-.13-.03-.18-.14c-.14-.3-.24-.61-.34-.96.42-.05.85-.11 1.3-.21v-5.84c0-1.36-.03-1.94-.03-2.03 0-.11.02-.13.13-.13.1 0 .54.03 1.62.03h.26v-.69c0-.35-.02-.66-.1-.99l.96.08c.11.02.18.08.18.14s-.03.13-.08.21c-.06.13-.08.34-.08.53v.72h.48c.96 0 1.3-.03 1.39-.03.11 0 .13.02.13.13 0 .1-.03.48-.03 1.5v1.74c0 .98.03 1.38.03 1.47s-.02.11-.13.11c-.1 0-.43-.03-1.39-.03h-2.43v2.85c.85-.22 1.89-.54 2.88-.91-.18-.34-.38-.66-.59-.98-.08-.11-.06-.13.14-.24l.34-.16Zm.29-4.74h-3.06v1.31h3.06v-1.31Zm0 2.05h-3.06v1.38h3.06v-1.38Zm8.76 6.87c-.1.14-.14.21-.21.21-.05 0-.11-.05-.21-.13-1.86-1.58-2.98-3.55-3.43-5.91-.35 2.32-1.38 4.51-3.68 5.97-.11.08-.18.11-.24.11s-.13-.05-.24-.19c-.14-.19-.32-.35-.51-.48 3.03-1.63 3.99-4.63 3.99-7.36 0-.88-.02-1.18-.08-1.68.35.03.67.06 1.01.11.14.03.21.06.21.14 0 .13-.05.21-.1.34-.06.13-.1.34-.1.74.48 3.41 1.84 6.02 4.11 7.57-.21.16-.37.3-.53.56Zm-.98-11.33c.16 0 .24-.02.32-.05.06-.03.11-.06.16-.06.1 0 .19.05.45.29.22.21.29.3.29.4 0 .08-.05.14-.13.21s-.14.14-.22.38a18.79 18.79 0 0 1-1.25 2.95c-.08.14-.11.21-.18.21-.03 0-.1-.05-.21-.13-.19-.14-.4-.24-.61-.3a13.14 13.14 0 0 0 1.39-3.04h-4.15c-.32.82-.74 1.63-1.26 2.43-.1.13-.14.19-.21.19-.05 0-.11-.05-.22-.14-.19-.16-.37-.26-.58-.34 1.17-1.5 1.7-3.09 2.06-4.61.1-.42.16-.78.16-1.14.38.06.74.14.99.22.13.05.18.1.18.18s-.05.14-.13.22-.14.26-.24.66c-.13.5-.27.98-.45 1.47h3.83Zm19.57 2.32q-.14.3-.45.21c-2.66-.94-5.3-2.61-6.8-4.43-1.67 1.98-3.75 3.54-6.58 4.63-.27.11-.29.08-.45-.19-.13-.22-.27-.4-.45-.54 2.9-.98 5.01-2.45 6.55-4.24.22-.24.4-.54.5-.78.37.05.7.13 1.01.21.13.03.21.1.21.16s-.03.11-.1.14c-.06.03-.1.05-.13.08 1.5 1.62 4.08 3.3 7.12 4.15-.19.19-.34.4-.43.62Zm-7.17 4.37c.5.83 1.09 1.47 1.82 2.02.98-.62 1.67-1.14 2.23-1.68.22-.22.37-.4.5-.62.34.21.58.38.82.58.08.06.13.13.13.21s-.08.13-.19.16c-.13.03-.32.14-.53.3-.62.5-1.33.99-2.18 1.54 1.17.66 2.64 1.12 4.5 1.54-.16.16-.3.37-.42.62-.13.29-.16.27-.46.19-3.49-.98-5.6-2-7.19-4.85h-2.34v3.35c1.3-.24 2.53-.51 3.89-.85-.05.18-.08.38-.08.56 0 .34-.02.32-.32.4-2.06.53-3.81.88-5.54 1.2-.34.06-.58.16-.66.22-.06.05-.11.08-.18.08s-.11-.05-.16-.16c-.11-.29-.21-.66-.27-.98.59-.05 1.09-.11 1.71-.21.22-.03.43-.06.66-.11v-6.34c0-1.42-.03-2.03-.03-2.13 0-.11.02-.13.13-.13.08 0 .75.03 2.24.03h1.36v-.5c0-.59-.02-.91-.11-1.38.38.02.66.05 1.01.1.13.02.19.06.19.13 0 .13-.05.19-.1.3-.06.14-.08.3-.08.74v.61h1.46c1.49 0 2.06-.03 2.16-.03.11 0 .13.02.13.13 0 .1-.03.48-.03 1.52v1.84c0 1.02.03 1.42.03 1.5 0 .11-.02.13-.13.13-.1 0-.67-.03-2.16-.03h-1.81Zm3.15-4.28h-6.47v1.31h6.47v-1.31Zm0 2.08h-6.47v1.41h6.47v-1.41Zm21.97-4.56c0 .11-.02.13-.11.13s-.62-.03-2.24-.03h-8.9v2.3c0 1.73-.05 3.31-.34 4.8-.27 1.42-.72 2.64-1.46 3.95-.08.13-.11.21-.16.21-.03 0-.1-.06-.21-.18-.21-.21-.46-.38-.64-.46.78-1.23 1.22-2.4 1.52-3.91.26-1.36.3-2.91.3-4.55 0-2.03-.03-2.87-.03-2.96 0-.11.02-.13.13-.13.08 0 .67.03 2.27.03h3.03v-.8c0-.5-.02-.91-.1-1.3.38 0 .74.03 1.06.08.13.02.19.06.19.13 0 .11-.03.19-.1.3-.06.13-.08.38-.08.77v.82h3.5c1.62 0 2.15-.03 2.24-.03s.11.02.11.13v.69Zm-.53 3.67c0 .11-.02.13-.13.13-.08 0-.51-.03-1.87-.03h-3.11v2.29h1.94c1.55 0 2.08-.03 2.18-.03.11 0 .13.02.13.13 0 .08-.03.45-.03 1.38v1.26c0 2.1.03 2.45.03 2.53 0 .11-.02.13-.13.13h-.74c-.11 0-.13-.02-.13-.13v-.56h-6.59v.66c0 .11-.02.11-.11.11h-.72c-.11 0-.13 0-.13-.11 0-.1.03-.43.03-2.56v-1.12c0-1.14-.03-1.49-.03-1.58 0-.11.02-.13.13-.13.1 0 .62.03 2.16.03h1.07v-3.51c0-.75-.02-1.41-.1-1.86.37.02.64.03 1.02.1.11.02.19.06.19.13 0 .13-.05.19-.1.32-.06.16-.08.64-.08 1.28v.38h3.11c1.36 0 1.79-.03 1.87-.03.11 0 .13.02.13.13v.67Zm-1.86 3.23h-6.59v2.99h6.59v-2.99Zm17.57-6.67c1.6 0 2.16-.03 2.24-.03.13 0 .14.02.14.13 0 .1-.03.85-.03 2.53v4.5c0 1.28.02 2.05.02 2.56 0 .48-.11.82-.38 1.06-.26.21-.78.29-2.03.29-.32 0-.3 0-.38-.3-.08-.27-.19-.51-.32-.7.43.03.8.06 1.31.06.54 0 .78-.13.78-.59v-8.61h-10.36v7.79c0 1.58.03 2.27.03 2.35 0 .11-.02.13-.13.13h-.8c-.11 0-.13-.02-.13-.13 0-.08.03-.74.03-2.43v-6.02c0-1.71-.03-2.39-.03-2.48 0-.11.02-.13.13-.13.1 0 .64.03 2.26.03h1.67c.38-.67.75-1.39 1.01-1.98.14-.32.19-.53.27-.91.35.06.75.16 1.02.26.11.05.16.1.16.18 0 .1-.06.16-.13.21-.11.1-.18.18-.24.32-.3.66-.67 1.36-1.01 1.94h4.9Zm-1.15 5.82c0 2.13.03 2.45.03 2.54 0 .11-.02.13-.13.13h-.67c-.13 0-.14-.02-.14-.13v-.69h-3.7v.8c0 .11-.02.13-.13.13h-.67c-.11 0-.13-.02-.13-.13 0-.1.03-.43.03-2.59v-1.2c0-1.17-.03-1.52-.03-1.62 0-.11.02-.13.13-.13.1 0 .46.03 1.68.03h1.95c1.2 0 1.58-.03 1.68-.03.11 0 .13.02.13.13 0 .1-.03.45-.03 1.41v1.34Zm-.91-2h-3.7v3.01h3.7v-3.01Zm12.51-5.41c.16.1.22.18.22.26 0 .06-.03.13-.1.26-.1.19-.16.53-.26.94-.34 1.84-.61 3.6-.61 5.28 0 1.33.16 2.39.37 3.12.4-.94.72-1.66 1.15-2.66.13.37.24.56.37.72.06.08.1.13.1.19 0 .08-.05.18-.14.37-.38.85-.62 1.49-.9 2.29-.03.13-.06.27-.06.38s.02.21.02.3c0 .06-.03.11-.1.14-.26.11-.43.16-.62.19-.11.02-.19 0-.26-.13-.5-1.01-.91-3.09-.91-4.66 0-1.78.18-3.27.43-4.9.18-1.23.22-1.82.21-2.53.48.13.83.27 1.09.42Zm6.45 3.86c-.8.06-1.57.11-2.24.11-.4 0-.82 0-1.31-.02-.18 0-.22-.06-.26-.19-.03-.18-.06-.48-.08-.83.56.05 1.22.06 1.79.06.62 0 1.41-.03 2.08-.1-.03-1.18-.05-1.94-.08-2.45-.05-.56-.1-.8-.22-1.1.53.02 1.04.06 1.28.14.13.05.19.1.19.19 0 .05-.03.13-.06.22-.06.16-.08.32-.08.66 0 .62.02 1.42.02 2.22.77-.08 1.5-.22 2.29-.4.13-.03.19-.02.21.1.03.22.05.45.08.7.02.14-.03.19-.14.21-.85.18-1.57.29-2.4.37l.03 2.32c.02 1.63-.16 2.79-.67 3.87-.48 1.06-1.28 1.83-2.21 2.45-.16.11-.24.13-.3.13-.08 0-.14-.03-.26-.14-.14-.14-.38-.26-.7-.37 1.38-.75 2.14-1.54 2.61-2.74.34-.83.51-1.82.48-3.67l-.03-1.76Zm15.2-.85c.1-.13.13-.14.24-.08.77.43 1.57 1.04 2.27 1.73.08.08.05.11-.05.26l-.32.45c-.13.18-.16.18-.26.08-.67-.67-1.42-1.31-2.21-1.79-.11-.06-.1-.1.02-.24l.3-.4Zm1.23 9c-.18.3-.3.53-.34.67-.03.11-.1.16-.18.16-.05 0-.11-.02-.21-.1-.24-.18-.46-.35-.72-.58.32-.35.58-.69.91-1.25.38-.72 1.01-1.95 1.68-3.54.13.16.29.34.45.48.16.13.22.18.22.26 0 .06-.03.13-.08.26-.54 1.28-1.15 2.53-1.74 3.63Zm-.35-12.99c.11-.13.14-.13.24-.06.77.5 1.52 1.12 2.14 1.76.08.1.08.13-.03.27l-.34.43c-.13.16-.18.18-.26.08-.64-.69-1.42-1.36-2.14-1.84-.11-.08-.1-.1.03-.24l.35-.4Zm12.86 5.45c0 .11-.02.13-.11.13s-.64-.03-2.26-.03h-2.38v2.62h1.36c1.49 0 1.98-.03 2.06-.03.11 0 .13.02.13.13 0 .08-.03.46-.03 1.5v1.36c0 2.22.03 2.58.03 2.67s-.02.11-.13.11h-.74c-.11 0-.13-.02-.13-.11v-.7h-5.91v.78c0 .11-.02.13-.13.13h-.71c-.13 0-.14-.02-.14-.13 0-.08.03-.45.03-2.71v-1.22c0-1.22-.03-1.62-.03-1.7 0-.11.02-.13.14-.13.08 0 .59.03 2.08.03h1.12v-2.62h-2.16c-1.63 0-2.18.03-2.26.03-.11 0-.13-.02-.13-.13v-.69c0-.11.02-.13.13-.13.08 0 .62.03 2.26.03h2.16v-2.59c-1.06.22-2.14.4-3.25.56-.34.05-.35.03-.45-.26-.08-.24-.19-.43-.32-.58 2.64-.29 5.62-.93 7.08-1.5.37-.14.61-.26.83-.42.26.19.48.38.69.59.1.1.13.14.13.22s-.06.14-.19.16c-.13.02-.37.06-.61.14-.91.32-1.91.61-2.93.85v2.82h2.38c1.62 0 2.16-.03 2.26-.03s.11.02.11.13v.69Zm-2.19 3.55h-5.91v3.25h5.91v-3.25Zm-362.8 37.15c0 1.12.03 1.52.03 1.62 0 .11-.02.13-.13.13-.1 0-.66-.03-2.27-.03h-5.04c-1.6 0-2.16.03-2.26.03-.11 0-.13-.02-.13-.13 0-.1.03-.5.03-1.62v-2.67c0-.82-.02-1.25-.03-1.46-.45.35-.96.7-1.52 1.06-.11.08-.18.11-.22.11-.08 0-.11-.08-.19-.22-.14-.26-.29-.4-.42-.51 2.21-1.22 3.51-2.53 4.43-3.89.29-.42.43-.77.51-1.06.37.1.59.18.88.29.14.06.18.13.18.19 0 .08-.06.14-.16.21-.08.06-.19.18-.35.43-.1.14-.18.29-.27.42h3.34c.19 0 .27-.02.34-.05.03-.02.1-.03.14-.03.1 0 .19.03.45.26.24.21.32.3.32.4s-.08.16-.21.22c-.11.06-.24.21-.4.4-.37.5-.8 1.01-1.26 1.52h1.84c1.62 0 2.18-.03 2.27-.03.11 0 .13.02.13.13 0 .08-.03.48-.03 1.62v2.67Zm-9.12 2.84c.16.08.18.11.11.24-.48.94-1.12 1.73-1.97 2.48-.1.1-.16.11-.3.02l-.43-.32c-.19-.14-.19-.18-.1-.26.85-.7 1.49-1.42 1.95-2.35.06-.13.11-.13.27-.05l.46.24Zm1.58-9.13c-.54.66-1.15 1.28-1.91 1.89.29 0 .88.02 2.03.02h2.14c.59-.69 1.02-1.23 1.47-1.9h-3.75Zm2.11 2.69h-3.41v1.82h3.41v-1.82Zm0 2.59h-3.41v1.94h3.41v-1.94Zm-1.2 3.67c.14-.02.19-.02.22.1.24.8.37 1.62.48 2.51.02.11 0 .14-.21.18l-.51.06c-.24.03-.26.02-.27-.13-.1-.9-.18-1.7-.4-2.5-.03-.11 0-.13.19-.16l.5-.06Zm5.7-6.26h-3.58v1.82h3.58v-1.82Zm0 2.59h-3.58v1.94h3.58v-1.94Zm-2.51 3.59c.16-.03.19-.03.24.06.37.78.7 1.6.93 2.47.02.1 0 .14-.19.19l-.51.14c-.22.06-.26.06-.29-.06-.18-.86-.48-1.74-.83-2.51-.05-.1-.02-.13.19-.18l.46-.11Zm3.11-.23c.14-.08.16-.08.26.02.72.72 1.36 1.57 1.94 2.56.06.11.05.14-.13.26l-.43.26c-.21.13-.26.11-.3.02-.54-1.02-1.1-1.86-1.83-2.64-.1-.1-.08-.13.08-.22l.42-.24Zm10.84-3.72c0 .72-.59 1.33-1.33 1.33s-1.33-.61-1.33-1.33.61-1.33 1.33-1.33 1.33.59 1.33 1.33Zm11.97 1.12c0 1.09.03 1.46.03 1.55 0 .11-.02.13-.13.13-.08 0-.46-.03-1.62-.03h-1.74c-1.17 0-1.54.03-1.63.03-.11 0-.13-.02-.13-.13 0-.1.03-.46.03-1.55v-2.38c0-.66-.02-1.04-.02-1.28l-.43.5c-.1.11-.16.16-.21.16s-.1-.06-.21-.19c-.11-.13-.24-.24-.4-.32 1.25-1.26 2.05-2.71 2.45-3.73.16-.42.26-.78.27-1.06.3.06.64.16.86.24.11.05.19.1.19.18 0 .1-.03.13-.11.19s-.18.22-.34.59l-.19.43h1.57c.18 0 .26-.02.32-.05.06-.03.1-.05.14-.05.08 0 .19.05.43.26.21.19.26.27.26.35s-.05.14-.16.21c-.11.06-.19.21-.27.37-.26.48-.58 1.02-.91 1.55h.22c1.15 0 1.54-.03 1.62-.03.11 0 .13.02.13.13 0 .1-.03.48-.03 1.55v2.38Zm-4.74 2.64c.14.05.18.06.16.18-.21 1.09-.48 1.97-.93 2.9-.05.11-.08.1-.24.02l-.35-.18c-.19-.13-.21-.16-.16-.27.38-.72.7-1.63.9-2.69.02-.13.03-.13.24-.06l.38.11Zm1.06-8.58c-.32.62-.74 1.25-1.22 1.89.22 0 .64.02 1.44.02h.61c.45-.7.77-1.28 1.06-1.9h-1.89Zm.67 2.62h-1.39v1.68h1.39v-1.68Zm0 2.39h-1.39v1.86h1.39v-1.86Zm-.43 3.5c.14-.03.16-.02.19.11.21.8.37 1.62.43 2.37.02.13-.02.14-.16.21l-.37.11c-.22.06-.24.08-.26-.06-.05-.8-.14-1.65-.35-2.48-.03-.11-.02-.13.18-.18l.34-.08Zm1.53-.21c.14-.05.18-.06.22.06.24.56.5 1.44.67 2.14.02.13 0 .13-.18.19l-.32.11c-.19.06-.21.08-.24-.06-.13-.66-.37-1.55-.61-2.14-.05-.11-.03-.13.18-.21l.27-.1Zm1.12-5.68h-1.47v1.68h1.47v-1.68Zm0 2.39h-1.47v1.86h1.47v-1.86Zm.36 3.1c.16-.06.18-.06.24.06.32.56.56 1.17.74 1.7.03.11.03.16-.13.22l-.32.14q-.21.1-.24-.03c-.14-.59-.38-1.25-.67-1.78-.06-.11-.05-.14.11-.21l.27-.11Zm8.61-.08c0 .11-.02.13-.14.13-.06 0-.56-.03-2.02-.03h-1.49v1.41c0 1.62.03 2.32.03 2.4 0 .11-.02.11-.13.11h-.74c-.11 0-.13 0-.13-.11 0-.1.03-.78.03-2.4v-1.41h-.9c-1.46 0-1.95.03-2.03.03-.11 0-.13-.02-.13-.13v-.67c0-.11.02-.13.13-.13.08 0 .58.03 2.03.03h.9v-2.53h-.56c-1.33 0-1.74.03-1.82.03-.11 0-.13-.02-.13-.14v-.64c0-.11.02-.13.13-.13.08 0 .5.03 1.82.03h.56v-2.15h-.82c-1.42 0-1.89.03-1.97.03-.11 0-.13-.02-.13-.13v-.66c0-.11.02-.13.13-.13.08 0 .54.03 1.97.03h1.68c.48-.88.8-1.63 1.1-2.38.1-.24.19-.5.21-.82.29.08.64.21.91.35.11.06.18.13.18.21s-.05.13-.16.24c-.11.11-.21.27-.29.43-.27.59-.61 1.23-1.04 1.97h.35c1.42 0 1.89-.03 1.97-.03.11 0 .13.02.13.13v.66c0 .11-.02.13-.13.13-.08 0-.54-.03-1.97-.03h-1.2v2.15h.86c1.33 0 1.74-.03 1.84-.03.11 0 .13.02.13.13v.64c0 .13-.02.14-.13.14-.1 0-.51-.03-1.84-.03h-.86v2.53h1.47c1.47 0 1.97-.03 2.03-.03.13 0 .14.02.14.13v.67Zm-6.12-10.16c.13-.05.18-.05.24.05.42.59.77 1.22 1.07 1.97.05.11.02.14-.14.22l-.45.21q-.22.1-.27-.05c-.27-.72-.58-1.31-1.02-1.98-.06-.11-.05-.13.11-.21l.46-.21Zm22.18 8.32c0 1.12.03 1.52.03 1.62 0 .11-.02.13-.13.13-.1 0-.66-.03-2.27-.03h-5.04c-1.6 0-2.16.03-2.26.03-.11 0-.13-.02-.13-.13 0-.1.03-.5.03-1.62v-2.67c0-.82-.02-1.25-.03-1.46-.45.35-.96.7-1.52 1.06-.11.08-.18.11-.22.11-.08 0-.11-.08-.19-.22-.14-.26-.29-.4-.42-.51 2.21-1.22 3.51-2.53 4.43-3.89.29-.42.43-.77.51-1.06.37.1.59.18.88.29.14.06.18.13.18.19 0 .08-.06.14-.16.21-.08.06-.19.18-.35.43-.1.14-.18.29-.27.42h3.34c.19 0 .27-.02.34-.05.03-.02.1-.03.14-.03.1 0 .19.03.45.26.24.21.32.3.32.4s-.08.16-.21.22c-.11.06-.24.21-.4.4-.37.5-.8 1.01-1.26 1.52h1.84c1.62 0 2.18-.03 2.27-.03.11 0 .13.02.13.13 0 .08-.03.48-.03 1.62v2.67Zm-9.12 2.84c.16.08.18.11.11.24-.48.94-1.12 1.73-1.97 2.48-.1.1-.16.11-.3.02l-.43-.32c-.19-.14-.19-.18-.1-.26.85-.7 1.49-1.42 1.95-2.35.06-.13.11-.13.27-.05l.46.24Zm1.58-9.13c-.54.66-1.15 1.28-1.91 1.89.29 0 .88.02 2.03.02h2.14c.59-.69 1.02-1.23 1.47-1.9h-3.75Zm2.11 2.69h-3.41v1.82h3.41v-1.82Zm0 2.59h-3.41v1.94h3.41v-1.94Zm-1.2 3.67c.14-.02.19-.02.22.1.24.8.37 1.62.48 2.51.02.11 0 .14-.21.18l-.51.06c-.24.03-.26.02-.27-.13-.1-.9-.18-1.7-.4-2.5-.03-.11 0-.13.19-.16l.5-.06Zm5.7-6.26h-3.58v1.82h3.58v-1.82Zm0 2.59h-3.58v1.94h3.58v-1.94Zm-2.51 3.59c.16-.03.19-.03.24.06.37.78.7 1.6.93 2.47.02.1 0 .14-.19.19l-.51.14c-.22.06-.26.06-.29-.06-.18-.86-.48-1.74-.83-2.51-.05-.1-.02-.13.19-.18l.46-.11Zm3.1-.23c.14-.08.16-.08.26.02.72.72 1.36 1.57 1.94 2.56.06.11.05.14-.13.26l-.43.26c-.21.13-.26.11-.3.02-.54-1.02-1.1-1.86-1.83-2.64-.1-.1-.08-.13.08-.22l.42-.24Zm10.85-3.72c0 .72-.59 1.33-1.33 1.33s-1.33-.61-1.33-1.33.61-1.33 1.33-1.33 1.33.59 1.33 1.33Zm7.28 5.44c-.16.32-.29.56-.32.69-.03.13-.08.19-.16.19-.06 0-.14-.02-.27-.11-.22-.18-.46-.35-.74-.59.35-.38.56-.69.82-1.12.58-.99 1.15-2.31 1.81-4.08.14.16.32.34.5.48.26.19.27.19.16.51-.51 1.36-1.07 2.66-1.79 4.03Zm-.61-11.69c.13-.1.19-.11.27-.03.88.75 1.44 1.34 2.13 2.29.06.08.06.13-.06.24l-.46.43c-.16.14-.18.14-.24.05-.69-.99-1.25-1.66-2.1-2.4-.11-.1-.1-.1.06-.24l.4-.34Zm8.02-.4c1.28 1.89 3.23 3.83 5.79 4.99-.19.18-.34.38-.46.66-.08.14-.13.21-.21.21a.72.72 0 0 1-.24-.08c-2.34-1.33-4.18-3.14-5.36-4.99-1.09 1.97-2.93 3.83-4.96 5.07-.11.06-.18.1-.24.1s-.11-.05-.22-.19c-.13-.18-.29-.35-.5-.5 2.34-1.25 4.4-3.49 5.09-4.99.14-.3.24-.59.3-.83.37.05.67.1.99.16.14.03.21.1.21.19 0 .05-.02.1-.11.14l-.08.06Zm3.91 9.45c0 .69.02 1.26.03 1.66 0 .43-.11.8-.37.99-.3.24-.78.3-1.78.3-.32 0-.34.02-.4-.3-.05-.24-.16-.5-.29-.7.43.03.7.05 1.12.05.56 0 .72-.14.72-.58v-2.67h-3.55v3.91c0 1.12.03 1.58.03 1.66 0 .11-.02.11-.13.11h-.78c-.11 0-.13 0-.13-.11 0-.1.03-.54.03-1.66v-3.91h-.74c-1.55 0-2.05.03-2.13.03-.13 0-.14-.02-.14-.13v-.64c0-.11.02-.13.14-.13.08 0 .58.03 2.13.03h3.95c1.55 0 2.1-.03 2.18-.03.11 0 .13.02.13.13 0 .08-.03.26-.03.8v1.18Zm-1.64-4.15c0 .11-.02.13-.13.13-.1 0-.45-.03-1.6-.03h-1.71c-1.17 0-1.5.03-1.6.03-.11 0-.13-.02-.13-.13v-.66c0-.11.02-.13.13-.13.1 0 .43.03 1.6.03h1.71c1.15 0 1.5-.03 1.6-.03.11 0 .13.02.13.13v.66Zm8.17 6.82c-.16.3-.27.54-.3.69-.02.11-.06.18-.13.18-.1 0-.18-.05-.27-.11-.21-.14-.46-.34-.74-.56.32-.35.51-.64.78-1.09.59-.96 1.15-2.24 1.78-4.03.13.18.3.32.48.46.26.21.29.21.18.51-.58 1.47-1.06 2.59-1.78 3.95Zm-.59-11.67c.14-.11.18-.11.26-.03.86.78 1.52 1.6 2.11 2.47.08.11.08.14-.08.29l-.38.35c-.16.16-.19.18-.27.06-.62-.98-1.3-1.87-2.1-2.56-.1-.08-.06-.11.11-.26l.35-.32Zm8.79 8.52c1.3 1.38 2.95 2.54 5.43 3.38-.18.14-.35.4-.45.62-.06.16-.1.22-.18.22-.06 0-.13-.03-.26-.08-1.92-.86-3.71-2.18-5.03-3.83.02 2.43.11 4.21.11 4.43 0 .11-.02.11-.13.11h-.78c-.11 0-.13 0-.13-.11 0-.22.11-1.98.13-4.4-1.34 1.57-2.93 2.83-5.14 3.94-.11.06-.19.1-.24.1-.08 0-.13-.06-.22-.24-.11-.21-.29-.42-.43-.54 2.29-.9 4.07-2.03 5.43-3.6h-.93c-1.57 0-2.1.03-2.19.03-.11 0-.13-.02-.13-.13 0-.08.03-.45.03-1.5v-2.23c0-1.06-.03-1.42-.03-1.5 0-.13.02-.14.13-.14.1 0 .62.03 2.19.03h1.47v-1.41h-2.42c-1.63 0-2.18.03-2.26.03-.11 0-.13-.02-.13-.13v-.67c0-.1.02-.11.13-.11.08 0 .62.03 2.26.03h2.42v-.08c0-.93-.02-1.22-.11-1.79.37.02.64.03 1.01.08.13.02.21.08.21.14 0 .11-.06.21-.1.32-.05.16-.1.42-.1 1.23v.1h2.87c1.63 0 2.18-.03 2.27-.03.11 0 .13.02.13.11v.67c0 .11-.02.13-.13.13-.1 0-.64-.03-2.27-.03h-2.87v1.41h1.76c1.55 0 2.1-.03 2.19-.03.11 0 .13.02.13.14 0 .08-.03.45-.03 1.5v2.23c0 1.06.03 1.42.03 1.5 0 .11-.02.13-.13.13-.1 0-.64-.03-2.19-.03h-1.33Zm-1.34-4.71h-2.9v1.58h2.9v-1.58Zm0 2.27h-2.9v1.7h2.9v-1.7Zm4.08-2.27h-3.17v1.58h3.17v-1.58Zm0 2.27h-3.17v1.7h3.17v-1.7Zm11.16-3.69c1.38 0 1.84-.03 1.92-.03.11 0 .14.03.14.14-.03.48-.03.94-.03 1.41-.03 2.59-.16 5.2-.46 7.12-.19 1.2-.74 1.7-1.73 1.7-.43 0-.72-.02-1.07-.05q-.29-.03-.32-.37c-.03-.26-.1-.5-.21-.7.51.1 1.01.14 1.52.14s.75-.24.88-1.15c.27-1.66.42-4.37.43-7.33h-2.27c-.1 1.58-.29 3.14-.61 4.45-.46 1.92-1.07 3.39-2.42 4.99-.1.11-.14.18-.21.18-.05 0-.1-.05-.19-.16-.22-.27-.42-.45-.64-.59 1.42-1.49 2.05-2.79 2.54-4.79.32-1.25.48-2.61.54-4.08h-.54c-1.38 0-1.82.03-1.9.03-.11 0-.13-.02-.13-.13v-.69c0-.11.02-.13.13-.13.08 0 .53.03 1.9.03h.59c.02-.48.02-.96.02-1.47 0-.99-.03-1.38-.11-1.97.37.02.75.05 1.1.1.13.02.18.1.18.16 0 .1-.05.21-.1.35-.05.18-.1.62-.1 1.47 0 .45-.02.91-.03 1.36h1.17Zm8.74 5.34c0 4.03.03 4.72.03 4.82 0 .11-.02.13-.13.13h-.75c-.1 0-.11-.02-.11-.13v-1.18h-3.31v1.3c0 .11-.02.13-.13.13h-.7c-.13 0-.14-.02-.14-.13 0-.1.03-.78.03-4.87v-2.83c0-2.88-.03-3.6-.03-3.68 0-.11.02-.13.14-.13.08 0 .45.03 1.62.03h1.78c1.14 0 1.52-.03 1.62-.03.11 0 .13.02.13.13 0 .08-.03.8-.03 3.28v3.17Zm-.96-5.68h-3.31v8.45h3.31v-8.45Zm19.52 9.6c0 .11-.02.13-.13.13-.08 0-.59-.03-2.11-.03h-9.3c-1.52 0-2.03.03-2.11.03-.11 0-.13-.02-.13-.13v-.8c0-.11.02-.13.13-.13.08 0 .59.03 2.11.03h3.97v-8.82h-2.9c-1.62 0-2.14.03-2.22.03-.11 0-.13-.02-.13-.13v-.78c0-.11.02-.13.13-.13.08 0 .61.03 2.22.03h7.16c1.62 0 2.13-.03 2.22-.03.11 0 .13.02.13.13v.78c0 .11-.02.13-.13.13-.1 0-.61-.03-2.22-.03h-3.2v8.82h4.27c1.52 0 2.03-.03 2.11-.03.11 0 .13.02.13.13v.8Zm10.25-1.45c0 2.4.03 2.8.03 2.9 0 .11-.02.13-.13.13h-.69c-.11 0-.13-.02-.13-.13v-.85h-3.47v.94c0 .11-.02.13-.13.13h-.69c-.11 0-.13-.02-.13-.13 0-.08.03-.48.03-2.93v-1.44c0-1.47-.03-1.87-.03-1.95 0-.11.02-.13.13-.13.1 0 .48.03 1.65.03h1.81c1.18 0 1.57-.03 1.65-.03.11 0 .13.02.13.13 0 .08-.03.48-.03 1.73v1.6Zm-.91-2.56h-3.47v3.75h3.47v-3.75Zm6.2-4.33c0 1.01.03 1.36.03 1.46 0 .11-.02.13-.13.13-.08 0-.61-.03-2.14-.03h-3.84c-1.52 0-2.05.03-2.14.03-.11 0-.11-.02-.11-.13 0-.1.02-.45.02-1.46v-1.97c0-.99-.02-1.36-.02-1.46 0-.11 0-.13.11-.13.1 0 .62.03 2.14.03h3.84c1.54 0 2.06-.03 2.14-.03.11 0 .13.02.13.13 0 .1-.03.46-.03 1.46v1.97Zm-.96-2.62h-6.4v3.28h6.4v-3.28Zm3.21 9.54c0 2.42.03 2.8.03 2.88 0 .13-.02.14-.13.14h-.69c-.11 0-.13-.02-.13-.14v-.86h-3.73v.96c0 .11-.02.13-.13.13h-.69c-.11 0-.13-.02-.13-.13 0-.1.03-.48.03-2.95V239c0-1.47-.03-1.87-.03-1.95 0-.13.02-.14.13-.14.1 0 .5.03 1.71.03h1.94c1.23 0 1.62-.03 1.71-.03.11 0 .13.02.13.14 0 .08-.03.48-.03 1.73v1.62Zm-.91-2.58h-3.73v3.73h3.73v-3.73Zm13.26-5.47c-.29 2.71-1.1 5.36-2.11 7-.69 1.17-1.41 1.65-2.35 1.65-1.2 0-2.34-1.31-2.34-3.63 0-1.47.67-3.04 1.86-4.15 1.18-1.1 2.79-1.78 4.8-1.78 3.58 0 5.71 2.1 5.71 5.15 0 2.61-1.62 4.71-5.09 5.59-.19.05-.3.02-.42-.18-.1-.16-.3-.4-.62-.59 3.17-.62 4.99-2.34 4.99-5.01 0-2.37-1.84-4.05-4.13-4.05h-.3Zm-4.24 1.53c-1.07 1.06-1.54 2.37-1.54 3.46 0 1.74.72 2.5 1.3 2.5.54 0 1.02-.35 1.49-1.17.82-1.44 1.67-3.92 1.87-6.26-1.25.16-2.35.7-3.12 1.47Zm28.29-.67c0 1.39.03 1.6.03 1.68 0 .11-.02.13-.13.13h-.72c-.11 0-.13-.02-.13-.13v-2.35h-11.08v2.35c0 .11-.02.13-.13.13h-.72c-.11 0-.13-.02-.13-.13 0-.1.03-.3.03-1.68v-.53c0-.53-.03-.77-.03-.85 0-.11.02-.13.13-.13.1 0 .66.03 2.23.03h6.74c.43-.67.77-1.3 1.07-1.95.08-.16.16-.42.21-.66.37.11.69.22.91.32.13.06.19.11.19.19 0 .1-.03.14-.13.19-.11.06-.22.22-.34.42-.29.51-.61 1.06-.91 1.49h.59c1.55 0 2.11-.03 2.21-.03.11 0 .13.02.13.13 0 .08-.03.32-.03.75v.62Zm-1.23 7.93c0 1.86.02 2.16.02 2.26s0 .11-.11.11h-.74c-.11 0-.13-.02-.13-.11v-.61h-8.58v.67c0 .1-.02.11-.11.11h-.75c-.11 0-.13-.02-.13-.11s.03-.4.03-2.29v-.85c0-.9-.03-1.23-.03-1.31 0-.11.02-.13.13-.13.1 0 .66.02 2.29.02h1.44c.22-.48.45-1.06.61-1.57h-.86c-1.47 0-1.98.03-2.08.03s-.11-.02-.11-.13c0-.1.03-.32.03-1.09v-1.06c0-.77-.03-1.01-.03-1.09 0-.11.02-.13.11-.13s.61.03 2.08.03h3.33c1.47 0 1.98-.03 2.08-.03s.11.02.11.13c0 .08-.03.32-.03 1.09v1.06c0 .77.03 1.01.03 1.09 0 .11-.02.13-.11.13s-.61-.03-2.08-.03h-1.47c-.19.59-.4 1.12-.61 1.57h3.3c1.62 0 2.19-.02 2.29-.02.11 0 .11.02.11.13 0 .08-.02.42-.02 1.14v.99Zm-9.51-11.82c.16-.06.21-.06.27.02.43.51.77 1.09 1.09 1.71.05.1.05.11-.13.19l-.45.21c-.21.1-.24.1-.32-.11-.19-.45-.64-1.23-1.01-1.65-.08-.1-.08-.13.13-.21l.42-.16Zm8.55 10.41h-8.58v2.23h8.58v-2.23Zm-1.41-5.06h-5.79v1.89h5.79v-1.89Zm-3.39-5.52c.13-.05.16-.03.24.06.37.51.66 1.01.94 1.73.05.11.05.13-.16.22l-.42.19c-.21.1-.22.08-.29-.08-.19-.51-.54-1.26-.9-1.76-.08-.11-.05-.13.13-.19l.45-.18Zm19.84 10.29c1.54 1.23 3.38 2.05 6.11 2.69-.14.14-.29.35-.42.58q-.16.3-.46.21c-2.56-.7-4.4-1.66-6.02-3.17 0 2.42.08 3.43.08 3.7 0 .11-.02.13-.13.13h-.77c-.11 0-.13-.02-.13-.13 0-.27.06-1.25.08-3.67-1.58 1.57-3.35 2.45-5.79 3.22-.29.1-.32.1-.46-.19-.11-.22-.26-.4-.43-.54 2.62-.69 4.53-1.54 5.89-2.82h-3.33c-1.52 0-2.02.03-2.1.03-.13 0-.14-.02-.14-.13v-.58c0-.11.02-.13.14-.13.08 0 .58.03 2.1.03h4.1v-1.28h-2.38c-1.63 0-2.19.03-2.27.03-.11 0-.13-.02-.13-.11v-.56c0-.13.02-.14.13-.14.08 0 .64.03 2.27.03h2.38v-1.23h-3.17c-1.6 0-2.13.03-2.21.03-.13 0-.14-.02-.14-.13v-.58c0-.11.02-.13.14-.13.08 0 .61.03 2.21.03h1.28a6.34 6.34 0 0 0-.67-1.38c-.08-.11-.05-.14.13-.21l.42-.14c.16-.06.19-.06.26.03.3.43.59 1.04.85 1.7h2.96c.22-.37.38-.7.59-1.17.08-.19.13-.37.19-.64.29.06.53.13.85.22.1.03.18.1.18.18s-.08.14-.14.19c-.08.06-.16.21-.22.34-.14.27-.3.54-.53.88h1.39c1.62 0 2.13-.03 2.22-.03.11 0 .13.02.13.13v.58c0 .11-.02.13-.13.13-.1 0-.61-.03-2.22-.03h-3.42v1.23h2.71c1.63 0 2.18-.03 2.27-.03.11 0 .13.02.13.14v.56c0 .1-.02.11-.13.11-.1 0-.64-.03-2.27-.03h-2.71v1.28h4.4c1.52 0 2.02-.03 2.11-.03.11 0 .13.02.13.13v.58c0 .11-.02.13-.13.13-.1 0-.59-.03-2.11-.03h-3.65Zm5.89-6.87c0 .11-.02.13-.13.13-.1 0-.59-.03-2.11-.03h-9.43c-1.52 0-2.02.03-2.1.03-.13 0-.14-.02-.14-.13v-.58c0-.13.02-.14.14-.14.08 0 .58.03 2.1.03h.56c-.35-.7-.71-1.22-1.14-1.7-.06-.08-.06-.13.1-.21l.43-.22c.11-.06.16-.06.22.02.4.43.8 1.01 1.15 1.62.05.1.03.13-.1.21l-.53.29h2.11v-1.2c0-.58 0-1.04-.1-1.46.34.02.72.05.98.08.1.02.16.06.16.14s-.02.13-.06.22c-.06.11-.1.4-.1 1.01v1.2h1.71v-1.18c0-.58 0-1.04-.11-1.46.34.02.74.05.99.08.1.02.16.06.16.14 0 .06-.03.13-.06.21-.05.13-.1.4-.1 1.01v1.2h1.49c.35-.5.62-.98.9-1.5.11-.22.21-.45.26-.75.32.08.67.21.91.3.1.03.16.1.16.16 0 .1-.03.14-.13.21-.11.08-.19.19-.27.32-.26.42-.54.85-.85 1.26h.67c1.52 0 2.02-.03 2.11-.03.11 0 .13.02.13.14v.58Zm6.54 8.02c-.11.1-.16.22-.24.38-.37.85-.75 1.57-1.38 2.34-.11.14-.19.21-.26.21-.05 0-.1-.05-.16-.11-.19-.18-.35-.27-.59-.35.82-.85 1.23-1.57 1.6-2.45.06-.19.13-.43.14-.66.3.1.59.19.8.29.13.06.19.11.19.18s-.03.11-.11.18Zm2.61-3.36c0 1.46.03 2.02.03 2.11 0 .11-.02.13-.13.13-.08 0-.37-.03-1.39-.03h-1.3c-1.01 0-1.31.03-1.39.03-.11 0-.13-.02-.13-.13 0-.1.03-.66.03-2.11v-5.12c0-1.46-.03-2.03-.03-2.13 0-.11.02-.13.13-.13.08 0 .38.03 1.39.03h1.3c1.02 0 1.31-.03 1.39-.03.11 0 .13.02.13.13 0 .1-.03.66-.03 2.13v5.12Zm-.87-6.53h-2.54v2.06h2.54v-2.06Zm0 2.85h-2.54v2.06h2.54v-2.06Zm0 2.85h-2.54v2.23h2.54v-2.23Zm-.24 3.57c.16-.06.19-.08.24.03.32.7.61 1.22 1.17 1.9-.19.1-.43.24-.59.4-.08.08-.13.11-.16.11-.06 0-.1-.06-.19-.21-.4-.58-.69-1.2-.98-1.83-.05-.11-.03-.14.11-.22l.4-.19Zm8.37-6.05c.22 0 .3-.02.37-.05a.32.32 0 0 1 .19-.06c.1 0 .18.03.45.32.24.26.32.35.32.45 0 .08-.05.14-.11.19-.13.11-.21.22-.3.58-.46 1.73-1.09 3.19-1.92 4.48.87 1.12 1.94 2.05 3.28 2.88-.18.14-.4.34-.54.58-.1.14-.14.21-.21.21-.05 0-.11-.03-.19-.1-1.12-.88-2.08-1.78-2.88-2.79a14.81 14.81 0 0 1-2.93 2.87c-.11.08-.16.13-.22.13-.05 0-.1-.06-.21-.22-.14-.22-.29-.35-.5-.46a11.52 11.52 0 0 0 3.31-3.07c-.9-1.36-1.54-2.96-1.89-5.07h-.67c-.02 1.39-.06 2.66-.19 3.92-.18 1.65-.64 3.25-1.47 4.67-.08.13-.13.18-.18.18-.06 0-.11-.03-.21-.11-.24-.21-.37-.29-.62-.38.99-1.34 1.42-2.91 1.58-4.71.14-1.39.14-2.93.14-4.69 0-2.42-.03-3.41-.03-3.51 0-.11.02-.13.14-.13.08 0 .59.03 2.07.03h3.26c1.47 0 1.95-.03 2.03-.03.11 0 .13.02.13.13v.7c0 .11-.02.13-.13.13-.08 0-.56-.03-2.03-.03h-4.5v2.98h4.66Zm-3.15.84c.3 1.65.83 3.04 1.58 4.26.75-1.26 1.28-2.67 1.65-4.26h-3.23Zm14.99 3c-.03.1-.1.32-.14.86-.21 2.08-.98 3.78-4.5 4.79-.11.03-.19.06-.26.06-.1 0-.13-.06-.22-.24a1.6 1.6 0 0 0-.53-.59c3.62-.75 4.42-2.26 4.51-4.07.03-.64.05-.98-.03-1.39.38.02.72.05 1.02.1.14.03.24.08.24.16 0 .11-.05.19-.1.32Zm8.07-5.88c0 .11-.02.13-.13.13-.1 0-.61-.03-2.13-.03h-4.24v1.5h2.77c1.63 0 2.19-.03 2.27-.03.11 0 .13.02.13.13v.64c0 .11-.02.13-.13.13-.08 0-.64-.03-2.27-.03h-6.29c-1.63 0-2.18.03-2.26.03-.11 0-.13-.02-.13-.13v-.64c0-.11.02-.13.13-.13.08 0 .62.03 2.26.03h2.53v-1.5h-3.86c-1.54 0-2.05.03-2.13.03-.11 0-.13-.02-.13-.13v-.67c0-.11.02-.11.13-.11.08 0 .59.02 2.13.02h3.86v-.03c0-.93-.02-1.38-.13-1.95.42.02.74.03 1.12.08.11.02.18.06.18.14s-.03.16-.08.29c-.06.16-.1.53-.1 1.28v.19h4.24c1.52 0 2.03-.02 2.13-.02.11 0 .13 0 .13.11v.67Zm-.35 5.06c0 1.22.03 1.38.03 1.46 0 .11-.02.13-.13.13h-.74c-.11 0-.13-.02-.13-.13v-1.86h-10.98v1.86c0 .11-.02.13-.13.13h-.74c-.11 0-.13-.02-.13-.13 0-.1.03-.26.03-1.46v-.45c0-.42-.03-.61-.03-.7 0-.11.02-.11.13-.11.08 0 .64.02 2.22.02h8.26c1.57 0 2.13-.02 2.23-.02.11 0 .13 0 .13.11 0 .1-.03.29-.03.62v.53Zm-4.64 4.63c0 .43.1.53.34.59.26.08.61.11 1.5.11s1.46-.06 1.73-.26c.35-.26.43-.77.45-1.7.21.14.42.26.66.34.27.1.27.11.24.4-.13.99-.29 1.38-.7 1.7-.37.29-1.07.43-2.42.43-1.15 0-1.65-.05-2.11-.19-.29-.08-.64-.3-.64-.99v-3.2c0-.69-.05-1.33-.1-1.65.38.02.75.05 1.01.08.14.02.22.1.22.14 0 .11-.05.19-.1.3-.06.14-.08.29-.08 1.04v2.85Zm21.15-7.16c.16 0 .24-.02.32-.05.06-.03.13-.06.18-.06.13 0 .21.06.45.3.22.24.29.35.29.43 0 .06-.05.13-.14.18-.13.1-.21.26-.32.54-.7 1.73-1.6 3.22-2.83 4.45 1.3.94 2.86 1.73 4.74 2.38-.22.24-.35.42-.5.67-.1.18-.13.26-.21.26-.06 0-.13-.03-.24-.08-1.81-.75-3.31-1.57-4.55-2.55-1.26 1.06-2.85 1.9-4.85 2.55q-.3.1-.46-.21c-.14-.24-.37-.43-.56-.54 2.11-.59 3.79-1.39 5.12-2.45-1.7-1.58-2.79-3.55-3.44-6.18-.1 1.5-.3 2.42-.56 3.41-.51 1.86-1.54 3.91-3.46 5.67-.11.11-.18.16-.24.16s-.13-.05-.24-.18c-.21-.22-.38-.35-.61-.45 1.94-1.52 2.93-3.35 3.57-5.49.5-1.73.67-3.27.69-6.02h-.82c-1.58 0-2.1.03-2.19.03-.11 0-.13-.02-.13-.13v-.74c0-.11.02-.13.13-.13.1 0 .61.03 2.19.03h5.71c.29 0 .4-.02.46-.05.06-.03.1-.05.16-.05.1 0 .22.06.45.27.24.24.32.37.29.45-.03.1-.02.16-.11.22-.08.06-.24.16-.29.4-.19.86-.43 1.79-.8 2.93h2.8Zm-3.11.85c-.08.24-.16.48-.26.72-.05.13-.06.13-.56.08s-.51-.05-.45-.21c.7-1.84 1.1-3.27 1.41-4.69h-3.92c.51 3.78 1.78 6.45 4.05 8.44 1.2-1.17 2.06-2.59 2.71-4.34h-2.98Zm19.88-1.22c.14 1.06.19 1.73.19 2.38 0 1.84-.48 3.92-1.54 5.09-1.04 1.15-2.1 1.52-3.49 1.52-2.46 0-3.86-1.62-3.86-4.27 0-1.92.78-3.75 1.67-4.93.56-.72.93-1.07 1.3-1.42-.82.16-1.62.29-2.56.45-.26.05-.43.11-.54.11-.08 0-.18-.08-.22-.19-.08-.21-.21-.64-.29-1.02.43.1 1.07.08 1.58.05.59-.05 1.33-.16 2.1-.29.48-.1.78-.16 1.02-.34.13-.1.22-.11.32-.02.18.16.32.32.45.5.16.21.11.37-.1.46-.58.26-1.09.85-1.65 1.46-.91.99-2.06 2.88-2.06 5.11 0 2.03.96 3.3 2.75 3.3 1.22 0 2.13-.35 2.95-1.42.91-1.18 1.26-3.11 1.26-5.03 0-.96-.05-1.74-.13-2.35-.05-.34-.11-.62-.16-.85-.05-.16-.11-.3-.18-.5-.05-.18-.03-.24.1-.29.19-.06.5-.14.72-.19.11-.02.18.03.19.13.26 1.12.67 1.81 1.14 2.69.7 1.28 1.49 2.27 2.67 3.43.1.1.08.19-.02.3-.14.19-.3.37-.5.58-.1.1-.19.05-.29-.06-1.12-1.31-1.98-2.54-2.75-4.39l-.08.02Zm.94-3.89s.1-.03.16.02c.64.45 1.34 1.23 1.81 1.94.05.06.03.13-.03.18l-.46.38c-.08.06-.16.05-.21-.03-.43-.74-1.14-1.54-1.86-2.05l.59-.43Zm1.33-1.04c.06-.05.11-.06.18-.02.64.5 1.36 1.2 1.83 1.87.05.08.03.13-.05.19l-.43.38c-.06.06-.13.06-.19-.03-.4-.66-1.09-1.44-1.84-2l.51-.4Zm7.48 7.75c0-.62.02-1.55.03-2.37-.42.67-.9 1.33-1.44 1.98-.08.11-.14.16-.19.16-.06 0-.1-.05-.16-.18-.14-.29-.27-.46-.42-.61 1.5-1.71 2.46-3.44 3.23-5.6.14-.4.22-.7.26-1.09.34.08.66.18.94.3.11.05.19.1.19.18 0 .1-.05.14-.14.22s-.18.24-.32.61c-.32.85-.66 1.63-1.04 2.4v8.05c0 1.7.03 2.43.03 2.51 0 .11-.02.13-.13.13h-.75c-.11 0-.13-.02-.13-.13 0-.08.03-.82.03-2.51v-4.07Zm11.91 1.75c0 3.75.03 4.63.03 4.71 0 .11-.02.13-.13.13h-.7c-.11 0-.13-.02-.13-.13v-.82h-7.4v.93c0 .11-.02.13-.13.13h-.7c-.11 0-.13-.02-.13-.13 0-.08.03-.98.03-4.77v-4.66c0-2.67-.03-3.57-.03-3.67 0-.11.02-.13.13-.13.1 0 .66.03 2.24.03h4.58c1.58 0 2.15-.03 2.24-.03.11 0 .13.02.13.13 0 .1-.03 1.04-.03 3.51v4.77Zm-.93-7.53h-7.4v10.56h7.4v-10.56Zm-.73 3.35c0 .11-.02.13-.13.13-.08 0-.5-.03-1.78-.03h-.69v1.9h.27c1.01 0 1.33-.03 1.41-.03.11 0 .13.02.13.13 0 .1-.03.38-.03 1.23v1.28c0 .88.03 1.17.03 1.25 0 .1-.02.11-.13.11-.08 0-.4-.02-1.41-.02h-1.38c-1.01 0-1.31.02-1.41.02-.11 0-.13-.02-.13-.11s.03-.37.03-1.25v-1.28c0-.85-.03-1.14-.03-1.23 0-.11.02-.13.13-.13.1 0 .4.03 1.41.03h.26v-1.9h-.61c-1.28 0-1.7.03-1.79.03-.11 0-.13-.02-.13-.13v-.58c0-.11.02-.13.13-.13.1 0 .51.03 1.79.03h.61v-.13c0-1.02-.02-1.46-.1-1.9.34.02.66.05.91.1.11.02.18.05.18.13 0 .06-.03.16-.06.26-.05.16-.08.5-.08 1.39v.16h.69c1.28 0 1.7-.03 1.78-.03.11 0 .13.02.13.13v.58Zm-1.65 2.74h-2.72v2.47h2.72v-2.47Zm13.64-.42c.93 0 1.2-.03 1.28-.03.13 0 .16.03.16.14-.03.64-.05.99-.05 1.49-.03 1.23-.11 2.27-.27 3.17-.19 1.09-.67 1.68-1.7 1.68-.3 0-.56 0-.98-.05-.3-.03-.3-.02-.37-.35-.03-.29-.13-.51-.26-.7.7.13 1.17.16 1.52.16.61 0 .77-.51.9-1.28.14-.9.21-2.06.21-3.38h-2.74c-.35 2.22-1.09 3.75-2.55 5.33-.1.11-.16.16-.21.16s-.11-.06-.21-.19c-.16-.21-.34-.34-.53-.46 2.03-1.87 2.71-3.7 2.8-7.71-1.31 0-1.75.03-1.83.03-.11 0-.13-.02-.13-.13 0-.08.03-.42.03-1.38v-1.7c0-.96-.03-1.3-.03-1.38 0-.11.02-.13.13-.13.08 0 .51.03 1.84.03h2.35c1.31 0 1.74-.03 1.84-.03.11 0 .13.02.13.13 0 .08-.03.42-.03 1.38v1.7c0 .96.03 1.3.03 1.38 0 .11-.02.13-.13.13-.1 0-.53-.03-1.84-.03h-1.42c-.03.74-.08 1.41-.14 2.03h2.18Zm.42-5.84h-4.4v3.01h4.4v-3.01Zm3.11 1.9c0-1.1-.02-1.62-.11-2.16.35.02.7.05 1.01.08.11.02.18.06.18.14s-.05.16-.08.26c-.05.19-.06.5-.06 1.66v4.34c0 1.39.03 1.97.03 2.06 0 .11-.02.13-.14.13h-.72c-.11 0-.13-.02-.13-.13 0-.1.03-.67.03-2.06v-4.32Zm3.29-1.37c0-.96-.03-1.41-.13-1.95.38.02.75.05 1.07.1.13.02.21.08.21.14 0 .13-.06.19-.11.3-.06.18-.08.48-.08 1.39v7.86c0 .88.03 1.79.03 2.42 0 .67-.13 1.02-.46 1.26-.37.24-.69.3-2.19.3-.32 0-.29 0-.38-.34-.08-.29-.19-.51-.34-.72.56.06.94.08 1.55.08s.83-.11.83-.77v-10.08Zm13.02-.82c0 .11-.02.13-.13.13-.08 0-.54-.03-1.95-.03h-.29v1.95c1.18 0 1.6-.03 1.7-.03.11 0 .13.02.13.13 0 .08-.03.72-.03 2.98v2.91c0 3.65.03 4.26.03 4.34 0 .11-.02.13-.13.13h-.59c-.11 0-.13-.02-.13-.13v-.62h-4.29v.94c0 .11-.02.13-.11.13h-.61c-.11 0-.13-.02-.13-.13 0-.1.03-.72.03-4.48v-2.69c0-2.64-.03-3.3-.03-3.38 0-.11.02-.13.13-.13.08 0 .5.03 1.7.03v-1.95h-.34c-1.42 0-1.87.03-1.95.03-.11 0-.13-.02-.13-.13v-.62c0-.11.02-.13.13-.13.08 0 .53.03 1.95.03h2.96c1.41 0 1.87-.03 1.95-.03.11 0 .13.02.13.13v.62Zm-1.39 6.67c-.21.02-.4.02-.62.02-.34 0-.62-.08-.78-.24-.22-.21-.29-.54-.29-1.06v-2.61h-.9c0 .62.02 1.47-.1 2.22-.11.88-.34 1.62-.8 2.32-.05.08-.11.13-.16.13s-.1-.05-.14-.13c-.13-.22-.26-.35-.38-.42.46-.56.67-1.2.78-2.14.08-.67.08-1.39.08-1.98h-.98v5.7H438v-1.81Zm0 2.61h-4.29v1.63H438v-1.63Zm-1.69-9.18h-.9v1.95h.9v-1.95Zm1.69 2.68h-.98v2.24c0 .43 0 .58.08.69.08.13.18.18.5.18.14 0 .26 0 .4-.02v-3.09Zm3.2 7.62c0 .5 0 .8.14.94.21.19.67.24 1.67.24 1.1 0 1.73-.08 2.02-.35.3-.3.42-.86.5-2.05.18.14.38.26.61.34q.32.11.29.43c-.14 1.28-.38 1.7-.74 2.02-.38.35-1.22.51-2.72.51s-2.07-.1-2.35-.37c-.27-.24-.37-.53-.37-1.31v-4.5c0-1.17-.03-1.67-.03-1.76 0-.11.02-.13.14-.13.08 0 .54.03 1.62.03h2.79v-4.27h-2.69c-1.2 0-1.55.03-1.65.03-.11 0-.13-.02-.13-.11v-.72c0-.11.02-.13.13-.13.1 0 .45.03 1.65.03h1.87c1.2 0 1.58-.03 1.68-.03.11 0 .13.02.13.13 0 .08-.03.5-.03 1.7v3.3c0 1.2.03 1.62.03 1.7 0 .11-.02.13-.13.13h-.74c-.11 0-.13-.02-.13-.13v-.72h-3.55v5.06Zm12.55-.75c.3.8.66 1.25 1.38 1.58.58.26 1.68.4 3.2.4 2.05 0 4.35-.1 6.72-.34-.16.21-.26.46-.3.74q-.05.34-.37.35a93.4 93.4 0 0 1-5.68.19c-1.74 0-3.17-.16-3.94-.51-.74-.35-1.14-.85-1.49-1.58-.51.54-1.1 1.06-1.73 1.57-.19.16-.3.26-.34.32-.06.11-.13.14-.19.14s-.13-.03-.19-.13c-.16-.24-.32-.53-.46-.85.4-.21.67-.37.99-.59.48-.35 1.01-.82 1.47-1.31v-3.95h-1.18c-.83 0-1.04.03-1.1.03-.11 0-.13-.02-.13-.13v-.7c0-.11.02-.13.13-.13.06 0 .27.03 1.1.03h.86c.82 0 1.06-.03 1.15-.03.11 0 .13.02.13.13 0 .08-.03.5-.03 1.49v3.28Zm-2.18-10.4c.13-.1.18-.1.26-.03.64.64 1.22 1.34 1.81 2.21.06.1.06.14-.1.27l-.42.32c-.18.13-.22.13-.29.02-.61-.93-1.12-1.62-1.76-2.27-.08-.1-.08-.13.1-.24l.4-.27Zm8.35 6.56c.83 1.65 2.19 3.03 4.63 3.84-.16.16-.3.37-.38.59-.11.3-.14.32-.43.21-2.18-.85-3.52-2.38-4.32-4.07-.53 1.82-1.62 2.98-3.71 4-.11.06-.18.1-.22.1-.08 0-.11-.08-.22-.26-.13-.21-.29-.35-.46-.48 2.21-.9 3.38-2 3.86-3.94h-1.42c-1.58 0-2.11.03-2.19.03-.11 0-.13-.02-.13-.13v-.64c0-.11.02-.13.13-.13.08 0 .61.03 2.19.03h1.57c.1-.69.13-1.47.11-2.39h-1.31c-1.54 0-2.05.03-2.14.03-.11 0-.11-.02-.11-.13v-.64c0-.11 0-.13.11-.13.1 0 .61.03 2.14.03h2.42c.5-.83.94-1.63 1.23-2.26.11-.24.19-.5.26-.82.35.1.67.21.94.32.1.05.16.11.16.19 0 .1-.08.18-.19.24-.13.08-.21.26-.29.42-.29.54-.69 1.23-1.14 1.9h.64c1.54 0 2.03-.03 2.13-.03.11 0 .13.02.13.13v.64c0 .11-.02.13-.13.13-.1 0-.59-.03-2.13-.03h-1.78c-.02.9-.06 1.68-.16 2.39h2.27c1.58 0 2.13-.03 2.21-.03.11 0 .13.02.13.13v.64c0 .11-.02.13-.13.13-.08 0-.62-.03-2.21-.03h-2.03Zm-2.92-6.85q.18-.08.26.02c.43.54.78 1.12 1.15 1.84.05.11.02.14-.18.24l-.4.21c-.21.11-.22.08-.29-.05-.34-.7-.64-1.22-1.1-1.82-.08-.1-.05-.14.1-.21l.46-.22Zm19.26 3.52c1.06-.38 2.08-.61 3.04-.61 1.84 0 3.01.98 3.01 2.67 0 1.98-1.63 2.96-3.94 2.96-.26 0-.51 0-.75-.03-.16-.02-.21-.06-.26-.16-.11-.32-.22-.61-.46-.91.46.08.9.13 1.42.13 1.6 0 2.83-.62 2.83-2.06 0-1.28-.98-1.63-1.86-1.63-1.06 0-1.81.22-2.54.46-1.06.35-2.05.77-3.03 1.18.9 2.56 1.73 4.9 2.59 7.43.06.16.06.21-.1.29-.24.13-.5.22-.78.29-.1.02-.11 0-.14-.1-.82-2.64-1.55-4.9-2.5-7.48-.77.34-1.31.58-1.89.83-.45.21-.7.35-.86.5-.08.08-.18.13-.24.13-.08 0-.18-.05-.27-.16-.22-.26-.5-.66-.67-.99.67-.14 1.12-.27 1.62-.46.61-.24 1.15-.43 1.95-.77-.19-.58-.38-1.12-.62-1.76-.21-.54-.4-.94-.77-1.47.46-.1.99-.14 1.36-.14.19 0 .21.1.21.24-.02.16 0 .26.05.46s.13.45.32 1.06c.18.54.29.82.42 1.2.99-.42 1.86-.75 2.87-1.09Zm-.26-3.25c.1-.06.13-.06.24 0 .59.38 1.15.86 1.73 1.52.06.08.06.16 0 .24-.18.19-.38.38-.61.53-.06.05-.14.03-.21-.05a6.707 6.707 0 0 0-1.89-1.7c.27-.22.56-.43.74-.54ZM113.44 278c0-1.01-.02-1.42-.11-1.98.42.02.77.05 1.07.1.11.02.19.06.19.13 0 .08-.05.18-.08.29-.05.18-.1.54-.1 1.5v1.89c0 .91.03 1.28.03 1.36 0 .11-.02.13-.11.13h-.77c-.11 0-.13-.02-.13-.13v-.88h-9.75v.93c0 .11-.02.13-.13.13h-.75c-.11 0-.13-.02-.13-.13 0-.08.03-.43.03-1.31v-1.92c0-1.01-.02-1.44-.11-1.98.4.02.77.05 1.07.1.11.02.21.06.21.14s-.05.16-.08.27c-.06.18-.11.54-.11 1.44v1.42h4.23v-5.44h-3.76v.8c0 .11-.02.13-.13.13h-.75c-.11 0-.13-.02-.13-.13 0-.08.03-.46.03-1.42v-2.18c0-1.01-.02-1.44-.11-2 .42.02.77.05 1.07.1.11.02.18.06.18.14s-.02.16-.06.29c-.06.18-.1.53-.1 1.46v1.92h3.76v-3.89c0-1.06-.02-1.5-.11-2.05.42.02.78.05 1.1.1.11.02.19.05.19.13s-.05.16-.08.29c-.05.18-.1.51-.1 1.52v3.91h4.07v-2c0-1.01-.02-1.44-.11-2 .42.02.75.05 1.07.1.11.02.19.06.19.14s-.05.18-.08.27c-.05.19-.1.54-.1 1.52v2.16c0 .98.03 1.38.03 1.47 0 .11-.02.13-.13.13h-.75c-.11 0-.13-.02-.13-.13v-.77h-4.07v5.44h4.51v-1.49Zm8.32-1.36c0-.62.03-1.34.05-1.98-.46.59-.98 1.17-1.6 1.71-.11.1-.18.14-.22.14-.06 0-.11-.06-.19-.19-.13-.22-.26-.4-.42-.53 1.52-1.15 2.72-2.88 3.41-4.4.11-.27.21-.56.26-.85.34.13.58.22.83.35.14.08.19.11.19.19 0 .1-.05.13-.14.21s-.16.19-.29.45c-.26.53-.56 1.07-.91 1.65v5.97c0 1.41.03 2.02.03 2.1 0 .1-.02.11-.13.11h-.77c-.11 0-.13-.02-.13-.11s.03-.69.03-2.1v-2.72Zm12.01-7.31c0 .11-.02.13-.11.13s-.59-.03-2.1-.03h-2.21c0 .75.03 1.04.03 1.1 0 .11-.02.13-.13.13h-.7c-.11 0-.13-.02-.13-.13 0-.08.03-.35.03-1.1h-3.35c0 .74.03 1.02.03 1.1 0 .11-.02.13-.13.13h-.71c-.11 0-.13-.02-.13-.13 0-.08.03-.37.03-1.1h-2.16c-1.49 0-2 .03-2.08.03-.11 0-.13-.02-.13-.13v-.67c0-.11.02-.13.13-.13.08 0 .59.03 2.08.03h2.16c-.02-.58-.03-1.09-.11-1.46.4.02.72.05.99.08.11.02.18.08.18.14 0 .08-.02.13-.06.21-.06.11-.1.45-.1 1.02h3.35c0-.58-.02-1.1-.1-1.46.4.02.72.03.98.06.11.02.18.08.18.14 0 .08-.02.13-.06.22-.06.11-.1.43-.1 1.02h2.21c1.5 0 2-.03 2.1-.03s.11.02.11.13v.67Zm.06 3.1c0 .11-.02.13-.13.13-.08 0-.54-.02-1.79-.03v5.19c0 .93.02 1.65.02 2.23s-.08.93-.38 1.18c-.37.27-.77.37-2.16.35-.32 0-.34 0-.38-.32-.06-.27-.16-.51-.29-.7.56.06.93.08 1.31.08.7 0 .91-.21.91-.74v-7.27h-4.29c-1.6 0-2.14.03-2.24.03-.11 0-.11-.02-.11-.13v-.64c0-.13 0-.14.11-.14.1 0 .64.03 2.24.03h4.85c1.6 0 2.13-.03 2.21-.03.11 0 .13.02.13.14v.64Zm-4.74 4.13c0 1.89.03 2.21.03 2.29 0 .11-.02.13-.13.13h-.62c-.11 0-.13-.02-.13-.13v-.51h-2.66v.82c0 .11-.02.13-.13.13h-.64c-.11 0-.13-.02-.13-.13 0-.08.03-.4.03-2.4v-1.01c0-.99-.03-1.34-.03-1.44 0-.11.02-.13.13-.13.1 0 .42.03 1.42.03h1.33c1.02 0 1.34-.03 1.42-.03.11 0 .13.02.13.13 0 .1-.03.43-.03 1.18v1.07Zm-.85-1.55h-2.66v2.53h2.66v-2.53Zm17.89 2.42c1.54 1.23 3.38 2.05 6.11 2.69-.14.14-.29.35-.42.58q-.16.3-.46.21c-2.56-.7-4.4-1.66-6.02-3.17 0 2.42.08 3.43.08 3.7 0 .11-.02.13-.13.13h-.77c-.11 0-.13-.02-.13-.13 0-.27.06-1.25.08-3.67-1.58 1.57-3.35 2.45-5.79 3.22-.29.1-.32.1-.46-.19-.11-.22-.26-.4-.43-.54 2.62-.69 4.53-1.54 5.89-2.82h-3.33c-1.52 0-2.02.03-2.1.03-.13 0-.14-.02-.14-.13v-.58c0-.11.02-.13.14-.13.08 0 .58.03 2.1.03h4.1v-1.28h-2.38c-1.63 0-2.19.03-2.27.03-.11 0-.13-.02-.13-.11v-.56c0-.13.02-.14.13-.14.08 0 .64.03 2.27.03h2.38v-1.23h-3.17c-1.6 0-2.13.03-2.21.03-.13 0-.14-.02-.14-.13v-.58c0-.11.02-.13.14-.13.08 0 .61.03 2.21.03h1.28a6.34 6.34 0 0 0-.67-1.38c-.08-.11-.05-.14.13-.21l.42-.14c.16-.06.19-.06.26.03.3.43.59 1.04.85 1.7h2.96c.22-.37.38-.7.59-1.17.08-.19.13-.37.19-.64.29.06.53.13.85.22.1.03.18.1.18.18s-.08.14-.14.19c-.08.06-.16.21-.22.34-.14.27-.3.54-.53.88h1.39c1.62 0 2.13-.03 2.22-.03.11 0 .13.02.13.13v.58c0 .11-.02.13-.13.13-.1 0-.61-.03-2.22-.03h-3.42v1.23h2.71c1.63 0 2.18-.03 2.27-.03.11 0 .13.02.13.14v.56c0 .1-.02.11-.13.11-.1 0-.64-.03-2.27-.03h-2.71v1.28h4.4c1.52 0 2.02-.03 2.11-.03.11 0 .13.02.13.13v.58c0 .11-.02.13-.13.13-.1 0-.59-.03-2.11-.03h-3.65Zm5.89-6.87c0 .11-.02.13-.13.13-.1 0-.59-.03-2.11-.03h-9.43c-1.52 0-2.02.03-2.1.03-.13 0-.14-.02-.14-.13v-.58c0-.13.02-.14.14-.14.08 0 .58.03 2.1.03h.56c-.35-.7-.71-1.22-1.14-1.7-.06-.08-.06-.13.1-.21l.43-.22c.11-.06.16-.06.22.02.4.43.8 1.01 1.15 1.62.05.1.03.13-.1.21l-.53.29h2.11v-1.2c0-.58 0-1.04-.1-1.46.34.02.72.05.98.08.1.02.16.06.16.14s-.02.13-.06.22c-.06.11-.1.4-.1 1.01v1.2h1.71v-1.18c0-.58 0-1.04-.11-1.46.34.02.74.05.99.08.1.02.16.06.16.14 0 .06-.03.13-.06.21-.05.13-.1.4-.1 1.01v1.2h1.49c.35-.5.62-.98.9-1.5.11-.22.21-.45.26-.75.32.08.67.21.91.3.1.03.16.1.16.16 0 .1-.03.14-.13.21-.11.08-.19.19-.27.32-.26.42-.54.85-.85 1.26h.67c1.52 0 2.02-.03 2.11-.03.11 0 .13.02.13.14v.58Zm9.74 1.84c.14 0 .26-.03.3-.06.05-.03.08-.03.14-.03.08 0 .19.06.38.22.22.21.29.32.29.42s-.03.14-.16.24c-.13.1-.16.21-.26.42-.19.4-.45.86-.82 1.44-.1.16-.14.22-.22.22-.05 0-.1-.03-.19-.1-.18-.11-.42-.16-.58-.19.48-.69.78-1.2 1.04-1.78h-1.5v4.69c0 .78.02 1.38.02 2.16 0 .54-.1.83-.43 1.09-.22.18-.67.24-1.87.21-.29-.02-.3-.02-.37-.32a1.63 1.63 0 0 0-.32-.66c.51.06.93.1 1.46.1.48 0 .61-.11.61-.54v-3.81c0-.66.02-1.34.03-1.95-.5 1.44-1.17 2.87-2.5 4.39-.1.11-.16.18-.22.18s-.13-.06-.21-.19c-.13-.19-.32-.35-.46-.43 1.41-1.23 2.42-3.27 3.01-4.9h-.64c-1.34 0-1.79.03-1.87.03-.11 0-.13-.02-.13-.13v-.61c0-.11.02-.13.13-.13.08 0 .53.03 1.87.03h1.57c-.69-.72-1.36-1.3-2.23-1.92-.11-.08-.11-.11.03-.24l.3-.27c.14-.13.16-.13.27-.05.38.27.75.53 1.09.8.67-.56 1.31-1.15 1.84-1.89h-2.66c-1.28 0-1.68.02-1.76.02-.11 0-.13 0-.13-.11v-.66c0-.11.02-.13.13-.13.08 0 .48.03 1.76.03h2.79c.16 0 .3-.03.37-.06s.11-.05.18-.05c.1 0 .21.06.45.3.26.26.3.35.3.46s-.13.19-.22.26c-.14.1-.26.26-.43.46-.58.67-1.1 1.25-1.95 1.92l.7.69c.1.08.08.11-.08.26l-.21.18h1.36Zm7.67 4.63c-.13 1.66-.21 2.71-.62 3.41-.27.51-.75.8-1.44.8-.3 0-.66-.02-1.04-.03-.3-.02-.32-.03-.37-.38-.03-.22-.11-.43-.22-.62.5.1.93.16 1.36.16.4 0 .64-.05.85-.37.32-.45.45-1.54.56-3.06h-2.66c-.58 2.08-1.87 3.39-3.89 4.37-.11.06-.19.1-.24.1-.08 0-.13-.06-.24-.24-.13-.21-.3-.38-.51-.51 1.82-.66 3.31-1.79 3.95-3.71h-.83c-1.46 0-1.94.03-2.02.03-.13 0-.14-.02-.14-.13v-.61c0-.13.02-.14.14-.14.08 0 .56.03 2.02.03h1.04c.06-.34.1-.7.11-1.1.02-.21 0-.48-.03-.7.32.02.66.05.94.11.14.03.21.08.21.14 0 .1-.03.18-.1.26s-.1.29-.13.53c-.03.27-.06.53-.11.77h1.3c1.47 0 1.95-.03 2.03-.03.11 0 .16.05.14.16l-.06.78Zm.82-7.4c0 .11-.02.13-.13.13-.08 0-.42-.02-1.36-.03-.34 1.12-.88 2.05-1.57 2.79 1.02.75 2.24 1.3 3.55 1.57-.16.19-.29.38-.38.62q-.13.3-.43.21c-1.17-.37-2.34-.99-3.36-1.81-.98.82-2.11 1.38-3.28 1.73-.27.08-.3.08-.4-.18-.1-.24-.26-.45-.38-.58 1.2-.26 2.4-.75 3.39-1.55-.64-.61-1.2-1.3-1.62-2.06-.3.38-.66.78-1.1 1.25-.08.1-.14.14-.19.14s-.1-.05-.19-.16c-.14-.18-.34-.32-.53-.4 1.28-1.09 1.94-2.08 2.48-3.15.21-.45.32-.77.37-1.1.34.08.7.19.93.29.1.03.14.1.14.16 0 .08-.05.14-.13.19-.1.06-.24.3-.35.5l-.42.75h3.09c1.26 0 1.66-.03 1.74-.03.11 0 .13.02.13.13v.61Zm-5.45.1c.42.83 1.01 1.57 1.71 2.22.56-.61 1.01-1.34 1.3-2.22h-3.01Zm17.56 8.39c0 .13-.03.18-.18.19-.16.03-.48.06-.69.06-.1 0-.14-.08-.14-.19 0-.7 0-1.49.02-2.3-1.76.88-2.62 1.7-2.62 2.66s.88 1.33 2.74 1.33c1.33 0 2.64-.16 3.81-.32.08-.02.14 0 .18.11.05.24.1.56.1.78 0 .14-.06.21-.13.22-1.14.14-2.45.22-3.95.22-2.24 0-3.7-.58-3.7-2.29 0-1.34.88-2.43 3.54-3.73-.03-1.09-.4-1.52-1.34-1.5-.69.02-1.6.42-2.62 1.3-.58.54-.96.96-1.52 1.55-.1.11-.16.11-.24.03-.16-.14-.43-.45-.56-.62-.05-.1-.06-.13.03-.22 1.46-1.26 2.79-2.82 3.71-4.45-.99.06-1.97.06-2.98.03-.13 0-.16-.05-.18-.16-.03-.19-.08-.54-.1-.8 1.17.06 2.42.06 3.71-.02.19-.48.42-1.01.58-1.6.08-.27.14-.51.13-.86.46.08.93.22 1.2.35.16.08.16.24.03.35-.06.06-.16.18-.29.45-.19.4-.34.74-.54 1.22 1.12-.11 2.27-.29 3.38-.53.13-.03.16-.03.19.06.03.22.08.45.1.7 0 .11-.03.16-.21.19-1.26.22-2.62.4-3.91.53-.54.98-1.06 1.73-1.63 2.38l.02.03c.67-.48 1.38-.69 2-.69 1.18 0 1.89.62 2.02 1.87.78-.35 1.7-.77 2.5-1.15.46-.22.88-.48 1.22-.82.37.32.69.74.78.93.13.24 0 .34-.16.37-.19.03-.51.11-.88.26-1.22.51-2.23.88-3.39 1.38v2.69Zm11.51-1.62c0-.64.02-1.47.03-2.08-.51.56-1.09 1.12-1.73 1.65-.11.1-.18.14-.22.14s-.1-.06-.16-.19c-.11-.22-.24-.4-.42-.56 1.44-1.12 2.71-2.51 3.51-3.89.14-.24.27-.53.34-.77.32.14.59.3.83.46.11.08.14.13.14.21 0 .06-.05.13-.11.18-.1.06-.24.19-.35.38-.29.45-.58.88-.9 1.3v6.03c0 1.39.03 1.98.03 2.06 0 .11-.02.13-.13.13h-.77c-.11 0-.13-.02-.13-.13 0-.08.03-.67.03-2.06v-2.87Zm2.05-8.42c-.1.06-.22.21-.38.42-.77.98-1.81 2.03-3.12 2.98-.1.08-.16.11-.22.11s-.13-.06-.22-.22c-.13-.19-.27-.35-.46-.5 1.26-.82 2.45-1.89 3.23-2.96.21-.29.29-.51.35-.7.34.14.58.27.88.48.1.06.14.11.14.19s-.08.14-.19.21Zm9.78 4.95c0 .11-.02.13-.13.13-.08 0-.61-.03-2.18-.03h-.51v3.7c0 1.6.03 2.37.03 2.94.02.69-.11 1.02-.43 1.28-.29.22-.74.3-2.22.3q-.32 0-.4-.34c-.08-.26-.18-.51-.34-.72.53.05.94.06 1.54.06.67 0 .85-.1.85-.61v-6.63h-2.9c-1.57 0-2.1.03-2.19.03-.11 0-.13-.02-.13-.13v-.7c0-.11.02-.13.13-.13.1 0 .62.03 2.19.03h4.39c1.57 0 2.1-.03 2.18-.03.11 0 .13.02.13.13v.7Zm-.83-3.92c0 .11-.02.13-.13.13-.1 0-.53-.03-1.98-.03h-3.01c-1.44 0-1.89.03-1.97.03-.11 0-.13-.02-.13-.13v-.7c0-.11.02-.13.13-.13.08 0 .53.03 1.97.03h3.01c1.46 0 1.89-.03 1.98-.03.11 0 .13.02.13.13v.7Zm7.21 4.69c1.73-.53 3.09-.91 4.32-.91 1.98 0 3.33 1.23 3.33 3.12 0 1.54-.67 2.53-2.11 3.31-.88.48-1.97.85-3.31 1.07-.18.03-.24-.02-.32-.16-.08-.16-.3-.45-.61-.67 1.52-.21 2.69-.54 3.67-1.06 1.04-.54 1.6-1.31 1.6-2.56 0-1.42-.95-2.13-2.37-2.13-1.18 0-2.91.54-4.72 1.28-.4.16-.61.3-.75.4-.11.06-.22.14-.3.14-.1 0-.19-.06-.29-.18-.21-.27-.42-.7-.58-1.06.62-.08 1.18-.22 2.45-.61Zm20.88-3.37c-2.4.38-4.48.72-6.5 1.14-.58.11-.77.18-.96.27-.11.05-.21.11-.3.11s-.18-.06-.22-.14c-.16-.32-.3-.7-.45-1.14.58 0 .99-.05 1.99-.19 2.38-.38 5.63-.86 9.92-1.39.16-.02.24.03.27.13.05.21.1.59.1.8 0 .14-.05.18-.21.19-.87.05-1.5.14-2.34.48-2.34.93-4.13 2.9-4.13 5.04 0 2.66 2.32 3.44 4.66 3.63.21.02.26.05.26.18 0 .18-.05.54-.1.77-.03.18-.08.24-.26.22-2.71-.24-5.62-1.39-5.62-4.63 0-2.26 1.39-4.11 3.91-5.44l-.02-.03Zm10.95-.59c.1.05.14.11.14.18 0 .08-.03.18-.06.29-.06.19-.13.64-.13 1.47 0 1.02.02 2 .22 3.63.24 1.89.93 3.27 1.7 3.27.64 0 1.25-1.02 1.71-2.51.18.42.32.61.53.8.13.11.18.24.13.4-.45 1.3-1.31 2.51-2.38 2.51-1.34 0-2.35-1.86-2.71-4.37-.22-1.6-.29-3.41-.29-4.47 0-.61-.02-.99-.13-1.54.45.05.96.19 1.26.34Zm7.63 1.23c.1-.05.18-.06.24 0 1.63 1.42 2.72 3.39 3.12 5.54.02.11-.03.16-.11.21-.24.16-.46.27-.74.37-.11.03-.19-.02-.21-.13-.45-2.45-1.46-4.15-3.01-5.55.3-.21.54-.35.7-.43Zm11.85 3.37c1.15-.75 2.29-1.14 3.44-1.14 2.3 0 3.73 1.42 3.73 3.51 0 2.38-1.89 4.11-5.28 4.11-1.92 0-2.79-.86-2.79-1.89 0-.83.74-1.63 1.87-1.63 1.44 0 2.42.93 2.72 2.29 1.38-.45 2.34-1.34 2.34-2.91s-1.25-2.62-2.77-2.62-3.17.82-4.4 1.81c-.51.4-.93.83-1.41 1.31-.13.13-.21.14-.32.03-.19-.19-.43-.43-.59-.64-.06-.08-.05-.14.06-.24 1.26-1.1 2.08-1.92 3.62-3.57.93-1.01 1.89-2.03 3.12-3.49-1.33.21-2.58.45-4 .72-.21.03-.4.08-.56.14-.11.05-.24.08-.3.08-.11 0-.19-.06-.26-.19a4.91 4.91 0 0 1-.38-1.1c.53.06.98.06 1.41.02 1.26-.13 2.58-.3 3.99-.58.19-.03.38-.08.5-.14.06-.05.16-.11.22-.11.08 0 .16.03.29.13.3.24.54.48.69.67.08.1.11.19.11.27 0 .13-.08.24-.24.3-.21.06-.38.18-.75.56-1.42 1.5-2.5 2.62-4.1 4.26l.05.05Zm1.01 3.82c-.51 0-.98.26-.98.75 0 .53.58.98 1.65.98.35 0 .67-.02 1.04-.08-.21-.91-.8-1.65-1.71-1.65Zm15.59-6.58c.16 0 .22-.02.3-.05.06-.03.1-.05.16-.05.1 0 .21.05.43.29.26.26.32.37.32.46 0 .08-.05.14-.13.21-.1.08-.19.19-.29.48-.91 2.62-2.32 4.66-4.58 6.42-.11.1-.18.14-.22.14-.06 0-.13-.06-.22-.21-.16-.22-.34-.4-.53-.51 2.31-1.58 3.79-3.65 4.67-6.29h-2.29c-1.18 0-1.55.03-1.63.03-.11 0-.13-.02-.13-.13v-.72c0-.1.02-.11.13-.11.08 0 .45.03 1.63.03h2.37Zm3.07-1.82c.29 1.33.83 2.64 1.54 3.83.94-.78 1.71-1.6 2.53-2.61.21-.26.34-.5.45-.77.35.21.59.37.86.59.11.08.14.14.14.22 0 .1-.08.14-.19.21-.14.08-.35.26-.74.67-.71.75-1.55 1.58-2.59 2.43 1.28 1.87 2.99 3.41 4.82 4.31-.19.14-.38.35-.56.62-.1.14-.13.21-.21.21-.05 0-.11-.05-.24-.11-2.58-1.5-4.98-4.43-5.89-7.62.05 2.79.13 6.07.13 8.07 0 .51-.16.91-.58 1.14-.3.19-.79.27-1.99.27q-.32 0-.42-.32c-.08-.29-.19-.54-.34-.74.4.03.94.05 1.38.05.66 0 .91-.14.91-.59v-10.6c0-.88-.02-1.31-.11-1.76.37.02.77.05 1.07.08.13.02.21.08.21.14 0 .13-.06.22-.1.34-.06.18-.1.48-.1 1.18v.75Zm24.64 2.48c0 .11-.02.13-.11.13s-.62-.03-2.21-.03h-9.43v1.18c0 1.23-.1 2.66-.29 3.99-.18 1.18-.54 2.42-1.26 3.62-.08.13-.11.19-.16.19s-.1-.05-.19-.14c-.19-.21-.45-.38-.62-.46.75-1.02 1.17-2.29 1.34-3.49.18-1.2.22-2.56.22-3.7 0-1.31-.03-1.84-.03-1.92 0-.11.02-.13.13-.13.1 0 .64.03 2.22.03h1.25c-.19-.53-.43-1.04-.69-1.44-.06-.11-.06-.14.11-.22l.45-.19c.14-.06.18-.05.24.06.29.46.62 1.14.86 1.79h3.01c.26-.42.45-.78.64-1.25.1-.22.18-.43.21-.66.32.08.67.19.91.29.11.05.14.1.14.16 0 .08-.05.14-.14.21s-.18.18-.29.37c-.16.29-.32.58-.53.88h1.89c1.58 0 2.11-.03 2.21-.03s.11.02.11.13v.64Zm-.45-2.82c0 .11-.02.13-.13.13-.08 0-.62-.03-2.24-.03h-7.7c-1.62 0-2.14.03-2.22.03-.11 0-.13-.02-.13-.13v-.62c0-.13.02-.14.13-.14.08 0 .61.03 2.22.03h3.38v-.22c0-.69-.02-1.1-.11-1.49.4.02.75.05 1.04.08.11.02.19.06.19.13 0 .11-.05.19-.1.3-.05.14-.06.38-.06.98v.22h3.38c1.6 0 2.15-.03 2.23-.03.11 0 .13.02.13.14v.62Zm.47 11.4c0 .11-.02.13-.13.13-.08 0-.62-.03-2.26-.03h-6.95c-1.62 0-2.14.03-2.24.03-.11 0-.13-.02-.13-.13v-.64c0-.11.02-.13.13-.13.1 0 .62.03 2.24.03h2.98v-2.08h-1.14c-1.5 0-1.98.03-2.08.03-.11 0-.13-.02-.13-.13v-.62c0-.11.02-.13.13-.13.1 0 .58.03 2.08.03h1.14v-1.84h-3.01c-.35.62-.77 1.22-1.28 1.84-.06.08-.11.13-.16.13-.06 0-.13-.05-.22-.16-.16-.18-.32-.29-.5-.38.99-.99 1.58-2 2.05-3.22.08-.21.16-.48.19-.78.32.06.66.16.88.26.13.06.14.1.14.16 0 .08-.06.13-.13.19-.08.08-.16.22-.26.46-.1.22-.18.45-.29.67h2.58v-.27c0-.74-.02-.96-.11-1.5.38.02.72.05 1.04.08.11.02.21.08.21.13 0 .11-.06.21-.1.32-.05.16-.1.38-.1 1.01v.24h1.98c1.54 0 2.03-.03 2.13-.03.11 0 .13.02.13.13v.64c0 .11-.02.13-.13.13-.1 0-.59-.03-2.13-.03h-1.98v1.84h1.41c1.5 0 2-.03 2.08-.03.11 0 .13.02.13.13v.62c0 .11-.02.13-.13.13-.08 0-.58-.03-2.08-.03h-1.41v2.08h3.03c1.63 0 2.18-.03 2.26-.03.11 0 .13.02.13.13v.64Zm9.16-10.37c1.38 0 1.84-.03 1.92-.03.11 0 .14.03.14.14-.03.48-.03.94-.03 1.41-.03 2.59-.16 5.2-.46 7.12-.19 1.2-.74 1.7-1.73 1.7-.43 0-.72-.02-1.07-.05q-.29-.03-.32-.37c-.03-.26-.1-.5-.21-.7.51.1 1.01.14 1.52.14s.75-.24.88-1.15c.27-1.66.42-4.37.43-7.33h-2.27c-.1 1.58-.29 3.14-.61 4.45-.46 1.92-1.07 3.39-2.42 4.99-.1.11-.14.18-.21.18-.05 0-.1-.05-.19-.16-.22-.27-.42-.45-.64-.59 1.42-1.49 2.05-2.79 2.54-4.79.32-1.25.48-2.61.54-4.08h-.54c-1.38 0-1.82.03-1.9.03-.11 0-.13-.02-.13-.13v-.69c0-.11.02-.13.13-.13.08 0 .53.03 1.9.03h.59c.02-.48.02-.96.02-1.47 0-.99-.03-1.38-.11-1.97.37.02.75.05 1.1.1.13.02.18.1.18.16 0 .1-.05.21-.1.35-.05.18-.1.62-.1 1.47 0 .45-.02.91-.03 1.36h1.17Zm8.74 5.34c0 4.03.03 4.72.03 4.82 0 .11-.02.13-.13.13h-.75c-.1 0-.11-.02-.11-.13v-1.18h-3.31v1.3c0 .11-.02.13-.13.13h-.7c-.13 0-.14-.02-.14-.13 0-.1.03-.78.03-4.87v-2.83c0-2.88-.03-3.6-.03-3.68 0-.11.02-.13.14-.13.08 0 .45.03 1.62.03h1.78c1.14 0 1.52-.03 1.62-.03.11 0 .13.02.13.13 0 .08-.03.8-.03 3.28v3.17Zm-.96-5.68h-3.31v8.45h3.31v-8.45Zm19.52 9.6c0 .11-.02.13-.13.13-.08 0-.59-.03-2.11-.03h-9.3c-1.52 0-2.03.03-2.11.03-.11 0-.13-.02-.13-.13v-.8c0-.11.02-.13.13-.13.08 0 .59.03 2.11.03h3.97v-8.82h-2.9c-1.62 0-2.14.03-2.22.03-.11 0-.13-.02-.13-.13v-.78c0-.11.02-.13.13-.13.08 0 .61.03 2.22.03h7.16c1.62 0 2.13-.03 2.22-.03.11 0 .13.02.13.13v.78c0 .11-.02.13-.13.13-.1 0-.61-.03-2.22-.03h-3.2v8.82h4.27c1.52 0 2.03-.03 2.11-.03.11 0 .13.02.13.13v.8Zm18.48-6.24c-.1.18-.13.26-.21.26-.05 0-.11-.03-.22-.1-2.79-1.23-5.06-2.93-6.72-5.31-1.67 2.43-3.81 4.03-6.43 5.35-.11.06-.19.1-.24.1-.08 0-.11-.06-.21-.24a1.7 1.7 0 0 0-.5-.54c2.9-1.2 5.2-3.12 6.51-5.19.22-.38.32-.58.42-.9.37.05.7.11 1.01.21.16.05.22.1.22.19 0 .06-.02.13-.11.18-.08.03-.13.08-.18.11 1.92 2.58 4.16 4.13 7.12 5.25-.21.21-.34.38-.46.64Zm-.75 2.56c0 .11-.02.13-.13.13-.1 0-.61-.03-2.21-.03h-4.9c-.48 1.2-1.02 2.45-1.67 3.7 1.92-.13 4.08-.34 5.92-.54-.46-.59-.96-1.17-1.5-1.76-.1-.1-.06-.14.1-.22l.46-.26c.13-.06.18-.06.24 0 1.17 1.18 2.15 2.47 3.07 3.79.06.08.06.14-.08.24l-.5.34c-.08.05-.14.08-.18.08-.05 0-.08-.03-.13-.1-.3-.46-.59-.91-.91-1.34-2.82.37-6.02.67-8.82.88-.32.03-.53.06-.61.14-.06.06-.13.1-.21.1-.1 0-.14-.08-.18-.18-.1-.32-.18-.7-.24-1.07.5.03 1.04.03 1.75 0 .22 0 .45-.02.69-.03.69-1.3 1.25-2.56 1.68-3.76h-1.92c-1.58 0-2.11.03-2.19.03-.13 0-.14-.02-.14-.13v-.7c0-.11.02-.13.14-.13.08 0 .61.03 2.19.03h7.92c1.6 0 2.11-.03 2.21-.03.11 0 .13.02.13.13v.7Zm-3.03-2.93c0 .11-.02.13-.13.13-.08 0-.53-.03-1.87-.03h-2.59c-1.34 0-1.79.03-1.87.03-.11 0-.13-.02-.13-.13v-.69c0-.11.02-.13.13-.13.08 0 .53.03 1.87.03h2.59c1.34 0 1.79-.03 1.87-.03.11 0 .13.02.13.13v.69Zm12.37-3.29c.16 0 .22-.02.29-.06.05-.02.1-.03.14-.03.08 0 .19.06.4.27.19.21.27.32.27.38 0 .08-.03.13-.13.21-.11.08-.19.14-.32.38-.45.93-.96 1.79-1.54 2.58.7.78 1.39 1.33 2.43 1.97-.16.14-.34.38-.45.59-.06.13-.11.18-.18.18-.05 0-.11-.03-.21-.11-.67-.54-1.31-1.14-1.81-1.78v4.99c0 1.28.03 1.92.03 2 0 .11-.02.13-.13.13h-.75c-.11 0-.13-.02-.13-.13 0-.08.03-.72.03-2v-4.47c-.64.67-1.33 1.3-2.1 1.87-.11.08-.18.13-.24.13s-.1-.06-.16-.21c-.11-.26-.24-.46-.38-.59 2.18-1.41 3.79-3.44 4.67-5.46h-2.32c-1.18 0-1.55.03-1.63.03-.11 0-.13-.02-.13-.13v-.66c0-.11.02-.13.13-.13.08 0 .45.03 1.63.03h.53v-.93c0-.88-.02-1.34-.11-1.81.4.02.7.05 1.04.1.13.02.21.08.21.13 0 .13-.05.19-.1.3-.08.18-.1.45-.1 1.25v.96h1.09Zm9.7 10.91c0 .11-.02.13-.13.13-.08 0-.61-.03-2.19-.03h-4.53c-1.57 0-2.11.03-2.19.03-.13 0-.14-.02-.14-.13v-.7c0-.11.02-.13.14-.13.08 0 .62.03 2.19.03h1.62v-6.61h-1.01c-1.47 0-1.97.03-2.05.03-.11 0-.13-.02-.13-.13v-.7c0-.11.02-.13.13-.13.08 0 .58.03 2.05.03h1.01v-3.12c0-1.14 0-1.57-.11-2.19.42.02.77.05 1.07.1.11.02.19.06.19.13 0 .08-.03.16-.06.27-.08.24-.11.59-.11 1.67v3.15h1.36c1.47 0 1.97-.03 2.05-.03.11 0 .13.02.13.13v.7c0 .11-.02.13-.13.13-.08 0-.58-.03-2.05-.03h-1.36v6.61h1.94c1.58 0 2.11-.03 2.19-.03.11 0 .13.02.13.13v.7Zm12.61-10.29c-2.4.38-4.48.72-6.5 1.14-.58.11-.77.18-.96.27-.11.05-.21.11-.3.11s-.18-.06-.22-.14c-.16-.32-.3-.7-.45-1.14.58 0 .99-.05 1.98-.19 2.39-.38 5.63-.86 9.92-1.39.16-.02.24.03.27.13.05.21.1.59.1.8 0 .14-.05.18-.21.19-.86.05-1.5.14-2.34.48-2.34.93-4.13 2.9-4.13 5.04 0 2.66 2.32 3.44 4.66 3.63.21.02.26.05.26.18 0 .18-.05.54-.1.77-.03.18-.08.24-.26.22-2.71-.24-5.62-1.39-5.62-4.63 0-2.26 1.39-4.11 3.91-5.44l-.02-.03Zm1.95 2.26s.1-.03.16.02c.64.45 1.34 1.23 1.81 1.94.05.06.03.13-.03.18l-.46.38c-.08.06-.16.05-.21-.03-.46-.78-1.14-1.54-1.86-2.05l.59-.43Zm1.33-1.04c.06-.05.11-.06.18-.02.64.5 1.36 1.2 1.83 1.87.05.08.03.13-.05.19l-.43.38c-.06.06-.13.06-.19-.03-.4-.66-1.09-1.44-1.84-2l.51-.4Zm19.57-.77c0 .14-.05.16-.21.16-1.71-.05-3.28-.06-5.09 0 0 1.01 0 2.11.02 3.19.13.5.19 1.07.19 1.68 0 2.02-.86 3.73-3.12 4.95-.16.1-.29.14-.37.14-.1 0-.19-.05-.29-.13-.18-.16-.46-.35-.74-.45 2.29-.94 3.35-2.42 3.49-4.03-.35.61-1.04.91-1.76.91-1.1 0-2.11-.74-2.11-2.26 0-1.36 1.01-2.23 2.19-2.23.61 0 1.17.18 1.5.54-.02-.78-.02-1.5-.03-2.26-2.29.13-4.45.29-5.97.48-.38.05-.58.16-.71.16-.1 0-.16-.05-.19-.16-.1-.21-.18-.59-.26-1.02.54.03 1.07-.02 2.02-.1 1.3-.1 2.95-.21 5.07-.34-.02-.66-.02-.98-.03-1.49-.02-.4-.05-.66-.16-1.07.48.03.94.11 1.22.18.18.05.29.13.29.24 0 .1-.05.18-.11.29-.06.11-.1.22-.11.43-.03.35-.03.66-.03 1.36 1.78-.05 3.35-.05 5.12-.05.14 0 .18.02.18.18v.69Zm-9.05 4.13c0 .88.58 1.38 1.3 1.38.9 0 1.46-.69 1.46-1.41 0-.8-.59-1.36-1.42-1.36-.7 0-1.33.53-1.33 1.39Zm15.95 4.5c0 1.23-1.02 2.22-2.26 2.22s-2.26-.99-2.26-2.22 1.02-2.23 2.26-2.23 2.26.99 2.26 2.23Zm-3.68 0c0 .78.64 1.42 1.42 1.42s1.42-.64 1.42-1.42-.62-1.42-1.42-1.42-1.42.64-1.42 1.42Zm16.53-3.61c0 .11-.02.13-.13.13-.08 0-.53-.03-1.94-.03h-.5c.64.93 1.3 1.42 2.37 2.05-.13.13-.27.3-.38.56-.06.13-.1.19-.14.19s-.11-.05-.22-.14a7.203 7.203 0 0 1-1.95-2.14c.03 2.58.11 4.1.11 4.77 0 .11-.02.13-.14.13h-.72c-.11 0-.13-.02-.13-.13 0-.66.05-2.1.1-4.58-.66 1.28-1.47 2.29-2.72 3.3-.11.08-.18.13-.24.13s-.1-.06-.16-.19c-.11-.24-.29-.46-.43-.59 1.41-.94 2.42-1.95 3.2-3.35h-.82c-1.41 0-1.87.03-1.95.03-.11 0-.13-.02-.13-.13v-.64c0-.11.02-.13.13-.13.08 0 .54.03 1.95.03h1.12v-.03c0-.75-.02-1.14-.1-1.5.34.02.7.05.98.08.1.02.16.06.16.13 0 .1-.03.16-.06.22-.05.11-.08.3-.08 1.07v.03h.77c1.41 0 1.86-.03 1.94-.03.11 0 .13.02.13.13v.64Zm.28-2.68c0 .11-.02.13-.13.13-.1 0-.56-.03-1.99-.03h-3.09c-1.44 0-1.9.03-1.98.03-.11 0-.13-.02-.13-.13v-.66c0-.11.02-.13.13-.13.08 0 .54.03 1.98.03h2.11c.35-.7.56-1.28.74-1.82.08-.24.13-.43.14-.69.35.08.61.14.86.22.14.05.19.11.19.19s-.05.13-.11.19c-.08.08-.16.18-.24.37-.21.53-.42.98-.7 1.54h.1c1.39 0 1.86-.03 1.99-.03.11 0 .13.02.13.13v.66Zm-.26-3.78c0 .11-.02.13-.13.13-.08 0-.53-.03-1.91-.03h-2.66c-1.38 0-1.82.03-1.9.03-.11 0-.13-.02-.13-.13v-.62c0-.11.02-.13.13-.13.08 0 .53.03 1.9.03h.93v-.5c0-.4-.02-.8-.11-1.15.42.02.72.03 1.04.08.13.02.21.06.21.13 0 .11-.05.19-.1.29-.08.14-.08.27-.08.66v.5h.77c1.38 0 1.83-.03 1.91-.03.11 0 .13.02.13.13v.62Zm-5.01.57c.13-.05.16-.03.22.06.3.51.53 1.06.69 1.58.03.11.02.16-.14.22l-.4.16c-.21.06-.26.06-.29-.08-.16-.58-.34-1.09-.61-1.6-.06-.11-.05-.14.16-.22l.37-.13Zm12.44 3.22c0 .11-.02.13-.13.13-.08 0-.53-.03-1.94-.03h-.08v5.65c0 1.73.03 2.3.03 2.38 0 .13-.02.13-.13.13h-.78c-.11 0-.13 0-.13-.13 0-.08.03-.66.03-2.38v-5.65h-2.38c0 1.7-.05 3.33-.4 4.69-.27 1.04-.62 1.95-1.63 3.17-.1.13-.16.18-.22.18s-.11-.03-.21-.13c-.16-.16-.37-.27-.61-.37a7.038 7.038 0 0 0 1.82-3.36c.26-1.07.32-2.48.32-4.5v-1.97c0-.88-.03-1.57-.11-2.26.38.08.66.16 1.04.32 1.31-.35 2.38-.82 3.18-1.25.32-.18.58-.37.8-.58.26.21.51.48.7.72.06.08.1.14.1.22 0 .06-.08.13-.21.14-.18.02-.35.08-.59.19-1.07.53-2.45 1.04-3.99 1.44v2.46h3.44c1.41 0 1.86-.03 1.94-.03.11 0 .13.02.13.13v.67Zm17.96 3.44c0 .11-.02.13-.11.13-.08 0-.5-.02-1.57-.03v1.02c0 1.01.03 1.36.03 1.44 0 .11-.02.13-.13.13h-.7c-.11 0-.13-.02-.13-.13v-.5h-4.03c0 .45.02.85.02 1.17 0 .7-.11.99-.45 1.22-.35.22-.93.29-2.16.29-.3 0-.3-.02-.4-.3-.1-.26-.21-.48-.38-.72.56.06.86.08 1.41.06.86 0 1.02-.13 1.02-.77v-.94h-2.75c-1.63 0-2.16.03-2.26.03-.11 0-.13-.02-.13-.13v-.56c0-.11.02-.13.13-.13.1 0 .62.03 2.26.03h2.75v-1.22h-4.4c-1.49 0-1.99.03-2.07.03-.11 0-.13-.02-.13-.13v-.56c0-.11.02-.13.13-.13.08 0 .58.03 2.07.03h4.4v-1.12h-2.75c-1.62 0-2.16.03-2.26.03-.11 0-.13-.02-.13-.11v-.58c0-.11.02-.13.13-.13.1 0 .64.03 2.26.03h2.75v-1.09h-2.11c-1.6 0-2.18.03-2.26.03-.11 0-.13-.02-.13-.14 0-.08.03-.26.03-.88v-.67c0-.61-.03-.78-.03-.88 0-.11.02-.13.13-.13.08 0 .66.03 2.26.03h2.11v-.99h-4.29c-1.5 0-2.02.03-2.1.03-.11 0-.13-.02-.13-.13v-.59c0-.11.02-.13.13-.13.08 0 .59.03 2.1.03h4.29c0-.83-.02-1.26-.11-1.66.4 0 .71.03 1.04.08.11.02.19.06.19.13 0 .13-.05.19-.1.3-.06.16-.08.42-.08 1.12v.03h4.29c1.5 0 2-.03 2.1-.03.11 0 .13.02.13.13v.59c0 .11-.02.13-.13.13-.1 0-.59-.03-2.1-.03h-4.29v.99h2.18c1.62 0 2.18-.03 2.27-.03.11 0 .13.02.13.13 0 .1-.03.27-.03.88v.67c0 .62.03.8.03.88 0 .13-.02.14-.13.14-.1 0-.66-.03-2.27-.03h-2.18v1.09h2.58c1.63 0 2.21-.03 2.29-.03.11 0 .13.02.13.13 0 .08-.03.42-.03 1.42v.35c1.07 0 1.49-.03 1.57-.03.1 0 .11.02.11.13v.56Zm-7.58-5.55h-3.58v1.23h3.58v-1.23Zm4.61 0h-3.67v1.23h3.67v-1.23Zm.37 3.78h-4.03v1.12h4.03V275Zm0 1.87h-4.03v1.22h4.03v-1.22Zm14.84.56c1.54 1.23 3.38 2.05 6.11 2.69-.14.14-.29.35-.42.58q-.16.3-.46.21c-2.56-.7-4.4-1.66-6.02-3.17 0 2.42.08 3.43.08 3.7 0 .11-.02.13-.13.13h-.77c-.11 0-.13-.02-.13-.13 0-.27.06-1.25.08-3.67-1.58 1.57-3.35 2.45-5.79 3.22-.29.1-.32.1-.46-.19-.11-.22-.26-.4-.43-.54 2.62-.69 4.53-1.54 5.89-2.82h-3.33c-1.52 0-2.02.03-2.1.03-.13 0-.14-.02-.14-.13v-.58c0-.11.02-.13.14-.13.08 0 .58.03 2.1.03h4.1v-1.28h-2.38c-1.63 0-2.19.03-2.27.03-.11 0-.13-.02-.13-.11v-.56c0-.13.02-.14.13-.14.08 0 .64.03 2.27.03h2.38v-1.23h-3.17c-1.6 0-2.13.03-2.21.03-.13 0-.14-.02-.14-.13v-.58c0-.11.02-.13.14-.13.08 0 .61.03 2.21.03h1.28a6.34 6.34 0 0 0-.67-1.38c-.08-.11-.05-.14.13-.21l.42-.14c.16-.06.19-.06.26.03.3.43.59 1.04.85 1.7h2.96c.22-.37.38-.7.59-1.17.08-.19.13-.37.19-.64.29.06.53.13.85.22.1.03.18.1.18.18s-.08.14-.14.19c-.08.06-.16.21-.22.34-.14.27-.3.54-.53.88h1.39c1.62 0 2.13-.03 2.22-.03.11 0 .13.02.13.13v.58c0 .11-.02.13-.13.13-.1 0-.61-.03-2.22-.03h-3.42v1.23h2.71c1.63 0 2.18-.03 2.27-.03.11 0 .13.02.13.14v.56c0 .1-.02.11-.13.11-.1 0-.64-.03-2.27-.03h-2.71v1.28h4.4c1.52 0 2.02-.03 2.11-.03.11 0 .13.02.13.13v.58c0 .11-.02.13-.13.13-.1 0-.59-.03-2.11-.03h-3.65Zm5.89-6.87c0 .11-.02.13-.13.13-.1 0-.59-.03-2.11-.03h-9.43c-1.52 0-2.02.03-2.1.03-.13 0-.14-.02-.14-.13v-.58c0-.13.02-.14.14-.14.08 0 .58.03 2.1.03h.56c-.35-.7-.71-1.22-1.14-1.7-.06-.08-.06-.13.1-.21l.43-.22c.11-.06.16-.06.22.02.4.43.8 1.01 1.15 1.62.05.1.03.13-.1.21l-.53.29h2.11v-1.2c0-.58 0-1.04-.1-1.46.34.02.72.05.98.08.1.02.16.06.16.14s-.02.13-.06.22c-.06.11-.1.4-.1 1.01v1.2h1.71v-1.18c0-.58 0-1.04-.11-1.46.34.02.74.05.99.08.1.02.16.06.16.14 0 .06-.03.13-.06.21-.05.13-.1.4-.1 1.01v1.2h1.49c.35-.5.62-.98.9-1.5.11-.22.21-.45.26-.75.32.08.67.21.91.3.1.03.16.1.16.16 0 .1-.03.14-.13.21-.11.08-.19.19-.27.32-.26.42-.54.85-.85 1.26h.67c1.52 0 2.02-.03 2.11-.03.11 0 .13.02.13.14v.58Zm-373.59 35.49c.13.03.19.13.19.21 0 .16-.08.3-.08.56.02.35.05.67.1 1.02.14 1.15.34 2.23.62 3.23.94-.46 1.91-.91 2.85-1.44.51-.29.7-.45.93-.74.32.3.61.61.82.9.13.19.1.42-.19.45-.4.06-.93.29-1.41.51-1.17.54-2.54 1.2-3.63 1.82-1.62.94-2.37 1.78-2.37 2.9 0 1.42 1.34 1.78 3.76 1.76 1.49-.02 2.93-.16 4.11-.34.14-.02.19.02.22.14.05.26.08.56.1.83.02.14-.05.21-.22.22-1.31.14-2.46.22-4.26.22-2.77 0-4.77-.61-4.77-2.8 0-1.54 1.09-2.72 3.12-3.95a28.64 28.64 0 0 1-.85-4.1c-.1-.74-.18-1.14-.35-1.57.48.02.98.06 1.31.14Zm14.31.21c.18.05.26.13.26.24 0 .13-.06.26-.13.42-.06.19-.13.69-.19 1.65-.14 2.42-.24 4.61-.24 6.82 0 1.79.5 2.34 1.89 2.34 2.03 0 4.11-1.23 5.76-3.06.05.37.18.69.27.93.03.1.06.16.06.22 0 .1-.05.18-.19.3-1.68 1.62-3.81 2.69-6.1 2.69-1.81 0-2.79-.86-2.79-3.22s.14-4.88.22-7.14c.03-.99.05-1.68-.13-2.42.48.05.98.11 1.3.22Zm18.51 2.17c-2.4.38-4.48.72-6.5 1.14-.58.11-.77.18-.96.27-.11.05-.21.11-.3.11s-.18-.06-.22-.14c-.16-.32-.3-.7-.45-1.14.58 0 .99-.05 1.99-.19 2.38-.38 5.63-.86 9.92-1.39.16-.02.24.03.27.13.05.21.1.59.1.8 0 .14-.05.18-.21.19-.87.05-1.5.14-2.34.48-2.34.93-4.13 2.9-4.13 5.04 0 2.66 2.32 3.44 4.66 3.63.21.02.26.05.26.18 0 .18-.05.54-.1.77-.03.18-.08.24-.26.22-2.71-.24-5.62-1.39-5.62-4.63 0-2.26 1.39-4.11 3.91-5.44l-.02-.03Zm22.55 1.88q-.14.3-.45.21c-2.66-.94-5.3-2.61-6.8-4.43-1.67 1.98-3.75 3.54-6.58 4.63-.27.11-.29.08-.45-.19-.13-.22-.27-.4-.45-.54 2.9-.98 5.01-2.45 6.55-4.24.22-.24.4-.54.5-.78.37.05.7.13 1.01.21.13.03.21.1.21.16s-.03.11-.1.14c-.06.03-.1.05-.13.08 1.5 1.62 4.08 3.3 7.12 4.15-.19.19-.34.4-.43.62Zm-7.17 4.37c.5.83 1.09 1.47 1.82 2.02.98-.62 1.67-1.14 2.23-1.68.22-.22.37-.4.5-.62.34.21.58.38.82.58.08.06.13.13.13.21s-.08.13-.19.16c-.13.03-.32.14-.53.3-.62.5-1.33.99-2.18 1.54 1.17.66 2.64 1.12 4.5 1.54-.16.16-.3.37-.42.62-.13.29-.16.27-.46.19-3.49-.98-5.6-2-7.19-4.85H151v3.35c1.3-.24 2.53-.51 3.89-.85-.05.18-.08.38-.08.56 0 .34-.02.32-.32.4-2.06.53-3.81.88-5.54 1.2-.34.06-.58.16-.66.22-.06.05-.11.08-.18.08s-.11-.05-.16-.16c-.11-.29-.21-.66-.27-.98.59-.05 1.09-.11 1.71-.21.22-.03.43-.06.66-.11v-6.34c0-1.42-.03-2.03-.03-2.13 0-.11.02-.13.13-.13.08 0 .75.03 2.24.03h1.36v-.5c0-.59-.02-.91-.11-1.38.38.02.66.05 1.01.1.13.02.19.06.19.13 0 .13-.05.19-.1.3-.06.14-.08.3-.08.74v.61h1.46c1.49 0 2.06-.03 2.16-.03.11 0 .13.02.13.13 0 .1-.03.48-.03 1.52v1.84c0 1.02.03 1.42.03 1.5 0 .11-.02.13-.13.13-.1 0-.67-.03-2.16-.03h-1.81Zm3.15-4.28h-6.47v1.31h6.47v-1.31Zm0 2.08h-6.47v1.41h6.47v-1.41Zm13.98 3.88c0 2.4.03 2.8.03 2.9 0 .11-.02.13-.13.13h-.69c-.11 0-.13-.02-.13-.13v-.85h-3.47v.94c0 .11-.02.13-.13.13h-.69c-.11 0-.13-.02-.13-.13 0-.08.03-.48.03-2.93v-1.44c0-1.47-.03-1.87-.03-1.95 0-.11.02-.13.13-.13.1 0 .48.03 1.65.03h1.81c1.18 0 1.57-.03 1.65-.03.11 0 .13.02.13.13 0 .08-.03.48-.03 1.73v1.6Zm-.91-2.56h-3.47v3.75h3.47v-3.75Zm6.19-4.33c0 1.01.03 1.36.03 1.46 0 .11-.02.13-.13.13-.08 0-.61-.03-2.14-.03h-3.84c-1.52 0-2.05.03-2.14.03-.11 0-.11-.02-.11-.13 0-.1.02-.45.02-1.46v-1.97c0-.99-.02-1.36-.02-1.46 0-.11 0-.13.11-.13.1 0 .62.03 2.14.03h3.84c1.54 0 2.06-.03 2.14-.03.11 0 .13.02.13.13 0 .1-.03.46-.03 1.46v1.97Zm-.96-2.62h-6.4v3.28h6.4v-3.28Zm3.22 9.54c0 2.42.03 2.8.03 2.88 0 .13-.02.14-.13.14h-.69c-.11 0-.13-.02-.13-.14v-.86h-3.73v.96c0 .11-.02.13-.13.13h-.69c-.11 0-.13-.02-.13-.13 0-.1.03-.48.03-2.95V315c0-1.47-.03-1.87-.03-1.95 0-.13.02-.14.13-.14.1 0 .5.03 1.71.03h1.94c1.23 0 1.62-.03 1.71-.03.11 0 .13.02.13.14 0 .08-.03.48-.03 1.73v1.62Zm-.91-2.58h-3.73v3.73h3.73v-3.73Zm13.26-5.47c-.29 2.71-1.1 5.36-2.11 7-.69 1.17-1.41 1.65-2.35 1.65-1.2 0-2.34-1.31-2.34-3.63 0-1.47.67-3.04 1.86-4.15 1.18-1.1 2.79-1.78 4.8-1.78 3.58 0 5.71 2.1 5.71 5.15 0 2.61-1.62 4.71-5.09 5.59-.19.05-.3.02-.42-.18-.1-.16-.3-.4-.62-.59 3.17-.62 4.99-2.34 4.99-5.01 0-2.37-1.84-4.05-4.13-4.05h-.3Zm-4.24 1.53c-1.07 1.06-1.54 2.37-1.54 3.46 0 1.74.72 2.5 1.3 2.5.54 0 1.02-.35 1.49-1.17.82-1.44 1.67-3.92 1.87-6.26-1.25.16-2.35.7-3.12 1.47Zm16.18 4.65c0-.59.03-1.44.05-2.08-.4.46-.83.9-1.3 1.28-.11.1-.18.14-.22.14-.06 0-.1-.05-.14-.18-.1-.22-.21-.4-.35-.56 1.38-1.12 2.3-2.42 2.9-3.55.13-.24.24-.53.3-.77.3.14.53.27.77.45.11.08.18.13.18.21 0 .1-.05.13-.14.19-.11.06-.24.24-.37.48-.21.38-.46.8-.75 1.22v6c0 1.42.03 2.02.03 2.1 0 .11-.02.13-.13.13h-.72c-.11 0-.13-.02-.13-.13 0-.08.03-.67.03-2.1v-2.83Zm1.95-8.46c-.11.06-.27.19-.42.4-.67.93-1.46 1.82-2.48 2.67-.1.08-.18.13-.22.13-.06 0-.11-.06-.19-.21-.13-.24-.27-.42-.42-.54 1.14-.8 1.97-1.71 2.51-2.58.19-.32.29-.53.35-.72.35.16.59.29.83.45.11.08.18.14.18.22s-.06.13-.14.18Zm7.12 11.32c0 .11-.02.13-.14.13-.08 0-.56-.03-1.99-.03h-.24v.16c0 1.15.03 1.62.03 1.71 0 .11-.02.13-.13.13h-.64c-.11 0-.13-.02-.13-.13 0-.1.03-.56.03-1.71v-.16h-2.02c-1.42 0-1.91.03-1.98.03-.11 0-.13-.02-.13-.13v-.56c0-.11.02-.13.13-.13.06 0 .38.03 1.22.03v-1.39c-.48 0-.67.02-.72.02-.11 0-.13-.02-.13-.13v-.54c0-.11.02-.13.13-.13.08 0 .51.03 1.84.03h1.66v-1.09h-1.23c-1.17 0-1.55.03-1.62.03-.11 0-.13-.02-.13-.13 0-.08.03-.26.03-.9v-.67c0-.62-.03-.82-.03-.9 0-.13.02-.14.13-.14.06 0 .45.03 1.62.03h1.75c1.18 0 1.54-.03 1.63-.03.11 0 .13.02.13.14 0 .08-.03.27-.03.9v.67c0 .64.03.82.03.9 0 .11-.02.13-.13.13-.1 0-.4-.02-1.31-.03v1.09c1.28 0 1.7-.03 1.79-.03.11 0 .13.02.13.13v.54c0 .11-.02.13-.13.13-.1 0-.51-.03-1.79-.03v1.41h.24c1.42 0 1.91-.03 1.99-.03.13 0 .14.02.14.13v.56Zm-.16-7.59c0 .1-.02.11-.13.11-.1 0-.53-.02-1.87-.02h-2.69c-1.33 0-1.76.02-1.86.02-.11 0-.13-.02-.13-.11v-.56c0-.11.02-.13.13-.13.08 0 .43.03 1.41.03.24-.56.43-1.1.61-1.62-1.06 0-1.36.03-1.44.03-.11 0-.13-.02-.13-.13v-.56c0-.11.02-.13.13-.13.08 0 .4.03 1.55.03h.14l.16-.54c.08-.32.14-.59.16-.94.38.06.66.11.91.18.11.03.19.1.19.18s-.06.16-.13.22c-.08.08-.14.21-.21.42l-.16.5h.58c1.14 0 1.49-.03 1.58-.03.11 0 .13.02.13.13 0 .08-.03.3-.03.94v1.33c.62 0 .88-.03.96-.03.11 0 .13.02.13.13v.56Zm-1.65 1.75h-3.49v1.26h3.49v-1.26Zm-1.39 3.78h-1.94v1.41h1.94v-1.41Zm1.1-7.8h-1.67c-.18.53-.38 1.09-.61 1.62h2.27v-1.62Zm5.94 3.12c0 .11-.02.13-.13.13-.1 0-.35-.03-1.34-.03v4.8c0 .94.03 1.66.03 2.37 0 .5-.1.91-.42 1.14-.32.21-.8.24-1.86.24q-.32 0-.38-.32c-.05-.24-.13-.48-.24-.67.56.06.94.08 1.39.08.38 0 .56-.13.56-.59v-7.04h-.14c-.99 0-1.25.03-1.33.03-.11 0-.13-.02-.13-.13v-.66c0-.11.02-.13.13-.13.08 0 .34.03 1.33.03h1.06c.99 0 1.25-.03 1.34-.03.11 0 .13.02.13.13v.66Zm-.29-3.58c0 .11-.02.13-.13.13-.1 0-.34-.03-1.23-.03h-.91c-.9 0-1.14.03-1.23.03-.11 0-.13-.02-.13-.13v-.67c0-.11.02-.13.13-.13.1 0 .34.03 1.23.03h.91c.9 0 1.14-.03 1.23-.03.11 0 .13.02.13.13v.67Zm18.16 11.44c0 .11-.02.13-.13.13-.08 0-.59-.03-2.11-.03h-9.33c-1.52 0-2.03.03-2.11.03-.11 0-.13-.02-.13-.13v-.74c0-.11.02-.13.13-.13.08 0 .59.03 2.11.03h4.15v-3.6h-1.97c-1.62 0-2.15.03-2.24.03-.11 0-.13-.02-.13-.13v-.72c0-.11.02-.13.13-.13.1 0 .62.03 2.24.03h1.97v-3.31h-3.78c-.43.9-.96 1.76-1.65 2.58-.08.1-.11.14-.18.14-.05 0-.11-.05-.24-.16a2.15 2.15 0 0 0-.58-.34c1.3-1.47 2.1-3.06 2.67-4.88.11-.32.18-.67.18-.91.37.08.72.18.98.27.14.05.19.1.19.18 0 .06-.03.13-.13.22-.1.1-.18.27-.26.51-.19.5-.37 1.01-.58 1.49h3.36v-1.33c0-1.14-.02-1.57-.13-2.19.43.02.82.05 1.12.08.11.02.19.08.19.14 0 .08-.05.16-.08.29-.05.18-.1.58-.1 1.65v1.36h2.96c1.62 0 2.14-.03 2.24-.03.11 0 .13.02.13.13v.7c0 .11-.02.13-.13.13-.1 0-.62-.03-2.24-.03h-2.96v3.31h2.23c1.62 0 2.16-.03 2.24-.03.11 0 .13.02.13.13v.72c0 .11-.02.13-.13.13-.08 0-.62-.03-2.24-.03h-2.23v3.6h4.18c1.52 0 2.03-.03 2.11-.03.11 0 .13.02.13.13v.74Zm8.85-9.31c0 .11-.02.13-.13.13-.1 0-.4-.03-1.42-.03.45 1.33 1.06 2.4 1.84 3.36-.16.16-.3.42-.4.62-.06.13-.11.19-.14.19-.05 0-.08-.06-.14-.18-.46-.86-.94-1.78-1.28-2.9.02 4.83.14 8.82.14 9.06 0 .1-.02.11-.11.11h-.77c-.11 0-.13-.02-.13-.11 0-.24.16-4.32.19-9.04-.48 1.92-.99 3.57-1.89 5.2-.06.11-.11.18-.16.18s-.1-.05-.13-.16c-.1-.26-.26-.5-.42-.62.93-1.49 1.71-3.3 2.34-5.71h-.37c-1.06 0-1.36.03-1.44.03-.11 0-.13-.02-.13-.13v-.62c0-.13.02-.14.13-.14.08 0 .38.03 1.44.03h.5v-1.38c0-.94-.02-1.41-.13-1.9.4.02.72.05 1.01.1.13.02.19.06.19.14 0 .11-.05.19-.1.29-.06.16-.08.45-.08 1.36v1.39h.08c.98 0 1.28-.03 1.38-.03.11 0 .13.02.13.14v.62Zm5.09 6.05c.94 1.68 2.56 2.79 4.69 3.47-.16.16-.3.37-.42.59-.1.18-.14.26-.22.26-.06 0-.13-.03-.26-.08-2.05-.91-3.44-1.95-4.42-3.81-.58 1.58-1.99 2.99-4.21 3.84q-.3.1-.46-.19c-.11-.18-.27-.37-.45-.51 2.42-.75 3.75-1.98 4.31-3.57h-.61c-1.46 0-1.95.03-2.05.03-.11 0-.13-.02-.13-.13 0-.1.03-.35.03-1.17v-1.15c0-.83-.03-1.1-.03-1.18 0-.11.02-.13.13-.13.1 0 .59.03 2.05.03h1.01c.02-.45.02-.94.02-1.5h-.24c-1.12 0-1.46.03-1.54.03-.13 0-.14-.02-.14-.11v-.58c0-.11.02-.13.14-.13.08 0 .42.03 1.54.03h1.65c1.12 0 1.46-.03 1.54-.03.13 0 .14.02.14.13v.58c0 .1-.02.11-.14.11-.08 0-.42-.03-1.54-.03h-.5c0 .54 0 1.06-.02 1.5h1.28c1.46 0 1.95-.03 2.03-.03.11 0 .13.02.13.13 0 .08-.03.35-.03 1.18v1.15c0 .82.03 1.07.03 1.17 0 .11-.02.13-.13.13-.08 0-.58-.03-2.03-.03h-1.15Zm4.43-5.16c-.08.16-.13.22-.19.22-.05 0-.13-.03-.24-.1-1.94-1.09-3.38-2.19-4.59-3.91-1.04 1.62-2.35 2.99-4.02 4.08-.11.06-.19.11-.24.11-.06 0-.11-.06-.21-.22-.11-.18-.26-.35-.42-.46 1.71-.99 3.17-2.43 4.11-4 .21-.34.3-.54.38-.85.37.06.62.13.9.21.13.03.19.08.19.19 0 .05-.03.11-.1.14-.06.03-.11.06-.16.11 1.25 1.67 2.79 2.88 5.03 3.89-.19.14-.34.34-.45.58Zm-7.75 2.2v2.23h2.07c.11-.56.18-1.25.19-2.23h-2.26Zm5.72 0h-2.55c-.03.91-.08 1.62-.19 2.23h2.74v-2.23Zm14.16-4.25c1.73 1.57 3.28 2.47 6.29 3.39-.19.18-.34.4-.45.64-.08.18-.13.26-.21.26-.05 0-.11-.03-.24-.08-2.48-.9-4.53-2.23-6.04-3.97 0 1.25.08 2.51.08 2.8 0 .11-.02.13-.13.13h-.75c-.11 0-.13-.02-.13-.13 0-.29.06-1.52.08-2.77-1.49 1.78-3.47 3.01-5.83 3.91-.29.11-.3.11-.45-.18-.11-.22-.27-.43-.43-.58 2.46-.78 4.4-1.79 6.02-3.43h-3.11c-1.54 0-2.06.03-2.14.03-.11 0-.13-.02-.13-.13v-.64c0-.11.02-.13.13-.13.08 0 .61.03 2.14.03H263v-.38c0-.74 0-1.1-.11-1.68.38.02.75.05 1.06.1.11.02.19.08.19.14 0 .11-.05.19-.1.3-.05.14-.1.38-.1.99v.53h4.02c1.55 0 2.06-.03 2.16-.03.11 0 .13.02.13.13v.64c0 .11-.02.13-.13.13-.1 0-.61-.03-2.16-.03h-3.43Zm6.21 10.84c0 .11-.02.13-.13.13-.08 0-.58-.03-2.05-.03h-9.86c-1.47 0-1.97.03-2.05.03-.11 0-.13-.02-.13-.13v-.66c0-.11.02-.13.13-.13.08 0 .58.03 2.05.03h.86v-4.56c0-1.2-.03-1.71-.03-1.81 0-.11.02-.13.14-.13.08 0 .61.03 2.11.03h3.63c1.5 0 2.03-.03 2.11-.03.11 0 .13.02.13.13 0 .1-.03.61-.03 1.81v4.56h.93c1.47 0 1.97-.03 2.05-.03.11 0 .13.02.13.13v.66Zm-4.05-6.4h-6.18v1.33h6.18v-1.33Zm0 2.06h-6.18v1.38h6.18v-1.38Zm0 2.12h-6.18v1.47h6.18v-1.47Zm16.24-1.22c1.54 1.23 3.38 2.05 6.11 2.69-.14.14-.29.35-.42.58q-.16.3-.46.21c-2.56-.7-4.4-1.66-6.02-3.17 0 2.42.08 3.43.08 3.7 0 .11-.02.13-.13.13h-.77c-.11 0-.13-.02-.13-.13 0-.27.06-1.25.08-3.67-1.58 1.57-3.35 2.45-5.79 3.22-.29.1-.32.1-.46-.19-.11-.22-.26-.4-.43-.54 2.62-.69 4.53-1.54 5.89-2.82h-3.33c-1.52 0-2.02.03-2.1.03-.13 0-.14-.02-.14-.13v-.58c0-.11.02-.13.14-.13.08 0 .58.03 2.1.03h4.1v-1.28h-2.38c-1.63 0-2.19.03-2.27.03-.11 0-.13-.02-.13-.11v-.56c0-.13.02-.14.13-.14.08 0 .64.03 2.27.03h2.38v-1.23h-3.17c-1.6 0-2.13.03-2.21.03-.13 0-.14-.02-.14-.13v-.58c0-.11.02-.13.14-.13.08 0 .61.03 2.21.03h1.28a6.34 6.34 0 0 0-.67-1.38c-.08-.11-.05-.14.13-.21l.42-.14c.16-.06.19-.06.26.03.3.43.59 1.04.85 1.7h2.96c.22-.37.38-.7.59-1.17.08-.19.13-.37.19-.64.29.06.53.13.85.22.1.03.18.1.18.18s-.08.14-.14.19c-.08.06-.16.21-.22.34-.14.27-.3.54-.53.88h1.39c1.62 0 2.13-.03 2.22-.03.11 0 .13.02.13.13v.58c0 .11-.02.13-.13.13-.1 0-.61-.03-2.22-.03h-3.42v1.23h2.71c1.63 0 2.18-.03 2.27-.03.11 0 .13.02.13.14v.56c0 .1-.02.11-.13.11-.1 0-.64-.03-2.27-.03h-2.71v1.28h4.4c1.52 0 2.02-.03 2.11-.03.11 0 .13.02.13.13v.58c0 .11-.02.13-.13.13-.1 0-.59-.03-2.11-.03h-3.65Zm5.89-6.87c0 .11-.02.13-.13.13-.1 0-.59-.03-2.11-.03h-9.43c-1.52 0-2.02.03-2.1.03-.13 0-.14-.02-.14-.13v-.58c0-.13.02-.14.14-.14.08 0 .58.03 2.1.03h.56c-.35-.7-.71-1.22-1.14-1.7-.06-.08-.06-.13.1-.21l.43-.22c.11-.06.16-.06.22.02.4.43.8 1.01 1.15 1.62.05.1.03.13-.1.21l-.53.29h2.11v-1.2c0-.58 0-1.04-.1-1.46.34.02.72.05.98.08.1.02.16.06.16.14s-.02.13-.06.22c-.06.11-.1.4-.1 1.01v1.2h1.71v-1.18c0-.58 0-1.04-.11-1.46.34.02.74.05.99.08.1.02.16.06.16.14 0 .06-.03.13-.06.21-.05.13-.1.4-.1 1.01v1.2h1.49c.35-.5.62-.98.9-1.5.11-.22.21-.45.26-.75.32.08.67.21.91.3.1.03.16.1.16.16 0 .1-.03.14-.13.21-.11.08-.19.19-.27.32-.26.42-.54.85-.85 1.26h.67c1.52 0 2.02-.03 2.11-.03.11 0 .13.02.13.14v.58Zm9.74 1.84c.14 0 .26-.03.3-.06.05-.03.08-.03.14-.03.08 0 .19.06.38.22.22.21.29.32.29.42s-.03.14-.16.24c-.13.1-.16.21-.26.42-.19.4-.45.86-.82 1.44-.1.16-.14.22-.22.22-.05 0-.1-.03-.19-.1-.18-.11-.42-.16-.58-.19.48-.69.78-1.2 1.04-1.78H297v4.69c0 .78.02 1.38.02 2.16 0 .54-.1.83-.43 1.09-.22.18-.67.24-1.87.21-.29-.02-.3-.02-.37-.32a1.63 1.63 0 0 0-.32-.66c.51.06.93.1 1.46.1.48 0 .61-.11.61-.54v-3.81c0-.66.02-1.34.03-1.95-.5 1.44-1.17 2.87-2.5 4.39-.1.11-.16.18-.22.18s-.13-.06-.21-.19c-.13-.19-.32-.35-.46-.43 1.41-1.23 2.42-3.27 3.01-4.9h-.64c-1.34 0-1.79.03-1.87.03-.11 0-.13-.02-.13-.13v-.61c0-.11.02-.13.13-.13.08 0 .53.03 1.87.03h1.57c-.69-.72-1.36-1.3-2.23-1.92-.11-.08-.11-.11.03-.24l.3-.27c.14-.13.16-.13.27-.05.38.27.75.53 1.09.8.67-.56 1.31-1.15 1.84-1.89h-2.66c-1.28 0-1.68.02-1.76.02-.11 0-.13 0-.13-.11v-.66c0-.11.02-.13.13-.13.08 0 .48.03 1.76.03h2.79c.16 0 .3-.03.37-.06s.11-.05.18-.05c.1 0 .21.06.45.3.26.26.3.35.3.46s-.13.19-.22.26c-.14.1-.26.26-.43.46-.58.67-1.1 1.25-1.95 1.92l.7.69c.1.08.08.11-.08.26l-.21.18h1.36Zm7.67 4.63c-.13 1.66-.21 2.71-.62 3.41-.27.51-.75.8-1.44.8-.3 0-.66-.02-1.04-.03-.3-.02-.32-.03-.37-.38-.03-.22-.11-.43-.22-.62.5.1.93.16 1.36.16.4 0 .64-.05.85-.37.32-.45.45-1.54.56-3.06h-2.66c-.58 2.08-1.87 3.39-3.89 4.37-.11.06-.19.1-.24.1-.08 0-.13-.06-.24-.24-.13-.21-.3-.38-.51-.51 1.82-.66 3.31-1.79 3.95-3.71h-.83c-1.46 0-1.94.03-2.02.03-.13 0-.14-.02-.14-.13v-.61c0-.13.02-.14.14-.14.08 0 .56.03 2.02.03h1.04c.06-.34.1-.7.11-1.1.02-.21 0-.48-.03-.7.32.02.66.05.94.11.14.03.21.08.21.14 0 .1-.03.18-.1.26s-.1.29-.13.53c-.03.27-.06.53-.11.77h1.3c1.47 0 1.95-.03 2.03-.03.11 0 .16.05.14.16l-.06.78Zm.81-7.4c0 .11-.02.13-.13.13-.08 0-.42-.02-1.36-.03-.34 1.12-.88 2.05-1.57 2.79 1.02.75 2.24 1.3 3.55 1.57-.16.19-.29.38-.38.62q-.13.3-.43.21c-1.17-.37-2.34-.99-3.36-1.81-.98.82-2.11 1.38-3.28 1.73-.27.08-.3.08-.4-.18-.1-.24-.26-.45-.38-.58 1.2-.26 2.4-.75 3.39-1.55-.64-.61-1.2-1.3-1.62-2.06-.3.38-.66.78-1.1 1.25-.08.1-.14.14-.19.14s-.1-.05-.19-.16c-.14-.18-.34-.32-.53-.4 1.28-1.09 1.94-2.08 2.48-3.15.21-.45.32-.77.37-1.1.34.08.7.19.93.29.1.03.14.1.14.16 0 .08-.05.14-.13.19-.1.06-.24.3-.35.5l-.42.75h3.09c1.26 0 1.66-.03 1.74-.03.11 0 .13.02.13.13v.61Zm-5.44.1c.42.83 1.01 1.57 1.71 2.22.56-.61 1.01-1.34 1.3-2.22h-3.01Zm17.55 8.39c0 .13-.03.18-.18.19-.16.03-.48.06-.69.06-.1 0-.14-.08-.14-.19 0-.7 0-1.49.02-2.3-1.76.88-2.62 1.7-2.62 2.66s.88 1.33 2.74 1.33c1.33 0 2.64-.16 3.81-.32.08-.02.14 0 .18.11.05.24.1.56.1.78 0 .14-.06.21-.13.22-1.14.14-2.45.22-3.95.22-2.24 0-3.7-.58-3.7-2.29 0-1.34.88-2.43 3.54-3.73-.03-1.09-.4-1.52-1.34-1.5-.69.02-1.6.42-2.62 1.3-.58.54-.96.96-1.52 1.55-.1.11-.16.11-.24.03-.16-.14-.43-.45-.56-.62-.05-.1-.06-.13.03-.22 1.46-1.26 2.79-2.82 3.71-4.45-.99.06-1.97.06-2.98.03-.13 0-.16-.05-.18-.16-.03-.19-.08-.54-.1-.8 1.17.06 2.42.06 3.71-.02.19-.48.42-1.01.58-1.6.08-.27.14-.51.13-.86.46.08.93.22 1.2.35.16.08.16.24.03.35-.06.06-.16.18-.29.45-.19.4-.34.74-.54 1.22 1.12-.11 2.27-.29 3.38-.53.13-.03.16-.03.19.06.03.22.08.45.1.7 0 .11-.03.16-.21.19-1.26.22-2.62.4-3.91.53-.54.98-1.06 1.73-1.63 2.38l.02.03c.67-.48 1.38-.69 2-.69 1.18 0 1.89.62 2.02 1.87.78-.35 1.7-.77 2.5-1.15.46-.22.88-.48 1.22-.82.37.32.69.74.78.93.13.24 0 .34-.16.37-.19.03-.51.11-.88.26-1.22.51-2.23.88-3.39 1.38v2.69Zm11.52-1.62c0-.64.02-1.47.03-2.08-.51.56-1.09 1.12-1.73 1.65-.11.1-.18.14-.22.14s-.1-.06-.16-.19c-.11-.22-.24-.4-.42-.56 1.44-1.12 2.71-2.51 3.51-3.89.14-.24.27-.53.34-.77.32.14.59.3.83.46.11.08.14.13.14.21 0 .06-.05.13-.11.18-.1.06-.24.19-.35.38-.29.45-.58.88-.9 1.3v6.03c0 1.39.03 1.98.03 2.06 0 .11-.02.13-.13.13h-.77c-.11 0-.13-.02-.13-.13 0-.08.03-.67.03-2.06v-2.87Zm2.05-8.42c-.1.06-.22.21-.38.42-.77.98-1.81 2.03-3.12 2.98-.1.08-.16.11-.22.11s-.13-.06-.22-.22c-.13-.19-.27-.35-.46-.5 1.26-.82 2.45-1.89 3.23-2.96.21-.29.29-.51.35-.7.34.14.58.27.88.48.1.06.14.11.14.19s-.08.14-.19.21Zm9.78 4.95c0 .11-.02.13-.13.13-.08 0-.61-.03-2.18-.03h-.51v3.7c0 1.6.03 2.37.03 2.94.02.69-.11 1.02-.43 1.28-.29.22-.74.3-2.22.3q-.32 0-.4-.34c-.08-.26-.18-.51-.34-.72.53.05.94.06 1.54.06.67 0 .85-.1.85-.61v-6.63h-2.9c-1.57 0-2.1.03-2.19.03-.11 0-.13-.02-.13-.13v-.7c0-.11.02-.13.13-.13.1 0 .62.03 2.19.03h4.39c1.57 0 2.1-.03 2.18-.03.11 0 .13.02.13.13v.7Zm-.83-3.92c0 .11-.02.13-.13.13-.1 0-.53-.03-1.98-.03h-3.01c-1.44 0-1.89.03-1.97.03-.11 0-.13-.02-.13-.13v-.7c0-.11.02-.13.13-.13.08 0 .53.03 1.97.03h3.01c1.46 0 1.89-.03 1.98-.03.11 0 .13.02.13.13v.7Zm7.21 4.69c1.73-.53 3.09-.91 4.32-.91 1.98 0 3.33 1.23 3.33 3.12 0 1.54-.67 2.53-2.11 3.31-.88.48-1.97.85-3.31 1.07-.18.03-.24-.02-.32-.16-.08-.16-.3-.45-.61-.67 1.52-.21 2.69-.54 3.67-1.06 1.04-.54 1.6-1.31 1.6-2.56 0-1.42-.95-2.13-2.37-2.13-1.18 0-2.91.54-4.72 1.28-.4.16-.61.3-.75.4-.11.06-.22.14-.3.14-.1 0-.19-.06-.29-.18-.21-.27-.42-.7-.58-1.06.62-.08 1.18-.22 2.45-.61Zm20.88-3.37c-2.4.38-4.48.72-6.5 1.14-.58.11-.77.18-.96.27-.11.05-.21.11-.3.11s-.18-.06-.22-.14c-.16-.32-.3-.7-.45-1.14.58 0 .99-.05 1.99-.19 2.38-.38 5.63-.86 9.92-1.39.16-.02.24.03.27.13.05.21.1.59.1.8 0 .14-.05.18-.21.19-.87.05-1.5.14-2.34.48-2.34.93-4.13 2.9-4.13 5.04 0 2.66 2.32 3.44 4.66 3.63.21.02.26.05.26.18 0 .18-.05.54-.1.77-.03.18-.08.24-.26.22-2.71-.24-5.62-1.39-5.62-4.63 0-2.26 1.39-4.11 3.91-5.44l-.02-.03Zm10.94-.59c.1.05.14.11.14.18 0 .08-.03.18-.06.29-.06.19-.13.64-.13 1.47 0 1.02.02 2 .22 3.63.24 1.89.93 3.27 1.7 3.27.64 0 1.25-1.02 1.71-2.51.18.42.32.61.53.8.13.11.18.24.13.4-.45 1.3-1.31 2.51-2.38 2.51-1.34 0-2.35-1.86-2.71-4.37-.22-1.6-.29-3.41-.29-4.47 0-.61-.02-.99-.13-1.54.45.05.96.19 1.26.34Zm7.64 1.23c.1-.05.18-.06.24 0 1.63 1.42 2.72 3.39 3.12 5.54.02.11-.03.16-.11.21-.24.16-.46.27-.74.37-.11.03-.19-.02-.21-.13-.45-2.45-1.46-4.15-3.01-5.55.3-.21.54-.35.7-.43Zm13.5 3.69c-1.23.05-2.53.05-3.68-.05-.13 0-.16-.05-.18-.19-.03-.21-.05-.59-.05-.82 1.18.14 2.62.18 3.87.11 0-.78-.02-1.62-.02-2.39-1.55.06-2.93.05-4.24-.08-.1-.02-.13-.05-.14-.16-.03-.24-.06-.48-.06-.83 1.41.18 2.91.19 4.45.13 0-.66-.02-1.1-.02-1.7-.02-.46-.05-.74-.14-1.06.53.05.96.11 1.26.21.18.06.22.24.14.37-.11.18-.18.42-.19.74-.03.51-.03.86-.05 1.41 1.46-.11 2.77-.32 3.91-.53.13-.03.16 0 .18.11.03.26.05.51.05.7 0 .13-.06.16-.11.16-1.25.21-2.54.37-4.02.46 0 .78 0 1.62.02 2.37a26.8 26.8 0 0 0 3.54-.46c.11-.03.16 0 .18.08 0 .19.02.5.02.77 0 .1-.05.14-.16.16-1.14.21-2.26.35-3.54.43 0 .99.05 1.82.11 2.78 1.44.4 2.95 1.07 4.27 2.06.08.06.11.13.06.27-.06.21-.24.51-.4.69-.08.1-.14.11-.24.05-1.3-1.01-2.37-1.6-3.65-2.03.02 1.79-.93 2.5-2.87 2.5s-2.83-.72-2.83-1.9c0-1.04 1.09-1.95 2.95-1.95.64 0 1.22.05 1.68.13-.05-.91-.08-1.62-.1-2.54Zm-1.58 3.29c-1.34 0-2.02.43-2.02 1.01 0 .67.62.99 1.79.99.74 0 1.34-.16 1.63-.5.19-.24.34-.64.29-1.3-.56-.13-1.12-.21-1.7-.21Zm25.65-7.07c0 .14-.05.16-.21.16-1.71-.05-3.28-.06-5.09 0 0 1.01 0 2.11.02 3.19.13.5.19 1.07.19 1.68 0 2.02-.86 3.73-3.12 4.95-.16.1-.29.14-.37.14-.1 0-.19-.05-.29-.13-.18-.16-.46-.35-.74-.45 2.29-.94 3.35-2.42 3.49-4.03-.35.61-1.04.91-1.76.91-1.1 0-2.11-.74-2.11-2.26 0-1.36 1.01-2.23 2.19-2.23.61 0 1.17.18 1.5.54-.02-.78-.02-1.5-.03-2.26-2.29.13-4.45.29-5.97.48-.38.05-.58.16-.71.16-.1 0-.16-.05-.19-.16-.1-.21-.18-.59-.26-1.02.54.03 1.07-.02 2.02-.1 1.3-.1 2.95-.21 5.07-.34-.02-.66-.02-.98-.03-1.49-.02-.4-.05-.66-.16-1.07.48.03.94.11 1.22.18.18.05.29.13.29.24 0 .1-.05.18-.11.29-.06.11-.1.22-.11.43-.03.35-.03.66-.03 1.36 1.78-.05 3.35-.05 5.12-.05.14 0 .18.02.18.18v.69Zm-9.05 4.13c0 .88.58 1.38 1.3 1.38.9 0 1.46-.69 1.46-1.41 0-.8-.59-1.36-1.42-1.36-.7 0-1.33.53-1.33 1.39Zm15.95 4.5c0 1.23-1.02 2.22-2.26 2.22s-2.26-.99-2.26-2.22 1.02-2.23 2.26-2.23 2.26.99 2.26 2.23Zm-3.68 0c0 .78.64 1.42 1.42 1.42s1.42-.64 1.42-1.42-.62-1.42-1.42-1.42-1.42.64-1.42 1.42ZM110.99 129.17c0-.8-.06-1.15-.35-1.41s-.83-.48-1.57-.7c-.26-.06-.38-.13-.38-.29 0-.13.19-.29.38-.38.29-.16.58-.26 1.02-.26.67 0 1.6.32 2.4.74.77.38 1.02.74 1.02 1.22 0 .29-.1.48-.26.7-.13.19-.22.61-.29 1.25-.03.64-.03 1.41-.03 2.27 2.24-.22 3.9-.38 6.11-.51.03-1.38.03-2.62.03-3.87 0-1.47-.03-2.14-.22-2.46-.16-.29-.38-.45-.74-.58-.32-.13-.74-.22-1.02-.26-.26-.03-.35-.16-.35-.29s.22-.32.45-.48c.32-.19.61-.26 1.06-.26s1.15.16 2.11.51c1.09.42 1.47.86 1.47 1.41 0 .26-.16.48-.35.74-.22.26-.26.61-.29 1.12-.03 1.28-.1 2.69-.13 4.29.74-.03 1.54-.06 2.66-.13.58-.03.93-.16 1.15-.29.32-.19.58-.26.99-.26.58 0 1.6.22 2.56.77.42.26.61.58.61 1.12 0 .38-.32.64-.83.64-.58 0-1.12-.06-1.92-.19-.8-.1-1.6-.13-2.34-.16-1.06-.03-2.02-.03-2.91-.03-.1 3.46-.64 6.85-2.4 9.38-1.92 2.78-4.83 4.9-8.48 5.92-.29.1-.54.13-.7.13-.19 0-.38-.13-.38-.35 0-.26.13-.35.42-.48 3.1-1.22 5.95-3.49 7.58-6.21 1.28-2.14 1.86-5.12 1.95-8.32-2.08.06-3.87.22-6.08.45-.03 2.27-.06 4.03-.06 5.25 0 1.12-.48 1.66-.96 1.66-.8 0-1.15-.58-1.15-1.54s.16-3.07.19-5.12c-.8.13-1.54.22-2.27.38-.61.13-1.54.38-1.79.58-.38.26-.64.32-.93.32-.7 0-1.38-.45-2.11-1.18-.8-.77-1.06-1.25-1.06-1.89 0-.26.16-.38.29-.38s.26.1.48.29c.64.54 1.44.96 2.05.96.64 0 1.18 0 2.02-.1 1.15-.13 2.21-.26 3.36-.38v-3.33Zm30.95 8.8c-.64 0-1.41-.7-2.24-1.86-.42-.58-.74-1.18-.74-1.66 0-.42.06-.8.29-.8.16 0 .29.16.51.38 1.12 1.09 1.57 1.31 2.3 1.31.67 0 1.89-.06 4.06-.19 4.35-.26 8.67-.42 11.39-.51 1.09-.03 1.6-.19 1.95-.38.26-.13.64-.22.99-.22.32 0 .77.1 1.31.29 1.5.58 1.7.93 1.7 1.5 0 .64-.42.96-1.12.96-1.22 0-2.94-.13-4.51-.13-2.85 0-8.51.19-12.7.54-1.02.1-1.89.29-2.21.48-.22.16-.54.29-.99.29Zm37.15 2.24c0 .64.03 1.63.1 2.11.1.54.32.8.67 1.02.42.22 1.15.38 2.85.38 2.59 0 4.74-.26 6.21-.58.58-.16 1.15-.32 1.7-.32 1.38 0 2.08.51 2.08 1.38 0 .51-.45.83-1.06.99-.64.13-1.47.26-2.62.32-1.66.13-3.49.22-5.15.19-3.1 0-4.61-.42-5.41-1.15-.45-.38-.86-1.02-1.02-1.63-.19-.67-.26-1.6-.26-2.66 0-3.62.06-7.2.06-10.82 0-.86-.1-1.34-.61-1.63-.38-.26-.77-.42-1.15-.51-.19-.06-.32-.16-.32-.32 0-.22.93-.61 1.38-.61.58 0 1.31.29 2.24.83 1.06.61 1.5 1.18 1.5 1.73 0 .38-.16.64-.42.9-.32.32-.38.54-.48 1.54-.06.99-.16 2.66-.19 4.48 1.57-.42 3.39-1.09 5.06-1.82 1.06-.45 2.75-1.28 3.84-1.98.29-.19.38-.29.38-.54 0-.16-.32-.54-.7-.86-.22-.19-.38-.32-.38-.45s.29-.32.8-.32c.48 0 1.34.32 2.18 1.06.8.67 1.28 1.28 1.25 1.79 0 .35-.16.64-.86.77-.32.06-.61.16-1.09.35-1.6.64-3.17 1.25-4.7 1.73-1.95.58-3.55.96-5.76 1.34-.03 1.12-.1 2.27-.1 3.3Zm12.09-14.2c.86.26 1.82.74 2.78 1.6.77.67 1.22 1.25 1.22 1.92 0 .51-.32.96-.9.96-.42 0-.77-.29-1.06-.86-.48-.96-1.76-2.37-2.69-3.07-.13-.1-.22-.22-.22-.32 0-.16.13-.32.35-.32.19 0 .42.06.51.1Zm2.79-2.15c.86.22 1.66.61 2.56 1.25.77.54 1.47 1.28 1.47 2.02 0 .64-.38 1.02-.86 1.02-.42 0-.67-.16-1.02-.77-.58-.99-1.86-2.37-2.94-3.01a.37.37 0 0 1-.22-.32c0-.16.13-.32.32-.32.16 0 .42.06.7.13Zm33.53 17.06c1.12 1.09 1.98 2.14 1.98 3.01s-.54 1.34-1.31 1.34c-.45 0-.86-.29-1.38-.99-2.11-3.04-4.45-5.25-7.58-7.1-1.92 2.11-4 3.94-6.24 5.41-2.14 1.44-4.38 2.59-6.24 3.26-.32.13-.64.22-.86.22-.19 0-.35-.22-.35-.38s.13-.35.32-.45c3.84-2.11 7.17-4.45 10.37-7.84 2.37-2.46 4.13-4.83 6.05-8.13.1-.16.13-.22.13-.29s-.06-.06-.26-.06c-1.47.1-5.12.58-8.35 1.22-.64.13-1.06.26-1.31.42-.29.16-.48.32-.93.32-.54 0-1.31-.54-1.98-1.47-.61-.83-.86-1.28-.86-1.82 0-.32.16-.67.32-.67.13 0 .35.19.54.38.83.8 1.41 1.22 2.11 1.22.51 0 1.6-.1 2.53-.19 2.5-.26 5.15-.51 7.49-.83.54-.06.8-.22 1.09-.48.22-.22.45-.35.77-.35.48 0 .83.16 1.5.77.86.8 1.12 1.15 1.12 1.54 0 .32-.16.45-.8.7-.45.16-.96.58-1.34 1.18-.86 1.38-2.43 3.62-4.1 5.57 2.94 1.22 5.7 2.69 7.58 4.51Zm27.2-13.19c-.13 1.6-.32 3.23-.8 4.77 5.06 1.95 8.22 4.64 8.22 6.75 0 .86-.48 1.5-1.12 1.5s-.83-.26-1.76-1.82c-1.34-2.3-3.01-4.19-5.54-5.89-.38 1.15-.93 2.11-1.6 3.01-1.34 1.92-4.13 3.78-6.91 4.9-.19.1-.38-.35-.19-.48 5.06-3.33 6.91-6.53 7.36-12.74h-8.1v8c0 8.45.03 11.2.03 13.25 0 .67-.54.99-1.57.99-.74 0-1.06-.26-1.06-.86 0-1.98.16-5.02.16-14.05 0-5.5 0-7.55-.16-9.57 1.22.51 1.76.77 2.88 1.44h7.87c.03-.93.06-1.92.06-2.98 0-1.57-.03-2.02-.16-2.82 2.78.19 3.65.42 3.65.9 0 .29-.19.45-1.06.83-.03 1.5-.06 2.85-.16 4.06h8.64c1.02-1.15 1.22-1.28 1.44-1.28.19 0 .38.13 1.54 1.09.48.38.61.58.61.8 0 .26-.19.45-.86.93v5.15c0 10.91.13 12.13.13 13.28 0 1.34-.51 1.95-1.41 2.4-.42.19-1.22.38-1.66.38-.42 0-.58-.16-.64-.7-.13-.9-.8-1.25-3.74-1.86-.19-.03-.16-.45.03-.45 2.05.16 3.23.22 4.29.22.42 0 .58-.19.58-.61v-18.56h-8.99Zm30.31 21.51c0 .7-.48 1.02-1.38 1.02-.77 0-1.02-.29-1.02-.93 0-.7.13-1.79.13-5.89 0-1.38 0-2.27-.03-2.98-1.76.99-3.68 1.79-5.66 2.4-.22.06-.38-.38-.19-.48 4.51-2.27 8.51-5.44 10.94-8.7.86-1.15 1.47-2.24 1.86-3.36 2.56.96 3.07 1.22 3.07 1.54 0 .26-.22.42-.99.54 1.54 2.05 3.42 3.55 5.66 4.86 2.5 1.41 5.41 2.24 8.1 2.5.16 0 .13.32-.03.35-.67.19-1.02.64-1.34 1.63-.13.51-.29.64-.61.64s-1.02-.22-1.89-.64c-.67-.29-1.38-.64-2.02-.99-.1.13-.29.26-.67.45v2.08c0 3.52.1 5.18.1 5.7 0 .77-.42 1.09-1.41 1.09-.77 0-1.02-.26-1.02-.96v-.86h-11.58v.99Zm-4.16-23.4c-.06 2.43-1.18 4.06-2.62 4.06-.77 0-1.34-.58-1.34-1.34 0-.58.22-.9.9-1.31 1.63-.93 2.24-1.86 2.4-3.84 0-.19.38-.22.42-.03.13.58.19 1.15.22 1.66h8.77v-1.63c0-.83 0-1.63-.1-2.43 3.23.35 3.62.64 3.62 1.02 0 .26-.22.48-1.09.83v2.21h8.9c1.15-1.31 1.31-1.41 1.54-1.41.26 0 .58.19 2.02 1.57.77.77.9.93.9 1.15 0 .38-.32.58-1.18.58-.8-.03-1.02.06-1.44.45-.67.64-1.44 1.25-2.46 1.86-.13.1-.35-.1-.29-.22.45-.9.93-2.02 1.31-3.17h-20.45Zm-2.79 9.03c2.27-1.38 4.19-3.14 5.57-4.93.7-.93 1.25-1.82 1.6-2.69 2.08.86 3.01 1.34 3.01 1.66 0 .35-.35.48-1.25.51-2.43 2.69-5.12 4.64-8.7 5.92-.22.06-.42-.35-.22-.48Zm18.53 4.89c.22-.26.38-.45.54-.61-.35-.22-.67-.48-.99-.74-1.79-1.44-3.3-3.07-4.93-5.73-1.76 2.62-4.06 4.83-6.69 6.62.29.16.48.29.74.45h11.33Zm0 .8h-11.58v6.88h11.58v-6.88Zm2.62-7.07c-1.44-1.98-3.49-3.94-5.86-5.47-.16-.1-.03-.48.16-.42 5.28 1.57 8.26 3.74 8.26 5.79 0 .77-.45 1.31-1.09 1.31-.48 0-.83-.29-1.47-1.22Z" style="stroke-width:0;fill:#fff"/><image width="2048" height="1024" transform="matrix(-.55 0 0 .55 1420.39 0)" xlink:href="../../../../../Downloads/240322_fishinterior/Links/feat_03.jpg" style="clip-path:url(#a)"/></svg>