<svg xmlns="http://www.w3.org/2000/svg" viewBox="0 0 53.33 54.74"><path d="M15.37 26.97a1.74 1.74 0 0 1-1.18-.67 1.76 1.76 0 0 1-.1-2.05l2.61-4.09c.53-.84 1.2-1.57 1.98-2.19l12.49-9.8-.2-.25c-.92-1.17-.71-2.87.46-3.79l.14-.11c.57-.44 1.27-.64 1.99-.56s1.36.45 1.8 1.01l.2.25L40.55.8c.79-.62 1.78-.9 2.78-.78s1.89.62 2.52 1.42c1.29 1.64 1 4.01-.64 5.3l-4.99 3.92.2.25c.92 1.17.71 2.87-.46 3.79l-.14.11c-.57.45-1.27.64-1.99.56s-1.36-.45-1.8-1.01l-.2-.25-12.49 9.8c-.78.61-1.66 1.09-2.6 1.41l-4.59 1.57c-.25.09-.52.11-.79.08Zm.6 6.51c0 2.05-1.42 3.71-3.18 3.71s-3.18-1.66-3.18-3.71 3.18-5.93 3.18-5.93 3.18 3.88 3.18 5.93Zm35.27 5.99H2.09c-1.15 0-2.09.94-2.09 2.09v11.09c0 1.15.94 2.09 2.09 2.09h49.15c1.15 0 2.09-.94 2.09-2.09V41.56c0-1.15-.94-2.09-2.09-2.09ZM16.85 48.8c0 .87-.71 1.58-1.58 1.58H6.06c-.87 0-1.58-.71-1.58-1.58v-3.39c0-.87.71-1.58 1.58-1.58h9.2c.87 0 1.58.71 1.58 1.58v3.39Zm13.38.25c0 .73-.59 1.33-1.33 1.33h-3.6c-.78 0-1.34-.56-1.34-1.25v-3.97c0-.73.59-1.32 1.32-1.32h3.61c.74 0 1.34.6 1.34 1.34v3.88Zm17.52.08c0 .69-.56 1.25-1.17 1.25H34.14c-.7 0-1.27-.57-1.27-1.27l-.03-4.01c0-.7.57-1.27 1.27-1.27h12.33c.72 0 1.31.59 1.31 1.31v3.98Z" style="fill:#1476cb;stroke-width:0"/></svg>