<?xml version="1.0" encoding="UTF-8"?><svg id="_レイヤー_2" xmlns="http://www.w3.org/2000/svg" viewBox="0 0 110 75.96"><defs><style>.cls-1{fill:#1476cb;stroke-width:0px;}</style></defs><g id="_レイヤー_1-2"><path class="cls-1" d="M101.72,40.23l8.2-21.19c.18-.47.03-1.01-.37-1.31-.4-.31-.96-.31-1.36-.01l-21.29,15.7c-4.58-.54-9.54-11.49-31.35-16.92l6.37-.91c1.02-.14,1.91-.74,2.44-1.62.53-.88.63-1.95.28-2.91l-3.21-8.82c-.39-1.08-1.3-1.89-2.41-2.15s-2.29.05-3.12.83l-14.59,13.74C17.7,15.18,0,34.18,0,40.23c.8,5.07,10.5,16.73,25.19,22.4,1.53-2.14,2.77-4.21,3.76-6.18,2.89-5.76,3.7-10.72,3.7-14.12,0-1.37-.13-2.49-.31-3.28-.28-1.3.55-2.57,1.85-2.85,1.3-.28,2.57.55,2.85,1.85.25,1.17.41,2.6.41,4.28,0,4.16-.98,9.84-4.21,16.28-.91,1.81-2,3.68-3.29,5.59,5.05,1.38,10.57,2,16.43,1.44l4.35,8.48c.44.86,1.22,1.49,2.16,1.74.93.25,1.93.09,2.74-.44l3.32-2.17c.92-.6,1.48-1.59,1.54-2.68.05-1.09-.42-2.14-1.27-2.82l-4.45-3.58c22.47-5.36,27.49-16.56,32.12-17.11l21.29,15.7c.41.3.96.3,1.36-.01.4-.31.55-.84.37-1.31l-8.2-21.19ZM16.42,41.84c-1.99,0-3.61-1.62-3.61-3.61s1.61-3.61,3.61-3.61,3.61,1.61,3.61,3.61-1.61,3.61-3.61,3.61Z"/></g></svg>