<?xml version="1.0" encoding="UTF-8"?><svg id="_レイヤー_2" xmlns="http://www.w3.org/2000/svg" viewBox="0 0 61.24 46.13"><defs><style>.cls-1{fill:#1476cb;stroke-width:0px;}.cls-2{fill:none;stroke:#1476cb;stroke-linecap:round;stroke-linejoin:round;stroke-width:4.37px;}</style></defs><g id="_レイヤー_1-2"><path class="cls-1" d="M7.41,33.73h46.42c1.77,0,3.21-1.44,3.21-3.21V3.21c0-1.77-1.44-3.21-3.21-3.21H7.41c-1.77,0-3.21,1.44-3.21,3.21v27.32c0,1.77,1.44,3.21,3.21,3.21ZM9.1,4.31h43.03v24.36H9.1V4.31Z"/><path class="cls-1" d="M60.76,42.63l-5.72-5.08c-.37-.33-.9-.51-1.46-.51H7.65c-.56,0-1.09.19-1.46.51L.47,42.63c-.31.27-.47.62-.47.98v1.77c0,.41.43.75.96.75h59.31c.53,0,.96-.33.96-.75v-1.77c0-.36-.17-.71-.47-.98ZM24.06,43.23l1.66-2.24h10.49l1.65,2.24h-13.8Z"/><polyline class="cls-2" points="20.12 14.32 28.13 22.33 40.33 10.13"/></g></svg>