<?xml version="1.0" encoding="UTF-8"?><svg id="_レイヤー_2" xmlns="http://www.w3.org/2000/svg" viewBox="0 0 52.94 50.52"><defs><style>.cls-1{fill:#1476cb;stroke-width:0px;}</style></defs><g id="_レイヤー_1-2"><path class="cls-1" d="M52.01,16.81l-2.06-2.06c-1.25-1.25-3.27-1.25-4.51,0l-1.92,1.92,6.57,6.57,1.92-1.92c1.25-1.25,1.25-3.27,0-4.52Z"/><path class="cls-1" d="M25.49,35.71v4.09c0,.81.66,1.47,1.47,1.47h4.28c.52,0,1.02-.21,1.39-.58l15.65-15.65-6.57-6.57-15.51,15.51c-.46.46-.71,1.08-.71,1.72Z"/><path class="cls-1" d="M22.4,41.96v-7.53c0-.65.26-1.27.71-1.72l15.72-15.72V4.07c0-2.25-1.82-4.07-4.07-4.07H4.07C1.82,0,0,1.82,0,4.07v42.37c0,2.25,1.82,4.07,4.07,4.07h30.69c2.25,0,4.07-1.82,4.07-4.07v-7.57l-4.91,4.91c-.37.37-.87.58-1.39.58h-7.73c-1.33,0-2.4-1.07-2.4-2.4ZM9.62,12.37h15.46c.85,0,1.55.69,1.55,1.55h0c0,.85-.69,1.55-1.55,1.55h-15.46c-.85,0-1.55-.69-1.55-1.55h0c0-.85.69-1.55,1.55-1.55ZM9.62,23.71h15.46c.85,0,1.55.69,1.55,1.55h0c0,.85-.69,1.55-1.55,1.55h-15.46c-.85,0-1.55-.69-1.55-1.55h0c0-.85.69-1.55,1.55-1.55ZM17.87,38.15h-8.25c-.85,0-1.55-.69-1.55-1.55h0c0-.85.69-1.55,1.55-1.55h8.25c.85,0,1.55.69,1.55,1.55h0c0,.85-.69,1.55-1.55,1.55Z"/></g></svg>