<svg id="_レイヤー_2" xmlns="http://www.w3.org/2000/svg" viewBox="0 0 37.46 41.09"><defs><style>.cls-1{fill:#fff;stroke-width:0}</style></defs><g id="_レイヤー_1-2"><path class="cls-1" d="M6.68 37.3a4.2 4.2 0 0 1-4.2-4.2V12.48h6.5c1.94 0 3.5-1.56 3.5-3.5V2.47H25.7a4.2 4.2 0 0 1 4.2 4.2v9.99a11.935 11.935 0 0 1 2.47 2V6.68C32.37 2.99 29.38 0 25.7 0H11.46l-.73.72L.72 10.73l-.72.73V33.1c0 3.68 3 6.68 6.68 6.68h14.24s-2.43-2.1-3.1-2.47H6.68Z"/><path class="cls-1" d="M36.75 37.29s-2.94-2.57-3.64-3.27c-1.03-1.03-1.44-1.52-1.08-2.36a8.721 8.721 0 0 0-1.66-9.99c-3.4-3.4-8.91-3.4-12.31 0-3.4 3.4-3.4 8.91 0 12.31 2.7 2.7 6.74 3.25 9.99 1.66.84-.36 1.33.05 2.36 1.08.7.7 3.27 3.64 3.27 3.64 1.33 1.33 2.36.51 2.98-.1.61-.62 1.43-1.64.1-2.97Zm-8.98-5.9a5.04 5.04 0 0 1-7.13 0 5.04 5.04 0 0 1 0-7.13 5.04 5.04 0 0 1 7.13 0 5.04 5.04 0 0 1 0 7.13Z"/></g></svg>