<?xml version="1.0" encoding="UTF-8"?><svg id="_レイヤー_2" xmlns="http://www.w3.org/2000/svg" viewBox="0 0 181.04 51.82"><defs><style>.cls-1{stroke-width:0px;}.cls-1,.cls-2{fill:#0c86e1;}.cls-2{font-family:Helvetica-Bold, Helvetica;font-size:14.97px;font-weight:700;letter-spacing:.04em;}</style></defs><g id="_レイヤー_1-2"><path class="cls-1" d="M3.85,8.69v3.34h4.88v2.16H3.85v6.12H1.04V6.5h8.84v2.19H3.85Z"/><path class="cls-1" d="M12.36,20.31V6.5h2.81v13.81h-2.81Z"/><path class="cls-1" d="M22.97,20.59c-2.3,0-3.96-.9-4.9-1.73l.64-2.21c.92.87,2.37,1.86,4.26,1.86,1.38,0,2.44-.69,2.44-1.91,0-1.15-.64-1.75-2.9-2.3-2.9-.71-4.05-2.26-4.05-4.24,0-2.26,1.8-3.89,4.76-3.89,1.7,0,3.22.64,4.14,1.36l-.6,1.96c-.97-.64-2.35-1.2-3.57-1.2-1.36,0-2.16.6-2.16,1.59,0,.81.48,1.43,2.37,1.89,3.22.81,4.6,2.16,4.6,4.56,0,2.97-2.44,4.26-5.04,4.26Z"/><path class="cls-1" d="M40.35,20.31v-6.1h-6.51v6.1h-2.81V6.5h2.81v5.34h6.51v-5.34h2.81v13.81h-2.81Z"/><path class="cls-1" d="M84.01,20.29V6.48h2.81v13.81h-2.81Z"/><path class="cls-1" d="M100.28,20.29l-7.23-9.12v9.12h-2.51V6.48h1.96l7.23,9.12V6.48h2.51v13.81h-1.96Z"/><path class="cls-1" d="M112.18,8.67v11.62h-2.81v-11.62h-4.67v-2.19h12.15v2.19h-4.67Z"/><path class="cls-1" d="M119.31,20.29V6.48h9v2.19h-6.19v3.25h5.04v2.19h-5.04v4.01h6.19v2.19h-9Z"/><path class="cls-1" d="M143.06,20.29h-3.08l-3.82-5.5h-1.73v5.5h-2.81V6.48h5.43c3.27,0,4.67,1.93,4.67,4.17,0,1.86-.99,3.34-2.76,3.84l4.1,5.8ZM134.43,12.81h2.16c1.75,0,2.37-.92,2.37-2.14s-.62-2.19-2.37-2.19h-2.16v4.33Z"/><path class="cls-1" d="M145.66,20.29V6.48h2.81v13.81h-2.81Z"/><path class="cls-1" d="M159.06,20.68c-4.24,0-7.53-3.06-7.53-7.3s3.29-7.3,7.53-7.3,7.46,3.06,7.46,7.3-3.25,7.3-7.46,7.3ZM159.06,8.32c-2.76,0-4.58,2.07-4.58,5.06s1.82,5.06,4.58,5.06,4.51-2.07,4.51-5.06-1.8-5.06-4.51-5.06Z"/><path class="cls-1" d="M181.04,20.29h-3.08l-3.82-5.5h-1.73v5.5h-2.81V6.48h5.43c3.27,0,4.67,1.93,4.67,4.17,0,1.86-.99,3.34-2.76,3.84l4.1,5.8ZM172.41,12.81h2.16c1.75,0,2.37-.92,2.37-2.14s-.62-2.19-2.37-2.19h-2.16v4.33Z"/><path class="cls-1" d="M57.05,14.16c-.06,0-.11.05-.11.11s.05.11.11.11.11-.05.11-.11-.05-.11-.11-.11Z"/><path class="cls-1" d="M55.97,14.16c-.06,0-.11.05-.11.11s.05.11.11.11.11-.05.11-.11-.05-.11-.11-.11Z"/><path class="cls-1" d="M55.43,14.7c-.06,0-.11.05-.11.11s.05.11.11.11.11-.05.11-.11-.05-.11-.11-.11Z"/><path class="cls-1" d="M56.51,14.7c-.06,0-.11.05-.11.11s.05.11.11.11.11-.05.11-.11-.05-.11-.11-.11Z"/><path class="cls-1" d="M56.51,13.62c-.06,0-.11.05-.11.11s.05.11.11.11.11-.05.11-.11-.05-.11-.11-.11Z"/><path class="cls-1" d="M57.05,17.41c-.06,0-.11.05-.11.11s.05.11.11.11.11-.05.11-.11-.05-.11-.11-.11Z"/><path class="cls-1" d="M55.97,17.41c-.06,0-.11.05-.11.11s.05.11.11.11.11-.05.11-.11-.05-.11-.11-.11Z"/><path class="cls-1" d="M57.05,16.33c-.06,0-.11.05-.11.11s.05.11.11.11.11-.05.11-.11-.05-.11-.11-.11Z"/><path class="cls-1" d="M55.97,16.33c-.06,0-.11.05-.11.11s.05.11.11.11.11-.05.11-.11-.05-.11-.11-.11Z"/><path class="cls-1" d="M55.43,16.87c-.06,0-.11.05-.11.11s.05.11.11.11.11-.05.11-.11-.05-.11-.11-.11Z"/><path class="cls-1" d="M56.51,16.87c-.06,0-.11.05-.11.11s.05.11.11.11.11-.05.11-.11-.05-.11-.11-.11Z"/><path class="cls-1" d="M55.43,15.79c-.06,0-.11.05-.11.11s.05.11.11.11.11-.05.11-.11-.05-.11-.11-.11Z"/><path class="cls-1" d="M56.51,15.79c-.06,0-.11.05-.11.11s.05.11.11.11.11-.05.11-.11-.05-.11-.11-.11Z"/><path class="cls-1" d="M57.05,15.24c-.06,0-.11.05-.11.11s.05.11.11.11.11-.05.11-.11-.05-.11-.11-.11Z"/><path class="cls-1" d="M55.97,15.24c-.06,0-.11.05-.11.11s.05.11.11.11.11-.05.11-.11-.05-.11-.11-.11Z"/><path class="cls-1" d="M55.43,17.95c-.06,0-.11.05-.11.11s.05.11.11.11.11-.05.11-.11-.05-.11-.11-.11Z"/><path class="cls-1" d="M56.51,17.95c-.06,0-.11.05-.11.11s.05.11.11.11.11-.05.11-.11-.05-.11-.11-.11Z"/><path class="cls-1" d="M54.89,17.41c-.06,0-.11.05-.11.11s.05.11.11.11.11-.05.11-.11-.05-.11-.11-.11Z"/><path class="cls-1" d="M54.89,16.33c-.06,0-.11.05-.11.11s.05.11.11.11.11-.05.11-.11-.05-.11-.11-.11Z"/><path class="cls-1" d="M53.81,16.33c-.06,0-.11.05-.11.11s.05.11.11.11.11-.05.11-.11-.05-.11-.11-.11Z"/><path class="cls-1" d="M53.27,16.87c-.06,0-.11.05-.11.11s.05.11.11.11.11-.05.11-.11-.05-.11-.11-.11Z"/><path class="cls-1" d="M54.35,16.87c-.06,0-.11.05-.11.11s.05.11.11.11.11-.05.11-.11-.05-.11-.11-.11Z"/><path class="cls-1" d="M54.35,15.79c-.06,0-.11.05-.11.11s.05.11.11.11.11-.05.11-.11-.05-.11-.11-.11Z"/><path class="cls-1" d="M54.89,15.24c-.06,0-.11.05-.11.11s.05.11.11.11.11-.05.11-.11-.05-.11-.11-.11Z"/><path class="cls-1" d="M54.35,17.95c-.06,0-.11.05-.11.11s.05.11.11.11.11-.05.11-.11-.05-.11-.11-.11Z"/><path class="cls-1" d="M53.81,17.41c-.06,0-.11.05-.11.11s.05.11.11.11.11-.05.11-.11-.05-.11-.11-.11Z"/><path class="cls-1" d="M55.59,4.31c.47.39.64.54,1.05.76-.05.01-.08.05-.08.1,0,.06.05.11.11.11s.11-.05.11-.11c0-.01,0-.02-.01-.04.16.08.34.17.59.29.96.46.9-1.42.77-1.93-.05-.17-.14-.32-.28-.45,0-.01.02-.02.02-.04,0-.06-.05-.11-.11-.11-.03,0-.05.01-.07.03-.28-.17-.69-.25-1.25-.19-.3.03-.55.14-.74.27,0,0,0,0,0,0,0-.06-.05-.11-.11-.11s-.11.05-.11.11c0,.05.04.09.09.1-.36.34-.41.84.03,1.2ZM56.46,3.08c.3,0,.54.24.54.54s-.24.54-.54.54-.54-.24-.54-.54.24-.54.54-.54Z"/><path class="cls-1" d="M61.53,1.5c.06,0,.11-.05.11-.11s-.05-.11-.11-.11-.11.05-.11.11.05.11.11.11Z"/><path class="cls-1" d="M62.07,3.12c.06,0,.11-.05.11-.11s-.05-.11-.11-.11-.11.05-.11.11.05.11.11.11Z"/><path class="cls-1" d="M61.53,3.66c.06,0,.11-.05.11-.11s-.05-.11-.11-.11-.11.05-.11.11.05.11.11.11Z"/><path class="cls-1" d="M61.53,2.58c.06,0,.11-.05.11-.11s-.05-.11-.11-.11-.11.05-.11.11.05.11.11.11Z"/><path class="cls-1" d="M62.07,2.04c.06,0,.11-.05.11-.11s-.05-.11-.11-.11-.11.05-.11.11.05.11.11.11Z"/><path class="cls-1" d="M61.53,4.74c.06,0,.11-.05.11-.11s-.05-.11-.11-.11-.11.05-.11.11.05.11.11.11Z"/><path class="cls-1" d="M59.36,1.5c.06,0,.11-.05.11-.11s-.05-.11-.11-.11-.11.05-.11.11.05.11.11.11Z"/><path class="cls-1" d="M60.44,1.5c.06,0,.11-.05.11-.11s-.05-.11-.11-.11-.11.05-.11.11.05.11.11.11Z"/><path class="cls-1" d="M60.99,3.12c.06,0,.11-.05.11-.11s-.05-.11-.11-.11-.11.05-.11.11.05.11.11.11Z"/><path class="cls-1" d="M59.9,3.12c.06,0,.11-.05.11-.11s-.05-.11-.11-.11-.11.05-.11.11.05.11.11.11Z"/><path class="cls-1" d="M59.36,3.66c.06,0,.11-.05.11-.11s-.05-.11-.11-.11-.11.05-.11.11.05.11.11.11Z"/><path class="cls-1" d="M60.44,3.66c.06,0,.11-.05.11-.11s-.05-.11-.11-.11-.11.05-.11.11.05.11.11.11Z"/><path class="cls-1" d="M59.36,2.58c.06,0,.11-.05.11-.11s-.05-.11-.11-.11-.11.05-.11.11.05.11.11.11Z"/><path class="cls-1" d="M60.44,2.58c.06,0,.11-.05.11-.11s-.05-.11-.11-.11-.11.05-.11.11.05.11.11.11Z"/><path class="cls-1" d="M60.99,2.04c.06,0,.11-.05.11-.11s-.05-.11-.11-.11-.11.05-.11.11.05.11.11.11Z"/><path class="cls-1" d="M59.9,2.04c.06,0,.11-.05.11-.11s-.05-.11-.11-.11-.11.05-.11.11.05.11.11.11Z"/><path class="cls-1" d="M60.99,5.28c.06,0,.11-.05.11-.11s-.05-.11-.11-.11-.11.05-.11.11.05.11.11.11Z"/><path class="cls-1" d="M59.9,5.28c.06,0,.11-.05.11-.11s-.05-.11-.11-.11-.11.05-.11.11.05.11.11.11Z"/><path class="cls-1" d="M59.36,5.82c.06,0,.11-.05.11-.11s-.05-.11-.11-.11-.11.05-.11.11.05.11.11.11Z"/><path class="cls-1" d="M60.44,5.82c.06,0,.11-.05.11-.11s-.05-.11-.11-.11-.11.05-.11.11.05.11.11.11Z"/><path class="cls-1" d="M59.36,4.74c.06,0,.11-.05.11-.11s-.05-.11-.11-.11-.11.05-.11.11.05.11.11.11Z"/><path class="cls-1" d="M60.44,4.74c.06,0,.11-.05.11-.11s-.05-.11-.11-.11-.11.05-.11.11.05.11.11.11Z"/><path class="cls-1" d="M60.99,4.2c.06,0,.11-.05.11-.11s-.05-.11-.11-.11-.11.05-.11.11.05.11.11.11Z"/><path class="cls-1" d="M59.9,4.2c.06,0,.11-.05.11-.11s-.05-.11-.11-.11-.11.05-.11.11.05.11.11.11Z"/><path class="cls-1" d="M58.82.96c.06,0,.11-.05.11-.11s-.05-.11-.11-.11-.11.05-.11.11.05.11.11.11Z"/><path class="cls-1" d="M57.74.96c.06,0,.11-.05.11-.11s-.05-.11-.11-.11-.11.05-.11.11.05.11.11.11Z"/><path class="cls-1" d="M57.2,1.5c.06,0,.11-.05.11-.11s-.05-.11-.11-.11-.11.05-.11.11.05.11.11.11Z"/><path class="cls-1" d="M58.28,1.5c.06,0,.11-.05.11-.11s-.05-.11-.11-.11-.11.05-.11.11.05.11.11.11Z"/><path class="cls-1" d="M57.74,7.23c-.06,0-.11.05-.11.11s.05.11.11.11.11-.05.11-.11-.05-.11-.11-.11Z"/><path class="cls-1" d="M57.2,7.77c-.06,0-.11.05-.11.11s.05.11.11.11.11-.05.11-.11-.05-.11-.11-.11Z"/><path class="cls-1" d="M58.28,7.77c-.06,0-.11.05-.11.11s.05.11.11.11.11-.05.11-.11-.05-.11-.11-.11Z"/><path class="cls-1" d="M57.2,6.69c-.06,0-.11.05-.11.11s.05.11.11.11.11-.05.11-.11-.05-.11-.11-.11Z"/><path class="cls-1" d="M58.28,6.69c-.06,0-.11.05-.11.11s.05.11.11.11.11-.05.11-.11-.05-.11-.11-.11Z"/><path class="cls-1" d="M57.2,8.85c-.06,0-.11.05-.11.11s.05.11.11.11.11-.05.11-.11-.05-.11-.11-.11Z"/><path class="cls-1" d="M57.74,8.31c-.06,0-.11.05-.11.11s.05.11.11.11.11-.05.11-.11-.05-.11-.11-.11Z"/><path class="cls-1" d="M56.66.96c.06,0,.11-.05.11-.11s-.05-.11-.11-.11-.11.05-.11.11.05.11.11.11Z"/><path class="cls-1" d="M55.58.96c.06,0,.11-.05.11-.11s-.05-.11-.11-.11-.11.05-.11.11.05.11.11.11Z"/><path class="cls-1" d="M55.04,1.5c.06,0,.11-.05.11-.11s-.05-.11-.11-.11-.11.05-.11.11.05.11.11.11Z"/><path class="cls-1" d="M56.12,1.5c.06,0,.11-.05.11-.11s-.05-.11-.11-.11-.11.05-.11.11.05.11.11.11Z"/><path class="cls-1" d="M56.66,7.23c-.06,0-.11.05-.11.11s.05.11.11.11.11-.05.11-.11-.05-.11-.11-.11Z"/><path class="cls-1" d="M55.58,7.23c-.06,0-.11.05-.11.11s.05.11.11.11.11-.05.11-.11-.05-.11-.11-.11Z"/><path class="cls-1" d="M55.04,7.98c.06,0,.11-.05.11-.11s-.05-.11-.11-.11-.11.05-.11.11.05.11.11.11Z"/><path class="cls-1" d="M56.12,7.77c-.06,0-.11.05-.11.11s.05.11.11.11.11-.05.11-.11-.05-.11-.11-.11Z"/><path class="cls-1" d="M55.04,6.9c.06,0,.11-.05.11-.11s-.05-.11-.11-.11-.11.05-.11.11.05.11.11.11Z"/><path class="cls-1" d="M56.12,6.69c-.06,0-.11.05-.11.11s.05.11.11.11.11-.05.11-.11-.05-.11-.11-.11Z"/><path class="cls-1" d="M56.66,9.39c-.06,0-.11.05-.11.11s.05.11.11.11.11-.05.11-.11-.05-.11-.11-.11Z"/><path class="cls-1" d="M55.58,9.39c-.06,0-.11.05-.11.11s.05.11.11.11.11-.05.11-.11-.05-.11-.11-.11Z"/><path class="cls-1" d="M55.04,10.15c.06,0,.11-.05.11-.11s-.05-.11-.11-.11-.11.05-.11.11.05.11.11.11Z"/><path class="cls-1" d="M55.04,9.07c.06,0,.11-.05.11-.11s-.05-.11-.11-.11-.11.05-.11.11.05.11.11.11Z"/><path class="cls-1" d="M56.12,8.85c-.06,0-.11.05-.11.11s.05.11.11.11.11-.05.11-.11-.05-.11-.11-.11Z"/><path class="cls-1" d="M56.66,8.31c-.06,0-.11.05-.11.11s.05.11.11.11.11-.05.11-.11-.05-.11-.11-.11Z"/><path class="cls-1" d="M55.58,8.31c-.06,0-.11.05-.11.11s.05.11.11.11.11-.05.11-.11-.05-.11-.11-.11Z"/><path class="cls-1" d="M54.5.96c.06,0,.11-.05.11-.11s-.05-.11-.11-.11-.11.05-.11.11.05.11.11.11Z"/><path class="cls-1" d="M53.42.74c-.06,0-.11.05-.11.11s.05.11.11.11.11-.05.11-.11-.05-.11-.11-.11Z"/><path class="cls-1" d="M52.88,1.28c-.06,0-.11.05-.11.11s.05.11.11.11.11-.05.11-.11-.05-.11-.11-.11Z"/><path class="cls-1" d="M53.96,1.5c.06,0,.11-.05.11-.11s-.05-.11-.11-.11-.11.05-.11.11.05.11.11.11Z"/><path class="cls-1" d="M53.42,2.91c-.06,0-.11.05-.11.11s.05.11.11.11.11-.05.11-.11-.05-.11-.11-.11Z"/><path class="cls-1" d="M52.88,3.45c-.06,0-.11.05-.11.11s.05.11.11.11.11-.05.11-.11-.05-.11-.11-.11Z"/><path class="cls-1" d="M53.96,3.66c.06,0,.11-.05.11-.11s-.05-.11-.11-.11-.11.05-.11.11.05.11.11.11Z"/><path class="cls-1" d="M52.88,2.36c-.06,0-.11.05-.11.11s.05.11.11.11.11-.05.11-.11-.05-.11-.11-.11Z"/><path class="cls-1" d="M53.96,2.58c.06,0,.11-.05.11-.11s-.05-.11-.11-.11-.11.05-.11.11.05.11.11.11Z"/><path class="cls-1" d="M53.42,1.82c-.06,0-.11.05-.11.11s.05.11.11.11.11-.05.11-.11-.05-.11-.11-.11Z"/><path class="cls-1" d="M53.42,5.07c-.06,0-.11.05-.11.11s.05.11.11.11.11-.05.11-.11-.05-.11-.11-.11Z"/><path class="cls-1" d="M52.88,5.61c-.06,0-.11.05-.11.11s.05.11.11.11.11-.05.11-.11-.05-.11-.11-.11Z"/><path class="cls-1" d="M53.96,5.82c.06,0,.11-.05.11-.11s-.05-.11-.11-.11-.11.05-.11.11.05.11.11.11Z"/><path class="cls-1" d="M53.96,4.74c.06,0,.11-.05.11-.11s-.05-.11-.11-.11-.11.05-.11.11.05.11.11.11Z"/><path class="cls-1" d="M53.42,3.99c-.06,0-.11.05-.11.11s.05.11.11.11.11-.05.11-.11-.05-.11-.11-.11Z"/><path class="cls-1" d="M54.5,7.44c.06,0,.11-.05.11-.11s-.05-.11-.11-.11-.11.05-.11.11.05.11.11.11Z"/><path class="cls-1" d="M53.42,7.23c-.06,0-.11.05-.11.11s.05.11.11.11.11-.05.11-.11-.05-.11-.11-.11Z"/><path class="cls-1" d="M52.88,7.77c-.06,0-.11.05-.11.11s.05.11.11.11.11-.05.11-.11-.05-.11-.11-.11Z"/><path class="cls-1" d="M53.96,7.98c.06,0,.11-.05.11-.11s-.05-.11-.11-.11-.11.05-.11.11.05.11.11.11Z"/><path class="cls-1" d="M52.88,6.69c-.06,0-.11.05-.11.11s.05.11.11.11.11-.05.11-.11-.05-.11-.11-.11Z"/><path class="cls-1" d="M53.96,6.9c.06,0,.11-.05.11-.11s-.05-.11-.11-.11-.11.05-.11.11.05.11.11.11Z"/><path class="cls-1" d="M53.42,6.15c-.06,0-.11.05-.11.11s.05.11.11.11.11-.05.11-.11-.05-.11-.11-.11Z"/><path class="cls-1" d="M54.5,9.61c.06,0,.11-.05.11-.11s-.05-.11-.11-.11-.11.05-.11.11.05.11.11.11Z"/><path class="cls-1" d="M53.42,9.39c-.06,0-.11.05-.11.11s.05.11.11.11.11-.05.11-.11-.05-.11-.11-.11Z"/><path class="cls-1" d="M52.88,9.93c-.06,0-.11.05-.11.11s.05.11.11.11.11-.05.11-.11-.05-.11-.11-.11Z"/><path class="cls-1" d="M53.96,10.15c.06,0,.11-.05.11-.11s-.05-.11-.11-.11-.11.05-.11.11.05.11.11.11Z"/><path class="cls-1" d="M52.88,8.85c-.06,0-.11.05-.11.11s.05.11.11.11.11-.05.11-.11-.05-.11-.11-.11Z"/><path class="cls-1" d="M53.96,9.07c.06,0,.11-.05.11-.11s-.05-.11-.11-.11-.11.05-.11.11.05.11.11.11Z"/><path class="cls-1" d="M54.5,8.53c.06,0,.11-.05.11-.11s-.05-.11-.11-.11-.11.05-.11.11.05.11.11.11Z"/><path class="cls-1" d="M53.42,8.31c-.06,0-.11.05-.11.11s.05.11.11.11.11-.05.11-.11-.05-.11-.11-.11Z"/><path class="cls-1" d="M54.5,10.69c.06,0,.11-.05.11-.11s-.05-.11-.11-.11-.11.05-.11.11.05.11.11.11Z"/><path class="cls-1" d="M53.42,10.47c-.06,0-.11.05-.11.11s.05.11.11.11.11-.05.11-.11-.05-.11-.11-.11Z"/><path class="cls-1" d="M52.34,1.82c-.06,0-.11.05-.11.11s.05.11.11.11.11-.05.11-.11-.05-.11-.11-.11Z"/><path class="cls-1" d="M50.72,5.61c-.06,0-.11.05-.11.11s.05.11.11.11.11-.05.11-.11-.05-.11-.11-.11Z"/><path class="cls-1" d="M51.8,5.61c-.06,0-.11.05-.11.11s.05.11.11.11.11-.05.11-.11-.05-.11-.11-.11Z"/><path class="cls-1" d="M52.34,7.23c-.06,0-.11.05-.11.11s.05.11.11.11.11-.05.11-.11-.05-.11-.11-.11Z"/><path class="cls-1" d="M51.26,7.23c-.06,0-.11.05-.11.11s.05.11.11.11.11-.05.11-.11-.05-.11-.11-.11Z"/><path class="cls-1" d="M50.72,7.77c-.06,0-.11.05-.11.11s.05.11.11.11.11-.05.11-.11-.05-.11-.11-.11Z"/><path class="cls-1" d="M51.8,7.77c-.06,0-.11.05-.11.11s.05.11.11.11.11-.05.11-.11-.05-.11-.11-.11Z"/><path class="cls-1" d="M50.72,6.69c-.06,0-.11.05-.11.11s.05.11.11.11.11-.05.11-.11-.05-.11-.11-.11Z"/><path class="cls-1" d="M51.8,6.69c-.06,0-.11.05-.11.11s.05.11.11.11.11-.05.11-.11-.05-.11-.11-.11Z"/><path class="cls-1" d="M52.34,6.15c-.06,0-.11.05-.11.11s.05.11.11.11.11-.05.11-.11-.05-.11-.11-.11Z"/><path class="cls-1" d="M51.26,6.15c-.06,0-.11.05-.11.11s.05.11.11.11.11-.05.11-.11-.05-.11-.11-.11Z"/><path class="cls-1" d="M52.34,9.39c-.06,0-.11.05-.11.11s.05.11.11.11.11-.05.11-.11-.05-.11-.11-.11Z"/><path class="cls-1" d="M51.8,8.85c-.06,0-.11.05-.11.11s.05.11.11.11.11-.05.11-.11-.05-.11-.11-.11Z"/><path class="cls-1" d="M52.34,8.31c-.06,0-.11.05-.11.11s.05.11.11.11.11-.05.11-.11-.05-.11-.11-.11Z"/><path class="cls-1" d="M51.26,8.31c-.06,0-.11.05-.11.11s.05.11.11.11.11-.05.11-.11-.05-.11-.11-.11Z"/><path class="cls-1" d="M50.18,5.07c-.06,0-.11.05-.11.11s.05.11.11.11.11-.05.11-.11-.05-.11-.11-.11Z"/><path class="cls-1" d="M50.18,7.23c-.06,0-.11.05-.11.11s.05.11.11.11.11-.05.11-.11-.05-.11-.11-.11Z"/><path class="cls-1" d="M50.18,6.15c-.06,0-.11.05-.11.11s.05.11.11.11.11-.05.11-.11-.05-.11-.11-.11Z"/><path class="cls-1" d="M58.82,3.12c.06,0,.11-.05.11-.11s-.05-.11-.11-.11-.11.05-.11.11.05.11.11.11Z"/><path class="cls-1" d="M58.28,3.66c.06,0,.11-.05.11-.11s-.05-.11-.11-.11-.11.05-.11.11.05.11.11.11Z"/><path class="cls-1" d="M57.2,2.58c.06,0,.11-.05.11-.11s-.05-.11-.11-.11-.11.05-.11.11.05.11.11.11Z"/><path class="cls-1" d="M58.28,2.58c.06,0,.11-.05.11-.11s-.05-.11-.11-.11-.11.05-.11.11.05.11.11.11Z"/><path class="cls-1" d="M58.82,2.04c.06,0,.11-.05.11-.11s-.05-.11-.11-.11-.11.05-.11.11.05.11.11.11Z"/><path class="cls-1" d="M57.74,2.04c.06,0,.11-.05.11-.11s-.05-.11-.11-.11-.11.05-.11.11.05.11.11.11Z"/><path class="cls-1" d="M57.74,6.15c-.06,0-.11.05-.11.11s.05.11.11.11.11-.05.11-.11-.05-.11-.11-.11Z"/><path class="cls-1" d="M58.82,5.28c.06,0,.11-.05.11-.11s-.05-.11-.11-.11-.11.05-.11.11.05.11.11.11Z"/><path class="cls-1" d="M57.2,5.61c-.06,0-.11.05-.11.11s.05.11.11.11.11-.05.11-.11-.05-.11-.11-.11Z"/><path class="cls-1" d="M58.28,5.61c-.06,0-.11.05-.11.11s.05.11.11.11.11-.05.11-.11-.05-.11-.11-.11Z"/><path class="cls-1" d="M58.28,4.53c-.06,0-.11.05-.11.11s.05.11.11.11.11-.05.11-.11-.05-.11-.11-.11Z"/><path class="cls-1" d="M58.82,4.2c.06,0,.11-.05.11-.11s-.05-.11-.11-.11-.11.05-.11.11.05.11.11.11Z"/><path class="cls-1" d="M55.04,3.66c.06,0,.11-.05.11-.11s-.05-.11-.11-.11-.11.05-.11.11.05.11.11.11Z"/><path class="cls-1" d="M55.04,2.58c.06,0,.11-.05.11-.11s-.05-.11-.11-.11-.11.05-.11.11.05.11.11.11Z"/><path class="cls-1" d="M56.12,2.58c.06,0,.11-.05.11-.11s-.05-.11-.11-.11-.11.05-.11.11.05.11.11.11Z"/><path class="cls-1" d="M54.5,3.12c.06,0,.11-.05.11-.11s-.05-.11-.11-.11-.11.05-.11.11.05.11.11.11Z"/><path class="cls-1" d="M56.66,2.04c.06,0,.11-.05.11-.11s-.05-.11-.11-.11-.11.05-.11.11.05.11.11.11Z"/><path class="cls-1" d="M55.58,2.04c.06,0,.11-.05.11-.11s-.05-.11-.11-.11-.11.05-.11.11.05.11.11.11Z"/><path class="cls-1" d="M54.5,2.04c.06,0,.11-.05.11-.11s-.05-.11-.11-.11-.11.05-.11.11.05.11.11.11Z"/><path class="cls-1" d="M56.66,6.15c-.06,0-.11.05-.11.11s.05.11.11.11.11-.05.11-.11-.05-.11-.11-.11Z"/><path class="cls-1" d="M55.58,6.15c-.06,0-.11.05-.11.11s.05.11.11.11.11-.05.11-.11-.05-.11-.11-.11Z"/><path class="cls-1" d="M55.58,5.07c-.06,0-.11.05-.11.11s.05.11.11.11.11-.05.11-.11-.05-.11-.11-.11Z"/><path class="cls-1" d="M55.04,5.82c.06,0,.11-.05.11-.11s-.05-.11-.11-.11-.11.05-.11.11.05.11.11.11Z"/><path class="cls-1" d="M56.12,5.61c-.06,0-.11.05-.11.11s.05.11.11.11.11-.05.11-.11-.05-.11-.11-.11Z"/><path class="cls-1" d="M55.04,4.74c.06,0,.11-.05.11-.11s-.05-.11-.11-.11-.11.05-.11.11.05.11.11.11Z"/><path class="cls-1" d="M54.5,6.36c.06,0,.11-.05.11-.11s-.05-.11-.11-.11-.11.05-.11.11.05.11.11.11Z"/><path class="cls-1" d="M54.5,5.28c.06,0,.11-.05.11-.11s-.05-.11-.11-.11-.11.05-.11.11.05.11.11.11Z"/><path class="cls-1" d="M54.5,4.2c.06,0,.11-.05.11-.11s-.05-.11-.11-.11-.11.05-.11.11.05.11.11.11Z"/><path class="cls-1" d="M72.87,7.44c.06,0,.11-.05.11-.11s-.05-.11-.11-.11-.11.05-.11.11.05.11.11.11Z"/><path class="cls-1" d="M72.33,7.98c.06,0,.11-.05.11-.11s-.05-.11-.11-.11-.11.05-.11.11.05.11.11.11Z"/><path class="cls-1" d="M73.41,7.98c.06,0,.11-.05.11-.11s-.05-.11-.11-.11-.11.05-.11.11.05.11.11.11Z"/><path class="cls-1" d="M72.33,6.9c.06,0,.11-.05.11-.11s-.05-.11-.11-.11-.11.05-.11.11.05.11.11.11Z"/><path class="cls-1" d="M72.33,9.07c.06,0,.11-.05.11-.11s-.05-.11-.11-.11-.11.05-.11.11.05.11.11.11Z"/><path class="cls-1" d="M72.87,8.53c.06,0,.11-.05.11-.11s-.05-.11-.11-.11-.11.05-.11.11.05.11.11.11Z"/><path class="cls-1" d="M70.17,3.66c.06,0,.11-.05.11-.11s-.05-.11-.11-.11-.11.05-.11.11.05.11.11.11Z"/><path class="cls-1" d="M70.71,5.28c.06,0,.11-.05.11-.11s-.05-.11-.11-.11-.11.05-.11.11.05.11.11.11Z"/><path class="cls-1" d="M70.17,5.82c.06,0,.11-.05.11-.11s-.05-.11-.11-.11-.11.05-.11.11.05.11.11.11Z"/><path class="cls-1" d="M71.25,5.82c.06,0,.11-.05.11-.11s-.05-.11-.11-.11-.11.05-.11.11.05.11.11.11Z"/><path class="cls-1" d="M70.17,4.74c.06,0,.11-.05.11-.11s-.05-.11-.11-.11-.11.05-.11.11.05.11.11.11Z"/><path class="cls-1" d="M71.79,7.44c.06,0,.11-.05.11-.11s-.05-.11-.11-.11-.11.05-.11.11.05.11.11.11Z"/><path class="cls-1" d="M70.71,7.44c.06,0,.11-.05.11-.11s-.05-.11-.11-.11-.11.05-.11.11.05.11.11.11Z"/><path class="cls-1" d="M71.25,7.98c.06,0,.11-.05.11-.11s-.05-.11-.11-.11-.11.05-.11.11.05.11.11.11Z"/><path class="cls-1" d="M70.17,6.9c.06,0,.11-.05.11-.11s-.05-.11-.11-.11-.11.05-.11.11.05.11.11.11Z"/><path class="cls-1" d="M71.25,6.9c.06,0,.11-.05.11-.11s-.05-.11-.11-.11-.11.05-.11.11.05.11.11.11Z"/><path class="cls-1" d="M71.79,6.36c.06,0,.11-.05.11-.11s-.05-.11-.11-.11-.11.05-.11.11.05.11.11.11Z"/><path class="cls-1" d="M70.71,6.36c.06,0,.11-.05.11-.11s-.05-.11-.11-.11-.11.05-.11.11.05.11.11.11Z"/><path class="cls-1" d="M71.79,8.53c.06,0,.11-.05.11-.11s-.05-.11-.11-.11-.11.05-.11.11.05.11.11.11Z"/><path class="cls-1" d="M69.63,3.12c.06,0,.11-.05.11-.11s-.05-.11-.11-.11-.11.05-.11.11.05.11.11.11Z"/><path class="cls-1" d="M68.55,3.12c.06,0,.11-.05.11-.11s-.05-.11-.11-.11-.11.05-.11.11.05.11.11.11Z"/><path class="cls-1" d="M68.01,3.66c.06,0,.11-.05.11-.11s-.05-.11-.11-.11-.11.05-.11.11.05.11.11.11Z"/><path class="cls-1" d="M69.09,3.66c.06,0,.11-.05.11-.11s-.05-.11-.11-.11-.11.05-.11.11.05.11.11.11Z"/><path class="cls-1" d="M69.09,2.58c.06,0,.11-.05.11-.11s-.05-.11-.11-.11-.11.05-.11.11.05.11.11.11Z"/><path class="cls-1" d="M69.63,5.28c.06,0,.11-.05.11-.11s-.05-.11-.11-.11-.11.05-.11.11.05.11.11.11Z"/><path class="cls-1" d="M69.09,4.74c.06,0,.11-.05.11-.11s-.05-.11-.11-.11-.11.05-.11.11.05.11.11.11Z"/><path class="cls-1" d="M69.63,4.2c.06,0,.11-.05.11-.11s-.05-.11-.11-.11-.11.05-.11.11.05.11.11.11Z"/><path class="cls-1" d="M68.55,4.2c.06,0,.11-.05.11-.11s-.05-.11-.11-.11-.11.05-.11.11.05.11.11.11Z"/><path class="cls-1" d="M69.63,6.36c.06,0,.11-.05.11-.11s-.05-.11-.11-.11-.11.05-.11.11.05.11.11.11Z"/><path class="cls-1" d="M67.47,3.12c.06,0,.11-.05.11-.11s-.05-.11-.11-.11c-.03,0-.06.01-.08.03-.02.02-.03.05-.03.08s.01.06.03.08c.02.02.05.03.08.03Z"/><path class="cls-1" d="M66.39,2.91c-.06,0-.11.05-.11.11s.05.11.11.11.11-.05.11-.11-.05-.11-.11-.11Z"/><path class="cls-1" d="M61.53,7.77c-.06,0-.11.05-.11.11s.05.11.11.11.11-.05.11-.11-.05-.11-.11-.11Z"/><path class="cls-1" d="M62.61,7.98c.06,0,.11-.05.11-.11s-.05-.11-.11-.11-.11.05-.11.11.05.11.11.11Z"/><path class="cls-1" d="M63.15,9.61c.06,0,.11-.05.11-.11s-.05-.11-.11-.11-.11.05-.11.11.05.11.11.11Z"/><path class="cls-1" d="M62.07,9.39c-.06,0-.11.05-.11.11s.05.11.11.11.11-.05.11-.11-.05-.11-.11-.11Z"/><path class="cls-1" d="M61.53,9.93c-.06,0-.11.05-.11.11s.05.11.11.11.11-.05.11-.11-.05-.11-.11-.11Z"/><path class="cls-1" d="M62.61,10.15c.06,0,.11-.05.11-.11s-.05-.11-.11-.11-.11.05-.11.11.05.11.11.11Z"/><path class="cls-1" d="M61.53,8.85c-.06,0-.11.05-.11.11s.05.11.11.11.11-.05.11-.11-.05-.11-.11-.11Z"/><path class="cls-1" d="M62.61,9.07c.06,0,.11-.05.11-.11s-.05-.11-.11-.11-.11.05-.11.11.05.11.11.11Z"/><path class="cls-1" d="M63.15,8.53c.06,0,.11-.05.11-.11s-.05-.11-.11-.11-.11.05-.11.11.05.11.11.11Z"/><path class="cls-1" d="M62.07,8.53c.06,0,.11-.05.11-.11s-.05-.11-.11-.11-.11.05-.11.11.05.11.11.11Z"/><path class="cls-1" d="M61.53,11.01c-.06,0-.11.05-.11.11s.05.11.11.11.11-.05.11-.11-.05-.11-.11-.11Z"/><path class="cls-1" d="M62.07,10.47c-.06,0-.11.05-.11.11s.05.11.11.11.11-.05.11-.11-.05-.11-.11-.11Z"/><path class="cls-1" d="M60.99,7.23c-.06,0-.11.05-.11.11s.05.11.11.11.11-.05.11-.11-.05-.11-.11-.11Z"/><path class="cls-1" d="M60.44,7.77c-.06,0-.11.05-.11.11s.05.11.11.11.11-.05.11-.11-.05-.11-.11-.11Z"/><path class="cls-1" d="M59.36,6.9c.06,0,.11-.05.11-.11s-.05-.11-.11-.11-.11.05-.11.11.05.11.11.11Z"/><path class="cls-1" d="M58.82,7.44c.06,0,.11-.05.11-.11s-.05-.11-.11-.11-.11.05-.11.11.05.11.11.11Z"/><path class="cls-1" d="M59.9,6.36c.06,0,.11-.05.11-.11s-.05-.11-.11-.11-.11.05-.11.11.05.11.11.11Z"/><path class="cls-1" d="M58.82,6.36c.06,0,.11-.05.11-.11s-.05-.11-.11-.11-.11.05-.11.11.05.11.11.11Z"/><path class="cls-1" d="M60.99,9.39c-.06,0-.11.05-.11.11s.05.11.11.11.11-.05.11-.11-.05-.11-.11-.11Z"/><path class="cls-1" d="M60.44,9.93c-.06,0-.11.05-.11.11s.05.11.11.11.11-.05.11-.11-.05-.11-.11-.11Z"/><path class="cls-1" d="M60.44,8.85c-.06,0-.11.05-.11.11s.05.11.11.11.11-.05.11-.11-.05-.11-.11-.11Z"/><path class="cls-1" d="M60.99,8.31c-.06,0-.11.05-.11.11s.05.11.11.11.11-.05.11-.11-.05-.11-.11-.11Z"/><path class="cls-1" d="M60.44,11.01c-.06,0-.11.05-.11.11s.05.11.11.11.11-.05.11-.11-.05-.11-.11-.11Z"/><path class="cls-1" d="M60.99,10.47c-.06,0-.11.05-.11.11s.05.11.11.11.11-.05.11-.11-.05-.11-.11-.11Z"/><path class="cls-1" d="M75.03,13.93c.06,0,.11-.05.11-.11s-.05-.11-.11-.11-.11.05-.11.11.05.11.11.11Z"/><path class="cls-1" d="M74.49,14.47c.06,0,.11-.05.11-.11s-.05-.11-.11-.11-.11.05-.11.11.05.11.11.11Z"/><path class="cls-1" d="M73.95,13.93c.06,0,.11-.05.11-.11s-.05-.11-.11-.11-.11.05-.11.11.05.11.11.11Z"/><path class="cls-1" d="M73.41,14.47c.06,0,.11-.05.11-.11s-.05-.11-.11-.11-.11.05-.11.11.05.11.11.11Z"/><path class="cls-1" d="M73.41,13.39c.06,0,.11-.05.11-.11s-.05-.11-.11-.11-.11.05-.11.11.05.11.11.11Z"/><path class="cls-1" d="M73.41,15.55c.06,0,.11-.05.11-.11s-.05-.11-.11-.11-.11.05-.11.11.05.11.11.11Z"/><path class="cls-1" d="M73.95,15.01c.06,0,.11-.05.11-.11s-.05-.11-.11-.11-.11.05-.11.11.05.11.11.11Z"/><path class="cls-1" d="M63.15,20.2c-.06,0-.11.05-.11.11s.05.11.11.11.11-.05.11-.11-.05-.11-.11-.11Z"/><path class="cls-1" d="M74.39,26.25c0,.06.05.11.11.11s.11-.05.11-.11-.05-.11-.11-.11-.11.05-.11.11Z"/><path class="cls-1" d="M72.87,20.2c-.06,0-.11.05-.11.11s.05.11.11.11.11-.05.11-.11-.05-.11-.11-.11Z"/><path class="cls-1" d="M72.33,20.74c-.06,0-.11.05-.11.11s.05.11.11.11.11-.05.11-.11-.05-.11-.11-.11Z"/><path class="cls-1" d="M72.33,19.66c-.06,0-.11.05-.11.11s.05.11.11.11.11-.05.11-.11-.05-.11-.11-.11Z"/><path class="cls-1" d="M72.87,22.36c-.06,0-.11.05-.11.11s.05.11.11.11.11-.05.11-.11-.05-.11-.11-.11Z"/><path class="cls-1" d="M72.33,22.9c-.06,0-.11.05-.11.11s.05.11.11.11.11-.05.11-.11-.05-.11-.11-.11Z"/><path class="cls-1" d="M73.41,22.9c-.06,0-.11.05-.11.11s.05.11.11.11.11-.05.11-.11-.05-.11-.11-.11Z"/><path class="cls-1" d="M72.33,21.82c-.06,0-.11.05-.11.11s.05.11.11.11.11-.05.11-.11-.05-.11-.11-.11Z"/><path class="cls-1" d="M72.87,21.28c-.06,0-.11.05-.11.11s.05.11.11.11.11-.05.11-.11-.05-.11-.11-.11Z"/><path class="cls-1" d="M73.95,24.52c-.06,0-.11.05-.11.11s.05.11.11.11.11-.05.11-.11-.05-.11-.11-.11Z"/><path class="cls-1" d="M72.87,24.52c-.06,0-.11.05-.11.11s.05.11.11.11.11-.05.11-.11-.05-.11-.11-.11Z"/><path class="cls-1" d="M72.33,25.06c-.06,0-.11.05-.11.11s.05.11.11.11.11-.05.11-.11-.05-.11-.11-.11Z"/><path class="cls-1" d="M73.41,25.06c-.06,0-.11.05-.11.11s.05.11.11.11.11-.05.11-.11-.05-.11-.11-.11Z"/><path class="cls-1" d="M72.33,23.98c-.06,0-.11.05-.11.11s.05.11.11.11.11-.05.11-.11-.05-.11-.11-.11Z"/><path class="cls-1" d="M73.41,23.98c-.06,0-.11.05-.11.11s.05.11.11.11.11-.05.11-.11-.05-.11-.11-.11Z"/><path class="cls-1" d="M72.87,23.44c-.06,0-.11.05-.11.11s.05.11.11.11.11-.05.11-.11-.05-.11-.11-.11Z"/><path class="cls-1" d="M73.95,26.68c-.06,0-.11.05-.11.11s.05.11.11.11.11-.05.11-.11-.05-.11-.11-.11Z"/><path class="cls-1" d="M72.87,26.68c-.06,0-.11.05-.11.11s.05.11.11.11.11-.05.11-.11-.05-.11-.11-.11Z"/><path class="cls-1" d="M72.33,26.14c-.06,0-.11.05-.11.11s.05.11.11.11.11-.05.11-.11-.05-.11-.11-.11Z"/><path class="cls-1" d="M73.41,26.14c-.06,0-.11.05-.11.11s.05.11.11.11.11-.05.11-.11-.05-.11-.11-.11Z"/><path class="cls-1" d="M73.95,25.6c-.06,0-.11.05-.11.11s.05.11.11.11.11-.05.11-.11-.05-.11-.11-.11Z"/><path class="cls-1" d="M72.87,25.6c-.06,0-.11.05-.11.11s.05.11.11.11.11-.05.11-.11-.05-.11-.11-.11Z"/><path class="cls-1" d="M71.79,20.2c-.06,0-.11.05-.11.11s.05.11.11.11.11-.05.11-.11-.05-.11-.11-.11Z"/><path class="cls-1" d="M70.71,20.2c-.06,0-.11.05-.11.11s.05.11.11.11.11-.05.11-.11-.05-.11-.11-.11Z"/><path class="cls-1" d="M70.17,20.74c-.06,0-.11.05-.11.11s.05.11.11.11.11-.05.11-.11-.05-.11-.11-.11Z"/><path class="cls-1" d="M71.25,20.74c-.06,0-.11.05-.11.11s.05.11.11.11.11-.05.11-.11-.05-.11-.11-.11Z"/><path class="cls-1" d="M71.79,22.36c-.06,0-.11.05-.11.11s.05.11.11.11.11-.05.11-.11-.05-.11-.11-.11Z"/><path class="cls-1" d="M70.71,22.36c-.06,0-.11.05-.11.11s.05.11.11.11.11-.05.11-.11-.05-.11-.11-.11Z"/><path class="cls-1" d="M70.17,22.9c-.06,0-.11.05-.11.11s.05.11.11.11.11-.05.11-.11-.05-.11-.11-.11Z"/><path class="cls-1" d="M71.25,22.9c-.06,0-.11.05-.11.11s.05.11.11.11.11-.05.11-.11-.05-.11-.11-.11Z"/><path class="cls-1" d="M70.17,21.82c-.06,0-.11.05-.11.11s.05.11.11.11.11-.05.11-.11-.05-.11-.11-.11Z"/><path class="cls-1" d="M71.25,21.82c-.06,0-.11.05-.11.11s.05.11.11.11.11-.05.11-.11-.05-.11-.11-.11Z"/><path class="cls-1" d="M71.79,21.28c-.06,0-.11.05-.11.11s.05.11.11.11.11-.05.11-.11-.05-.11-.11-.11Z"/><path class="cls-1" d="M70.71,21.28c-.06,0-.11.05-.11.11s.05.11.11.11.11-.05.11-.11-.05-.11-.11-.11Z"/><path class="cls-1" d="M71.79,24.52c-.06,0-.11.05-.11.11s.05.11.11.11.11-.05.11-.11-.05-.11-.11-.11Z"/><path class="cls-1" d="M70.71,24.52c-.06,0-.11.05-.11.11s.05.11.11.11.11-.05.11-.11-.05-.11-.11-.11Z"/><path class="cls-1" d="M70.17,25.06c-.06,0-.11.05-.11.11s.05.11.11.11.11-.05.11-.11-.05-.11-.11-.11Z"/><path class="cls-1" d="M71.25,25.06c-.06,0-.11.05-.11.11s.05.11.11.11.11-.05.11-.11-.05-.11-.11-.11Z"/><path class="cls-1" d="M70.17,23.98c-.06,0-.11.05-.11.11s.05.11.11.11.11-.05.11-.11-.05-.11-.11-.11Z"/><path class="cls-1" d="M71.25,23.98c-.06,0-.11.05-.11.11s.05.11.11.11.11-.05.11-.11-.05-.11-.11-.11Z"/><path class="cls-1" d="M71.79,23.44c-.06,0-.11.05-.11.11s.05.11.11.11.11-.05.11-.11-.05-.11-.11-.11Z"/><path class="cls-1" d="M70.71,23.44c-.06,0-.11.05-.11.11s.05.11.11.11.11-.05.11-.11-.05-.11-.11-.11Z"/><path class="cls-1" d="M70.17,26.14c-.06,0-.11.05-.11.11s.05.11.11.11.11-.05.11-.11-.05-.11-.11-.11Z"/><path class="cls-1" d="M71.25,26.14c-.06,0-.11.05-.11.11s.05.11.11.11.11-.05.11-.11-.05-.11-.11-.11Z"/><path class="cls-1" d="M71.79,25.6c-.06,0-.11.05-.11.11s.05.11.11.11.11-.05.11-.11-.05-.11-.11-.11Z"/><path class="cls-1" d="M70.71,25.6c-.06,0-.11.05-.11.11s.05.11.11.11.11-.05.11-.11-.05-.11-.11-.11Z"/><path class="cls-1" d="M68.01,20.74c-.06,0-.11.05-.11.11s.05.11.11.11.11-.05.11-.11-.05-.11-.11-.11Z"/><path class="cls-1" d="M69.09,20.74c-.06,0-.11.05-.11.11s.05.11.11.11.11-.05.11-.11-.05-.11-.11-.11Z"/><path class="cls-1" d="M69.63,22.36c-.06,0-.11.05-.11.11s.05.11.11.11.11-.05.11-.11-.05-.11-.11-.11Z"/><path class="cls-1" d="M68.55,22.36c-.06,0-.11.05-.11.11s.05.11.11.11.11-.05.11-.11-.05-.11-.11-.11Z"/><path class="cls-1" d="M68.01,22.9c-.06,0-.11.05-.11.11s.05.11.11.11.11-.05.11-.11-.05-.11-.11-.11Z"/><path class="cls-1" d="M69.09,22.9c-.06,0-.11.05-.11.11s.05.11.11.11.11-.05.11-.11-.05-.11-.11-.11Z"/><path class="cls-1" d="M68.01,21.82c-.06,0-.11.05-.11.11s.05.11.11.11.11-.05.11-.11-.05-.11-.11-.11Z"/><path class="cls-1" d="M69.09,21.82c-.06,0-.11.05-.11.11s.05.11.11.11.11-.05.11-.11-.05-.11-.11-.11Z"/><path class="cls-1" d="M69.63,21.28c-.06,0-.11.05-.11.11s.05.11.11.11.11-.05.11-.11-.05-.11-.11-.11Z"/><path class="cls-1" d="M68.55,21.28c-.06,0-.11.05-.11.11s.05.11.11.11.11-.05.11-.11-.05-.11-.11-.11Z"/><path class="cls-1" d="M69.63,24.52c-.06,0-.11.05-.11.11s.05.11.11.11.11-.05.11-.11-.05-.11-.11-.11Z"/><path class="cls-1" d="M68.55,24.52c-.06,0-.11.05-.11.11s.05.11.11.11.11-.05.11-.11-.05-.11-.11-.11Z"/><path class="cls-1" d="M68.01,25.06c-.06,0-.11.05-.11.11s.05.11.11.11.11-.05.11-.11-.05-.11-.11-.11Z"/><path class="cls-1" d="M69.09,25.06c-.06,0-.11.05-.11.11s.05.11.11.11.11-.05.11-.11-.05-.11-.11-.11Z"/><path class="cls-1" d="M68.01,23.98c-.06,0-.11.05-.11.11s.05.11.11.11.11-.05.11-.11-.05-.11-.11-.11Z"/><path class="cls-1" d="M69.09,23.98c-.06,0-.11.05-.11.11s.05.11.11.11.11-.05.11-.11-.05-.11-.11-.11Z"/><path class="cls-1" d="M69.63,23.44c-.06,0-.11.05-.11.11s.05.11.11.11.11-.05.11-.11-.05-.11-.11-.11Z"/><path class="cls-1" d="M68.55,23.44c-.06,0-.11.05-.11.11s.05.11.11.11.11-.05.11-.11-.05-.11-.11-.11Z"/><path class="cls-1" d="M69.63,26.68c-.06,0-.11.05-.11.11s.05.11.11.11.11-.05.11-.11-.05-.11-.11-.11Z"/><path class="cls-1" d="M68.55,26.68c-.06,0-.11.05-.11.11s.05.11.11.11.11-.05.11-.11-.05-.11-.11-.11Z"/><path class="cls-1" d="M68.01,27.22c-.06,0-.11.05-.11.11s.05.11.11.11.11-.05.11-.11-.05-.11-.11-.11Z"/><path class="cls-1" d="M68.01,26.14c-.06,0-.11.05-.11.11s.05.11.11.11.11-.05.11-.11-.05-.11-.11-.11Z"/><path class="cls-1" d="M69.09,26.14c-.06,0-.11.05-.11.11s.05.11.11.11.11-.05.11-.11-.05-.11-.11-.11Z"/><path class="cls-1" d="M69.63,25.6c-.06,0-.11.05-.11.11s.05.11.11.11.11-.05.11-.11-.05-.11-.11-.11Z"/><path class="cls-1" d="M68.55,25.6c-.06,0-.11.05-.11.11s.05.11.11.11.11-.05.11-.11-.05-.11-.11-.11Z"/><path class="cls-1" d="M66.93,20.74c-.06,0-.11.05-.11.11s.05.11.11.11.11-.05.11-.11-.05-.11-.11-.11Z"/><path class="cls-1" d="M67.47,22.36s-.06.01-.08.03c-.02.02-.03.05-.03.08s.01.06.03.08c.02.02.05.03.08.03.06,0,.11-.05.11-.11s-.05-.11-.11-.11Z"/><path class="cls-1" d="M66.93,22.9c-.06,0-.11.05-.11.11s.05.11.11.11.11-.05.11-.11-.05-.11-.11-.11Z"/><path class="cls-1" d="M66.93,21.82c-.06,0-.11.05-.11.11s.05.11.11.11.11-.05.11-.11-.05-.11-.11-.11Z"/><path class="cls-1" d="M67.47,21.28s-.06.01-.08.03c-.02.02-.03.05-.03.08s.01.06.03.08c.02.02.05.03.08.03.06,0,.11-.05.11-.11s-.05-.11-.11-.11Z"/><path class="cls-1" d="M67.47,24.52s-.06.01-.08.03c-.02.02-.03.05-.03.08s.01.06.03.08c.02.02.05.03.08.03.06,0,.11-.05.11-.11s-.05-.11-.11-.11Z"/><path class="cls-1" d="M66.93,25.06c-.06,0-.11.05-.11.11s.05.11.11.11.11-.05.11-.11-.05-.11-.11-.11Z"/><path class="cls-1" d="M66.93,23.98c-.06,0-.11.05-.11.11s.05.11.11.11.11-.05.11-.11-.05-.11-.11-.11Z"/><path class="cls-1" d="M67.47,23.44s-.06.01-.08.03c-.02.02-.03.05-.03.08s.01.06.03.08c.02.02.05.03.08.03.06,0,.11-.05.11-.11s-.05-.11-.11-.11Z"/><path class="cls-1" d="M67.47,26.68s-.06.01-.08.03c-.02.02-.03.05-.03.08s.01.06.03.08c.02.02.05.03.08.03.06,0,.11-.05.11-.11s-.05-.11-.11-.11Z"/><path class="cls-1" d="M66.39,26.68c-.06,0-.11.05-.11.11s.05.11.11.11.11-.05.11-.11-.05-.11-.11-.11Z"/><path class="cls-1" d="M66.93,27.22c-.06,0-.11.05-.11.11s.05.11.11.11.11-.05.11-.11-.05-.11-.11-.11Z"/><path class="cls-1" d="M66.93,26.14c-.06,0-.11.05-.11.11s.05.11.11.11.11-.05.11-.11-.05-.11-.11-.11Z"/><path class="cls-1" d="M67.47,25.6s-.06.01-.08.03c-.02.02-.03.05-.03.08s.01.06.03.08c.02.02.05.03.08.03.06,0,.11-.05.11-.11s-.05-.11-.11-.11Z"/><path class="cls-1" d="M65.85,28.3c-.06,0-.11.05-.11.11s.05.11.11.11.11-.05.11-.11-.05-.11-.11-.11Z"/><path class="cls-1" d="M66.93,28.3c-.06,0-.11.05-.11.11s.05.11.11.11.11-.05.11-.11-.05-.11-.11-.11Z"/><path class="cls-1" d="M67.47,27.76s-.06.01-.08.03c-.02.02-.03.05-.03.08s.01.06.03.08c.02.02.05.03.08.03.06,0,.11-.05.11-.11s-.05-.11-.11-.11Z"/><path class="cls-1" d="M66.39,27.76c-.06,0-.11.05-.11.11s.05.11.11.11.11-.05.11-.11-.05-.11-.11-.11Z"/><path class="cls-1" d="M64.23,20.2c-.06,0-.11.05-.11.11s.05.11.11.11.11-.05.11-.11-.05-.11-.11-.11Z"/><path class="cls-1" d="M63.69,20.74c-.06,0-.11.05-.11.11s.05.11.11.11.11-.05.11-.11-.05-.11-.11-.11Z"/><path class="cls-1" d="M63.69,19.66c-.06,0-.11.05-.11.11s.05.11.11.11.11-.05.11-.11-.05-.11-.11-.11Z"/><path class="cls-1" d="M65.31,28.84c-.06,0-.11.05-.11.11s.05.11.11.11.11-.05.11-.11-.05-.11-.11-.11Z"/><path class="cls-1" d="M73.89,21.91c-.55-2.15-.85-3.52-.79-4.22.73-.71,2.72-2.73,2.83-3.65.1-.78-.77-.97-1.53-1.14-.53-.12-1.12-.25-1.45-.55-.12-.72-.3-1.39-.57-1.93-.08-.16-.18-.35-.29-.54.43-.16,1.24-.46,1.5-.61.35-.2.94-.53.84-1.53-.07-.7-.84-1.32-1.65-1.98-.3-.25-.62-.5-.88-.75-.36-.34-.65-1-.93-1.64-.4-.92-.78-1.78-1.44-1.78-.3,0-.62.07-.98.16-.79.18-1.87.44-3.83.21v.02c-.42-.27-.84-.52-1.27-.74-3.11-1.58-10.78-1.52-11.98-.53-.27.22-.25.46-.21.58.12.4.3.92.5,1.47.28.78.65,1.82.69,2.23-.27-.04-.88-.31-1.27-.48-1.01-.44-1.44-.6-1.71-.45-.16.09-.35.3-.4.82-.13,1.34.79,4.44,3.84,7.04l.39.33c.52.44,1.09.93,1.72,1.45-.1.13-.21.26-.33.4-.41.5-.84,1.03-1.27,1.51-.74.82-1.01,1.69-.73,2.38.28.69,1.05,1.11,2.18,1.2.16.01.32.02.46.02,1.25,0,1.92-.42,2.27-.79.37-.39.54-.9.47-1.4-.04-.3-.09-.66-.14-1.03,1.32.96,2.73,1.9,4.21,2.66.05.6.25,2.46.86,3.04.16.15.3.21.45.21.28,0,.53-.23.74-.43.33-.3.76-.7,1.52-.86.41,1.34.51,3.06.26,4.8-.1.72-.54,1.65-.92,2.48-.51,1.1-.8,1.74-.62,2.12.06.13.16.21.3.25.04.01.09.02.14.02.5,0,1.41-.57,2.88-1.53,1.14-.74,2.43-1.59,3.1-1.74.57-.13,1.23.15,1.88.42.84.35,1.79.75,2.29-.12.5-.89.16-1.77-.31-2.99-.26-.67-.55-1.43-.8-2.39ZM74.29,13.39c.84.18,1.18.31,1.15.59-.02.19-.19.49-.44.83-.04.02-.07.05-.07.09,0,0,0,0,0,0-.11.15-.23.3-.36.46-.02-.02-.05-.03-.07-.03-.06,0-.11.05-.11.11,0,.04.02.06.05.08-.12.14-.25.29-.38.44-.01-.05-.05-.09-.1-.09-.06,0-.11.05-.11.11,0,.06.04.1.1.1-.14.16-.29.32-.43.47,0-.01.01-.02.01-.03,0-.06-.05-.11-.11-.11s-.11.05-.11.11.05.11.11.11c.02,0,.03-.01.04-.02-.14.15-.28.29-.41.42.13-1.09.16-2.61,0-4.04.38.19.83.29,1.25.39ZM65.77,2.53s.05.05.08.05c.03,0,.06-.02.08-.04.33,0,.64,0,.91-.02.02.03.05.06.09.06.05,0,.08-.03.09-.07.36-.03.68-.08.96-.13-.04.01-.08.05-.08.1,0,.06.05.11.11.11s.11-.05.11-.11c0-.06-.04-.1-.1-.1.23-.04.44-.09.63-.14.35-.08.62-.14.87-.14.33,0,.68.79.98,1.48.06.14.12.28.19.42-.05,0-.09.05-.09.1,0,.06.05.11.11.11.03,0,.05-.01.07-.03.22.47.46.91.77,1.2.27.26.6.52.91.77.7.56,1.42,1.15,1.47,1.63.06.68-.27.87-.59,1.05-.22.13-1.05.44-1.51.61-.63-1.03-1.58-2.32-2.75-3.62,0,0,0,0,.01,0,.06,0,.11-.05.11-.11s-.05-.11-.11-.11-.11.05-.11.11c-.13-.15-.27-.3-.41-.44.05-.01.08-.05.08-.1,0-.06-.05-.11-.11-.11-.05,0-.08.03-.09.07-.13-.14-.27-.27-.41-.41.04-.02.07-.05.07-.09,0-.06-.05-.11-.11-.11-.05,0-.08.03-.09.08-.14-.14-.27-.28-.42-.41.04-.01.08-.05.08-.1,0-.06-.05-.11-.11-.11-.03,0-.06.01-.08.03-.01.01-.02.04-.02.06-.16-.15-.32-.29-.48-.43.01,0,.03.02.04.02.06,0,.11-.05.11-.11s-.05-.11-.11-.11-.11.05-.11.11c0,.02.01.03.02.05-.43-.38-.87-.74-1.33-1.08.09,0,.17,0,.25,0ZM53.15,11.48c-.1-.08-.19-.17-.28-.25,0,0,0,0,0,0,.06,0,.11-.05.11-.11s-.05-.11-.11-.11-.11.05-.11.11c0,0,0,.01,0,.02-.17-.16-.33-.31-.48-.47.01,0,.02.01.04.01.06,0,.11-.05.11-.11s-.05-.11-.11-.11-.11.05-.11.11c0,.01,0,.02.01.03-.15-.16-.29-.32-.43-.47.05,0,.09-.05.09-.1,0-.06-.05-.11-.11-.11-.05,0-.08.03-.09.08-.13-.15-.25-.3-.36-.45.01-.02.02-.03.02-.05,0-.06-.05-.11-.11-.11,0,0-.02,0-.02.01-.98-1.34-1.47-2.64-1.63-3.59.01,0,.02.01.03.01.06,0,.11-.05.11-.11s-.05-.11-.11-.11c-.02,0-.04.01-.06.02-.03-.26-.04-.5-.02-.69,0-.09.02-.16.04-.22.01,0,.02.02.04.02.06,0,.11-.05.11-.11,0-.05-.03-.08-.07-.09,0,0,.01-.02.01-.02,0,0,.02,0,.02,0,.2,0,.84.28,1.27.46.08.04.16.07.23.1-.04.02-.06.05-.06.09,0,.06.05.11.11.11s.11-.05.11-.11c0-.01,0-.02-.01-.03.72.3,1.16.45,1.42.3.1-.06.17-.15.18-.27.01-.11,0-.26-.04-.45.04-.01.08-.05.08-.1,0-.06-.05-.11-.11-.11,0,0,0,0-.01,0-.09-.36-.25-.84-.46-1.44.02-.02.04-.05.04-.08,0-.06-.05-.11-.11-.11,0,0,0,0,0,0-.04-.1-.07-.2-.11-.3-.14-.4-.28-.79-.39-1.12.04-.02.07-.05.07-.09,0-.06-.05-.11-.11-.11,0,0-.01,0-.02,0-.01-.04-.03-.09-.04-.14,0-.02.07-.1.27-.19.07-.03.15-.06.24-.09.01.04.05.08.09.08.06,0,.11-.05.11-.11,0,0,0-.02-.01-.02,1.45-.39,4.68-.48,7.44-.07-.05.01-.08.05-.08.1,0,.06.05.11.11.11s.11-.05.11-.11c0-.04-.02-.07-.06-.09.93.14,1.81.34,2.55.61,0,0,0,0,0,.01,0,.06.05.11.11.11.04,0,.07-.02.08-.05.12.05.23.09.34.14-.06.18-.17.48-.32.87,0-.05-.05-.1-.1-.1-.06,0-.11.05-.11.11s.05.11.11.11c.03,0,.05-.01.07-.03-.17.41-.39.91-.66,1.46-.03.02-.05.05-.05.08,0,0,0,0,0,0-.49.95-1.14,2.04-1.98,3.08-.02.02-.04.04-.05.06,0,0-.02-.01-.03-.01-.06,0-.11.05-.11.11,0,.01.01.03.02.04-.12.14-.25.28-.39.42-.02-.01-.04-.02-.06-.02-.06,0-.11.05-.11.11,0,.02.01.04.02.06-.91.86-2.03,1.59-3.07,2.16,0-.02.02-.03.02-.05,0-.06-.05-.11-.11-.11s-.11.05-.11.11c0,.06.04.1.1.1-.78.42-1.5.75-2.05.97,0-.06-.05-.11-.11-.11s-.11.05-.11.11c0,.03.01.06.03.07-.36.15-.62.24-.73.28ZM62.07,7.44c.05,0,.09-.04.1-.08.83.62,1.55,1.3,1.55,1.69,0,.76-.42,1.42-1.25,1.98-.74.5-2.07.73-2.31.56-.23-.27-.14-2.27-.11-3.12.01-.25.02-.46.02-.63.1-.11.2-.22.3-.34.24-.3.46-.6.67-.9.13.08.26.16.39.25.02.02.04.04.07.05.17.11.34.23.5.35-.03.02-.06.05-.06.09,0,.06.05.11.11.11ZM57.23,18.07c-.27.28-.67.47-1.17.57,0-.01.02-.03.02-.04,0-.06-.05-.11-.11-.11s-.11.05-.11.11c0,.03.01.05.03.07-.29.04-.62.05-.97.03.04-.02.07-.05.07-.09,0-.06-.05-.11-.11-.11s-.11.05-.11.11c0,.04.02.07.06.09-.68-.06-1.2-.25-1.49-.56.02-.02.03-.04.03-.07,0-.06-.05-.11-.11-.11-.02,0-.03.01-.04.02-.03-.05-.06-.11-.09-.16-.2-.51.03-1.19.64-1.86.44-.49.87-1.02,1.29-1.52.61-.74,1.44-1.76,1.69-1.78.14,0,.21.17.27.46-.05.01-.08.05-.08.1,0,.06.05.11.11.11,0,0,0,0,0,0,.01.09.03.19.04.3.01.12.03.24.05.36.07.46.16,1.17.25,1.86.05.38.1.74.14,1.07-.03.02-.06.05-.06.09,0,.05.04.08.08.1,0,0,0,0,0,0,.05.35-.07.71-.34.99ZM53.59,11.85c.99-.37,3.94-1.59,5.97-3.49,0,.03,0,.05,0,.08-.09,2.19-.07,3.28.31,3.55.15.1.36.14.62.14.72,0,1.73-.34,2.26-.69.96-.65,1.47-1.47,1.47-2.39,0-.98-2.15-2.4-2.89-2.86,1.25-1.89,1.92-3.67,2.15-4.36,3.87,2.08,7.28,6.54,8.36,8.67-.02-.01-.03-.02-.05-.02-.06,0-.11.05-.11.11s.05.11.11.11c.06,0,.1-.04.1-.1,0,.02.02.03.03.05,1.05,2.16.75,6.88.38,7.55-.28.5-2,2.25-5.31,1.67-3.17-.55-6.41-2.52-9.15-4.56-.07-.54-.14-1.05-.19-1.41-.02-.12-.03-.23-.05-.35-.08-.66-.18-1.4-.84-1.4-.35,0-.77.41-1.43,1.19-.62-.51-1.2-1-1.71-1.44l-.03-.03M63.84,21.1c-.37.35-.39.33-.5.23-.35-.34-.58-1.52-.68-2.42.16.08.31.15.47.22-.05,0-.1.05-.1.1,0,.06.05.11.11.11s.11-.05.11-.11c0-.02-.01-.04-.03-.06.48.22.96.41,1.44.58,0,0,0,.01,0,.02,0,.06.05.11.11.11.04,0,.07-.03.09-.06.3.1.6.2.9.28-.98.16-1.54.66-1.91,1.01ZM74.56,27.04c-.25.44-.7.31-1.66-.09-.68-.29-1.46-.61-2.18-.45-.41.09-.96.38-1.58.74-.02-.01-.03-.02-.05-.02-.06,0-.11.05-.11.11,0,0,0,0,0,0-.49.3-1.01.63-1.52.97-.3.2-.64.42-.97.63,0-.05-.05-.09-.1-.09-.06,0-.11.05-.11.11,0,.04.02.07.05.09-.67.42-1.29.78-1.46.75-.08-.19.34-1.1.62-1.7.1-.22.21-.44.31-.67.01,0,.03.02.05.02.06,0,.11-.05.11-.11,0-.05-.03-.08-.07-.09.21-.48.4-.97.51-1.42.06,0,.11-.05.11-.11,0-.04-.03-.07-.07-.09,0-.05.02-.1.03-.15.2-1.39.18-2.78-.04-3.99.04-.01.08-.05.08-.09,0-.06-.05-.11-.11-.11,0,0,0,0,0,0-.08-.39-.18-.76-.3-1.1.08.02.15.03.23.05-.02.02-.04.05-.04.08,0,.06.05.11.11.11s.11-.05.11-.11c0-.02-.01-.03-.02-.04.14.03.28.07.43.09.49.09.96.12,1.39.12.45,0,.87-.04,1.26-.12.02.03.05.05.09.05.05,0,.09-.04.1-.09.55-.12,1.03-.31,1.43-.52.02.04.05.07.09.07.06,0,.11-.05.11-.11,0-.02-.01-.04-.03-.06.66-.38,1.1-.82,1.31-1.13.1.71.32,1.73.71,3.27-.03.02-.05.05-.05.09,0,.06.05.1.1.11.25.99.56,1.8.82,2.45.08.22.16.41.23.6-.04.02-.06.05-.06.09,0,.06.05.11.11.11,0,0,.02,0,.02,0,.25.73.34,1.26.04,1.77Z"/><text class="cls-2" transform="translate(0 44.62)"><tspan x="0" y="0">Bacteria test laboratory</tspan></text></g></svg>